<svg width="512" height="512" viewBox="0 0 512 512" fill="none" xmlns="http://www.w3.org/2000/svg">
<rect width="512" height="512" fill="var(--flag-palette-black, #333333)"/>
<path fill-rule="evenodd" clip-rule="evenodd" d="M447.998 256C447.998 362.039 362.037 448 255.998 448C149.959 448 63.998 362.039 63.998 256C63.998 149.961 149.959 64 255.998 64C362.037 64 447.998 149.961 447.998 256ZM431.998 256C431.998 285.272 424.852 312.875 412.209 337.159L394.562 326.97V185.447L412.376 175.162C424.915 199.368 431.998 226.857 431.998 256ZM386.382 340.723L404.182 351C374.201 397.67 322.775 429.251 263.819 431.829V411.484L386.382 340.723ZM247.819 411.278V431.813C188.886 429.118 137.512 397.438 107.619 350.696L125.254 340.515L247.819 411.278ZM79.998 256C79.998 285.143 87.0814 312.632 99.6205 336.839L117.434 326.554V185.026L99.7882 174.838C87.1446 199.123 79.998 226.727 79.998 256ZM248.18 100.514L125.617 171.275L107.815 160.997C137.798 114.328 189.224 82.7477 248.18 80.1705V100.514ZM264.18 100.724V80.1868C323.112 82.8835 374.485 114.563 404.378 161.305L386.743 171.486L264.18 100.724ZM239.998 136V194.016C228.559 196.96 218.358 202.988 210.333 211.159L160.075 182.143L144.075 209.855L194.318 238.863C192.806 244.317 191.998 250.064 191.998 256C191.998 261.935 192.806 267.681 194.318 273.135L144.075 302.143L160.075 329.855L210.332 300.84C218.357 309.012 228.559 315.039 239.998 317.984V376H271.998V317.984C283.438 315.039 293.639 309.012 301.665 300.839L351.922 329.855L367.922 302.143L317.679 273.135C319.19 267.681 319.998 261.935 319.998 256C319.998 250.065 319.19 244.318 317.678 238.864L367.922 209.855L351.922 182.143L301.663 211.159C293.638 202.988 283.437 196.96 271.998 194.016V136H239.998Z" fill="var(--flag-palette-mid-grey-3, #acabb1)"/>
</svg>