<svg width="512" height="512" viewBox="0 0 512 512" fill="none" xmlns="http://www.w3.org/2000/svg">
<path d="M0 425L256 393L512 425V512H0V425Z" fill="var(--flag-palette-violet, #9c27b0)"/>
<path d="M0 340L256 308L512 340V425H0V340Z" fill="var(--flag-palette-blue, #0052b4)"/>
<path d="M0 255L256 223L512 255V340H0V255Z" fill="var(--flag-palette-green, #6da544)"/>
<path d="M0 170L256 138L512 170V255H0V170Z" fill="var(--flag-palette-yellow, #ffda44)"/>
<path d="M0 85L256 53L512 85V170H0V85Z" fill="var(--flag-palette-gold, #ff9811)"/>
<path d="M0 0H512V85H0V0Z" fill="var(--flag-palette-bright-red, #d80027)"/>
<path d="M160 0H80L272 256L80 512H160L416 256L160 0Z" fill="var(--flag-palette-black, #333333)"/>
<path d="M80 0H0L192 256L0 512H80L336 256L80 0Z" fill="var(--flag-palette-brown, #85693d)"/>
<path d="M0 0V80L112 256L0 432V512L256 256L0 0Z" fill="var(--flag-palette-light-blue, #338af3)"/>
<path d="M0 80V160L32 256L0 352V432L176 256L0 80Z" fill="var(--flag-palette-pink, #f5a9b8)"/>
<path d="M0 160V352L96 256L0 160Z" fill="var(--flag-palette-white, #eeeeee)"/>
</svg>