<svg xmlns="http://www.w3.org/2000/svg" width="512" height="512" fill="none"><path fill="var(--flag-palette-blue, #0052b4)" d="M0 0h512v512H0z"/><path fill="var(--flag-palette-white, #eeeeee)" d="M267.1 478.6H245v-44.5h22zm6.8-332.5a112 112 0 0 1 92 92l-25.3-9.8a89 89 0 0 0-57-57l16 41 41 16 25.3 9.8 46 17.9-46 17.9a112 112 0 0 1-92 92l-17.9 46-17.9-46a112 112 0 0 1-92-92l-46-17.9 46-17.9a112 112 0 0 1 92-92l17.9-46zm-44.3 136.3 26.4 68V256l26.4 26.4 68-26.4H256zm-58.2 1.3a89 89 0 0 0 57 57l-16-41zm128.2 16-16 41a89 89 0 0 0 57-57zM78 267H33.4v-22h44.5zm400.7 0h-44.5v-22h44.5zm-317-11.1H256l-26.4-26.4zm94.4 0 26.4-26.4-26.4-68zm-27.7-84.6a89 89 0 0 0-57 57l41-16zm38.8-93.5H245V33.4h22z"/></svg>