<svg xmlns="http://www.w3.org/2000/svg" width="512" height="512" fill="none"><path fill="var(--flag-palette-blue, #0052b4)" d="M0 0h512v512H0z"/><path fill="var(--flag-palette-white, #eeeeee)" fill-rule="evenodd" d="M244.9 33.4H267v44.5h-22zm121 240.5 46-17.9-46-17.9-25.3-9.8-41-16-16-41a89 89 0 0 1 57 57l25.3 9.8a112 112 0 0 0-92-92l-17.9-46-17.9 46a112 112 0 0 0-92 92l-46 17.9 46 17.9a112 112 0 0 0 92 92l17.9 46 17.9-46a112 112 0 0 0 92-92m-83.5-44.3L256 256v-94.4zM256 256v94.4l-26.4-68zm0 0h94.4l-68 26.4zm0 0-26.4-26.4-68 26.4zm-27.7-84.6-16 41-41 16a89 89 0 0 1 57-57m-57 112.3 41 16 16 41a89 89 0 0 1-57-57m112.4 57 16-41 41-16a89 89 0 0 1-57 57M77.9 244.8H33.4V267h44.5zM245 434h22v44.5h-22zm233.7-189.2h-44.5V267h44.5z" clip-rule="evenodd"/></svg>