<svg xmlns="http://www.w3.org/2000/svg" width="512" height="512" fill="none"><g clip-path="url(#a)"><path fill="#333" d="M0 0h512v512H0V0Z"/><path fill="#EEE" d="M368 109c-10-1-18 7-18 17 0 5 2 11 6 14l-17 17 17 16 16-17c4 4 9 6 14 6 10 0 18-8 17-18 1-10-7-18-17-18 0-10-8-18-18-17Zm-16 226-17 16 21 21c-4 4-6 9-6 14 0 10 8 18 18 17 10 1 18-7 18-17 10 0 18-8 17-18 1-10-7-18-17-18-5 0-10 2-14 6l-20-21Zm-96-185c-59 0-106 48-106 106v41a212.4 212.4 0 0 0 65 65h82s8-14 29-36c22-21 36-29 36-29v-41c0-58-47-106-106-106Z"/><path fill="#333" d="M206 303a35.3 35.3 0 1 0 0-70.6 35.3 35.3 0 0 0 0 70.6Zm100 0a35.3 35.3 0 1 0 0-70.6 35.3 35.3 0 0 0 0 70.6Z"/><path fill="#EEE" d="M144 109c10-1 18 7 18 17 0 5-2 11-6 14l17 17-17 16-16-17c-4 4-9 6-14 6-10 0-18-8-17-18-1-10 7-18 17-18 0-10 8-18 18-17Zm16 226 17 16-21 21c4 4 6 9 6 14 0 10-8 18-18 17-10 1-18-7-18-17-10 0-18-8-17-18-1-10 7-18 17-18 5 0 10 2 14 6l20-21Z"/><path fill="#333" d="M256 293a8 8 0 0 0-7 4l-13 20a8 8 0 0 0 7 12h26a8 8 0 0 0 7-12l-13-20a8 8 0 0 0-7-4Z"/></g><defs><clipPath id="a"><path fill="#fff" d="M0 0h512v512H0z"/></clipPath></defs></svg>