<svg xmlns="http://www.w3.org/2000/svg" width="512" height="512" fill="none"><path fill="var(--flag-palette-black, #333333)" d="M0 0h512v512H0z"/><path fill="var(--flag-palette-white, #eeeeee)" d="m177 351-21 21c4 4 6 9 6 14 0 10-8 18-18 17-10 1-18-7-18-17-10 0-18-8-17-18-1-10 7-18 17-18 5 0 10 2 14 6l20-21zm195 5c4-4 9-6 14-6 10 0 18 8 17 18 1 10-7 18-17 18 0 10-8 18-18 17-10 1-18-7-18-17 0-5 2-10 6-14l-21-21 17-16zM256 150c59 0 106 48 106 106v41s-14 8-36 29c-21 22-29 36-29 36h-82s-8-14-29-36c-22-21-35.9-29-36-29v-41c0-58 47-106 106-106m0 143a8 8 0 0 0-7 4l-13 20a8 8 0 0 0 7 12h26a8 8 0 0 0 7-12l-13-20a8 8 0 0 0-7-4m-50-60.6a35.3 35.3 0 1 0 0 70.6 35.3 35.3 0 0 0 0-70.6m100 0a35.3 35.3 0 1 0 0 70.6 35.3 35.3 0 0 0 0-70.6M144 109c10-1 18 7 18 17 0 5-2 11-6 14l17 17-17 16-16-17c-4 4-9 6-14 6-10 0-18-8-17-18-1-10 7-18 17-18 0-10 8-18 18-17m224 0c10-1 18 7 18 17 10 0 18 8 17 18 1 10-7 18-17 18-5 0-10-2-14-6l-16 17-17-16 17-17c-4-3-6-9-6-14 0-10 8-18 18-17"/></svg>