<svg xmlns="http://www.w3.org/2000/svg" width="512" height="512" fill="none"><path fill="var(--flag-palette-light-blue, #338af3)" d="M0 0h512v512H0z"/><path fill="var(--flag-palette-white, #eeeeee)" d="M176.6 158.8a111.3 111.3 0 1 0 158.1.8l23.6-23.6a144.8 144.8 0 0 1-62.2 240.4 37 37 0 0 1-3.7 40.8L256 388l-36.4 29.2a37 37 0 0 1-3.8-40.4 144.8 144.8 0 0 1-62.9-241.6zm78.7-10.3a89 89 0 1 1 0 178 89 89 0 0 1 0-178M217 292.3a66 66 0 0 0 27.9 11.2v-22.7q-6.3-1.6-11.8-4.6zm61.3-16.7a44 44 0 0 1-11.2 4.8v22.9q15.1-3 27.3-11.6zm-88.9-27a66 66 0 0 0 11.7 28l16-16q-3.3-5.6-5-12zm109 0q-1.6 6-4.5 11l16 16.2q8.6-12.1 11.2-27.1zm-43.1-33.3a22.3 22.3 0 1 0 0 44.5 22.3 22.3 0 0 0 0-44.5M201 198.4a66 66 0 0 0-11.7 28H212q1.8-6.5 5-12zm92.8 17q3 5.1 4.5 11H321a66 66 0 0 0-11.1-27.1zM267 194.6q6 1.7 11.2 4.9l16-16q-12-8.9-27.2-11.7zm-22.2-23a66 66 0 0 0-27.9 11.2l16.1 16.1q5.4-3.1 11.8-4.7z"/></svg>