<svg xmlns="http://www.w3.org/2000/svg" width="512" height="512" fill="none"><path fill="#338AF3" d="M0 0h512v512H0z"/><path fill="#EEE" d="M255.3 148.5a89 89 0 1 0 0 178 89 89 0 0 0 0-178Zm-22.3 89a22.3 22.3 0 1 1 44.5 0 22.3 22.3 0 0 1-44.5 0Zm45.3-38a44.3 44.3 0 0 0-11.2-4.9v-22.8c10 1.8 19.3 5.9 27.3 11.6l-16 16Zm-33.4-5.3c-4.2 1-8.2 2.6-11.8 4.7l-16-16a66.4 66.4 0 0 1 27.8-11.3v22.6Zm-11.8 82c3.6 2 7.6 3.6 11.8 4.6v22.7a66.4 66.4 0 0 1-27.9-11.2l16.1-16.1Zm34 4.2c4-1 7.8-2.7 11.2-4.8l16 16a65 65 0 0 1-27.2 11.6v-22.8Zm26.8-20.7c2-3.4 3.5-7.1 4.5-11H321a66.4 66.4 0 0 1-11.1 27l-16.1-16Zm4.5-33.3c-1-3.9-2.6-7.6-4.5-11l16-16.1a65 65 0 0 1 11.2 27.1h-22.7Zm-97.3-28 16 16a49 49 0 0 0-5 12h-22.7a66.4 66.4 0 0 1 11.7-28Zm-11.7 50.3h22.7c1.1 4.2 2.8 8.2 5 12l-16 16a66.4 66.4 0 0 1-11.7-28Z"/><path fill="#EEE" d="M400 237.5c0-39.5-16-75.4-41.7-101.5l-23.6 23.6a111.3 111.3 0 1 1-158.1-.8l-23.7-23.6a144.8 144.8 0 0 0 62.8 241.5 37 37 0 0 0 4 40.5L256 388l36.4 29.2a37 37 0 0 0 3.7-40.8A144.8 144.8 0 0 0 400 237.5Z"/></svg>