<svg xmlns="http://www.w3.org/2000/svg" width="512" height="512" fill="none"><path fill="#FFDA44" d="M512 376H0V136h512z"/><path fill="#6DA544" d="M512 168H0V0h512z"/><path fill="#D80027" d="M512 512H0V344h512z"/><path fill="#0052B4" d="M328 157a122.4 122.4 0 1 0-144 198 122.4 122.4 0 0 0 144-198"/><path fill="#FFDA44" d="M260.4 343.8h-8.8v-32.3h8.8zm-32.9-86.4 7.5 5.4 13.5 9.8-7.4 5.5-9-6.5-10 31.2-4.7 14.2-12 8.7 19.3-59.5-26.5-19.3h15zm44.9 19.6-9 6.5 26.6 19.3 12 8.7 4.7 14.2L256 289l-26.5 19.3 4.6-14.2 14.4-10.5 7.5-5.4 13.5-9.9zm15-10.8 10 31.1-12-8.8-5.6-16.9-2.8-8.8-5.2-15.9h9.3l3.4 10.5 26.5-19.3 12-8.7h15zm-82.8 11.1-30.8 10-2.7-8.3 30.8-10zm136.3 1.7-2.7 8.3-30.8-10 2.7-8.3zm-89.5-66.6-5.5 17-2.9 8.7-5.1 16-7.5-5.5 3.4-10.5h-47.7l-12-8.7h62.5l10.2-31.2zm24 17H308l-12 8.7h-43.9l3-8.7h11L256 198.2l-4.6-14.2 4.6-14.2zm-48.5-20.9-7 5.2-19-26.2 7-5.1zm84.3-21-19 26.2-7.1-5.2 19-26.1z"/></svg>