<svg xmlns="http://www.w3.org/2000/svg" width="512" height="512" fill="none"><path fill="#FFDA44" d="M0 0h512v512H0z"/><path fill="#A2001D" d="M0 512v-96h512v96zm0-116.6v12.4h241.5L229 395.4zm283 0-12.5 12.4H512v-12.4z"/><path fill="#A2001D" d="M329.5 143.9v23.5l-67.3 67.2v188h-12.4v-188l-67.3-67.2v-23.5l35.3-35.3 29.4 29.4v23.5l-20.6 20.6-23.5-23.5 14.7-14.7 8.8 8.8-5.9 5.9 6 5.8 11.7-11.7-20.6-20.6-26.4 26.5 64.6 64.6 64.6-64.6-26.4-26.5-20.6 20.6 11.8 11.8 5.9-6-6-5.8 8.9-8.8 14.7 14.7-23.5 23.5-20.6-20.6V138l29.4-29.4zm-88 123.5v140.4H229V272.6L197.2 241l-20.5 20.5 11.7 11.8 5.9-5.9-5.9-5.9 8.8-8.8 14.7 14.7-26.4 26.4-17.7-17.6v-23.5l29.4-29.4zm102.7-14.8v23.5l-17.7 17.6-26.4-26.4 14.7-14.7 8.8 8.8-5.9 5.9 5.9 5.9 11.7-11.8-20.5-20.5-31.8 31.7v135.2h-12.5V267.4l44.3-44.2zm-102.7-14.5v17.6L167.8 182l-26.4 26.4L162 229l11.7-11.8-5.9-5.8-5.8 5.8-8.8-8.8 14.6-14.7 23.6 23.5-20.6 20.6h-23.5l-29.4-29.4 35.3-35.2h23.5zM394 208.5 364.7 238h-23.5l-20.6-20.6 23.6-23.5 14.6 14.7-8.8 8.8-5.8-5.8-6 5.8 11.8 11.8 20.6-20.6-26.4-26.4-73.7 73.6V238l64.8-64.8h23.5zM159 102.7h23.4L159 126.2l23.5 23.6H159v23.5l-23.5-23.6-23.5 23.6v-23.6H88.5l23.5-23.5-23.5-23.5H112V79.2l23.5 23.5L159 79.2zm240.9 0h23.5L400 126.2l23.5 23.6H400v23.5l-23.5-23.6-23.5 23.6v-23.6h-23.5l23.5-23.5-23.5-23.5H353V79.2l23.5 23.5L400 79.2zm-264.5 11.8-15.2-15.2V111h-11.7l15.2 15.2-15.2 15.2h11.7v11.8l15.2-15.2 15.2 15.2v-11.8h11.8l-15.2-15.2 15.2-15.2h-11.8V99.3zm225.8-3.5h-11.8l15.2 15.2-15.2 15.2h11.8v11.8l15.2-15.2 15.2 15.2v-11.8h11.7l-15.2-15.2 15.2-15.2h-11.7V99.3l-15.2 15.2-15.2-15.2zm-81.8-58.3H303l-23.5 23.5L303 99.7h-23.5v23.6L256 99.7l-23.5 23.6V99.7H209l23.5-23.5L209 52.7h23.5V29.2L256 52.7l23.5-23.5zM256 64.5l-15.2-15.2V61H229l15.2 15.2-15.1 15.2h11.7v11.8L256 88l15.2 15.2V91.4h11.7l-15.1-15.2L282.9 61h-11.7V49.3z"/></svg>