<svg xmlns="http://www.w3.org/2000/svg" width="512" height="512" fill="none"><path fill="#EEE" d="M512 128v256H0V128z"/><path fill="#496E2D" d="M512 368v144H0V368z"/><path fill="#FF9811" d="M512 0v144H0V0z"/><path fill="#026" fill-rule="evenodd" d="m250.5 284 4.5 44.4q-5.2 0-10-.8a8 8 0 0 0-15.5-4.1 72 72 0 0 1-9-4.3l26.1-36.3v-4.3q3 1.2 6 1.6zm8.5-3.8 2 3.7-4.4 44.5q5 0 10-.8a8 8 0 0 1 15.4-4.1q4.8-1.8 9.1-4.3L265 282.9l-.1-4.3q-2.8 1.2-5.9 1.6m11.5-4.8 3.6 2.2 18.4 40.8q4.3-2.6 8.2-5.7a8 8 0 0 1 11.3-11.3q3.1-4 5.7-8.3L277 274.7l-2.2-3.6q-2 2.4-4.3 4.3m7.5-9.9 4.2.1 36.3 26.1q2.5-4.3 4.4-9a8 8 0 0 1 4-15.5q.8-4.9.9-10l-44.5 4.5-3.7-2q-.4 3-1.6 5.8m1.6-12.3 3.7-2 44.5 4.4q0-5-.8-10a8 8 0 0 1-4.1-15.4 72 72 0 0 0-4.4-9l-36.3 26-4.2.1q1.2 2.8 1.6 6m-4.8-11.5 2.2-3.6 40.7-18.4a72 72 0 0 0-5.7-8.2 8 8 0 0 1-11.3-11.3 72 72 0 0 0-8.2-5.7L274 235.3l-3.6 2.1q2.4 2 4.3 4.3m-10-7.5.2-4.2 26-36.3q-4.2-2.5-9-4.3a8 8 0 0 1-15.4-4.2q-5-.7-10-.8L261 229l-2.1 3.7q3 .4 5.9 1.6m-12.2-1.6-2-3.7 4.4-44.5q-5.2 0-10 .8a8 8 0 0 1-15.5 4.2 72 72 0 0 0-9 4.3l26.1 36.3v4.2q3-1.1 6-1.6m-11.5 4.8-3.6-2.1-18.4-40.8a72 72 0 0 0-8.3 5.7 8 8 0 0 1-11.3 11.3q-3 3.9-5.7 8.2l40.8 18.4 2.2 3.6q1.9-2.4 4.3-4.3m-7.5 10-4.2-.2-36.4-26q-2.4 4.2-4.3 9a8 8 0 0 1-4.1 15.4q-.8 5-.8 10l44.5-4.4 3.7 2q.4-3 1.6-5.9m-1.6 12.2-3.7 2-44.5-4.4q0 5.1.8 10a8 8 0 0 1 4.1 15.5q1.8 4.7 4.3 9l36.3-26.1h4.3q-1.2-3-1.6-6m4.8 11.5-2.2 3.6-40.8 18.4q2.6 4.4 5.7 8.3a8 8 0 0 1 11.3 11.3q4 3 8.3 5.7l18.4-40.8 3.6-2.2q-2.4-1.8-4.3-4.3m19 73.3a88 88 0 1 0 0-176 88 88 0 0 0 0 176" clip-rule="evenodd"/><path fill="#EEE" d="M512 0v512H16l176-176v-16l32-32h64v-64z"/><path fill="#0052B4" d="M320 368v144h144zM48 512l144-144v144zm320-192 144 144V320zm144-128V48L368 192z"/><path fill="#D80027" d="m288 224-64 64v224h64V288h224v-64z"/><path fill="#D80027" d="M512 480 352 320h-32l192 192zM32 512l160-160v-32L0 512z"/></svg>