<svg xmlns="http://www.w3.org/2000/svg" width="512" height="512" fill="none"><path fill="#EEE" d="M136 512V0h240v512z"/><path fill="#FF9811" d="M344 512V0h168v512z"/><path fill="#6DA544" d="M0 512V0h168v512z"/><path fill="#EEE" d="M512 0v512H16l176-176v-16l32-32h64v-64z"/><path fill="#0052B4" d="M320 368v144h144zM48 512l144-144v144zm320-192 144 144V320zm144-128V48L368 192z"/><path fill="#D80027" d="m288 224-64 64v224h64V288h224v-64z"/><path fill="#D80027" d="M512 480 352 320h-32l192 192zM32 512l160-160v-32L0 512z"/></svg>