<svg xmlns="http://www.w3.org/2000/svg" width="512" height="512" fill="none"><g clip-path="url(#a)"><path fill="#EEE" d="M0 0h512v512H0z"/><path fill="#D80027" d="M0 335.3h512V512H0z"/><path fill="#496E2D" d="M0 0h512v176.7H0z"/><path fill="#D80027" d="M271.8 201h-32v16h32zm-43.9 87a58 58 0 0 1-15.5-44 37 37 0 0 0-8.4 34.5l-15.5 4.1a53 53 0 0 1 34.3-64l9.7 11.2a42 42 0 0 0 15.3 54V221h16v63.1a42 42 0 0 0 15.7-54.3l9.7-11.1a53 53 0 0 1 34.3 64l-15.5-4.2a37 37 0 0 0-8.4-34.5 58 58 0 0 1-15.5 44q5.4-2 10.2-5.2l9.2 13a58 58 0 0 1-39.7 10.2v5h-16v-5a59 59 0 0 1-39.3-10.1l9.2-13.1a42 42 0 0 0 10.2 5.2"/><path fill="#EEE" d="M183.7 431.3h48v-16h-32v-16h48v48h-80v-32h-48v32h-16v-48h80zm-32 16h-16v-16h16zm192-16h16v-64h16v64h16v-64h16v80h-80v-32h-48v16h32v16h-48v-48h64v-32h16zm-32-48h-208v-16h208zm-64-32h-144v-32h144zm160 0h-144v-32h144zm-544 80h48v-16h-32v-16h48v48h-80v-32h-48v32h-16v-48h80zm-32 16h-16v-16h16zm192-16h16v-64h16v64h16v-64h16v80h-80v-32h-48v16h32v16h-48v-48h64v-32h16zm-32-48h-208v-16h208zm-64-32h-144v-32h144zm160 0h-144v-32h144zm416 80h48v-16h-32v-16h48v48h-80v-32h-48v32h-16v-48h80zm-32 16h-16v-16h16zm192-16h16v-64h16v64h16v-64h16v80h-80v-32h-48v16h32v16h-48v-48h64v-32h16zm-32-48h-208v-16h208zm-64-32h-144v-32h144zm160 0h-144v-32h144zM247.6 192.7h-144v-32h144zm160 0h-144v-32h144zm-224-64h48v-16h-32v-16h48v48h-80v-32h-48v32h-16v-48h80zm-32 16h-16v-16h16zm192-16h16v-64h16v64h16v-64h16v80h-80v-32h-48v16h32v16h-48v-48h64v-32h16zm-32-48h-208v-16h208zm-384 112h-144v-32h144zm160 0h-144v-32h144zm-224-64h48v-16h-32v-16h48v48h-80v-32h-48v32h-16v-48h80zm-32 16h-16v-16h16zm192-16h16v-64h16v64h16v-64h16v80h-80v-32h-48v16h32v16h-48v-48h64v-32h16zm-32-48h-208v-16h208zm576 112h-144v-32h144zm160 0h-144v-32h144zm-224-64h48v-16h-32v-16h48v48h-80v-32h-48v32h-16v-48h80zm-32 16h-16v-16h16zm192-16h16v-64h16v64h16v-64h16v80h-80v-32h-48v16h32v16h-48v-48h64v-32h16zm-32-48h-208v-16h208z"/></g><defs><clipPath id="a"><path fill="#fff" d="M0 0h512v512H0z"/></clipPath></defs></svg>