<svg xmlns="http://www.w3.org/2000/svg" width="512" height="512" fill="none"><path fill="#0052B4" d="M0 0h512v512H0z"/><path fill="#EEE" d="M0 334V200.4L311.6 512H178.1zm445.1 178L0 66.9V0h66.7L512 445.3V512zM512 178.1v133.7L200.2 0H334z"/><path fill="#D80027" d="M174.5 403.5a22 22 0 0 1 15.7 37.6 2.5 2.5 0 0 0 0 3.5 2.5 2.5 0 0 0 3.4 0 22 22 0 1 1 30.4 32 46.6 46.6 0 0 1-65-66.6 22 22 0 0 1 15.6-6.5m195.7-73a22 22 0 0 1 15.6 37.6 2.5 2.5 0 0 0 0 3.4 2.5 2.5 0 0 0 3.4 0 22 22 0 1 1 30.4 32 46.6 46.6 0 0 1-65-66.6 22 22 0 0 1 15.6-6.5M51.9 280.8a22 22 0 0 1 15 38.3 3 3 0 0 0 .6 2.7 2.5 2.5 0 0 0 3.5 0 22 22 0 1 1 30.4 32 46.6 46.6 0 1 1-65.2-66.6A22 22 0 0 1 52 281m195.6-73.1a22 22 0 0 1 15.6 37.6 2.5 2.5 0 0 0 0 3.5 2.4 2.4 0 0 0 3.5 0 22 22 0 1 1 30.4 32 46.6 46.6 0 0 1-65.1-66.6 22 22 0 0 1 15.6-6.5m194.3-71.5a22 22 0 0 1 15.6 37.5 2.5 2.5 0 0 0 0 3.6 2.5 2.5 0 0 0 3.5 0 22 22 0 1 1 30.4 32 46.6 46.6 0 1 1-65.1-66.6 22 22 0 0 1 15.6-6.5M124.8 85a22 22 0 0 1 15.7 37.7 2.5 2.5 0 0 0 0 3.4 2.5 2.5 0 0 0 3.4 0 22 22 0 1 1 30.4 32 46.6 46.6 0 0 1-65-66.6 22 22 0 0 1 15.6-6.5m194.4-71.5a22 22 0 0 1 15.6 37.6 2.5 2.5 0 0 0 0 3.4 2.5 2.5 0 0 0 3.4 0 22 22 0 1 1 30.4 32.1 46.6 46.6 0 0 1-65-66.6 22 22 0 0 1 15.6-6.5"/></svg>