<svg xmlns="http://www.w3.org/2000/svg" width="512" height="512" fill="none"><path fill="#FF9811" d="M0 0h224l32 88-32 88-96 32L0 176z"/><path fill="#EEE" d="m0 224 256-32 256 32v48l-32 24 32 24v48l-32 24 32 24v48l-256 32L0 464v-48l32-24-32-24v-48l32-24-32-24z"/><path fill="#496E2D" d="M224 0v176H0v48h512V0zM0 272v48h512v-48zm0 96v48h512v-48zm0 96v48h512v-48z"/><path fill="#EEE" d="M331 33.5a73.7 73.7 0 1 0 98 110.1 80.5 80.5 0 1 1-97.8-110M398.5 64l18.5-8-10.4 17L420 88l-19.7-4.7L390 100l-1.6-19.6L370 76l17.5-7.4L386 50z"/></svg>