<svg xmlns="http://www.w3.org/2000/svg" width="512" height="512" fill="none"><path fill="#FFDA44" d="M0 0h512v512H0z"/><path fill="#D80027" d="M309.3 184.7q10.3 7.6 17.8 17.7L512 63.1v156l-167.9 24.2a90 90 0 0 1 0 25L512 292v155.5L327.3 309.3q-7.6 10.3-17.7 17.8L448.9 512H293l-24.2-167.9a90 90 0 0 1-25 0L220 512H64.5l138.2-184.7q-10.2-7.6-17.8-17.7L0 448.9V293l167.9-24.2a90 90 0 0 1 0-25L0 220V64.5l184.7 138.2q7.6-10.2 17.7-17.8L63.1 0h156l24.2 167.9a90 90 0 0 1 25 0L292 0h155.5zm-53.3 4.5a66.8 66.8 0 1 0 0 133.6 66.8 66.8 0 0 0 0-133.6"/></svg>