<svg xmlns="http://www.w3.org/2000/svg" width="512" height="512" fill="none"><path fill="#D80027" d="M448 288H240l240 224H0V0z"/><path fill="#0052B4" fill-rule="evenodd" d="M448 288 0 0v512h480L240 288zm-39 196L169 260h183.7L28 51.3V484z" clip-rule="evenodd"/><path fill="#EEE" d="m211.5 378-31.3-14.7L197 333l-34 6.5-4.3-34.3-23.6 25.2-23.7-25.2-4.3 34.3-34-6.5 16.7 30.3L58.4 378l31.3 14.7L73.1 423l34-6.5 4.2 34.3 23.7-25.2 23.6 25.2 4.3-34.3 34 6.5-16.7-30.3zm-59.1-206.8 21.1-4-10.4 18.8 19.5 9.2-3.3.6 12.8.1a57.2 57.2 0 0 1-114.3-.7h9.8-.3l19.5-9.2-10.4-18.8 21.2 4 2.6-21.3 14.8 15.7 14.7-15.7z"/></svg>