<svg xmlns="http://www.w3.org/2000/svg" width="512" height="512" fill="none"><path fill="#EEE" d="M128 512V0h256v512z"/><path fill="#496E2D" d="M0 512V0h144v512z"/><path fill="#D80027" d="M368 512V0h144v512z"/><path fill="#FFC635" d="M256 277v10h12l10-22z"/><path fill="#496E2D" d="M171 242a85 85 0 1 0 170 0h11a96 96 0 0 1-192 0zm32 19c15 13 34 21 53 21a78 78 0 0 0 53-21c2-2 6-2 8 0s2 6-1 8a92 92 0 0 1-54 24v17h-12v-17c-20-2-39-10-54-24-3-2-3-6-1-8l4-2z"/><path fill="#338AF3" d="M297 303c-12 8-26 13-41 13-14 0-28-5-40-13l6-9c20 13 48 13 68 0z"/><path fill="#584528" d="M263 174c19 0 70 8 61 91-11-5-19-15-23-26l-28-16 5 21 35 21-23 11-11-11v11l-18-18-29 7 13-23-4-8c-5-9-3-19 4-26 0-6-5-11-11-11v-11c13 0 26 7 31 18l2 4c1-1 11-23-11-34z"/><path fill="#6DA544" d="M218 195c-2 0-2 2-2 4 0 0 1 2 3 2 7 0 14 4 16 9 1 3 2 9-5 15-7 7-11 12-9 15l5 1c5 2 14 5 13 17-1 8-8 13-17 13-15 0-33-12-38-40l11-2c4 23 18 31 27 31q4.5 0 6-3c0-2 0-3-6-5-3-1-7-2-10-5-10-12 4-24 11-30 1-1 2-2 1-3 0 0-2-2-5-2-7 0-12-4-14-11-2-6 2-13 8-17z"/><path fill="#FFC635" d="M216 315a8 8 0 1 1 0 16 8 8 0 0 1 0-16m81 0a8 8 0 1 1 0 16 8 8 0 0 1 0-16m-108-21a8 8 0 1 1 0 16 8 8 0 0 1 0-16m135 0a8 8 0 1 1 0 16 8 8 0 0 1 0-16m-152-27a8 8 0 1 1 0 16 8 8 0 0 1 0-16m169 0a8 8 0 1 1 0 16 8 8 0 0 1 0-16m-100-75c2 2 2 6-1 7l-18 9v-11l12-11z"/><path fill="#FF9811" d="M262 299a11 11 0 0 1 0 22h-12a11 11 0 0 1 0-22z"/></svg>