<svg xmlns="http://www.w3.org/2000/svg" width="512" height="512" fill="none"><path fill="#D80027" d="M0 0h512v512H0z"/><path fill="#FFDA44" d="m301.1 353.2 26 6.9-25.1 9.6 1.5 26.8-16.9-20.8-25 9.7 14.5-22.5-16.9-20.9 25.9 6.9 14.6-22.5zm65.5-59.4 26.8-.3-21.5 16 8.6 25.4-21.9-15.5-21.5 16.1 8-25.6-21.9-15.5 26.8-.4 7.9-25.6zm-204.4-70h71.5l-57.8 42.1 22.1 68-57.9-42-57.9 42 22.2-68-57.9-42.1H118l22.1-68zm196.5-23.4 23.7-12.5-11.8 24.1 19.2 18.7-26.5-3.8-11.8 24-4.6-26.4-26.6-3.8 23.8-12.5-4.6-26.5zm-56.5-58.8 24.9 10.1-26.1 6.4-1.9 26.8-14.1-22.8-26.1 6.4 17.3-20.5-14.2-22.7 24.9 10.1 17.3-20.5z"/></svg>