<svg xmlns="http://www.w3.org/2000/svg" width="512" height="512" fill="none"><g clip-path="url(#a)"><path fill="#0052B4" d="M0 204.9h512V512H0z"/><path fill="#D80027" d="M0 0h512v256H0z"/><path fill="#6DA544" fill-rule="evenodd" d="M267.9 222.6 45.3 0H0v512h45.3l222.6-222.6H512v-66.8z" clip-rule="evenodd"/><path fill="#EEE" fill-rule="evenodd" d="m58.5-32 222.6 222.6H544v130.8H281.1L58.5 544H-32V-32zm210.8 320H512v-64H269.3L45.3 0H0v512h45.3z" clip-rule="evenodd"/><path fill="#333" d="M211.2 256 0 467.2V44.8z"/><path fill="#FFDA44" d="M211.2 256 0 467.2v-45.3L166 256 0 90V44.9z"/></g><defs><clipPath id="a"><path fill="#fff" d="M0 0h512v512H0z"/></clipPath></defs></svg>