<svg xmlns="http://www.w3.org/2000/svg" width="512" height="512" fill="none"><path fill="#0052B4" d="M0 0h512v512H0z"/><g clip-path="url(#a)"><path fill="#0052B4" d="M-256-256h512v512h-512z"/><path fill="#EEE" d="M208 256h48v-48L48 0l208-208v-48h-48L0-48l-208-208h-48v48L-48 0l-208 208v48h48L0 48l208 208Z"/><path fill="#EEE" d="M256 64V-64H64v-192H-64v192h-192V64h192v192H64V64h192Z"/><path fill="#D80027" d="M256 32v-64H32v-224h-64v224h-224v64h224v224h64V32h224Z"/><path fill="#D80027" d="M256 224v32L64 64h32l160 160Z"/></g><path fill="#F3F3F3" d="M449.6 315.7a62.4 62.4 0 0 0 12.3-37.4V166.9a55.4 55.4 0 0 1-77.9-11 55.6 55.6 0 0 1-78 11v111.4c0 15 5 27.3 12.4 37.4h131.2Z"/><path fill="#FF9811" d="M426.5 257.6a91 91 0 0 0 6.3-27.6c0-10-13.2-18.3-13.2-18.3s-13.2 8.2-13.2 18.3a91 91 0 0 0 6.3 27.6l-7.6 17.2a38.3 38.3 0 0 0 29 0l-7.6-17.2ZM375 202a91 91 0 0 0-27 8.3c-8.8 5-9.3 20.6-9.3 20.6s13.7 7.3 22.4 2.3c5.5-3.2 15-11.9 20.8-19.3l18.6-2a38.4 38.4 0 0 0-14.4-25L375 202Zm-22.4 72.4a91 91 0 0 0 20.7 19.2c8.8 5.1 22.5-2.2 22.5-2.2s-.6-15.5-9.3-20.6a91 91 0 0 0-27-8.3l-11.1-15.2a38.4 38.4 0 0 0-14.5 25.1l18.7 2Z"/><path fill="#338AF3" d="M315.6 311.7c20.8 33.3 68.4 44.5 68.4 44.5s47.6-11.2 68.4-44.5H315.6Z"/><defs><clipPath id="a"><path fill="#fff" d="M0 0h512v512H0z"/></clipPath></defs></svg>