<svg xmlns="http://www.w3.org/2000/svg" width="512" height="512" fill="none"><g clip-path="url(#a)"><path fill="#EEE" d="M0 0h512v512H0z"/><path fill="#D80027" d="M171 0h170v512H171V0Z"/><path fill="#0052B4" d="M512 171v170H0V171h512Z"/><path fill="#EEE" d="m256 181 8.3 25.5H291l-21.7 15.8 8.3 25.5L256 232l-21.7 15.8 8.3-25.5-21.7-15.8h26.8L256 181Zm47 76.2 8.2 25.5H338l-21.7 15.7 8.3 25.6-21.7-15.8-21.7 15.8 8.3-25.6-21.7-15.7h26.8l8.3-25.5Zm-94 0 8.4 25.5h26.8l-21.7 15.7 8.3 25.6-21.7-15.8-21.7 15.8 8.3-25.6-21.7-15.7h26.8l8.3-25.5ZM135.3 219l8.3 25.6h26.8l-21.7 15.8 8.3 25.5-21.7-15.8-21.7 15.8 8.3-25.5-21.7-15.8H127l8.3-25.5Zm241.4 0 8.3 25.6h26.8l-21.7 15.8 8.3 25.5-21.7-15.8-21.7 15.8 8.3-25.5-21.7-15.8h26.8l8.3-25.5Z"/></g><defs><clipPath id="a"><path fill="#fff" d="M0 0h512v512H0z"/></clipPath></defs></svg>