<svg width="512" height="512" viewBox="0 0 512 512" fill="none" xmlns="http://www.w3.org/2000/svg">
<rect x="512" y="512" width="512" height="512" transform="rotate(-180 512 512)" fill="var(--flag-palette-blue, #0052b4)"/>
<path fill-rule="evenodd" clip-rule="evenodd" d="M512 512L512 0L2.23802e-05 256L512 512Z" fill="var(--flag-palette-white, #eeeeee)"/>
<path fill-rule="evenodd" clip-rule="evenodd" d="M512 512L2.23802e-05 256L512 0L512 28.6216L57.2434 256L512 483.378L512 512Z" fill="var(--flag-palette-bright-red, #d80027)"/>
<path d="M445.217 246.453H414.723C422.652 236.933 422.163 222.77 413.23 213.839C422.692 204.378 422.692 189.037 413.23 179.574L412.66 180.146C422.121 170.685 422.692 154.772 413.23 145.311L276.174 282.367C285.636 291.83 300.708 291.717 310.169 282.255L312.807 279.844L378.435 273.878V302.104H400.696V271.854L434.087 268.819L445.217 246.453Z" fill="var(--flag-palette-dark-red, #a2001d)"/>
<path d="M278.269 311.652L256 300.522L278.269 289.391H422.964V311.652H278.269Z" fill="var(--flag-palette-dark-yellow, #ffc635)"/>
</svg>