<svg xmlns="http://www.w3.org/2000/svg" width="512" height="512" fill="none"><path fill="#0052B4" d="M512 512H0V0h512z"/><mask id="a" width="512" height="512" x="0" y="0" maskUnits="userSpaceOnUse" style="mask-type:alpha"><path fill="#6DA544" d="M512 512H0V0h512z"/></mask><g mask="url(#a)"><path fill="#EEE" d="M1024-256 0 256l1024 512V-256Z"/><path fill="#D80027" fill-rule="evenodd" d="m0 256 1024 512V-256L0 256Zm57.2 0 941.2 470.6v-941.2L57.2 256Z" clip-rule="evenodd"/></g><path fill="#A2001D" d="M445.2 246.5h-30.5c8-9.6 7.5-23.7-1.5-32.7a24.2 24.2 0 0 0 0-34.2l-.5.5a25 25 0 0 0 .5-34.8l-137 137a23.9 23.9 0 0 0 34 0l2.6-2.5 65.6-6v28.3h22.3v-30.2l33.4-3 11.1-22.4Z"/><path fill="#FFC635" d="M278.3 311.7 256 300.5l22.3-11.1H423v22.3H278.3Z"/></svg>