<svg xmlns="http://www.w3.org/2000/svg" width="512" height="512" fill="none"><path fill="#0052B4" d="M0 0h512v512H0z"/><g clip-path="url(#a)"><path fill="#0052B4" d="M-256-256h512v512h-512z"/><path fill="#EEE" d="M208 256h48v-48L48 0l208-208v-48h-48L0-48l-208-208h-48v48L-48 0l-208 208v48h48L0 48l208 208Z"/><path fill="#EEE" d="M256 64V-64H64v-192H-64v192h-192V64h192v192H64V64h192Z"/><path fill="#D80027" d="M256 32v-64H32v-224h-64v224h-224v64h224v224h64V32h224Z"/><path fill="#D80027" d="M256 224v32L64 64h32l160 160Z"/></g><path fill="#EEE" d="M400 185h-40a74 74 0 0 0-51 51v40a74 74 0 0 0 51 51h40a74 74 0 0 0 51-51v-40a74 74 0 0 0-51-51Z"/><path fill="#D80027" d="M380 182a74 74 0 0 0-20 3v51h-51a74 74 0 0 0-3 20 74 74 0 0 0 3 20h51v51a74 74 0 0 0 20 3 74 74 0 0 0 20-3v-51h51a74 74 0 0 0 3-20 74 74 0 0 0-3-20h-51v-51a74 74 0 0 0-20-3Z"/><path fill="#FFDA44" d="m380 295-3 8-8-4 4 8-8 3 8 3-4 8 8-4 3 8 3-8 8 4-4-8 8-3-8-3 4-8-8 4-3-8Zm54-54-3 8-8-4 4 8-8 3 8 3-4 8 8-4 3 8 3-8 8 4-4-8 8-3-8-3 4-8-8 4-3-8Zm-108 0-3 8-8-4 4 8-8 3 8 3-4 8 8-4 3 8 3-8 8 4-4-8 8-3-8-3 4-8-8 4-3-8Zm54-54-3 8-8-4 4 8-8 3 8 3-4 8 8-4 3 8 3-8 8 4-4-8 8-3-8-3 4-8-8 4-3-8Zm-10 52a7 7 0 0 0-6 6v5h-3v-2c0-3-3-6-6-6l-1 2v12l2 1h8a6 6 0 0 0 6 7v2h-3a5 5 0 0 0-5 6l1 1h12l2-1v-8l17-1v3h-3a5 5 0 0 0-5 5l1 2h13l1-2v-16c3 0 5-2 5-5 0-2-2-5-5-5h-16l-2-1 2-2h16v-3h-16a5 5 0 0 0-5 5c0 2 2 5 5 5h16l2 1-2 2h-18a6 6 0 0 1-6-7 7 7 0 0 0-7-6Z"/><defs><clipPath id="a"><path fill="#fff" d="M0 0h512v512H0z"/></clipPath></defs></svg>