<svg width="512" height="512" viewBox="0 0 512 512" fill="none" xmlns="http://www.w3.org/2000/svg">
<rect width="512" height="512" fill="var(--flag-palette-navy, #002266)"/>
<rect width="256" height="256" fill="var(--flag-palette-navy, #002266)"/>
<path d="M232 256H256V232L152 128L256 24V0H232L128 104L24 0H0V24L104 128L0 232V256H24L128 152L232 256Z" fill="var(--flag-palette-white, #eeeeee)"/>
<path d="M256 160V96H160V0H96V96H0V160H96V256H160V160H256Z" fill="var(--flag-palette-white, #eeeeee)"/>
<path d="M256 144V112H144V0H112V112H0V144H112V256H144V144H256Z" fill="var(--flag-palette-bright-red, #d80027)"/>
<path d="M0 16V0L96 96H80L0 16Z" fill="var(--flag-palette-bright-red, #d80027)"/>
<path d="M256 240L256 256L160 160L176 160L256 240Z" fill="var(--flag-palette-bright-red, #d80027)"/>
<path d="M16 256L0 256L96 160L96 176L16 256Z" fill="var(--flag-palette-bright-red, #d80027)"/>
<path d="M240 -6.99382e-07L256 0L160 96L160 80L240 -6.99382e-07Z" fill="var(--flag-palette-bright-red, #d80027)"/>
<path d="M384.009 330C424.878 330 458.009 296.869 458.009 256C458.009 215.131 424.878 182 384.009 182C343.14 182 310.009 215.131 310.009 256C310.009 296.869 343.14 330 384.009 330Z" fill="var(--flag-palette-white, #eeeeee)"/>
<path d="M407.01 322.1L384.01 312L361.01 322.2L384.01 256.1L407.01 322.1ZM407.01 189.9L384.01 200L361.01 189.8L384.01 255.9L407.01 189.9ZM317.91 279L328.11 256L317.91 233L384.01 256L317.91 279ZM450.11 279L440.01 256L450.21 233L384.11 256L450.11 279Z" fill="var(--flag-palette-light-blue, #338af3)"/>
<path d="M379.008 228V233H374.008V243H379.008V252.4C376.024 249.911 372.2 248.66 368.322 248.903C364.444 249.147 360.807 250.866 358.157 253.708C355.507 256.55 354.046 260.299 354.074 264.184C354.102 268.07 355.618 271.797 358.308 274.6V284H410.008V274.6C412.699 271.797 414.215 268.07 414.243 264.184C414.271 260.299 412.81 256.55 410.16 253.708C407.51 250.866 403.873 249.147 399.995 248.903C396.117 248.66 392.293 249.911 389.308 252.4V243H394.308V233H389.308V228H379.008Z" fill="var(--flag-palette-dark-yellow, #ffc635)"/>
</svg>