<svg xmlns="http://www.w3.org/2000/svg" width="512" height="512" fill="none"><path fill="#0052B4" d="M0 0h512v512H0z"/><g clip-path="url(#a)"><path fill="#0052B4" d="M-256-256h512v512h-512z"/><path fill="#EEE" d="M208 256h48v-48L48 0l208-208v-48h-48L0-48l-208-208h-48v48L-48 0l-208 208v48h48L0 48l208 208Z"/><path fill="#EEE" d="M256 64V-64H64v-192H-64v192h-192V64h192v192H64V64h192Z"/><path fill="#D80027" d="M256 32v-64H32v-224h-64v224h-224v64h224v224h64V32h224Z"/><path fill="#D80027" d="M256 224v32L64 64h32l160 160Z"/></g><path fill="#EEE" d="M384 330a74 74 0 1 0 0-148 74 74 0 0 0 0 148Z"/><path fill="#338AF3" d="M407 322.1 384 312l-23 10.2 23-66.1 23 66Zm0-132.2L384 200l-23-10.2 23 66.1 23-66ZM318 279l10.1-23-10.2-23 66.1 23-66 23Zm132.1 0-10-23 10.1-23-66 23 66 23Z"/><path fill="#FFC635" d="M379 228v5h-5v10h5v9.4a15.2 15.2 0 0 0-20.7 22.2v9.4H410v-9.4a15.2 15.2 0 0 0-20.7-22.2V243h5v-10h-5v-5H379Z"/><defs><clipPath id="a"><path fill="#fff" d="M0 0h512v512H0z"/></clipPath></defs></svg>