<svg xmlns="http://www.w3.org/2000/svg" width="512" height="512" fill="none"><path fill="#026" d="M0 0h512v512H0z"/><path fill="#026" d="M0 0h256v256H0z"/><path fill="#EEE" d="M232 256h24v-24L152 128 256 24V0h-24L128 104 24 0H0v24l104 104L0 232v24h24l104-104 104 104Z"/><path fill="#EEE" d="M256 160V96h-96V0H96v96H0v64h96v96h64v-96h96Z"/><path fill="#D80027" d="M256 144v-32H144V0h-32v112H0v32h112v112h32V144h112Z"/><path fill="#D80027" d="M0 16V0l96 96H80L0 16Zm256 224v16l-96-96h16l80 80ZM16 256H0l96-96v16l-80 80ZM240 0h16l-96 96V80l80-80Z"/><path fill="#EEE" d="M384 330a74 74 0 1 0 0-148 74 74 0 0 0 0 148Z"/><path fill="#338AF3" d="M407 322.1 384 312l-23 10.2 23-66.1 23 66Zm0-132.2L384 200l-23-10.2 23 66.1 23-66ZM318 279l10.1-23-10.2-23 66.1 23-66 23Zm132.1 0-10-23 10.1-23-66 23 66 23Z"/><path fill="#FFC635" d="M379 228v5h-5v10h5v9.4a15.2 15.2 0 0 0-20.7 22.2v9.4H410v-9.4a15.2 15.2 0 0 0-20.7-22.2V243h5v-10h-5v-5H379Z"/></svg>