<svg xmlns="http://www.w3.org/2000/svg" width="512" height="512" fill="none"><path fill="#0052B4" d="M0 0h512v512H0z"/><path fill="#EEE" d="M0 0h256v256H0z"/><path fill="#0052B4" d="m66.8 114 142 142h-142V114ZM256 208.8v-142H114l142 142Z"/><path fill="#D80027" d="M256 0H0v256h33.4V33.4H256V0Z"/><path fill="#D80027" d="M256 224.5 98.3 66.8H66.8L256 256v-31.5Z"/><path fill="#EEE" d="M384 330a74 74 0 1 0 0-148 74 74 0 0 0 0 148Z"/><path fill="#338AF3" d="M407 322.1 384 312l-23 10.2 23-66.1 23 66Zm0-132.2L384 200l-23-10.2 23 66.1 23-66ZM318 279l10.1-23-10.2-23 66.1 23-66 23Zm132.1 0-10-23 10.1-23-66 23 66 23Z"/><path fill="#FFC635" d="M379 228v5h-5v10h5v9.4a15.2 15.2 0 0 0-20.7 22.2v9.4H410v-9.4a15.2 15.2 0 0 0-20.7-22.2V243h5v-10h-5v-5H379Z"/></svg>