<svg xmlns="http://www.w3.org/2000/svg" width="512" height="512" fill="none"><path fill="#0052B4" d="M0 0h512v512H0z"/><path fill="#EEE" d="M0 0h256v256H0z"/><path fill="#0052B4" d="m66.8 114 142 142h-142V114ZM256 208.8v-142H114l142 142Z"/><path fill="#D80027" d="M256 0H0v256h33.4V33.4H256V0Z"/><path fill="#D80027" d="M256 224.5 98.3 66.8H66.8L256 256v-31.5Z"/><path fill="#FF9811" d="M382 330a74 74 0 1 0 0-148 74 74 0 0 0 0 148Z"/><path fill="#333" d="M382 228a14 14 0 0 0-14 14h-42a14 14 0 0 0 14 14 14 14 0 0 0 14 14 14 14 0 0 0 14 14h28a14 14 0 0 0 14-14 14 14 0 0 0 14-14 14 14 0 0 0 14-14h-42a14 14 0 0 0-14-14Z"/></svg>