<svg xmlns="http://www.w3.org/2000/svg" width="512" height="512" fill="none"><g clip-path="url(#a)"><path fill="#0052B4" d="m0 128 256-32 256 32v256l-256 32L0 384V128Z"/><path fill="#333" d="m0 96 256-32 256 32v32H0V96Z"/><path fill="#496E2D" d="M0 0h512v96H0V0Z"/><path fill="#333" d="m0 416 256 32 256-32v-32H0v32Z"/><path fill="#496E2D" d="M0 512h512v-96H0v96Z"/><path fill="#EEE" d="M245 144c-106 32-101 112-67 186l-40 38 73-27v-98c24-35 66-35 90 0v98l73 27-40-38c34-74 39-154-67-186l-11 46-11-46Zm11 83-9 27h-28l23 17-9 28 23-17 23 17-9-28 24-17h-29l-9-27Z"/></g><defs><clipPath id="a"><path fill="#fff" d="M0 0h512v512H0z"/></clipPath></defs></svg>