<svg xmlns="http://www.w3.org/2000/svg" width="512" height="512" fill="none"><path fill="#0052B4" d="M0 0h512v512H0z"/><path fill="#EEE" d="M0 0h256v256H0z"/><path fill="#0052B4" d="m66.8 114 142 142h-142V114ZM256 208.8v-142H114l142 142Z"/><path fill="#D80027" d="M256 0H0v256h33.4V33.4H256V0Z"/><path fill="#D80027" d="M256 224.5 98.3 66.8H66.8L256 256v-31.5Z"/><path fill="#EEE" d="M382 330a74 74 0 1 0 0-148 74 74 0 0 0 0 148Z"/><path fill="#D80027" d="M363 221a14 14 0 0 0-14 14v10h-5v-6c0-6-5-11-11-11a3 3 0 0 0-3 3v25c0 1 1 3 3 3h16a13 13 0 0 0 13 12v6h-5c-7 0-12 5-12 11l3 3h25c2 0 3-2 3-3v-17h34v5h-5c-6 0-11 5-11 11 0 2 1 3 3 3h24c2 0 3-1 3-3v-33c5 0 10-4 10-9 0-6-5-10-10-10h-32a3 3 0 0 1-3-3c0-2 1-3 3-3h32v-7h-32a10 10 0 0 0 0 19h32c2 0 3 2 3 4 0 1-1 3-3 3h-35c-7 0-13-6-13-13a14 14 0 0 0-13-14Z"/></svg>