<svg width="512" height="512" viewBox="0 0 512 512" fill="none" xmlns="http://www.w3.org/2000/svg">
<path d="M0 128L256 96L512 128V384L256 416L0 384V128Z" fill="var(--flag-palette-blue, #0052b4)"/>
<path d="M0 96L256 64L512 96V128H0V96Z" fill="var(--flag-palette-black, #333333)"/>
<path d="M0 0H512V96H0V0Z" fill="var(--flag-palette-dark-green, #496e2d)"/>
<path d="M0 416L256 448L512 416V384H0V416Z" fill="var(--flag-palette-black, #333333)"/>
<path d="M0 512H512V416H0V512Z" fill="var(--flag-palette-dark-green, #496e2d)"/>
<path d="M245 144C139 176 144 256 178 330L138 368L211 341V243C235 208 277 208 301 243V341L374 368L334 330C368 256 373 176 267 144L256 190L245 144ZM256 227L247 254H219L242 271L233 299L256 282L279 299L270 271L294 254H265L256 227Z" fill="var(--flag-palette-white, #eeeeee)"/>
</svg>