<svg xmlns="http://www.w3.org/2000/svg" width="512" height="512" fill="none"><path fill="#026" d="M0 0h512v512H0z"/><path fill="#026" d="M0 0h256v256H0z"/><path fill="#EEE" d="M232 256h24v-24L152 128 256 24V0h-24L128 104 24 0H0v24l104 104L0 232v24h24l104-104z"/><path fill="#EEE" d="M256 160V96h-96V0H96v96H0v64h96v96h64v-96z"/><path fill="#D80027" d="M256 144v-32H144V0h-32v112H0v32h112v112h32V144z"/><path fill="#D80027" d="M0 16V0l96 96H80zm256 224v16l-96-96h16zM16 256H0l96-96v16zM240 0h16l-96 96V80z"/><path fill="#EEE" d="M382 330a74 74 0 1 0 0-148 74 74 0 0 0 0 148"/><path fill="#D80027" d="M363 221a14 14 0 0 0-14 14v10h-5v-6c0-6-5-11-11-11a3 3 0 0 0-3 3v25c0 1 1 3 3 3h16a13 13 0 0 0 13 12v6h-5c-7 0-12 5-12 11l3 3h25c2 0 3-2 3-3v-17h34v5h-5c-6 0-11 5-11 11q0 3 3 3h24q3 0 3-3v-33c5 0 10-4 10-9 0-6-5-10-10-10h-32a3 3 0 0 1-3-3q0-3 3-3h32v-7h-32a10 10 0 0 0 0 19h32c2 0 3 2 3 4 0 1-1 3-3 3h-35c-7 0-13-6-13-13a14 14 0 0 0-13-14"/></svg>