<svg xmlns="http://www.w3.org/2000/svg" width="512" height="512" fill="none"><path fill="#0052B4" d="M0 0h512v512H0z"/><g clip-path="url(#a)"><path fill="#0052B4" d="M-256-256h512v512h-512z"/><path fill="#EEE" d="M208 256h48v-48L48 0l208-208v-48h-48L0-48l-208-208h-48v48L-48 0l-208 208v48h48L0 48l208 208Z"/><path fill="#EEE" d="M256 64V-64H64v-192H-64v192h-192V64h192v192H64V64h192Z"/><path fill="#D80027" d="M256 32v-64H32v-224h-64v224h-224v64h224v224h64V32h224Z"/><path fill="#D80027" d="M256 224v32L64 64h32l160 160Z"/></g><path fill="#EEE" d="m313 267 7 15 15-4-7 15 13 10-16 3v16l-13-10-12 10v-16l-16-3 13-10-7-15 16 4 7-15Zm66-61 7 15 15-4-7 15 13 10-16 4v16l-13-10-12 10v-16l-16-4 13-10-7-15 16 4 7-15Zm1 146 40-29h-50l40 29-15-48-15 48Zm-1 29 5 15 14-7-7 15 15 5-15 5 7 15-14-7-5 15-6-15-14 7 7-15-15-5 15-5-7-15 14 7 6-15Zm57-114-8 14h-16l8 14-8 14h16l8 13 8-13h16l-8-14 8-14h-16l-8-14Z"/><path fill="#FFDA44" d="M370 93v8h-8v17h8v15a25.1 25.1 0 1 0-34 37v15h85v-15a25.1 25.1 0 1 0-34-37v-15h8v-17h-8v-8h-17Z"/><defs><clipPath id="a"><path fill="#fff" d="M0 0h512v512H0z"/></clipPath></defs></svg>