<svg xmlns="http://www.w3.org/2000/svg" width="512" height="512" fill="none"><path fill="var(--flag-palette-navy, #002266)" d="M0 0h512v512H0z"/><path fill="var(--flag-palette-navy, #002266)" d="M0 0h256v256H0z"/><path fill="var(--flag-palette-white, #eeeeee)" d="M232 256h24v-24L152 128 256 24V0h-24L128 104 24 0H0v24l104 104L0 232v24h24l104-104z"/><path fill="var(--flag-palette-white, #eeeeee)" d="M256 160V96h-96V0H96v96H0v64h96v96h64v-96z"/><path fill="var(--flag-palette-bright-red, #d80027)" d="M256 144v-32H144V0h-32v112H0v32h112v112h32V144z"/><path fill="var(--flag-palette-bright-red, #d80027)" d="M0 16V0l96 96H80zm256 224v16l-96-96h16zM16 256H0l96-96v16zM240 0h16l-96 96V80z"/><path fill="var(--flag-palette-white, #eeeeee)" d="m313 267 7 15 15-4-7 15 13 10-16 3v16l-13-10-12 10v-16l-16-3 13-10-7-15 16 4zm66-61 7 15 15-4-7 15 13 10-16 4v16l-13-10-12 10v-16l-16-4 13-10-7-15 16 4zm1 146 40-29h-50l40 29-15-48zm-1 29 5 15 14-7-7 15 15 5-15 5 7 15-14-7-5 15-6-15-14 7 7-15-15-5 15-5-7-15 14 7zm57-114-8 14h-16l8 14-8 14h16l8 13 8-13h16l-8-14 8-14h-16z"/><path fill="var(--flag-palette-yellow, #ffda44)" d="M370 93v8h-8v17h8v15a25.1 25.1 0 1 0-34 37v15h85v-15a25.1 25.1 0 1 0-34-37v-15h8v-17h-8v-8z"/></svg>