<svg xmlns="http://www.w3.org/2000/svg" width="512" height="512" fill="none"><path fill="#0052B4" d="M0 0h512v512H0z"/><path fill="#EEE" d="M0 0h256v256H0z"/><path fill="#0052B4" d="m66.8 114 142 142h-142V114ZM256 208.8v-142H114l142 142Z"/><path fill="#D80027" d="M256 0H0v256h33.4V33.4H256V0Z"/><path fill="#D80027" d="M256 224.5 98.3 66.8H66.8L256 256v-31.5Z"/><path fill="#EEE" d="m313 267 7 15 15-4-7 15 13 10-16 3v16l-13-10-12 10v-16l-16-3 13-10-7-15 16 4 7-15Zm66-61 7 15 15-4-7 15 13 10-16 4v16l-13-10-12 10v-16l-16-4 13-10-7-15 16 4 7-15Zm1 146 40-29h-50l40 29-15-48-15 48Zm-1 29 5 15 14-7-7 15 15 5-15 5 7 15-14-7-5 15-6-15-14 7 7-15-15-5 15-5-7-15 14 7 6-15Zm57-114-8 14h-16l8 14-8 14h16l8 13 8-13h16l-8-14 8-14h-16l-8-14Z"/><path fill="#FFDA44" d="M370 93v8h-8v17h8v15a25.1 25.1 0 1 0-34 37v15h85v-15a25.1 25.1 0 1 0-34-37v-15h8v-17h-8v-8h-17Z"/></svg>