<svg xmlns="http://www.w3.org/2000/svg" width="512" height="512" fill="none"><path fill="#0052B4" d="M0 0h512v512H0z"/><path fill="#EEE" d="M0 0h256v256H0z"/><path fill="#0052B4" d="m66.8 114 142 142h-142V114ZM256 208.8v-142H114l142 142Z"/><path fill="#D80027" d="M256 0H0v256h33.4V33.4H256V0Z"/><path fill="#D80027" d="M256 224.5 98.3 66.8H66.8L256 256v-31.5Z"/><path fill="#FFDA44" d="M382 330a74 74 0 1 0 0-148 74 74 0 0 0 0 148Z"/><path fill="#333" d="M397 299.8c-51.4 7.8-53.2-24-53.2-24-2-22.9 21.4-29.6 28.4-42.3 7-12.6-9.3-14.5-8.3-6.4 1 8.2-3.8 9.6-4 10.2-.3.7-7.3 7.6-8.3 6.3-1-1.3 2.9-6.3 2.9-6.3s-3-1.7-4.2-5.6c-3.2-8.8 13-30.7 29.9-15.9 16.8 14.8-5.6 32-11.4 40.4-5.8 8.3-5.6 14.6-2 15.7 3.7 1.2 6.5-2.5 8-8.1 1.5-5.3 10.8-22.7 30.5-16.9 14.7 4.4 12.9 10.5 24.7 7.3 4.1 39.6-33 45.6-33 45.6Z"/></svg>