<svg xmlns="http://www.w3.org/2000/svg" width="512" height="512" fill="none"><path fill="#026" d="M0 0h512v512H0z"/><path fill="#026" d="M0 0h256v256H0z"/><path fill="#EEE" d="M232 256h24v-24L152 128 256 24V0h-24L128 104 24 0H0v24l104 104L0 232v24h24l104-104 104 104Z"/><path fill="#EEE" d="M256 160V96h-96V0H96v96H0v64h96v96h64v-96h96Z"/><path fill="#D80027" d="M256 144v-32H144V0h-32v112H0v32h112v112h32V144h112Z"/><path fill="#D80027" d="M0 16V0l96 96H80L0 16Zm256 224v16l-96-96h16l80 80ZM16 256H0l96-96v16l-80 80ZM240 0h16l-96 96V80l80-80Z"/><path fill="#EEE" d="m154.4 300.5 14 29.4 31.8-7.3-14.2 29.3 25.5 20.2-31.8 7.2.1 32.5-25.4-20.3-25.4 20.3v-32.5L97.4 372l25.5-20.2-14.2-29.3 31.7 7.3 14-29.4Zm228.9 55.7 7 14.7 15.9-3.7-7.1 14.6 12.7 10.2-15.9 3.5v16.3l-12.6-10.2-12.7 10.2v-16.3l-15.9-3.5 12.8-10.2-7.1-14.6 15.9 3.7 7-14.7ZM318 200.3l7 14.7 15.8-3.6-7 14.6 12.7 10.1-16 3.6.1 16.3-12.7-10.2-12.7 10.2v-16.3l-15.8-3.6 12.7-10-7-14.7 15.8 3.6 7-14.7Zm65.3-89 7 14.7 15.9-3.7L399 137l12.7 10-15.9 3.7V167l-12.6-10.2-12.7 10.2v-16.3l-15.9-3.6 12.8-10.1-7.1-14.7 15.9 3.7 7-14.7Zm57.1 66.7 7 14.8 15.9-3.7-7.1 14.7 12.7 10-15.9 3.7v16.2l-12.6-10.1-12.7 10.1v-16.2l-15.9-3.6 12.8-10.1-7.1-14.7 15.8 3.7 7-14.7Zm-40.8 78 5.5 17H423l-14.5 10.5 5.5 17-14.4-10.5-14.5 10.5 5.5-17-14.5-10.5h18l5.4-17Z"/></svg>