<svg xmlns="http://www.w3.org/2000/svg" width="512" height="512" fill="none"><g clip-path="url(#a)"><path fill="var(--flag-palette-blue, #0052b4)" d="M0 0h512v512H0z"/><path fill="var(--flag-palette-yellow, #ffda44)" d="m0 0 512 512V0z"/><path fill="#EEE" d="m0 64 10.8 33.2h34.9l-28.3 20.5 10.8 33.1L0 130.3l-28.2 20.5 10.8-33.1-28.3-20.5h35zm64 64 10.8 33.2h34.9l-28.3 20.5 10.8 33.1L64 194.3l-28.2 20.5 10.8-33.1-28.3-20.5h35zm64 64 10.8 33.2h34.9l-28.3 20.5 10.8 33.1-28.2-20.5-28.2 20.5 10.8-33.1-28.3-20.5h35zm64 64 10.8 33.2h34.9l-28.3 20.5 10.8 33.1-28.2-20.5-28.2 20.5 10.8-33.1-28.3-20.5h35zm64 64 10.8 33.2h34.9l-28.3 20.5 10.8 33.1-28.2-20.5-28.2 20.5 10.8-33.1-28.3-20.5h35zm64 64 10.8 33.2h34.9l-28.3 20.5 10.8 33.1-28.2-20.5-28.2 20.5 10.8-33.1-28.3-20.5h35zm64 64 10.8 33.2h34.9l-28.3 20.5 10.8 33.1-28.2-20.5-28.2 20.5 10.8-33.1-28.3-20.5h35z"/></g><defs><clipPath id="a"><path fill="#fff" d="M0 0h512v512H0z"/></clipPath></defs></svg>