<svg width="512" height="512" viewBox="0 0 512 512" fill="none" xmlns="http://www.w3.org/2000/svg">
<path d="M384 512L128 512L128 -1.11901e-05L384 1.11901e-05L384 512Z" fill="var(--flag-palette-yellow, #ffda44)"/>
<path d="M144 512L-5.28978e-05 512L0 -6.29444e-06L144 6.29444e-06L144 512Z" fill="var(--flag-palette-blue, #0052b4)"/>
<path d="M512 512L368 512L368 -6.29444e-06L512 6.29444e-06L512 512Z" fill="var(--flag-palette-blue, #0052b4)"/>
<path d="M333.913 155.826L318.979 148.36C318.079 150.161 298.58 189.834 295.395 250.435H272.696V155.826L256 133.565L239.304 155.826V250.435H216.605C213.419 189.834 193.921 150.161 193.02 148.36L163.154 163.293C163.36 163.703 183.653 205.008 183.653 267.131V283.827H239.305V378.436H272.696V283.827H328.348V267.13C328.348 235.012 333.905 208.528 338.568 191.966C343.651 173.906 348.814 163.359 348.865 163.254L333.913 155.826Z" fill="var(--flag-palette-black, #333333)"/>
</svg>