<svg xmlns="http://www.w3.org/2000/svg" width="512" height="512" fill="none"><path fill="#6DA544" d="M0 0v512l256-256L0 0Z"/><path fill="#D80027" d="M512 0H0l256 256L512 0Z"/><path fill="#6DA544" d="M512 512V0L256 256l256 256Z"/><path fill="#D80027" d="M0 512h512L256 256 0 512Z"/><path fill="#EEE" d="M464.8 512H512v-47.2L303.2 256 512 47.2V0h-47.2L256 208.8 47.2 0H0v47.2L208.8 256 0 464.8V512h47.2L256 303.2 464.8 512Z"/><path fill="#EEE" d="M384 256a128 128 0 1 0-256 0 128 128 0 0 0 256 0Z"/><path fill="#D80027" d="m265.6 172.6-9.6-16.7-9.6 16.7H227l9.6 16.6-9.6 16.7h19.3l9.6 16.7 9.6-16.7H285l-9.6-16.7 9.6-16.6h-19.3ZM323.4 306h19.3l-9.6-16.6 9.6-16.7h-19.3l-9.6-16.7-9.6 16.7h-19.3l9.6 16.7L285 306h19.3l9.6 16.7 9.6-16.7ZM179 289.4l-9.7 16.7h19.2l9.7 16.7 9.6-16.7h19.3l-9.6-16.7 9.6-16.7h-19.3l-9.6-16.7-9.7 16.7h-19.2l9.6 16.7Z"/></svg>