<svg xmlns="http://www.w3.org/2000/svg" width="512" height="512" fill="none"><path fill="var(--flag-palette-green, #6da544)" d="M0 0v512l256-256z"/><path fill="var(--flag-palette-bright-red, #d80027)" d="M512 0H0l256 256z"/><path fill="var(--flag-palette-green, #6da544)" d="M512 512V0L256 256z"/><path fill="var(--flag-palette-bright-red, #d80027)" d="M0 512h512L256 256z"/><path fill="var(--flag-palette-white, #eeeeee)" d="M464 512h48v-48L304 256 512 48V0h-48L256 208 48 0H0v48l208 208L0 464v48h48l208-208z"/><path fill="var(--flag-palette-white, #eeeeee)" d="M384 256a128 128 0 1 0-256 0 128 128 0 0 0 256 0"/><path fill="var(--flag-palette-bright-red, #d80027)" d="m265.6 172.6-9.6-16.7-9.6 16.7H227l9.6 16.6-9.6 16.7h19.3l9.6 16.7 9.6-16.7H285l-9.6-16.7 9.6-16.6zM323.5 306h19.2l-9.6-16.6 9.6-16.7h-19.2l-9.7-16.7-9.6 16.7h-19.3l9.6 16.7L285 306h19.3l9.6 16.7zM179 289.4l-9.7 16.7h19.2l9.7 16.7 9.6-16.7h19.3l-9.6-16.7 9.6-16.7h-19.3l-9.6-16.7-9.7 16.7h-19.2z"/></svg>