<svg width="512" height="512" viewBox="0 0 512 512" fill="none" xmlns="http://www.w3.org/2000/svg">
<path d="M0 0V512L256 256L0 0Z" fill="var(--flag-palette-green, #6da544)"/>
<path d="M512 0L0 -2.23802e-05L256 256L512 0Z" fill="var(--flag-palette-bright-red, #d80027)"/>
<path d="M512 512L512 0L256 256L512 512Z" fill="var(--flag-palette-green, #6da544)"/>
<path d="M0 512L512 512L256 256L0 512Z" fill="var(--flag-palette-bright-red, #d80027)"/>
<path d="M464 512H512V464L304 256L512 48V0H464L256 208L48 0H0V48L208 256L0 464V512H48L256 304L464 512Z" fill="var(--flag-palette-white, #eeeeee)"/>
<path d="M383.999 255.999C383.999 185.306 326.691 127.998 255.998 127.998C185.304 127.998 127.996 185.306 127.996 255.999C127.996 326.693 185.304 384.001 255.998 384.001C326.691 384.001 383.999 326.692 383.999 255.999Z" fill="var(--flag-palette-white, #eeeeee)"/>
<path d="M265.635 172.552L256 155.864L246.365 172.552L227.096 172.552L236.731 189.24L227.096 205.928H246.365L256 222.616L265.635 205.928H284.905L275.27 189.24L284.905 172.552L265.635 172.552Z" fill="var(--flag-palette-bright-red, #d80027)"/>
<path d="M323.45 306.069L342.72 306.069L333.085 289.381L342.72 272.693L323.45 272.693L313.815 256.005L304.18 272.693L284.911 272.693L294.546 289.381L284.911 306.069L304.18 306.069L313.815 322.757L323.45 306.069Z" fill="var(--flag-palette-bright-red, #d80027)"/>
<path d="M178.913 289.379L169.278 306.067L188.548 306.067L198.183 322.755L207.818 306.067L227.087 306.067L217.452 289.379L227.087 272.691L207.818 272.691L198.183 256.003L188.548 272.691L169.278 272.691L178.913 289.379Z" fill="var(--flag-palette-bright-red, #d80027)"/>
</svg>