<svg xmlns="http://www.w3.org/2000/svg" width="512" height="512" fill="none"><path fill="var(--flag-palette-white, #eeeeee)" d="M0 0h512v512H0z"/><path fill="var(--flag-palette-mid-grey-3, #acabb1)" d="M167 178a28 28 0 0 0-28 28H55a28 28 0 0 0 28 28 28 28 0 0 0 28 28 28 28 0 0 0 28 28h234a28 28 0 0 0 28-28 28 28 0 0 0 28-28 28 28 0 0 0 28-28h-84a28 28 0 0 0-28-28z"/><path fill="var(--flag-palette-dark-yellow, #ffc635)" fill-rule="evenodd" d="M125 396.6q8.4 4.8 17 9l1 .4-2 4.3-2 4.3 4.3 1.9a274 274 0 0 0 225.5 0l4.2-2-2-4.2-1.9-4.3 1-.4q8.6-4.2 17-9l6.9-4-6.8-4a291 291 0 0 1-14.4-9.1q-.3-9.1-1-18.1l-.7-7.3-6.3 3.6q-8.5 5-17.4 9l-9.3 4.2 2.6 7.3A226 226 0 0 1 171 378l3.1-7-9.3-4.3q-9-4-17.4-9l-6.4-3.6-.6 7.3q-.6 9-.9 18.2-7 4.7-14.4 9l-7 4z" clip-rule="evenodd"/><path fill="var(--flag-palette-dark-yellow, #ffc635)" d="M234 100v33.5L223 145l-12-6v-17h-44v56l89 14 89-14v-56h-44v17l-12 6-11-11.5V100z"/><path fill="var(--flag-palette-blue, #0052b4)" d="M167 178v112c0 68 89 88.5 89 88.5s89-20.4 89-88.5V178z"/><path fill="var(--flag-palette-bright-red, #d80027)" d="M167 222.1h178v69H167z"/></svg>