<svg xmlns="http://www.w3.org/2000/svg" width="512" height="512" fill="none"><g clip-path="url(#a)"><path fill="#EEE" d="M0 0h512v512H0V0Z"/><path fill="#ACABB1" d="M167 178a28 28 0 0 0-28 28H55a28 28 0 0 0 28 28 28 28 0 0 0 28 28 28 28 0 0 0 28 28h234a28 28 0 0 0 28-28 28 28 0 0 0 28-28 28 28 0 0 0 28-28h-84a28 28 0 0 0-28-28H167Z"/><path fill="#FFC635" d="M123 357h44v44h-44v-44Zm222 0h44v44h-44v-44Zm-178 11h178v44H167v-44Zm67-268v33.5L223 145l-12-6v-17h-44v56l89 14 89-14v-56h-44v17l-12 6-11-11.5V100h-44Z"/><path fill="#0052B4" d="M167 178v112c0 68 89 88.5 89 88.5s89-20.4 89-88.5V178H167Z"/><path fill="#D80027" d="M167 222.1h178v69H167v-69Z"/></g><defs><clipPath id="a"><path fill="#fff" d="M0 0h512v512H0z"/></clipPath></defs></svg>