<svg xmlns="http://www.w3.org/2000/svg" width="512" height="512" fill="none"><path fill="#D80027" d="M0 0h512v512H0z"/><path fill="#026" d="M0 0h256v256H0z"/><path fill="#EEE" d="M232 256h24v-24L152 128 256 24V0h-24L128 104 24 0H0v24l104 104L0 232v24h24l104-104 104 104Z"/><path fill="#EEE" d="M256 160V96h-96V0H96v96H0v64h96v96h64v-96h96Z"/><path fill="#D80027" d="M256 144v-32H144V0h-32v112H0v32h112v112h32V144h112Z"/><path fill="#D80027" d="M0 16V0l96 96H80L0 16Zm256 224v16l-96-96h16l80 80ZM16 256H0l96-96v16l-80 80ZM240 0h16l-96 96V80l80-80Z"/><path fill="#F3F3F3" d="M306 155.8v122.5c0 59.6 156 59.6 156 0V155.8H306Z"/><path fill="#6DA544" d="M306 278.3c0 59.6 78 77.9 78 77.9s78-18.3 78-78H306Z"/><path fill="#A2001D" d="m384 229.3-36.2 15.6v33.4l36.2 22.2 36.2-22.2v-33.4L384 229.3Z"/><path fill="#338AF3" d="M347.8 211.5h72.4v33.4h-72.4v-33.4Z"/></svg>