<svg xmlns="http://www.w3.org/2000/svg" width="512" height="512" fill="none"><path fill="#D80027" d="M0 0h512v512H0z"/><path fill="#EEE" d="M0 0h256v256H0z"/><path fill="#0052B4" d="m66.8 114 142 142h-142V114ZM256 208.8v-142H114l142 142Z"/><path fill="#D80027" d="M256 0H0v256h33.4V33.4H256V0Z"/><path fill="#D80027" d="M256 224.5 98.3 66.8H66.8L256 256v-31.5Z"/><path fill="#F3F3F3" d="M306 155.8v122.5c0 59.6 156 59.6 156 0V155.8H306Z"/><path fill="#6DA544" d="M306 278.3c0 59.6 78 77.9 78 77.9s78-18.3 78-78H306Z"/><path fill="#A2001D" d="m384 229.3-36.2 15.6v33.4l36.2 22.2 36.2-22.2v-33.4L384 229.3Z"/><path fill="#338AF3" d="M347.8 211.5h72.4v33.4h-72.4v-33.4Z"/></svg>