<svg xmlns="http://www.w3.org/2000/svg" width="512" height="512" fill="none"><path fill="#D80027" d="M0 0h512v512H0z"/><g clip-path="url(#a)"><path fill="#0052B4" d="M-256-256h512v512h-512z"/><path fill="#EEE" d="M208 256h48v-48L48 0l208-208v-48h-48L0-48l-208-208h-48v48L-48 0l-208 208v48h48L0 48l208 208Z"/><path fill="#EEE" d="M256 64V-64H64v-192H-64v192h-192V64h192v192H64V64h192Z"/><path fill="#D80027" d="M256 32v-64H32v-224h-64v224h-224v64h224v224h64V32h224Z"/><path fill="#D80027" d="M256 224v32L64 64h32l160 160Z"/></g><path fill="#F3F3F3" d="M306 155.8v122.5c0 59.6 156 59.6 156 0V155.8H306Z"/><path fill="#6DA544" d="M306 278.3c0 59.6 78 77.9 78 77.9s78-18.3 78-78H306Z"/><path fill="#A2001D" d="m384 229.3-36.2 15.6v33.4l36.2 22.2 36.2-22.2v-33.4L384 229.3Z"/><path fill="#338AF3" d="M347.8 211.5h72.4v33.4h-72.4v-33.4Z"/><defs><clipPath id="a"><path fill="#fff" d="M0 0h512v512H0z"/></clipPath></defs></svg>