<svg width="512" height="512" viewBox="0 0 512 512" fill="none" xmlns="http://www.w3.org/2000/svg">
<rect width="512" height="512" fill="var(--flag-palette-yellow, #ffda44)"/>
<path d="M512 352L0 32V96L512 416V352Z" fill="var(--flag-palette-white, #eeeeee)"/>
<path d="M512 416L0 96V160L512 480V416Z" fill="var(--flag-palette-black, #333333)"/>
<path fill-rule="evenodd" clip-rule="evenodd" d="M272.695 144.713H239.309V178.099H200.357C200.357 185.782 207.05 192.01 214.732 192.01H214.268C214.268 199.694 220.497 205.922 228.18 205.922C228.18 212.652 232.959 218.266 239.309 219.555V298.581C207.405 291.045 183.663 262.384 183.663 228.178C183.663 215.722 186.812 204.001 192.358 193.767C176.66 209.821 166.969 231.773 166.969 256C166.969 282.592 178.627 306.461 197.111 322.774H178.1V333.903H155.843V367.29H222.615V356.161H289.388V367.29H356.16V333.903H333.904V322.774H314.889C333.373 306.461 345.031 282.592 345.031 256C345.031 231.773 335.341 209.821 319.642 193.767C325.189 204.003 328.338 215.722 328.338 228.178C328.338 262.382 304.597 291.042 272.695 298.58V219.555C279.045 218.265 283.824 212.652 283.824 205.922C291.507 205.922 297.735 199.694 297.735 192.01H297.272C304.952 192.009 311.644 185.783 311.644 178.099H272.695V144.713Z" fill="var(--flag-palette-bright-red, #d80027)"/>
</svg>