<svg xmlns="http://www.w3.org/2000/svg" width="512" height="512" fill="none"><path fill="#FFDA44" d="M0 0h512v512H0z"/><path fill="#EEE" d="M512 352 0 32v64l512 320v-64Z"/><path fill="#333" d="M512 416 0 96v64l512 320v-64Z"/><path fill="#D80027" d="M328.3 228.2a72.3 72.3 0 1 1-136-34.4 89 89 0 1 0 127.3 0 72 72 0 0 1 8.7 34.4Z"/><path fill="#D80027" d="M239.3 144.7h33.4v167h-33.4v-167Z"/><path fill="#D80027" d="M311.6 178.1H200.4c0 7.7 6.7 14 14.3 14h-.4a14 14 0 0 0 13.9 13.8 14 14 0 0 0 13.9 14h27.8a14 14 0 0 0 14-14 14 14 0 0 0 13.8-13.9h-.4c7.7 0 14.3-6.2 14.3-13.9ZM178.1 322.8h155.8v33.4H178.1v-33.4Z"/><path fill="#D80027" d="M289.4 333.9h66.8v33.4h-66.8v-33.4Zm-133.6 0h66.8v33.4h-66.8v-33.4Z"/></svg>