<svg xmlns="http://www.w3.org/2000/svg" width="512" height="512" fill="none"><path fill="var(--flag-palette-yellow, #ffda44)" d="M0 0h512v512H0z"/><path fill="#EEE" d="M512 352 0 32v64l512 320z"/><path fill="#333" d="M512 416 0 96v64l512 320z"/><path fill="var(--flag-palette-bright-red, #d80027)" fill-rule="evenodd" d="M272.7 144.7h-33.4v33.4h-39c0 7.7 6.8 14 14.4 14h-.4a14 14 0 0 0 13.9 13.8 14 14 0 0 0 11.1 13.7v79a72.4 72.4 0 0 1-47-104.8 88.7 88.7 0 0 0 4.8 129h-19v11.1h-22.3v33.4h66.8v-11.1h66.8v11h66.8V334h-22.3v-11.1h-19a89 89 0 0 0 4.7-129 72.4 72.4 0 0 1-47 104.8v-79a14 14 0 0 0 11.2-13.7 14 14 0 0 0 14-13.9h-.5c7.7 0 14.3-6.2 14.3-13.9h-39z" clip-rule="evenodd"/></svg>