<svg xmlns="http://www.w3.org/2000/svg" width="512" height="512" fill="none"><path fill="var(--flag-palette-yellow, #ffda44)" d="M0 0h512v512H0z"/><path fill="var(--flag-palette-white, #eeeeee)" d="M512 352 0 32v64l512 320z"/><path fill="var(--flag-palette-black, #333333)" d="M512 416 0 96v64l512 320z"/><path fill="var(--flag-palette-bright-red, #d80027)" d="M272.7 178.1h39c0 7.7-6.7 14-14.4 14h.4a14 14 0 0 1-13.9 13.8 14 14 0 0 1-11.1 13.7v79a72.4 72.4 0 0 0 47-104.8 88.7 88.7 0 0 1-4.8 129h19v11.1h22.3v33.4h-66.8v-11.1h-66.8v11h-66.8V334h22.3v-11.1h19a89 89 0 0 1-4.7-129 72.4 72.4 0 0 0 47 104.8v-79a14 14 0 0 1-11.2-13.7 14 14 0 0 1-14-13.9h.5c-7.6 0-14.3-6.2-14.3-13.9h39v-33.4h33.3z"/></svg>