<svg xmlns="http://www.w3.org/2000/svg" width="512" height="512" fill="none"><g clip-path="url(#a)"><path fill="#0052B4" d="M512 0v512H0V0h512Z"/><path fill="#EEE" d="M0 512V0h512L0 512Z"/><path fill="#FFDA44" d="M0 0v276L276 0H0Z"/><path fill="#333" fill-rule="evenodd" d="m287 197-20 11a70.9 70.9 0 0 1-59 59l-11 20-11-20a71 71 0 0 1-59-59l-20-11 20-10.9a70.9 70.9 0 0 1 59-59l11-20 11 20a71 71 0 0 1 59 59l20 11Zm-90 60a60 60 0 1 1 0-120 60 60 0 0 1 0 120Z" clip-rule="evenodd"/><path fill="#D80027" d="m196.9 163.6 9.7 16.7h19.3l-9.6 16.7 9.6 16.7h-19.3l-9.6 16.7-9.7-16.7h-19.2l9.6-16.7-9.6-16.7h19.2l9.6-16.7Z"/></g><defs><clipPath id="a"><path fill="#fff" d="M0 0h512v512H0z"/></clipPath></defs></svg>