<svg xmlns="http://www.w3.org/2000/svg" width="512" height="512" fill="none"><g clip-path="url(#a)"><path fill="#EEE" d="M113.7 119.8 276 0h236v31.7L306 289.5 31.6 512H0V276l113.7-156.2Z"/><path fill="#FFDA44" d="M0 0v276L276 0H0Z"/><path fill="#0052B4" d="M512 31.7 31.7 512H512V31.7Z"/><path fill="#333" d="m255 245.7 22.1-12-22-12a78 78 0 0 0-65-65l-12-22-12 22a78 78 0 0 0-65 65l-22 12 22 12a78 78 0 0 0 65 65l12 22.1 12-22a78 78 0 0 0 65-65l-.1-.1Zm-77 32.6a44.5 44.5 0 1 1 0-89 44.5 44.5 0 0 1 0 89Z"/><path fill="#D80027" d="m178 200.3 9.7 16.7H207l-9.6 16.7 9.6 16.7h-19.3l-9.6 16.7-9.7-16.7h-19.2l9.6-16.7-9.6-16.7h19.2l9.6-16.7Z"/></g><defs><clipPath id="a"><path fill="#fff" d="M0 0h512v512H0z"/></clipPath></defs></svg>