<svg xmlns="http://www.w3.org/2000/svg" width="512" height="512" fill="none"><g clip-path="url(#a)"><path fill="#0052B4" d="M0 0h512v512H0z"/><path fill="#EEE" d="m100.2 256.1 155.8-98 155.8 98-155.8 98-155.8-98Z"/><path fill="#6DA544" d="M167 300.6h200.3l-44.5-66.8-22.3 22.3-22.2-11-22.3 33.3h-44.5l-22.3-22.3-22.2 44.5Z"/><path fill="#FFC635" d="m256 189.3 5.5 17h18l-14.6 10.5 5.6 17-14.5-10.5-14.5 10.5 5.6-17-14.5-10.5h17.9l5.5-17Z"/><path fill="#D80027" fill-rule="evenodd" d="M0 0h512v512H0V0Zm272 149.3L416.3 240H480V32H272v117.3ZM416.6 272 272 363v117h208V272h-63.4ZM240 363 95.4 272H32v208h208V363ZM95.7 240H32V32h208v117.3L95.7 240ZM256 335.2l-125.7-79.1L256 177l125.8 79.1L256 335.2Z" clip-rule="evenodd"/></g><defs><clipPath id="a"><path fill="#fff" d="M0 0h512v512H0z"/></clipPath></defs></svg>