<svg xmlns="http://www.w3.org/2000/svg" width="512" height="512" fill="none"><g clip-path="url(#a)"><path fill="#0052B4" d="M0 0h512v512H0z"/><path fill="#EEE" d="m100.2 256.1 155.8-98 155.8 98-155.8 98-155.8-98Z"/><path fill="#6DA544" d="M167 300.6h200.3l-44.5-66.8-22.3 22.3-22.2-11-22.3 33.3h-44.5l-22.3-22.3-22.2 44.5Z"/><path fill="#FFC635" d="m256 189.3 5.5 17h18l-14.6 10.5 5.6 17-14.5-10.5-14.5 10.5 5.6-17-14.5-10.5h17.9l5.5-17Z"/><path fill="#D80027" fill-rule="evenodd" d="M0 0v512h512V0H0Zm478.7 33.3h-206v107.4l156.9 98.6h49.1v-206Zm0 239.4H430l-157.3 98.9v107.1h206v-206Zm-445.4 206v-206H82l157.3 99v107h-206Zm0-445.4v206h49.1l157-98.7V33.3H33.3ZM256 169.6l137.6 86.5L256 342.6l-137.6-86.5L256 169.6Z" clip-rule="evenodd"/></g><defs><clipPath id="a"><path fill="#fff" d="M0 0h512v512H0z"/></clipPath></defs></svg>