<svg xmlns="http://www.w3.org/2000/svg" width="512" height="512" fill="none"><path fill="#0052B4" d="M0 0h512v512H0z"/><path fill="#A2001D" d="M0 467.5h512V512H0v-44.5ZM0 0h512v44.5H0V0Z"/><path fill="#EEE" d="M256 378.4a122.4 122.4 0 1 0 0-244.8 122.4 122.4 0 0 0 0 244.8Z"/><path fill="#6DA544" d="M256 356.2a100.2 100.2 0 1 0 0-200.4 100.2 100.2 0 0 0 0 200.4Z"/><path fill="#EEE" d="M256 322.8a66.8 66.8 0 1 0 0-133.6 66.8 66.8 0 0 0 0 133.6Z"/><path fill="#0052B4" d="M256 239.3 219.8 256v27.8l36.2 22.3 36.2-22.3V256L256 239.3Z"/><path fill="#FFC635" d="M219.8 222.6h72.4V256h-72.4v-33.4Z"/></svg>