<svg xmlns="http://www.w3.org/2000/svg" width="512" height="512" fill="none"><path fill="#EEE" d="M0 0h512v512H0z"/><path fill="#0052B4" d="M0 269.1v34.3h.1c21.3 0 21.3 19.5 42.6 19.5 21.4 0 21.4-19.5 42.7-19.5 21.3 0 21.3 19.5 42.7 19.5 21.4 0 21.3-19.5 42.6-19.5 21.4 0 21.4 19.5 42.7 19.5 21.3 0 21.3-19.5 42.7-19.5 21.4 0 21.4 19.5 42.7 19.5 21.3 0 21.3-19.5 42.7-19.5 21.3 0 21.3 19.5 42.6 19.5 21.4 0 21.4-19.5 42.7-19.5 21.3 0 21.3 19.5 42.7 19.5 21.4 0 21.3-19.4 42.5-19.5v-34.3c-21.2 0-21.2 19.5-42.5 19.5s-21.4-19.5-42.7-19.5c-21.3 0-21.3 19.5-42.7 19.5-21.3 0-21.3-19.5-42.6-19.5-21.4 0-21.4 19.5-42.7 19.5-21.3 0-21.3-19.5-42.7-19.5-21.4 0-21.4 19.5-42.7 19.5-21.3 0-21.3-19.5-42.7-19.5-21.3 0-21.3 19.5-42.6 19.5s-21.4-19.5-42.7-19.5c-21.3 0-21.3 19.5-42.7 19.5-21.3 0-21.3-19.5-42.6-19.5H0Zm0 66.6V370h.1c21.4 0 21.4 19.5 42.7 19.5 21.3 0 21.3-19.5 42.7-19.5 21.3 0 21.3 19.5 42.6 19.5 21.4 0 21.4-19.5 42.7-19.5 21.3 0 21.3 19.5 42.7 19.5 21.4 0 21.3-19.5 42.6-19.5 21.4 0 21.4 19.5 42.7 19.5 21.3 0 21.3-19.5 42.7-19.5 21.4 0 21.4 19.5 42.7 19.5 21.3 0 21.3-19.5 42.7-19.5 21.3 0 21.3 19.5 42.6 19.5s21.4-19.4 42.5-19.5v-34.3c-21.1.1-21.2 19.5-42.5 19.5s-21.3-19.5-42.6-19.5c-21.4 0-21.4 19.5-42.7 19.5-21.3 0-21.3-19.5-42.7-19.5-21.4 0-21.4 19.5-42.7 19.5-21.3 0-21.3-19.5-42.7-19.5-21.3 0-21.3 19.5-42.6 19.5s-21.4-19.5-42.7-19.5c-21.3 0-21.3 19.5-42.7 19.5-21.3 0-21.3-19.5-42.6-19.5-21.4 0-21.4 19.5-42.7 19.5-21.3 0-21.3-19.5-42.7-19.5H0Zm0 67.1V512h92.6l168.1-21.3L419.4 512H512V402.8c-21.2 0-21.2 19.5-42.5 19.5s-21.4-19.5-42.7-19.5c-21.3 0-21.3 19.5-42.7 19.5-21.3 0-21.3-19.5-42.6-19.5-21.4 0-21.4 19.5-42.7 19.5-21.3 0-21.3-19.5-42.7-19.5-21.4 0-21.4 19.5-42.7 19.5-21.3 0-21.3-19.5-42.7-19.5-21.3 0-21.3 19.5-42.6 19.5s-21.4-19.5-42.7-19.5c-21.3 0-21.3 19.5-42.7 19.5-21.3 0-21.3-19.5-42.6-19.5H0Z"/><path fill="#FFC635" d="m201.9 345-10 78.7-77.8-14.9 37.7 68.7c-21.1 9-41 20.5-59.2 34.5h326.8c-18.1-14-38-25.6-59-34.5l37.7-68.7-77.9 15-9.9-78.8-54.2 58-54.2-58Z"/><g clip-path="url(#a)"><path fill="#0052B4" d="M0-128h512v512H0z"/><path fill="#EEE" d="M464 384h48v-48L304 128 512-80v-48h-48L256 80 48-128H0v48l208 208L0 336v48h48l208-208 208 208Z"/><path fill="#EEE" d="M512 192V64H320v-192H192V64H0v128h192v192h128V192h192Z"/><path fill="#D80027" d="M512 160V96H288v-224h-64V96H0v64h224v224h64V160h224Z"/><path fill="#D80027" d="M0-96v-32L192 64h-32L0-96Zm512 448v32L320 192h32l160 160ZM32 384H0l192-192v32L32 384Zm448-512h32L320 64V32l160-160Z"/><path fill="#FFC635" fill-rule="evenodd" d="M181 88v80h150V88h-37.5H331l-18.8 43.3L293.6 88l-18.8 43.3L256 88l-18.8 43.3L218.6 88l-18.8 43.3L181 88Zm99.1 0H256h24.1Zm-37.5 0h-24.1 24.1Z" clip-rule="evenodd"/></g><defs><clipPath id="a"><path fill="#fff" d="M0 0h512v256H0z"/></clipPath></defs></svg>