<svg xmlns="http://www.w3.org/2000/svg" width="512" height="512" fill="none"><path fill="#EEE" d="M0 0h512v512H0z"/><path fill="#0052B4" d="M0 269.1v34.3h.1c21.3 0 21.3 19.5 42.6 19.5 21.4 0 21.4-19.5 42.7-19.5 21.3 0 21.3 19.5 42.7 19.5 21.4 0 21.3-19.5 42.6-19.5 21.4 0 21.4 19.5 42.7 19.5 21.3 0 21.3-19.5 42.7-19.5 21.4 0 21.4 19.5 42.7 19.5 21.3 0 21.3-19.5 42.7-19.5 21.3 0 21.3 19.5 42.6 19.5 21.4 0 21.4-19.5 42.7-19.5 21.3 0 21.3 19.5 42.7 19.5 21.4 0 21.3-19.4 42.5-19.5v-34.3c-21.2 0-21.2 19.5-42.5 19.5s-21.4-19.5-42.7-19.5c-21.3 0-21.3 19.5-42.7 19.5-21.3 0-21.3-19.5-42.6-19.5-21.4 0-21.4 19.5-42.7 19.5-21.3 0-21.3-19.5-42.7-19.5-21.4 0-21.4 19.5-42.7 19.5-21.3 0-21.3-19.5-42.7-19.5-21.3 0-21.3 19.5-42.6 19.5s-21.4-19.5-42.7-19.5c-21.3 0-21.3 19.5-42.7 19.5-21.3 0-21.3-19.5-42.6-19.5H0Zm0 66.6V370h.1c21.4 0 21.4 19.5 42.7 19.5 21.3 0 21.3-19.5 42.7-19.5 21.3 0 21.3 19.5 42.6 19.5 21.4 0 21.4-19.5 42.7-19.5 21.3 0 21.3 19.5 42.7 19.5 21.4 0 21.3-19.5 42.6-19.5 21.4 0 21.4 19.5 42.7 19.5 21.3 0 21.3-19.5 42.7-19.5 21.4 0 21.4 19.5 42.7 19.5 21.3 0 21.3-19.5 42.7-19.5 21.3 0 21.3 19.5 42.6 19.5s21.4-19.4 42.5-19.5v-34.3c-21.1.1-21.2 19.5-42.5 19.5s-21.3-19.5-42.6-19.5c-21.4 0-21.4 19.5-42.7 19.5-21.3 0-21.3-19.5-42.7-19.5-21.4 0-21.4 19.5-42.7 19.5-21.3 0-21.3-19.5-42.7-19.5-21.3 0-21.3 19.5-42.6 19.5s-21.4-19.5-42.7-19.5c-21.3 0-21.3 19.5-42.7 19.5-21.3 0-21.3-19.5-42.6-19.5-21.4 0-21.4 19.5-42.7 19.5-21.3 0-21.3-19.5-42.7-19.5H0Zm0 67.1V512h92.6l168.1-21.3L419.4 512H512V402.8c-21.2 0-21.2 19.5-42.5 19.5s-21.4-19.5-42.7-19.5c-21.3 0-21.3 19.5-42.7 19.5-21.3 0-21.3-19.5-42.6-19.5-21.4 0-21.4 19.5-42.7 19.5-21.3 0-21.3-19.5-42.7-19.5-21.4 0-21.4 19.5-42.7 19.5-21.3 0-21.3-19.5-42.7-19.5-21.3 0-21.3 19.5-42.6 19.5s-21.4-19.5-42.7-19.5c-21.3 0-21.3 19.5-42.7 19.5-21.3 0-21.3-19.5-42.6-19.5H0Z"/><path fill="#FFDA44" d="m201.9 345-10 78.7-77.8-14.9 37.7 68.7c-21.1 9-41 20.5-59.2 34.5h326.8c-18.1-14-38-25.6-59-34.5l37.7-68.7-77.9 15-9.9-78.8-54.2 58-54.2-58Z"/><g clip-path="url(#a)"><path fill="#EEE" d="M0-128h512v512H0z"/><path fill="#0052B4" d="M189.2-128h-142l142 142v-142ZM0 61.2v-142l142 142H0Zm0 275.6v-142h142L0 336.8ZM189.2 384h-142l142-142v142Zm275.6 0h-142V242l142 142ZM512 194.8v142l-142-142h142Zm0-275.6v142H370l142-142ZM322.8-128h142l-142 142v-142Z"/><path fill="#D80027" d="M512-128 322.8 61.2V29.7L480.5-128H512Z"/><path fill="#D80027" d="M512 94.6H289.4V-128h-66.8V94.6H0v66.8h222.6V384h66.8V161.4H512V94.6Z"/><path fill="#D80027" d="M512 352.5 354.3 194.8h-31.5L512 384v-31.5ZM31.5 384l157.7-157.7v-31.5L0 384h31.5ZM0-128 189.2 61.2h-31.5L0-96.5V-128Z"/><path fill="#FFDA44" fill-rule="evenodd" d="M181 88v80h150V88h-37.5H331l-18.8 43.3L293.6 88l-18.8 43.3L256 88l-18.8 43.3L218.6 88l-18.8 43.3L181 88Zm99.1 0H256h24.1Zm-37.5 0h-24.1 24.1Z" clip-rule="evenodd"/></g><defs><clipPath id="a"><path fill="#fff" d="M0 0h512v256H0z"/></clipPath></defs></svg>