<svg xmlns="http://www.w3.org/2000/svg" width="512" height="512" fill="none"><path fill="var(--flag-palette-white, #eeeeee)" d="M0 0h512v512H0z"/><path fill="var(--flag-palette-blue, #0052b4)" d="M0 269.1v34.3h.1c21.3 0 21.3 19.5 42.6 19.5s21.4-19.5 42.7-19.5 21.3 19.5 42.7 19.5 21.3-19.5 42.6-19.5 21.4 19.5 42.7 19.5 21.3-19.5 42.7-19.5 21.4 19.5 42.7 19.5 21.3-19.5 42.7-19.5c21.3 0 21.3 19.5 42.6 19.5s21.4-19.5 42.7-19.5 21.3 19.5 42.7 19.5 21.3-19.4 42.5-19.5v-34.3c-21.2 0-21.2 19.5-42.5 19.5s-21.4-19.5-42.7-19.5-21.3 19.5-42.7 19.5c-21.3 0-21.3-19.5-42.6-19.5s-21.4 19.5-42.7 19.5-21.3-19.5-42.7-19.5-21.4 19.5-42.7 19.5-21.3-19.5-42.7-19.5c-21.3 0-21.3 19.5-42.6 19.5s-21.4-19.5-42.7-19.5-21.3 19.5-42.7 19.5c-21.3 0-21.3-19.5-42.6-19.5zm0 66.6V370h.1c21.4 0 21.4 19.5 42.7 19.5S64.1 370 85.5 370c21.3 0 21.3 19.5 42.6 19.5s21.4-19.5 42.7-19.5 21.3 19.5 42.7 19.5 21.3-19.5 42.6-19.5 21.4 19.5 42.7 19.5 21.3-19.5 42.7-19.5 21.4 19.5 42.7 19.5 21.3-19.5 42.7-19.5c21.3 0 21.3 19.5 42.6 19.5s21.4-19.4 42.5-19.5v-34.3c-21.1.1-21.2 19.5-42.5 19.5s-21.3-19.5-42.6-19.5-21.4 19.5-42.7 19.5-21.3-19.5-42.7-19.5-21.4 19.5-42.7 19.5-21.3-19.5-42.7-19.5c-21.3 0-21.3 19.5-42.6 19.5s-21.4-19.5-42.7-19.5-21.3 19.5-42.7 19.5c-21.3 0-21.3-19.5-42.6-19.5s-21.4 19.5-42.7 19.5S21.5 335.7.1 335.7zm0 67.1V512h92.6l168.1-21.3L419.4 512H512V402.8c-21.2 0-21.2 19.5-42.5 19.5s-21.4-19.5-42.7-19.5-21.3 19.5-42.7 19.5c-21.3 0-21.3-19.5-42.6-19.5s-21.4 19.5-42.7 19.5-21.3-19.5-42.7-19.5-21.4 19.5-42.7 19.5-21.3-19.5-42.7-19.5c-21.3 0-21.3 19.5-42.6 19.5s-21.4-19.5-42.7-19.5-21.3 19.5-42.7 19.5c-21.3 0-21.3-19.5-42.6-19.5z"/><path fill="var(--flag-palette-dark-yellow, #ffc635)" d="m201.9 345-10 78.7-77.8-14.9 37.7 68.7Q120 491 92.6 512h326.8q-27.3-21-59-34.5l37.7-68.7-77.9 15-9.9-78.8-54.2 58z"/><g clip-path="url(#a)"><path fill="var(--flag-palette-blue, #0052b4)" d="M0-128h512v512H0z"/><path fill="var(--flag-palette-white, #eeeeee)" d="M464 384h48v-48L304 128 512-80v-48h-48L256 80 48-128H0v48l208 208L0 336v48h48l208-208z"/><path fill="var(--flag-palette-white, #eeeeee)" d="M512 192V64H320v-192H192V64H0v128h192v192h128V192z"/><path fill="var(--flag-palette-bright-red, #d80027)" d="M512 160V96H288v-224h-64V96H0v64h224v224h64V160z"/><path fill="var(--flag-palette-bright-red, #d80027)" d="M0-96v-32L192 64h-32zm512 448v32L320 192h32zM32 384H0l192-192v32zm448-512h32L320 64V32z"/><path fill="var(--flag-palette-dark-yellow, #ffc635)" fill-rule="evenodd" d="M181 88v80h150V88h-37.5H331l-18.7 43.3L293.5 88l-18.7 43.3L256 88l-18.7 43.3L218.5 88l-18.7 43.3zm99.1 0H256zm-37.5 0h-24.1z" clip-rule="evenodd"/></g><defs><clipPath id="a"><path fill="#fff" d="M0 0h512v256H0z"/></clipPath></defs></svg>