<svg xmlns="http://www.w3.org/2000/svg" width="512" height="512" fill="none"><g clip-path="url(#a)"><path fill="#0052B4" d="M0 0h512v512H0z"/><path fill="#EEE" d="M512 289.4v-66.8H289.4V0h-66.8v222.6H0v66.8h222.6V512h66.8V289.4H512Z"/><path fill="#EEE" fill-rule="evenodd" d="M384.7 63.3v32h-32v32h32v32h32v-32h32v-32h-32v-32h-32ZM95.3 384.7v-32h32v32h32v32h-32v32h-32v-32h-32v-32h32Zm289.4 0v-32h32v32h32v32h-32v32h-32v-32h-32v-32h32ZM95.3 95.3v-32h32v32h32v32h-32v32h-32v-32h-32v-32h32Z" clip-rule="evenodd"/></g><defs><clipPath id="a"><path fill="#fff" d="M0 0h512v512H0z"/></clipPath></defs></svg>