<svg xmlns="http://www.w3.org/2000/svg" width="512" height="512" fill="none"><g clip-path="url(#a)"><path fill="var(--flag-palette-blue, #0052b4)" d="M0 0h512v512H0z"/><path fill="#EEE" d="M512 288v-64H288V0h-64v224H0v64h224v224h64V288z"/><path fill="#EEE" fill-rule="evenodd" d="M384 64v32h-32v32h32v32h32v-32h32V96h-32V64zM96 384v-32h32v32h32v32h-32v32H96v-32H64v-32zm288 0v-32h32v32h32v32h-32v32h-32v-32h-32v-32zM96 96V64h32v32h32v32h-32v32H96v-32H64V96z" clip-rule="evenodd"/></g><defs><clipPath id="a"><path fill="#fff" d="M0 0h512v512H0z"/></clipPath></defs></svg>