<svg width="512" height="512" viewBox="0 0 512 512" fill="none" xmlns="http://www.w3.org/2000/svg">
<rect width="512" height="512" fill="var(--flag-palette-dark-green, #496e2d)"/>
<path fill-rule="evenodd" clip-rule="evenodd" d="M392.984 122.435L400.009 137.124L415.873 133.456L408.77 148.108L421.526 158.225L405.642 161.804L405.685 178.087L392.984 167.9L380.282 178.087L380.326 161.804L364.444 158.225L377.2 148.108L370.096 133.456L385.959 137.124L392.984 122.435ZM334.658 226.167L327.632 211.478L320.608 226.167L304.743 222.5L311.848 237.152L299.091 247.268L314.973 250.848L314.93 267.13L327.632 256.944L340.335 267.13L340.291 250.848L356.174 247.268L343.417 237.152L350.522 222.5L334.658 226.167ZM400.009 381.993L392.984 367.304L385.959 381.993L370.096 378.327L377.2 392.978L364.443 403.094L380.326 406.674L380.282 422.957L392.984 412.77L405.687 422.957L405.642 406.674L421.526 403.094L408.769 392.978L415.873 378.327L400.009 381.993ZM457.092 203.906L450.067 189.217L443.042 203.906L427.178 200.239L434.283 214.891L421.526 225.007L437.408 228.587L437.365 244.87L450.067 234.683L462.77 244.87L462.726 228.587L478.609 225.007L465.852 214.891L472.957 200.239L457.092 203.906ZM409.249 267.13L414.776 284.137H432.657L418.19 294.647L423.717 311.652L409.249 301.143L394.784 311.652L400.309 294.647L385.843 284.137H403.724L409.249 267.13ZM211.477 256C211.477 295.956 243.869 328.348 283.826 328.348C296.284 328.348 308.007 325.197 318.24 319.65C302.186 335.352 280.23 345.042 255.998 345.042C206.822 345.042 166.956 305.176 166.956 255.999C166.956 206.822 206.822 166.956 255.998 166.956C280.231 166.956 302.186 176.646 318.241 192.348C308.007 186.803 296.284 183.652 283.826 183.652C243.868 183.652 211.477 216.044 211.477 256Z" fill="var(--flag-palette-yellow, #ffda44)"/>
<path d="M127.617 66.7893C119.917 53.4853 105.542 44.5283 89.0656 44.5283C72.5896 44.5283 58.2146 53.4853 50.5146 66.7893H127.617Z" fill="var(--flag-palette-yellow, #ffda44)"/>
<path d="M127.764 67.0464L89.0649 105.745L50.3659 67.0464C46.6669 73.5374 44.5439 81.0444 44.5439 89.0504C44.5439 113.639 64.4769 133.572 89.0659 133.572C113.655 133.572 133.588 113.64 133.588 89.0504C133.587 81.0444 131.463 73.5374 127.764 67.0464Z" fill="var(--flag-palette-yellow, #ffda44)"/>
<path d="M77.9336 94.6152V132.169C81.4906 133.084 85.2206 133.571 89.0636 133.571C92.9066 133.571 96.6366 133.083 100.194 132.169V94.6152H77.9336Z" fill="var(--flag-palette-dark-red, #a2001d)"/>
</svg>