<svg xmlns="http://www.w3.org/2000/svg" width="512" height="512" fill="none"><path fill="var(--flag-palette-dark-green, #496e2d)" d="M0 0h512v512H0z"/><path fill="var(--flag-palette-yellow, #ffda44)" d="m400 382 15.9-3.7-7.1 14.7 12.7 10-15.9 3.7V423L393 412.8 380.3 423v-16.3l-15.9-3.6 12.8-10.1-7.1-14.7L386 382l7-14.7zM256 167c24.2 0 46.2 9.6 62.2 25.3a72.3 72.3 0 1 0 0 127.3A89 89 0 1 1 256 167m158.8 117h17.9l-14.5 10.5 5.5 17-14.5-10.5-14.4 10.6 5.5-17-14.5-10.6h18l5.4-17zm-80.1-58 15.8-3.6-7 14.7 12.7 10-16 3.6.1 16.3-12.7-10.2-12.7 10.2v-16.3l-15.8-3.5 12.7-10.1-7-14.7 15.8 3.7 7-14.7zM457 204l15.9-3.7-7.1 14.7 12.7 10.1-15.9 3.6V245L450 234.8 437.3 245v-16.3l-15.9-3.6 12.8-10.1-7.1-14.7L443 204l7-14.7zm-57-66.8 15.8-3.6-7.1 14.6 12.7 10.1-15.9 3.6v16.3L393 167.9l-12.7 10.2v-16.3l-15.9-3.6 12.8-10-7.1-14.7L386 137l7-14.7zM127.6 66.8a44.5 44.5 0 0 0-77 0zm.2.2L89 105.7 50.4 67q-5.7 9.9-5.9 22a44.5 44.5 0 1 0 83.3-22"/><path fill="var(--flag-palette-dark-red, #a2001d)" d="M78 94.6v37.6a45 45 0 0 0 22.2 0V94.6z"/></svg>