<svg xmlns="http://www.w3.org/2000/svg" width="512" height="512" fill="none"><path fill="#0052B4" d="M0 0h512v512H0z"/><g clip-path="url(#a)"><path fill="#0052B4" d="M-256-256h512v512h-512z"/><path fill="#EEE" d="M208 256h48v-48L48 0l208-208v-48h-48L0-48l-208-208h-48v48L-48 0l-208 208v48h48L0 48l208 208Z"/><path fill="#EEE" d="M256 64V-64H64v-192H-64v192h-192V64h192v192H64V64h192Z"/><path fill="#D80027" d="M256 32v-64H32v-224h-64v224h-224v64h224v224h64V32h224Z"/><path fill="#D80027" d="M256 224v32L64 64h32l160 160Z"/></g><path fill="#EEE" d="m384 140.2 6.2 19H410l-16 11.5 6.1 19L384 178l-16.1 11.7 6.1-19-16.1-11.7h20l6.1-19ZM302 174l17.9 9.1 14-14-3 19.6 17.7 9-19.7 3.2-3.1 19.7-9-17.8L297 206l14.1-14.1-9-17.8Zm-33.8 82 19-6.2V230l11.6 16.1 19-6.1-11.7 16.1 11.7 16.1-19-6.1-11.7 16.1v-20l-19-6.1Zm33.8 82 9.1-17.9-14-14 19.6 3 9-17.7 3.2 19.7 19.7 3.1-17.8 9L334 343l-14.1-14.1-17.8 9Zm82 33.8-6.2-19H358l16.1-11.6-6.1-19 16.1 11.7 16.1-11.7-6.1 19 16.1 11.7h-20l-6.1 19Zm82-33.8-17.9-9.1-14 14 3-19.6-17.7-9 19.7-3.2 3.1-19.7 9 17.8L471 306l-14.1 14.1 9 17.8Zm33.8-82-19 6.2V282l-11.5-16-19 6.1L462 256l-11.7-16.1 19 6.1 11.7-16.1v20l19 6.1ZM466 174l-9.1 17.9 14 14-19.6-3-9 17.7-3.2-19.7-19.7-3.1 17.8-9L434 169l14.1 14.1 17.8-9Z"/><defs><clipPath id="a"><path fill="#fff" d="M0 0h512v512H0z"/></clipPath></defs></svg>