<svg width="512" height="512" viewBox="0 0 512 512" fill="none" xmlns="http://www.w3.org/2000/svg">
<rect width="512" height="512" fill="var(--flag-palette-navy, #002266)"/>
<rect width="256" height="256" fill="var(--flag-palette-navy, #002266)"/>
<path d="M232 256H256V232L152 128L256 24V0H232L128 104L24 0H0V24L104 128L0 232V256H24L128 152L232 256Z" fill="var(--flag-palette-white, #eeeeee)"/>
<path d="M256 160V96H160V0H96V96H0V160H96V256H160V160H256Z" fill="var(--flag-palette-white, #eeeeee)"/>
<path d="M256 144V112H144V0H112V112H0V144H112V256H144V144H256Z" fill="var(--flag-palette-bright-red, #d80027)"/>
<path d="M0 16V0L96 96H80L0 16Z" fill="var(--flag-palette-bright-red, #d80027)"/>
<path d="M256 240L256 256L160 160L176 160L256 240Z" fill="var(--flag-palette-bright-red, #d80027)"/>
<path d="M16 256L0 256L96 160L96 176L16 256Z" fill="var(--flag-palette-bright-red, #d80027)"/>
<path d="M240 -6.99382e-07L256 0L160 96L160 80L240 -6.99382e-07Z" fill="var(--flag-palette-bright-red, #d80027)"/>
<path d="M383.999 140.162L390.163 159.124H410.1L393.971 170.843L400.132 189.806L383.999 178.086L367.869 189.806L374.031 170.843L357.902 159.124H377.838L383.999 140.162Z" fill="var(--flag-palette-white, #eeeeee)"/>
<path d="M302.091 174.091L319.855 183.141L333.954 169.043L330.835 188.737L348.6 197.788L328.907 200.905L325.789 220.601L316.736 202.835L297.044 205.954L311.144 191.856L302.091 174.091Z" fill="var(--flag-palette-white, #eeeeee)"/>
<path d="M268.162 255.999L287.124 249.838L287.127 229.903L298.843 246.03L317.806 239.868L306.087 255.999L317.806 272.132L298.843 265.971L287.127 282.099V262.163L268.162 255.999Z" fill="var(--flag-palette-white, #eeeeee)"/>
<path d="M302.091 337.908L311.142 320.143L297.044 306.046L316.737 309.165L325.789 291.399L328.907 311.093L348.6 314.21L330.835 323.263L333.954 342.957L319.855 328.855L302.091 337.908Z" fill="var(--flag-palette-white, #eeeeee)"/>
<path d="M384 371.838L377.839 352.875H357.901L374.031 341.156L367.87 322.194L384 333.913L400.132 322.194L393.971 341.156L410.1 352.875H390.164L384 371.838Z" fill="var(--flag-palette-white, #eeeeee)"/>
<path d="M465.908 337.908L448.143 328.859L434.046 342.957L437.165 323.263L419.399 314.212L439.093 311.093L442.212 291.399L451.263 309.165L470.956 306.046L456.855 320.144L465.908 337.908Z" fill="var(--flag-palette-white, #eeeeee)"/>
<path d="M499.838 255.999L480.874 262.163V282.099L469.156 265.969L450.193 272.132L461.913 255.999L450.193 239.868L469.156 246.03L480.874 229.903V249.838L499.838 255.999Z" fill="var(--flag-palette-white, #eeeeee)"/>
<path d="M465.908 174.093L456.859 191.857L470.956 205.955L451.263 202.835L442.212 220.602L439.093 200.906L419.399 197.788L437.165 188.737L434.046 169.045L448.144 183.142L465.908 174.093Z" fill="var(--flag-palette-white, #eeeeee)"/>
</svg>