<svg xmlns="http://www.w3.org/2000/svg" width="512" height="512" fill="none"><path fill="#026" d="M0 0h512v512H0z"/><path fill="#026" d="M0 0h256v256H0z"/><path fill="#EEE" d="M232 256h24v-24L152 128 256 24V0h-24L128 104 24 0H0v24l104 104L0 232v24h24l104-104z"/><path fill="#EEE" d="M256 160V96h-96V0H96v96H0v64h96v96h64v-96z"/><path fill="#D80027" d="M256 144v-32H144V0h-32v112H0v32h112v112h32V144z"/><path fill="#D80027" d="M0 16V0l96 96H80zm256 224v16l-96-96h16zM16 256H0l96-96v16zM240 0h16l-96 96V80z"/><path fill="#EEE" d="m384 140.2 6.2 19H410l-16 11.5 6.1 19L384 178l-16.1 11.7 6.1-19-16.1-11.7h20zM302 174l17.9 9.1 14-14-3 19.6 17.7 9-19.7 3.2-3.1 19.7-9-17.8L297 206l14.1-14.1zm-33.8 82 19-6.2V230l11.6 16.1 19-6.1-11.7 16.1 11.7 16.1-19-6.1-11.7 16.1v-20zm33.8 82 9.1-17.9-14-14 19.6 3 9-17.7 3.2 19.7 19.7 3.1-17.8 9L334 343l-14.1-14.1zm82 33.8-6.2-19H358l16.1-11.6-6.1-19 16.1 11.7 16.1-11.7-6.1 19 16.1 11.7h-20zm82-33.8-17.9-9.1-14 14 3-19.6-17.7-9 19.7-3.2 3.1-19.7 9 17.8L471 306l-14.1 14.1zm33.8-82-19 6.2V282l-11.5-16-19 6.1L462 256l-11.7-16.1 19 6.1 11.7-16.1v20zM466 174l-9.1 17.9 14 14-19.6-3-9 17.7-3.2-19.7-19.7-3.1 17.8-9L434 169l14.1 14.1z"/></svg>