<svg width="512" height="512" viewBox="0 0 512 512" fill="none" xmlns="http://www.w3.org/2000/svg">
<rect width="512" height="512" fill="var(--flag-palette-light-blue, #338af3)"/>
<path d="M312 256L428 218L356 317V195L428 294L312 256ZM320 325C305.162 348.423 283.119 366.394 257.188 376.21C231.256 386.026 202.839 387.157 176.21 379.432C149.58 371.707 126.18 355.544 109.527 333.374C92.8749 311.205 83.8716 284.227 83.8716 256.5C83.8716 228.773 92.8749 201.796 109.527 179.626C126.18 157.456 149.58 141.293 176.21 133.568C202.839 125.843 231.256 126.974 257.188 136.79C283.119 146.606 305.162 164.577 320 188C306.166 172.736 288.034 162.02 267.991 157.26C247.948 152.5 226.934 153.921 207.714 161.335C188.494 168.749 171.97 181.809 160.316 198.796C148.661 215.782 142.424 235.9 142.424 256.5C142.424 277.1 148.661 297.218 160.316 314.204C171.97 331.191 188.494 344.251 207.714 351.665C226.934 359.079 247.948 360.5 267.991 355.74C288.034 350.98 306.166 340.264 320 325Z" fill="var(--flag-palette-white, #eeeeee)"/>
</svg>