<svg xmlns="http://www.w3.org/2000/svg" width="512" height="512" fill="none"><g clip-path="url(#a)"><path fill="#EEE" d="M0 0h512v512H0z"/><path fill="#D80027" d="M512 289.4v-66.8H289.4V0h-66.8v222.6H0v66.8h222.6V512h66.8V289.4H512Z"/><path fill="#D80027" d="M0 0h256v256H0z"/><path fill="#FFDA44" d="M79.3 19.2a23 23 0 0 0-23 23v16h-9v-9c0-10-8-18-18-18-2 0-4 2-4 4v42c0 2 2 4 4 4h27a21 21 0 0 0 21 22v9h-8c-11 0-19 8-19 18 0 3 2 5 5 5h41c3 0 5-2 5-5v-28h57v9h-9c-10 0-18 8-18 18 0 2 2 4 4 4h42c2 0 4-2 4-4v-55c9 0 16-7 16-16s-7-16-16-16h-54c-3 0-5-2-5-5s2-6 5-6h54v-10h-54c-8 0-16 7-16 16 0 8 8 16 16 16h54c3 0 6 2 6 5s-3 5-6 5h-58c-12 0-22-9-22-21a23 23 0 0 0-22-23Zm0 135a23 23 0 0 0-23 23v16h-9v-9c0-10-8-18-18-18-2 0-4 2-4 4v42c0 2 2 4 4 4h27a21 21 0 0 0 21 22v9h-8c-11 0-19 8-19 18 0 3 2 5 5 5h41c3 0 5-2 5-5v-28h57v9h-9c-10 0-18 8-18 18 0 2 2 4 4 4h42c2 0 4-2 4-4v-55c9 0 16-7 16-16s-7-16-16-16h-54c-3 0-5-2-5-5s2-6 5-6h54v-10h-54c-8 0-16 7-16 16 0 8 8 16 16 16h54c3 0 6 2 6 5s-3 5-6 5h-58c-12 0-22-9-22-21a23 23 0 0 0-22-23Z"/></g><defs><clipPath id="a"><path fill="#fff" d="M0 0h512v512H0z"/></clipPath></defs></svg>