<svg xmlns="http://www.w3.org/2000/svg" width="512" height="512" fill="none"><path fill="#0052B4" d="M0 512h512V0H0v512Z"/><path fill="#EEE" d="M511.8 384H0V256h512v105.1h-.2V384Z"/><path fill="#D80027" d="M0 341.3h512v-42.6H0v42.6Z"/><path fill="#FFC635" d="m223.9 440.3-5.3-16.3-5.3 16.3H196l13.9 10-5.3 16.3 13.9-10 13.8 10-5.3-16.3 13.9-10h-17.1ZM104 357.5l-5.2-16.3-5.3 16.3H76.4l13.8 10-5.3 16.3 13.9-10 13.9 10-5.3-16.2 13.8-10.1h-17.1Zm-1.3-85.1-5.3-16.3-5.3 16.3H75l13.8 10-5.3 16.3 13.9-10 13.8 10-5.3-16.3 14-10h-17.2Zm242.3 0-5.3-16.2-5.3 16.2h-17.2l13.9 10-5.3 16.3 13.9-10 13.8 10-5.3-16.3 13.9-10H345Zm-1.6 85.1-5.3-16.2-5.3 16.2h-17.1l13.8 10-5.3 16.3 13.9-10 13.8 10-5.2-16.3 13.8-10h-17.1ZM218.5 168.6l5.3 16.3h17.1L227.1 195l5.3 16.3-13.9-10-13.9 10L210 195l-13.8-10h17.1l5.3-16.4ZM143.6 193l5.3 16.2H166l-13.8 10.1 5.3 16.3-13.9-10-13.9 10 5.3-16.3-13.8-10h17.1l5.3-16.4Zm155 223-5.3-16.3L288 416h-17.1l13.8 10.1-5.3 16.3 13.9-10 13.9 10-5.3-16.3 13.8-10h-17.1Zm-147.1 2-5.3-16.3L141 418h-17.1l13.8 10-5.2 16.3 13.8-10 13.9 10-5.3-16.3 13.8-10h-17Zm144.9-210.6-5.3-16.3-5.3 16.3h-17l13.8 10-5.3 16.3 13.8-10 13.9 10-5.3-16.3 13.9-10h-17.2Z"/></svg>