<svg xmlns="http://www.w3.org/2000/svg" width="512" height="512" fill="none"><path fill="#0052B4" d="M0 0h512v512H0z"/><path fill="#EEE" d="M0 339.2h512v86.4H0z"/><path fill="#D80027" d="M0 368h512v28.8H0z"/><path fill="#FFC635" d="m241.4 284 4.4 13.4h14.1l-11.4 8.3 4.3 13.5-11.4-8.3-11.5 8.3 4.4-13.5-11.5-8.3H237l4.4-13.5Zm35.4 48.7 4.4 13.5h14.2l-11.5 8.3 4.4 13.5-11.5-8.3-11.4 8.3 4.3-13.5-11.4-8.3h14.1l4.4-13.5Zm0 60.3 4.4 13.5h14.2l-11.5 8.4 4.4 13.5-11.5-8.4-11.4 8.4 4.3-13.5-11.4-8.4h14.1l4.4-13.5Zm-35.4 48.8 4.4 13.5h14.1l-11.4 8.4 4.3 13.5-11.4-8.4-11.5 8.4 4.4-13.5-11.5-8.4H237l4.4-13.5ZM184 460.5l4.4 13.5h14.2l-11.5 8.3 4.4 13.5-11.5-8.3-11.5 8.3 4.4-13.5-11.5-8.3h14.2l4.4-13.5Zm-57.4-18.7 4.4 13.5h14.2l-11.5 8.4 4.4 13.5-11.5-8.4-11.4 8.4 4.3-13.5-11.4-8.4h14.1l4.4-13.5ZM91.2 393l4.4 13.5h14.1L98.3 415l4.4 13.5-11.5-8.4-11.5 8.4 4.4-13.5-11.5-8.4h14.2l4.4-13.5Zm0-60.3 4.4 13.5h14.1l-11.4 8.3 4.4 13.5-11.5-8.3-11.5 8.3 4.4-13.5-11.5-8.3h14.2l4.4-13.5Zm35.4-48.7 4.4 13.4h14.2l-11.5 8.3 4.4 13.5-11.5-8.3-11.4 8.3 4.3-13.5-11.4-8.3h14.2l4.3-13.5Zm57.4-18.7 4.4 13.5h14.2L191 287l4.4 13.5-11.5-8.3-11.5 8.3L177 287l-11.5-8.3h14.2l4.4-13.5Z"/></svg>