<svg width="512" height="512" viewBox="0 0 512 512" fill="none" xmlns="http://www.w3.org/2000/svg">
<rect width="512" height="512" fill="var(--flag-palette-blue, #0052b4)"/>
<path d="M511.81 384H0V256H512V361.129H511.81V384Z" fill="var(--flag-palette-white, #eeeeee)"/>
<path d="M0 341.333H512V298.667H0V341.333Z" fill="var(--flag-palette-bright-red, #d80027)"/>
<path d="M223.851 440.277L218.559 423.979L213.26 440.277H196.127L209.99 450.348L204.693 466.646L218.559 456.574L232.422 466.646L227.127 450.348L240.987 440.277H223.851Z" fill="var(--flag-palette-dark-yellow, #ffc635)"/>
<path d="M104.091 357.497L98.7992 341.239L93.5003 357.497H76.3675L90.2311 367.551L84.9334 383.812L98.7992 373.763L112.663 383.812L107.367 367.551L121.227 357.497H104.091Z" fill="var(--flag-palette-dark-yellow, #ffc635)"/>
<path d="M102.675 272.397L97.3795 256.142L92.084 272.397H74.9512L88.8114 282.445L83.5159 298.704L97.3795 288.656L111.243 298.704L105.948 282.445L119.811 272.397H102.675Z" fill="var(--flag-palette-dark-yellow, #ffc635)"/>
<path d="M344.961 272.419L339.665 256.196L334.366 272.419H317.234L331.097 282.449L325.802 298.672L339.665 288.645L353.529 298.672L348.233 282.449L362.097 272.419H344.961Z" fill="var(--flag-palette-dark-yellow, #ffc635)"/>
<path d="M343.377 357.511L338.082 341.285L332.787 357.511H315.654L329.515 367.541L324.222 383.768L338.083 373.741L351.948 383.768L346.653 367.541L360.516 357.511H343.377Z" fill="var(--flag-palette-dark-yellow, #ffc635)"/>
<path d="M218.496 168.638L223.791 184.935H240.931L227.065 195.006L232.362 211.304L218.497 201.233L204.633 211.304L209.929 195.006L196.068 184.935H213.199L218.496 168.638Z" fill="var(--flag-palette-dark-yellow, #ffc635)"/>
<path d="M143.597 192.94L148.893 209.238H166.032L152.166 219.309L157.464 235.606L143.598 225.535L129.735 235.606L135.03 219.309L121.17 209.238H138.301L143.597 192.94Z" fill="var(--flag-palette-dark-yellow, #ffc635)"/>
<path d="M298.596 416.031L293.304 399.734L288.005 416.031H270.872L284.736 426.102L279.441 442.402L293.304 432.331L307.17 442.402L301.872 426.102L315.736 416.031H298.596Z" fill="var(--flag-palette-dark-yellow, #ffc635)"/>
<path d="M151.51 417.962L146.215 401.664L140.919 417.962H123.783L137.647 428.033L132.351 444.333L146.215 434.258L160.078 444.333L154.783 428.033L168.646 417.962H151.51Z" fill="var(--flag-palette-dark-yellow, #ffc635)"/>
<path d="M296.43 207.369L291.135 191.071L285.84 207.369H268.707L282.568 217.44L277.272 233.737L291.136 223.666L305.002 233.737L299.706 217.44L313.566 207.369H296.43Z" fill="var(--flag-palette-dark-yellow, #ffc635)"/>
</svg>