<svg xmlns="http://www.w3.org/2000/svg" width="512" height="512" fill="none"><path fill="var(--flag-palette-blue, #0052b4)" d="M0 0h512v512H0z"/><path fill="var(--flag-palette-white, #eeeeee)" d="M511.8 384H0V256h512v105.1h-.2z"/><path fill="var(--flag-palette-bright-red, #d80027)" d="M0 341.3h512v-42.6H0z"/><path fill="var(--flag-palette-dark-yellow, #ffc635)" d="m223.9 440.3-5.3-16.3-5.3 16.3H196l13.9 10-5.3 16.3 13.9-10 13.8 10-5.3-16.3 13.9-10zM104 357.5l-5.2-16.3-5.3 16.3H76.4l13.8 10-5.3 16.3 13.9-10 13.9 10-5.3-16.2 13.8-10.1zm-1.3-85.1-5.3-16.3-5.3 16.3H75l13.8 10-5.3 16.3 13.9-10 13.8 10-5.3-16.3 14-10zm242.3 0-5.3-16.2-5.3 16.2h-17.2l13.9 10-5.3 16.3 13.9-10 13.8 10-5.3-16.3 13.9-10zm-1.6 85.1-5.3-16.2-5.3 16.2h-17.1l13.8 10-5.3 16.3 13.9-10 13.8 10-5.2-16.3 13.8-10zM218.5 168.6l5.3 16.3h17.1L227.1 195l5.3 16.3-13.9-10-13.9 10L210 195l-13.8-10h17.1zM143.6 193l5.3 16.2H166l-13.8 10.1 5.3 16.3-13.9-10-13.9 10 5.3-16.3-13.8-10h17.1zm155 223-5.3-16.3L288 416h-17.1l13.8 10.1-5.3 16.3 13.9-10 13.9 10-5.3-16.3 13.8-10zm-147.1 2-5.3-16.3L141 418h-17.1l13.8 10-5.2 16.3 13.8-10 13.9 10-5.3-16.3 13.8-10zm144.9-210.6-5.3-16.3-5.3 16.3h-17l13.8 10-5.3 16.3 13.8-10 13.9 10-5.3-16.3 13.9-10z"/></svg>