<svg xmlns="http://www.w3.org/2000/svg" width="512" height="513" fill="none"><path fill="#0052B4" d="M512 513H0V1h512v512Z"/><path fill="#6DA544" d="M0 1h512v512L0 1Z"/><path fill="#EEE" d="m95.3 368.3 7 14.7 16-3.7L111 394l12.8 10-16 3.7.1 16.3-12.7-10.2L82.6 424v-16.3L66.9 404l12.6-10-7-14.7 15.8 3.7 7-14.7ZM49.4 245.9l7 14.7 15.9-3.7-7.1 14.6 12.7 10.2-15.9 3.5v16.3l-12.6-10.2-12.7 10.2v-16.3l-15.9-3.5 12.8-10.2-7.1-14.6 15.8 3.7 7-14.7Zm45.9-100.2 7 14.7 16-3.7-7.2 14.7 12.8 10-16 3.7.1 16.2-12.7-10.1-12.7 10.1v-16.2l-15.8-3.6 12.7-10.1-7-14.7 15.8 3.7 7-14.7Zm57.1 77.9 7 14.7 15.9-3.7-7.1 14.7 12.7 10.1-15.8 3.6v16.3L152.4 269l-12.7 10.2V263l-15.8-3.6 12.7-10.1-7-14.7 15.8 3.7 7-14.7Zm-40.8 66.8 5.5 17H135l-14.5 10.5 5.6 17-14.5-10.5L97 334.9l5.6-17-14.5-10.5H106l5.5-17Z"/><path fill="#FFDA44" d="M256 323.8a66.8 66.8 0 1 0 0-133.6 66.8 66.8 0 0 0 0 133.6Z"/><path fill="#6DA544" d="M256 301.5h22.3s9.6-17 0-33.4l22.2-22.2-11.1-22.3h-11.1s-5.6 16.7-27.9 16.7c-22.2 0-27.8-16.7-27.8-16.7h-11.1l11.1 22.3-11.1 22.2 11.1 11.2S233.7 257 256 268c0 0 9.5 14 0 33.4Z"/><path fill="#FFDA44" d="M422.2 141.2a44.7 44.7 0 0 0-30-50.8 83.1 83.1 0 0 1 7.5 49.9 45.6 45.6 0 0 0-64.1-14 85.3 85.3 0 0 1 35 16.7c8.3 6.6 15 15.5 20.2 24.1l-68 21.3c66.8 11.2 122.4-33.4 122.4-33.4-6.1-12.3-15.7-14.4-23-13.8Z"/></svg>