<svg xmlns="http://www.w3.org/2000/svg" width="512" height="512" fill="none"><path fill="#0052B4" d="M0 0h256v256H0z"/><path fill="#D80027" d="M512 0v256H256V0z"/><path fill="#0052B4" d="M512 512H256V256h256z"/><path fill="#D80027" d="M0 512V256h256v256z"/><path fill="#EEE" d="M512 322.8V189.2H322.8V0H189.2v189.2H0v133.6h189.2V512h133.6V322.8H512Z"/><mask id="a" width="96" height="102" x="208" y="205" maskUnits="userSpaceOnUse" style="mask-type:alpha"><path fill="#D80027" d="M208 205.4v53.3a48 48 0 1 0 96 0v-53.3h-96Z"/></mask><g mask="url(#a)"><path fill="#D80027" d="M208 205.4v53.3a48 48 0 1 0 96 0v-53.3h-96Z"/><path fill="#0052B4" d="M208 205.4V256h48v-50.6h-48Zm48 50.6v50.6h48V256h-48Z"/></g><path fill="#6DA544" fill-rule="evenodd" d="m240.9 245.8-1.5 4.8a17.5 17.5 0 1 0 33.2 0l-1.5-4.8 9.5-3 1.6 4.7a27.5 27.5 0 1 1-52.4 0l1.6-4.8 9.5 3.1Z" clip-rule="evenodd"/></svg>