<svg xmlns="http://www.w3.org/2000/svg" width="512" height="512" fill="none"><g clip-path="url(#a)"><path fill="#338AF3" d="M0 0h512v141l-64 115 64 115v141H0V371l64-115L0 141V0Z"/><path fill="#EEE" d="M0 141h512v23l-256 16L0 164v-23Z"/><path fill="#333" d="M0 164h512v38l-256 16L0 202v-38Z"/><path fill="#6DA544" d="m0 220 256 16 256-16v-18H0v18Z"/><path fill="#EEE" d="M0 371h512v-23l-256-16L0 348v23Z"/><path fill="#FF9811" d="M0 348h512v-38l-256-16L0 310v38Z"/><path fill="#6DA544" d="m0 292 256-16 256 16v18H0v-18Z"/><path fill="#FFDA44" d="M0 220h512v72H0v-72Z"/><path fill="#EEE" fill-rule="evenodd" d="M304.3 290a64 64 0 1 0-96.6 0L178 301v27h156v-27l-29.7-11Z" clip-rule="evenodd"/></g><defs><clipPath id="a"><path fill="#fff" d="M0 0h512v512H0z"/></clipPath></defs></svg>