<svg width="512" height="512" viewBox="0 0 512 512" fill="none" xmlns="http://www.w3.org/2000/svg">
<rect width="512" height="512" fill="var(--flag-palette-light-blue, #338af3)"/>
<rect y="152" width="512" height="208" fill="var(--flag-palette-white, #eeeeee)"/>
<rect y="176" width="512" height="32" fill="var(--flag-palette-black, #333333)"/>
<rect y="304" width="512" height="32" fill="var(--flag-palette-bright-red, #d80027)"/>
<rect y="208" width="512" height="96" fill="var(--flag-palette-green, #6da544)"/>
<rect y="224" width="512" height="64" fill="var(--flag-palette-yellow, #ffda44)"/>
<path fill-rule="evenodd" clip-rule="evenodd" d="M304.322 289.966C314.088 278.73 320 264.056 320 248C320 212.654 291.346 184 256 184C220.654 184 192 212.654 192 248C192 264.056 197.912 278.73 207.678 289.966L178 301V328H334V301L304.322 289.966Z" fill="var(--flag-palette-white, #eeeeee)"/>
<path fill-rule="evenodd" clip-rule="evenodd" d="M230.437 225.582C234.871 220.526 240.705 216.899 247.2 215.158L243.059 199.704C233.507 202.263 224.928 207.598 218.408 215.033C211.888 222.468 207.719 231.669 206.428 241.474C205.137 251.278 206.783 261.245 211.156 270.114C215.53 278.984 222.436 286.357 231 291.301L239 277.445C233.176 274.082 228.481 269.069 225.506 263.038C222.532 257.007 221.413 250.229 222.291 243.562C223.169 236.895 226.004 230.638 230.437 225.582ZM281.563 225.582C277.129 220.526 271.295 216.899 264.8 215.158L268.941 199.704C278.493 202.263 287.072 207.598 293.592 215.033C300.112 222.468 304.281 231.669 305.572 241.474C306.863 251.278 305.217 261.245 300.844 270.114C296.47 278.984 289.564 286.357 281 291.301L273 277.445C278.824 274.082 283.519 269.069 286.494 263.038C289.468 257.007 290.587 250.229 289.709 243.562C288.831 236.895 285.996 230.638 281.563 225.582Z" fill="var(--flag-palette-green, #6da544)"/>
<circle cx="256" cy="248" r="24" fill="var(--flag-palette-dark-yellow, #ffc635)"/>
</svg>