<svg xmlns="http://www.w3.org/2000/svg" width="512" height="512" fill="none"><path fill="var(--flag-palette-light-blue, #338af3)" d="M0 0h512v512H0z"/><path fill="var(--flag-palette-white, #eeeeee)" d="M0 152h512v208H0z"/><path fill="var(--flag-palette-black, #333333)" d="M0 176h512v32H0z"/><path fill="var(--flag-palette-bright-red, #d80027)" d="M0 304h512v32H0z"/><path fill="var(--flag-palette-green, #6da544)" d="M0 208h512v96H0z"/><path fill="var(--flag-palette-yellow, #ffda44)" d="M0 224h512v64H0z"/><path fill="var(--flag-palette-white, #eeeeee)" fill-rule="evenodd" d="M304.3 290a64 64 0 1 0-96.6 0L178 301v27h156v-27z" clip-rule="evenodd"/><path fill="var(--flag-palette-green, #6da544)" fill-rule="evenodd" d="M230.4 225.6a34 34 0 0 1 16.8-10.4l-4.1-15.5a50 50 0 0 0-12.1 91.6l8-13.9a34 34 0 0 1-8.6-51.8m51.2 0a34 34 0 0 0-16.8-10.4l4.1-15.5a50 50 0 0 1 12.1 91.6l-8-13.9a34 34 0 0 0 8.6-51.8" clip-rule="evenodd"/><circle cx="256" cy="248" r="24" fill="var(--flag-palette-dark-yellow, #ffc635)"/></svg>