<svg width="512" height="512" viewBox="0 0 512 512" fill="none" xmlns="http://www.w3.org/2000/svg">
<rect y="136" width="512" height="240" fill="var(--flag-palette-white, #eeeeee)"/>
<rect y="344" width="512" height="168" fill="var(--flag-palette-black, #333333)"/>
<rect width="512" height="168" fill="var(--flag-palette-bright-red, #d80027)"/>
<path fill-rule="evenodd" clip-rule="evenodd" d="M272.533 224.161C270.667 210.719 258.641 200.347 244.084 200.347C236.833 200.347 230.21 202.921 225.158 207.165C233.92 208.162 240.715 215.298 240.715 223.952C240.715 224.079 240.713 224.206 240.711 224.333L194.899 218.031C191.895 217.617 189.217 219.952 189.217 222.984L189.217 302.463C201.512 302.463 211.477 292.215 211.477 280.449V281.16C217.983 281.16 223.836 278.489 227.906 274.232L231.202 278.621L211.502 311.65L255.997 311.65L300.496 311.65L280.795 278.618L284.089 274.23C288.159 278.489 294.013 281.16 300.52 281.16V280.449C300.52 292.215 310.486 302.463 322.78 302.463L322.78 222.984C322.78 219.952 320.102 217.617 317.098 218.031L272.533 224.161Z" fill="var(--flag-palette-brown, #85693d)"/>
</svg>