<svg xmlns="http://www.w3.org/2000/svg" width="512" height="512" fill="none"><g clip-path="url(#a)"><path fill="#EEE" d="M512 122.4v267.1H0v-267z"/><path fill="#496E2D" d="M512 367.3V512H0V367.3z"/><path fill="#333" d="M512 0v144.7H0V0z"/><path fill="#D80027" d="M0 0v512l256-256L0 0Zm333.5 185.5A78 78 0 0 1 384 180a78 78 0 0 0 0 152.2 78 78 0 0 1-50.5-146.7Z"/><path fill="#D80027" d="m398.3 240.1-11-34-11.1 34h-35.8l29 21-11.1 34 28.9-21 29 21-11.1-34 29-21h-35.8Z"/></g><defs><clipPath id="a"><path fill="#fff" d="M0 0h512v512H0z"/></clipPath></defs></svg>