<svg width="512" height="512" viewBox="0 0 512 512" fill="none" xmlns="http://www.w3.org/2000/svg">
<rect y="204.863" width="512" height="307.137" fill="var(--flag-palette-light-blue, #338af3)"/>
<rect width="512" height="256" fill="var(--flag-palette-green, #6da544)"/>
<path d="M0 0V512L512 256L0 0Z" fill="var(--flag-palette-bright-red, #d80027)"/>
<path d="M133.564 150.261C84.4655 150.261 44.5215 190.206 44.5215 239.304V272.695C44.5215 321.794 84.4665 361.738 133.564 361.738C182.662 361.738 222.607 321.793 222.607 272.695V239.304C222.608 190.206 182.663 150.261 133.564 150.261ZM189.216 272.696C189.216 297.568 172.814 318.677 150.259 325.786V289.392L173.883 265.768L150.272 242.157L150.259 233.754V222.61H116.869V256L93.2615 279.607L116.869 303.214V325.787C94.3145 318.678 77.9125 297.569 77.9125 272.697V239.306C77.9125 208.619 102.878 183.654 133.564 183.654C164.25 183.654 189.216 208.62 189.216 239.306V272.696Z" fill="var(--flag-palette-yellow, #ffda44)"/>
</svg>