<svg width="512" height="512" viewBox="0 0 512 512" fill="none" xmlns="http://www.w3.org/2000/svg">
<rect width="512" height="512" fill="var(--flag-palette-yellow, #ffda44)"/>
<path d="M0 57H512V114H0V57ZM0 171H512V228H0V171ZM0 285H512V341H0V285ZM0 398H512V455H0V398Z" fill="var(--flag-palette-bright-red, #d80027)"/>
<path d="M96 128V288L192 384C245 384 288 341 288 288L240 240L288 192V128H260V160H233V128H206V160H178V128H151V160H123V128H96Z" fill="var(--flag-palette-gold, #ff9811)"/>
<path d="M192 192H288V288H192V192Z" fill="var(--flag-palette-blue, #0052b4)"/>
<path d="M192 288V384C166.539 384 142.121 373.886 124.118 355.882C106.114 337.879 96 313.461 96 288H192Z" fill="var(--flag-palette-white, #eeeeee)"/>
</svg>