<svg xmlns="http://www.w3.org/2000/svg" width="512" height="512" fill="none"><g clip-path="url(#a)"><path fill="#FFDA44" d="M0 0h512v512H0z"/><path fill="#D80027" d="M0 57h512v57H0V57Zm0 114h512v57H0v-57Zm0 114h512v56H0v-56Zm0 113h512v57H0v-57Z"/><path fill="#FF9811" d="M96 128v160l96 96c53 0 96-43 96-96l-48-48 48-48v-64h-28v32h-27v-32h-27v32h-28v-32h-27v32h-28v-32H96Z"/><path fill="#0052B4" d="M192 192h96v96h-96v-96Z"/><path fill="#EEE" d="M192 288v96a96 96 0 0 1-96-96h96Z"/></g><defs><clipPath id="a"><path fill="#fff" d="M0 0h512v512H0z"/></clipPath></defs></svg>