<svg xmlns="http://www.w3.org/2000/svg" width="512" height="512" fill="none"><g clip-path="url(#a)"><path fill="#FFDA44" d="M0 0h512v512H0z"/><path fill="#D80027" d="M0 57h512v57H0V57Zm0 114h512v57H0v-57Zm0 114h512v56H0v-56Zm0 113h512v57H0v-57Z"/><path fill="#4A1F63" d="M0 0h256v256H0z"/><path fill="#EEE" d="M194.9 105.8V128h-11.2v-22.2h-22.2V128h-11.1V83.5h-44.6V128h-11v-22.2H72.4V128h-11v-22.2H39v66.7h178v-66.7h-22.1Z"/></g><defs><clipPath id="a"><path fill="#fff" d="M0 0h512v512H0z"/></clipPath></defs></svg>