<svg xmlns="http://www.w3.org/2000/svg" width="512" height="512" fill="none"><g clip-path="url(#a)"><path fill="#FFDA44" d="M512 128v256H0V128z"/><path fill="#D80027" d="M512 368v144H0V368zm0-368v144H0V0z"/><path fill="#EEE" d="M144 304h-16v-80h16v80Zm128 0h16v-80h-16v80Zm-64 24c26.5 0 48-14.3 48-32s-21.5-32-48-32-48 14.3-48 32 21.5 32 48 32Z"/><path fill="#D80027" d="M144 200a8 8 0 0 0-16 0v8a8 8 0 0 0 16 0v-8Zm144 0a8 8 0 0 0-16 0v8a8 8 0 0 0 16 0v-8Zm-80 72v24a24 24 0 0 0 48 0v-24h-48Z"/><path fill="#FF9811" d="M144 208h-16a8 8 0 0 0 0 16h16a8 8 0 0 0 0-16Zm144 0h-16a8 8 0 0 0 0 16h16a8 8 0 0 0 0-16Zm-144 96h-16a8 8 0 0 0 0 16h16a8 8 0 0 0 0-16Zm144 0h-16a8 8 0 0 0 0 16h16a8 8 0 0 0 0-16Zm-128-32v24c0 8 4 14 9 19l5-6 5 10c3.3.8 6.7.8 10 0l5-10 5 6c6-5 9-11 9-19v-24h-9l-5 8-5-8h-10l-5 8-5-8h-9Z"/><path fill="#333" d="M122 252h172-172Zm0 24h28-28Zm144 0h28-28Z"/><path fill="#D80027" d="M122 248a4 4 0 1 0 0 8h172a4 4 0 1 0 0-8H122Zm0 24a4 4 0 1 0 0 8h28a4 4 0 1 0 0-8h-28Zm144 0a4 4 0 1 0 0 8h28a4 4 0 1 0 0-8h-28Z"/><path fill="#EEE" d="M196 168c-7 0-13 5-15 11l-5-1c-9 0-16 7-16 16s7 16 16 16c7 0 13-4 15-11a16 16 0 0 0 17-4 16 16 0 0 0 17 4 16 16 0 1 0 10-20 16 16 0 0 0-27-5c-3-4-7-6-12-6Zm0 8c5 0 8 4 8 8 0 5-3 8-8 8-4 0-8-3-8-8 0-4 4-8 8-8Zm24 0c5 0 8 4 8 8 0 5-3 8-8 8-4 0-8-3-8-8 0-4 4-8 8-8Zm-44 10 4 1 4 8c0 4-4 7-8 7s-8-3-8-8c0-4 4-8 8-8Zm64 0c5 0 8 4 8 8 0 5-3 8-8 8-4 0-8-3-8-7l4-8 4-1Z"/><path fill="#FF9811" d="M200 160h16v32h-16v-32Z"/><path fill="#EEE" d="M208 224h48v48h-48v-48Z"/><path fill="#D80027" d="m248 208-8 8h-64l-8-8c0-13 18-24 40-24s40 11 40 24Zm-88 16h48v48h-48v-48Zm82 18a10 10 0 1 0-20 0v12a10 10 0 1 0 20 0v-12Z"/><path fill="#FF9811" d="M168 232v8h8v16h-8v8h32v-8h-8v-16h8v-8h-32Zm8-16h64v8h-64v-8Z"/><path fill="#FFDA44" d="M186 208a6 6 0 1 0 0-12 6 6 0 0 0 0 12Zm22 0a6 6 0 1 0 0-12 6 6 0 0 0 0 12Zm22 0a6 6 0 1 0 0-12 6 6 0 0 0 0 12Z"/><path fill="#D80027" d="M169 272v43c3 2 6.4 3.4 10 4v-47h-10Zm20 0v47c3.6-.6 7-2 10-4v-43h-10Z"/><path fill="#338AF3" d="M208 288a16 16 0 1 0 0-32 16 16 0 0 0 0 32Zm80 32h-16a8 8 0 0 0 0 16h16a8 8 0 0 0 0-16Zm-144 0h-16a8 8 0 0 0 0 16h16a8 8 0 0 0 0-16Z"/></g><defs><clipPath id="a"><path fill="#fff" d="M0 0h512v512H0z"/></clipPath></defs></svg>