<svg xmlns="http://www.w3.org/2000/svg" width="512" height="512" fill="none"><g clip-path="url(#a)"><path fill="#EEE" d="M512 122.4v267.1H0v-267z"/><path fill="#496E2D" d="M512 367.3V512H0V367.3z"/><path fill="#0052B4" d="M512 0v144.7H0V0z"/><path fill="#D80027" d="M0 0v512l256-256L0 0Z"/><path fill="#85693D" d="m345 229-12 11 40 40-40 40 11 11 40-40 40 40 11-11-40-40 40-40-11-11-40 40-39-40Z"/><path fill="#D80027" d="m384 181 21 62-54-38h66l-53 39 20-63Z"/></g><defs><clipPath id="a"><path fill="#fff" d="M0 0h512v512H0z"/></clipPath></defs></svg>