<svg width="512" height="512" viewBox="0 0 512 512" fill="none" xmlns="http://www.w3.org/2000/svg">
<rect y="136" width="512" height="240" fill="var(--flag-palette-white, #eeeeee)"/>
<rect y="344" width="512" height="168" fill="var(--flag-palette-black, #333333)"/>
<rect width="512" height="168" fill="var(--flag-palette-bright-red, #d80027)"/>
<path d="M232.648 294.152C232.648 319.152 206.648 336.152 206.648 336.152H304.648C304.648 336.152 278.648 319.152 278.648 294.152H232.648Z" fill="var(--flag-palette-green, #6da544)"/>
<path d="M255.648 176.152C246.648 176.152 238.648 180.152 232.648 186.152C228.05 183.453 222.85 181.945 217.522 181.765C212.193 181.586 206.903 182.741 202.134 185.126C197.366 187.51 193.268 191.048 190.214 195.419C187.16 199.79 185.247 204.854 184.648 210.152C178.915 212.784 174.088 217.052 170.774 222.419C167.459 227.786 165.805 234.013 166.018 240.318C166.232 246.622 168.304 252.723 171.975 257.853C175.645 262.983 180.75 266.915 186.648 269.152C187.237 274.252 189.044 279.136 191.917 283.39C194.791 287.645 198.645 291.146 203.156 293.597C207.667 296.049 212.701 297.379 217.834 297.475C222.967 297.572 228.048 296.432 232.648 294.152C238.648 300.152 246.648 304.152 255.648 304.152C264.648 304.152 272.648 300.152 278.648 294.152C282.648 297.152 287.648 298.152 292.648 298.152C309.648 298.152 323.648 285.152 324.648 269.152C330.546 266.915 335.651 262.983 339.321 257.853C342.991 252.723 345.064 246.622 345.277 240.318C345.491 234.013 343.837 227.786 340.522 222.419C337.208 217.052 332.381 212.784 326.648 210.152C326.049 204.854 324.136 199.79 321.082 195.419C318.028 191.048 313.93 187.51 309.161 185.126C304.392 182.741 299.103 181.586 293.774 181.765C288.445 181.945 283.246 183.453 278.648 186.152C272.648 180.152 264.648 176.152 255.648 176.152Z" fill="var(--flag-palette-dark-green, #496e2d)"/>
</svg>