<svg xmlns="http://www.w3.org/2000/svg" width="512" height="512" fill="none"><g clip-path="url(#a)"><path fill="#0052B4" d="M0 135.8h512v240H0z"/><path fill="#D80027" d="M0 343.8h512v168H0z"/><path fill="#496E2D" d="M0-.2h512v168H0z"/><path fill="#EEE" fill-rule="evenodd" d="M512 159.8H0v32h512zM0 351.8h512v-32H0z" clip-rule="evenodd"/><path fill="#EEE" d="m312 317 104-75H288l104 75-40-122zm-203-32 49-36H98l49 36-19-58zm64 32 49-36h-60l49 36-19-58zm0-64 49-36h-60l49 36-19-58z"/></g><defs><clipPath id="a"><path fill="#fff" d="M0 0h512v512H0z"/></clipPath></defs></svg>