<svg xmlns="http://www.w3.org/2000/svg" width="512" height="512" fill="none"><g clip-path="url(#a)"><path fill="#EEE" d="M0 0h512v512H0z"/><path fill="#496E2D" d="M0 0h512v149H0V0Z"/><path fill="#D80027" d="M0 363h512v149H0V363Z"/><path fill="#0052B4" d="M0 181h512v150H0V181Z"/><path fill="#EEE" d="m312 317 104-75H288l104 75-40-122-40 122Zm-203-32 49-36H98l49 36-19-58-19 58Zm64 32 49-36h-60l49 36-19-58-19 58Zm0-64 49-36h-60l49 36-19-58-19 58Z"/></g><defs><clipPath id="a"><path fill="#fff" d="M0 0h512v512H0z"/></clipPath></defs></svg>