<svg xmlns="http://www.w3.org/2000/svg" width="512" height="512" fill="none"><path fill="#FFDA44" d="M512 366.7H0V145.3h512z"/><path fill="#6DA544" d="M512 167H0V0h512z"/><path fill="#D80027" d="M512 512H0V345.1h512z"/><path fill="#0052B4" d="M256 378.4a122.4 122.4 0 1 0 0-244.8 122.4 122.4 0 0 0 0 244.8Z"/><path fill="#FFDA44" fill-rule="evenodd" d="M275.4 229.4 256 169.8l-19.4 59.6H174l50.7 36.8-19.4 59.5L256 289l50.7 36.8-19.4-59.5 50.7-36.8h-62.6Zm-29.5 0 10.1-31.2 10.1 31.2H246Zm23 8.7H243l-8 24.7 21 15.3 21-15.3-8-24.7Zm-35.1 0-6.3 19.3-26.5-19.3h32.8Zm-1.6 33.5L222 302.8l26.5-19.3-16.3-11.9Zm31.3 11.9 16.3-11.9 10.2 31.2-26.5-19.3Zm21-26.1 26.5-19.3h-32.8l6.3 19.3Z" clip-rule="evenodd"/><path fill="#FFDA44" d="m256 169.8 1-.3-1-3-1 3 1 .3Zm19.4 59.6-1 .3.2.7h.8v-1Zm-38.8 0v1h.8l.2-.7-1-.3Zm-62.6 0v-1h-3l2.4 1.8.6-.8Zm50.7 36.8 1 .3.2-.7-.6-.4-.6.8Zm-19.4 59.5-1-.3-.9 3 2.5-1.8-.6-.9ZM256 289l.6-.8-.6-.4-.6.4.6.8Zm50.7 36.8-.6.9 2.5 1.8-1-3-1 .3Zm-19.4-59.5-.6-.8-.6.4.3.7 1-.3Zm50.7-36.8.6.8 2.5-1.8H338v1Zm-92.1 0-1-.3-.4 1.3h1.4v-1Zm10.1-31.2 1-.3-1-3-1 3 1 .3Zm10.1 31.2v1h1.4l-.4-1.3-1 .3Zm2.9 8.7 1-.3-.3-.7h-.7v1Zm-26 0v-1h-.7l-.2.7 1 .3Zm-8 24.7-1-.3-.2.7.6.4.6-.8Zm21 15.3-.6.8.6.4.6-.4-.6-.8Zm21-15.3.6.8.6-.4-.3-.7-1 .3Zm-49.5-5.4-.5.8 1 .8.5-1.3-1-.3Zm6.3-19.3 1 .4.4-1.4h-1.4v1Zm-32.8 0v-1h-3l2.4 1.9.6-.9Zm21 64.7-1-.4-.9 3 2.5-1.8-.6-.8Zm10.2-31.2.5-.8-1-.8-.5 1.3 1 .3Zm16.3 11.9.6.8 1.1-.8-1-.8-.7.8Zm31.3-11.9 1-.3-.4-1.3-1.1.8.5.8Zm-16.3 11.9-.6-.8-1.1.8 1 .8.7-.8Zm26.5 19.3-.6.8 2.5 1.8-1-3-1 .4Zm21-64.7.6.9 2.4-1.9h-3v1Zm-26.5 19.3-1 .3.4 1.3 1.1-.8-.5-.8Zm-6.3-19.3v-1h-1.4l.5 1.4.9-.4Zm-23.2-68 19.4 59.6 2-.6-19.4-59.6-2 .6Zm-17.4 59.6L257 170l-2-.6-19.3 59.6 1.9.6Zm-63.6.7h62.6v-2H174v2Zm51.3 35-50.7-36.8-1.2 1.6 50.7 36.8 1.2-1.6Zm-19 60.7 19.3-59.6-1.9-.6-19.3 59.5 1.9.7Zm49.1-38L204.7 325l1.2 1.7 50.7-36.9-1.2-1.6Zm51.9 36.8-50.7-36.8-1.2 1.6 50.7 36.9 1.2-1.7Zm-21-58.4 19.4 59.6 2-.7-19.4-59.5-2 .6Zm51.1-38-50.7 36.9 1.2 1.6 50.7-36.8-1.2-1.6Zm-62 1.9H338v-2h-62.6v2Zm-28.6-.7 10.2-31.2-2-.6-10 31.2 1.8.6Zm8.2-31.2 10.2 31.2 1.9-.6L257 198l-2 .6Zm-9.1 31.9H266v-2h-20v2Zm23 6.7H243v2h26v-2Zm-33 26 8-24.6-1.8-.7-8 24.7 1.9.6Zm20.7 14.2-21-15.3-1.2 1.6 21 15.3 1.2-1.6Zm19.8-15.3-21 15.3 1.2 1.6 21-15.3-1.2-1.6Zm-8.4-23.5 8 24.6 2-.6-8-24.7-2 .7Zm-39.5 19.2 6.2-19.2-1.9-.7-6.2 19.3 1.9.6Zm-28-18.7 26.5 19.2 1.1-1.6-26.5-19.3-1.2 1.7Zm33.3-1.9H201v2h32.8v-2Zm-10.8 66 10.1-31.2-1.9-.6-10.1 31.1 1.9.7Zm25-20.4L221.4 302l1.2 1.7 26.5-19.3-1.2-1.6Zm-16.4-10.3 16.3 12 1.2-1.7-16.4-12-1.1 1.7Zm47.7-1.6-16.4 11.9 1.2 1.6 16.3-11.9-1.1-1.6Zm11.6 31.6-10.1-31.1-2 .6 10.2 31.2 2-.7Zm-28-18 26.5 19.2 1.2-1.7-26.5-19.2-1.2 1.6Zm47.5-47-26.5 19.2 1.1 1.6 26.6-19.2-1.2-1.7Zm-32.2 1.7H311v-2h-32.8v2Zm7.2 18-6.2-19.3-2 .7 6.3 19.2 2-.6Z"/><path fill="#FFDA44" fill-rule="evenodd" d="m243.4 243.5-6-8.2 4.5-3.2 6 8.2-4.5 3.2Zm19.8-3.2 6-8.2 4.4 3.2-6 8.2-4.4-3.2Zm9.2 17.8 9.6 3.1-1.7 5.2-9.6-3 1.7-5.3Zm-14.2 14.2v10.1h-5.4v-10h5.4Zm-17.9-9-9.6 3.1-1.7-5.2 9.6-3.1 1.7 5.2Z" clip-rule="evenodd"/></svg>