<svg xmlns="http://www.w3.org/2000/svg" width="512" height="512" fill="none"><g clip-path="url(#a)"><path fill="#D80027" d="M0 136h512v240H0z"/><path fill="#6DA544" d="M0 344h512v168H0zM0 0h512v168H0z"/><path fill="#FFDA44" d="m85 198.1 14.4 44.2H146l-37.6 27.4 14.4 44.2L85 286.6l-37.7 27.3 14.4-44.2-37.6-27.4h46.5L85 198.1Zm171 0 14.4 44.2h46.5l-37.7 27.4 14.4 44.2-37.6-27.3-37.6 27.3 14.4-44.2-37.7-27.4h46.5l14.4-44.2Zm171 0 14.3 44.2h46.5l-37.6 27.4 14.4 44.2-37.7-27.3-37.6 27.3 14.4-44.2-37.6-27.4h46.5l14.3-44.2Z"/></g><defs><clipPath id="a"><path fill="#fff" d="M0 0h512v512H0z"/></clipPath></defs></svg>