<svg xmlns="http://www.w3.org/2000/svg" width="512" height="512" fill="none"><path fill="#338AF3" d="M0 0h512v512H0z"/><g clip-path="url(#a)"><path fill="#0052B4" d="M-256-256h512v512h-512z"/><path fill="#EEE" d="M208 256h48v-48L48 0l208-208v-48h-48L0-48l-208-208h-48v48L-48 0l-208 208v48h48L0 48l208 208Z"/><path fill="#EEE" d="M256 64V-64H64v-192H-64v192h-192V64h192v192H64V64h192Z"/><path fill="#D80027" d="M256 32v-64H32v-224h-64v224h-224v64h224v224h64V32h224Z"/><path fill="#D80027" d="M256 224v32L64 64h32l160 160Z"/></g><path fill="#F3F3F3" d="M306 189.2v89c0 59.7 78 78 78 78s78-18.3 78-78v-89L384 167l-78 22.3Z"/><path fill="#D80027" d="M462 189.2v-33.4H306v33.4h67V256h-67v22.3h66.8v74.5c6.7 2.3 11.1 3.4 11.1 3.4s4.4-1 11.1-3.4v-74.5h67V256h-66.8v-66.8H462Z"/><defs><clipPath id="a"><path fill="#fff" d="M0 0h512v512H0z"/></clipPath></defs></svg>