<svg width="512" height="512" viewBox="0 0 512 512" fill="none" xmlns="http://www.w3.org/2000/svg">
<rect width="512" height="512" fill="var(--flag-palette-light-blue, #338af3)"/>
<rect width="256" height="256" fill="var(--flag-palette-blue, #0052b4)"/>
<path d="M232 256H256V232L152 128L256 24V0H232L128 104L24 0H0V24L104 128L0 232V256H24L128 152L232 256Z" fill="var(--flag-palette-white, #eeeeee)"/>
<path d="M256 160V96H160V0H96V96H0V160H96V256H160V160H256Z" fill="var(--flag-palette-white, #eeeeee)"/>
<path d="M256 144V112H144V0H112V112H0V144H112V256H144V144H256Z" fill="var(--flag-palette-bright-red, #d80027)"/>
<path d="M0 16V0L96 96H80L0 16Z" fill="var(--flag-palette-bright-red, #d80027)"/>
<path d="M256 240L256 256L160 160L176 160L256 240Z" fill="var(--flag-palette-bright-red, #d80027)"/>
<path d="M16 256L0 256L96 160L96 176L16 256Z" fill="var(--flag-palette-bright-red, #d80027)"/>
<path d="M240 -6.99382e-07L256 0L160 96L160 80L240 -6.99382e-07Z" fill="var(--flag-palette-bright-red, #d80027)"/>
<path d="M306.09 189.212V278.261C306.09 337.906 384.009 356.181 384.009 356.181C384.009 356.181 461.928 337.906 461.928 278.261V189.212L384.009 166.949L306.09 189.212Z" fill="var(--flag-palette-light-grey, #f3f3f3)"/>
<path d="M461.928 189.212V155.818H306.09V189.212H372.876V256.001H306.09V278.262V278.264L372.876 278.265V352.768C379.595 355.144 384.009 356.182 384.009 356.182C384.009 356.182 388.421 355.146 395.139 352.768V278.264H461.928V278.262V256H395.139V189.211H461.928V189.212Z" fill="var(--flag-palette-bright-red, #d80027)"/>
</svg>