<svg xmlns="http://www.w3.org/2000/svg" width="512" height="512" fill="none"><path fill="#0052B4" d="M0 0h512v512H0z"/><g clip-path="url(#a)"><path fill="#0052B4" d="M-256-256h512v512h-512z"/><path fill="#EEE" d="M208 256h48v-48L48 0l208-208v-48h-48L0-48l-208-208h-48v48L-48 0l-208 208v48h48L0 48l208 208Z"/><path fill="#EEE" d="M256 64V-64H64v-192H-64v192h-192V64h192v192H64V64h192Z"/><path fill="#D80027" d="M256 32v-64H32v-224h-64v224h-224v64h224v224h64V32h224Z"/><path fill="#D80027" d="M256 224v32L64 64h32l160 160Z"/></g><path fill="#FFC635" fill-rule="evenodd" d="M296.7 337.9c3.7 2.1 7.5 4.1 11.4 6l.6.2-1.4 3-1.2 2.8 2.8 1.2a182.6 182.6 0 0 0 150.3 0l2.8-1.2-1.3-2.9-1.3-2.9.6-.3c3.9-1.8 7.7-3.8 11.4-5.9l4.6-2.6-4.6-2.8c-3.2-1.9-6.4-4-9.5-6-.1-4-.4-8.1-.7-12.1l-.4-4.8-4.2 2.4c-3.8 2.1-7.7 4.1-11.7 6l-6.2 2.8 1.8 4.8a150.6 150.6 0 0 1-113.2 0l2-4.8-6.1-2.9a129 129 0 0 1-11.7-6l-4.2-2.4-.4 5c-.3 3.9-.5 8-.6 12a183 183 0 0 1-9.6 6l-4.7 2.7 4.7 2.7Z" clip-rule="evenodd"/><path fill="#338AF3" d="M306 144.7V267c0 59.7 78 78 78 78s78-18.3 78-78V144.7H306Z"/><path fill="#F3F3F3" d="M384 236c-19.5 0-19.5 17.8-39 17.8-19.4 0-19.4-17.8-39-17.8v31.2c19.6 0 19.6 17.8 39 17.8 19.5 0 19.5-17.8 39-17.8s19.5 17.8 39 17.8c19.4 0 19.4-17.8 39-17.8V236c-19.6 0-19.6 17.8-39 17.8-19.5 0-19.5-17.8-39-17.8Zm0-62.4c-19.5 0-19.5 17.8-39 17.8-19.4 0-19.4-17.8-39-17.8v31.2c19.6 0 19.6 17.8 39 17.8 19.5 0 19.5-17.8 39-17.8s19.5 17.8 39 17.8c19.4 0 19.4-17.8 39-17.8v-31.2c-19.6 0-19.6 17.8-39 17.8-19.5 0-19.5-17.8-39-17.8Z"/><defs><clipPath id="a"><path fill="#fff" d="M0 0h512v512H0z"/></clipPath></defs></svg>