<svg xmlns="http://www.w3.org/2000/svg" width="512" height="512" fill="none"><path fill="var(--flag-palette-black, #333333)" d="M0 0h512v512H0z"/><path fill="var(--flag-palette-white, #eeeeee)" d="M0 57h512v57H0zm0 114h512v57H0zm0 114h512v56H0zm0 113h512v57H0z"/><path fill="var(--flag-palette-white, #eeeeee)" d="M0 0h256v227.6H0z"/><path fill="var(--flag-palette-black, #333333)" d="m54 204-19 14-19-14 19-40zm93 0-19 14-19-14 19-40zm94 0-19 14-19-14 19-40zM22.7 158a6 6 0 1 1 0 12 6 6 0 0 1 0-12m24 0a6 6 0 1 1 0 12 6 6 0 0 1 0-12m69.7 0a6 6 0 1 1 0 12 6 6 0 0 1 0-12m24 0a6 6 0 1 1 0 12 6 6 0 0 1 0-12m69.7 0a6 6 0 1 1 0 12 6 6 0 0 1 0-12m24 0a6 6 0 1 1 0 12 6 6 0 0 1 0-12M34.7 146a6 6 0 1 1 0 12 6 6 0 0 1 0-12m93.7 0a6 6 0 1 1 0 12 6 6 0 0 1 0-12m93.7 0a6 6 0 1 1 0 12 6 6 0 0 1 0-12M100 138l-18 14-19-14 19-40zm94 0-19 14-19-14 19-40zM69.5 92.2a6 6 0 1 1 0 12 6 6 0 0 1 0-12m24 0a6 6 0 1 1 0 12 6 6 0 0 1 0-12m69.7 0a6 6 0 1 1 0 12 6 6 0 0 1 0-12m24 0a6 6 0 1 1 0 12 6 6 0 0 1 0-12m-105.7-12a6 6 0 1 1 0 12 6 6 0 0 1 0-12m93.7 0a6 6 0 1 1 0 12 6 6 0 0 1 0-12M54 72 35 86 16 72l19-40zm93 0-19 14-19-14 19-40zm94 0-19 14-19-14 19-40zM22.7 26.4a6 6 0 1 1 0 12 6 6 0 0 1 0-12m24 0a6 6 0 1 1 0 12 6 6 0 0 1 0-12m69.7 0a6 6 0 1 1 0 12 6 6 0 0 1 0-12m24 0a6 6 0 1 1 0 12 6 6 0 0 1 0-12m69.7 0a6 6 0 1 1 0 12 6 6 0 0 1 0-12m24 0a6 6 0 1 1 0 12 6 6 0 0 1 0-12m-199.4-12a6 6 0 1 1 0 12 6 6 0 0 1 0-12m93.7 0a6 6 0 1 1 0 12 6 6 0 0 1 0-12m93.7 0a6 6 0 1 1 0 12 6 6 0 0 1 0-12"/></svg>