<svg xmlns="http://www.w3.org/2000/svg" width="512" height="512" fill="none"><g clip-path="url(#a)"><path fill="#333" d="M0 0h512v512H0z"/><path fill="#EEE" d="M0 57h512v57H0V57Zm0 114h512v57H0v-57Zm0 114h512v56H0v-56Zm0 113h512v57H0v-57Z"/><path fill="#EEE" d="M0 0h256v227.6H0z"/><path fill="#333" fill-rule="evenodd" d="M34.7 26.4a6 6 0 1 0 0-12 6 6 0 0 0 0 12Zm-6 6a6 6 0 1 1-12 0 6 6 0 0 1 12 0Zm24 0a6 6 0 1 1-12 0 6 6 0 0 1 12 0ZM128 86l-19-14 19-40 19 40-19 14Zm12.4-47.6a6 6 0 1 0 0-12 6 6 0 0 0 0 12Zm-18-6a6 6 0 1 1-12 0 6 6 0 0 1 12 0Zm6-6a6 6 0 1 0 0-12 6 6 0 0 0 0 12ZM222 86l-19-14 19-40 19 40-19 14Zm12.1-47.6a6 6 0 1 0 0-12 6 6 0 0 0 0 12Zm-18-6a6 6 0 1 1-12 0 6 6 0 0 1 12 0Zm6-6a6 6 0 1 0 0-12 6 6 0 0 0 0 12ZM175 152l-19-14 19-40 19 40-19 14Zm12.2-47.8a6 6 0 1 0 0-12 6 6 0 0 0 0 12Zm-18-6a6 6 0 1 1-12 0 6 6 0 0 1 12 0Zm6-6a6 6 0 1 0 0-12 6 6 0 0 0 0 12ZM82 152l-19-14 19-40 18 40-18 14Zm11.5-47.8a6 6 0 1 0 0-12 6 6 0 0 0 0 12Zm-18-6a6 6 0 1 1-12 0 6 6 0 0 1 12 0Zm6-6a6 6 0 1 0 0-12 6 6 0 0 0 0 12ZM35 218l-19-14 19-40 19 40-19 14Zm11.7-48a6 6 0 1 0 0-12 6 6 0 0 0 0 12Zm-18-6a6 6 0 1 1-12 0 6 6 0 0 1 12 0Zm6-6a6 6 0 1 0 0-12 6 6 0 0 0 0 12Zm93.3 60-19-14 19-40 19 40-19 14Zm12.4-48a6 6 0 1 0 0-12 6 6 0 0 0 0 12Zm-18-6a6 6 0 1 1-12 0 6 6 0 0 1 12 0Zm6-6a6 6 0 1 0 0-12 6 6 0 0 0 0 12Zm93.6 60-19-14 19-40 19 40-19 14Zm12.1-48a6 6 0 1 0 0-12 6 6 0 0 0 0 12Zm-18-6a6 6 0 1 1-12 0 6 6 0 0 1 12 0Zm6-6a6 6 0 1 0 0-12 6 6 0 0 0 0 12ZM16 72l19 14 19-14-19-40-19 40Z" clip-rule="evenodd"/></g><defs><clipPath id="a"><path fill="#fff" d="M0 0h512v512H0z"/></clipPath></defs></svg>