<svg xmlns="http://www.w3.org/2000/svg" width="512" height="512" fill="none"><g clip-path="url(#a)"><path fill="#333" d="M0 0h512v512H0z"/><path fill="#EEE" d="M0 57h512v57H0zm0 114h512v57H0zm0 114h512v56H0zm0 113h512v57H0z"/><path fill="#EEE" d="M0 0h256v227.6H0z"/><path fill="#333" fill-rule="evenodd" d="M34.7 26.4a6 6 0 1 0 0-12 6 6 0 0 0 0 12m-6 6a6 6 0 1 1-12 0 6 6 0 0 1 12 0m24 0a6 6 0 1 1-12 0 6 6 0 0 1 12 0M128 86l-19-14 19-40 19 40zm12.4-47.6a6 6 0 1 0 0-12 6 6 0 0 0 0 12m-18-6a6 6 0 1 1-12 0 6 6 0 0 1 12 0m6-6a6 6 0 1 0 0-12 6 6 0 0 0 0 12M222 86l-19-14 19-40 19 40zm12.1-47.6a6 6 0 1 0 0-12 6 6 0 0 0 0 12m-18-6a6 6 0 1 1-12 0 6 6 0 0 1 12 0m6-6a6 6 0 1 0 0-12 6 6 0 0 0 0 12M175 152l-19-14 19-40 19 40zm12.2-47.8a6 6 0 1 0 0-12 6 6 0 0 0 0 12m-18-6a6 6 0 1 1-12 0 6 6 0 0 1 12 0m6-6a6 6 0 1 0 0-12 6 6 0 0 0 0 12M82 152l-19-14 19-40 18 40zm11.5-47.8a6 6 0 1 0 0-12 6 6 0 0 0 0 12m-18-6a6 6 0 1 1-12 0 6 6 0 0 1 12 0m6-6a6 6 0 1 0 0-12 6 6 0 0 0 0 12M35 218l-19-14 19-40 19 40zm11.7-48a6 6 0 1 0 0-12 6 6 0 0 0 0 12m-18-6a6 6 0 1 1-12 0 6 6 0 0 1 12 0m6-6a6 6 0 1 0 0-12 6 6 0 0 0 0 12m93.3 60-19-14 19-40 19 40zm12.4-48a6 6 0 1 0 0-12 6 6 0 0 0 0 12m-18-6a6 6 0 1 1-12 0 6 6 0 0 1 12 0m6-6a6 6 0 1 0 0-12 6 6 0 0 0 0 12m93.6 60-19-14 19-40 19 40zm12.1-48a6 6 0 1 0 0-12 6 6 0 0 0 0 12m-18-6a6 6 0 1 1-12 0 6 6 0 0 1 12 0m6-6a6 6 0 1 0 0-12 6 6 0 0 0 0 12M16 72l19 14 19-14-19-40z" clip-rule="evenodd"/></g><defs><clipPath id="a"><path fill="#fff" d="M0 0h512v512H0z"/></clipPath></defs></svg>