<svg xmlns="http://www.w3.org/2000/svg" width="512" height="512" fill="none"><path fill="#0052B4" d="M0 0h512v512H0z"/><path fill="#EEE" d="M464 512h48v-48L304 256 512 48V0h-48L256 208 48 0H0v48l208 208L0 464v48h48l208-208 208 208Z"/><path fill="#EEE" d="M512 320V192H320V0H192v192H0v128h192v192h128V320h192Z"/><path fill="#D80027" d="M512 288v-64H288V0h-64v224H0v64h224v224h64V288h224Z"/><path fill="#D80027" d="M0 32V0l192 192h-32L0 32Zm512 448v32L320 320h32l160 160ZM32 512H0l192-192v32L32 512ZM480 0h32L320 192v-32L480 0Z"/></svg>