<svg xmlns="http://www.w3.org/2000/svg" width="512" height="512" fill="none"><path fill="#EEE" d="M0 0h512v512H0z"/><path fill="#0052B4" d="M189.2 0h-142l142 142V0ZM0 189.2v-142l142 142H0Zm0 275.6v-142h142L0 464.8ZM189.2 512h-142l142-142v142Zm275.6 0h-142V370l142 142ZM512 322.8v142l-142-142h142Zm0-275.6v142H370l142-142ZM322.8 0h142l-142 142V0Z"/><path fill="#D80027" d="M512 0 322.8 189.2v-31.5L480.5 0H512Z"/><path fill="#D80027" d="M512 222.6H289.4V0h-66.8v222.6H0v66.8h222.6V512h66.8V289.4H512v-66.8Z"/><path fill="#D80027" d="M512 480.5 354.3 322.8h-31.5L512 512v-31.5ZM31.5 512l157.7-157.7v-31.5L0 512h31.5ZM0 0l189.2 189.2h-31.5L0 31.5V0Z"/></svg>