<svg xmlns="http://www.w3.org/2000/svg" width="512" height="512" fill="none"><path fill="#A2001D" d="M0 0h512v512H0z"/><path fill="#FFDA44" d="M70.4 70.4h371.2v371.2H70.4z"/><path fill="#496E2D" d="M70.4 70.4v371.2L256 256 70.4 70.4Zm371.2 371.2V70.4L256 256l185.6 185.6Z"/><circle cx="256" cy="256" r="98.4" fill="#A2001D"/><path fill="#FFDA44" d="m256 157.6 22.1 68h71.5l-57.8 42 22 68-57.8-42-57.9 42 22.1-68-57.8-42h71.5l22.1-68ZM140.8 448l6.5 19.9h20.9l-17 12.3 6.5 19.9-16.9-12.3-17 12.3 6.5-19.9-16.9-12.3h21l6.4-19.9Zm0-441.6 6.5 19.9h20.9l-17 12.3 6.5 19.9-16.9-12.3-17 12.3 6.5-19.9-16.9-12.3h21l6.4-19.9ZM256 448l6.5 19.9h20.9l-17 12.3 6.5 19.9-16.9-12.3-17 12.3 6.5-19.9-16.9-12.3h21L256 448Zm0-441.6 6.5 19.9h20.9l-17 12.3 6.5 19.9L256 46.2l-17 12.3 6.5-19.9-16.9-12.3h21L256 6.4ZM371.2 448l6.5 19.9h20.9l-17 12.3 6.5 19.9-16.9-12.3-17 12.3 6.5-19.9-16.9-12.3h21l6.4-19.9Zm0-441.6 6.5 19.9h20.9l-17 12.3 6.5 19.9-16.9-12.3-17 12.3 6.5-19.9-16.9-12.3h21l6.4-19.9ZM127.8 251.8a22.3 22.3 0 0 1-37.6 23.8c-12-18.8-5-49.5-5-49.5s30.7 6.9 42.6 25.7Z"/><path fill="#A2001D" d="M115 284.2a11.1 11.1 0 1 0 0-22.2 11.1 11.1 0 0 0 0 22.2Z"/></svg>