<svg xmlns="http://www.w3.org/2000/svg" width="512" height="512" fill="none"><g clip-path="url(#a)"><path fill="#6DA544" d="M0 0h512v512H0z"/><path fill="#EEE" fill-rule="evenodd" d="M0 73.1h512v73.2H0V73Zm0 146.3h512v73.2H0v-73.2Zm512 146.3H0v73.1h512v-73.1Z" clip-rule="evenodd"/><path fill="#D80027" d="M0 0h256v219.4H0z"/><path fill="#EEE" d="m111.3 171.7-11.1-22.3V105L128 82.6l27.8 22.3v33.4l11.2-11.2v22.3l-22.3 22.3h-33.4Zm-59.9-68.3 3 9h9.5l-7.7 5.7 3 9-7.8-5.6-7.7 5.6 3-9-7.7-5.6h9.5l2.9-9Zm22.3-22.3 3 9.1h9.5l-7.7 5.6 3 9-7.8-5.5L66 105l3-9-7.8-5.7h9.5l3-9ZM96 59l2.9 9h9.5l-7.7 5.7 3 9L96 77l-7.8 5.6 3-9-7.7-5.7H93l3-9Zm108.6 44.5-3 9h-9.5l7.7 5.7-3 9 7.8-5.6 7.7 5.6-3-9 7.7-5.6h-9.5l-2.9-9Zm-22.3-22.3-3 9.1h-9.5l7.7 5.6-3 9 7.8-5.5 7.7 5.6-3-9 7.8-5.7h-9.6l-2.9-9ZM160 59l-3 9h-9.4l7.7 5.7-3 9L160 77l7.8 5.6-3-9 7.7-5.7H163l-3-9Zm-32-11.2-3 9.1h-9.5l7.8 5.6-3 9 7.8-5.5 7.7 5.6-3-9 7.8-5.7H131l-3-9Z"/></g><defs><clipPath id="a"><path fill="#fff" d="M0 0h512v512H0z"/></clipPath></defs></svg>