<svg xmlns="http://www.w3.org/2000/svg" width="512" height="512" fill="none"><path fill="#EEE" d="M0 0h512v512H0z"/><path fill="#D80027" d="M512 289.4v-66.8H289.4V0h-66.8v222.6H0v66.8h222.6V512h66.8V289.4H512Z"/><path fill="#D80027" d="M128 94.6V61.2H94.6v33.4H61.2V128h33.4v33.4H128V128h33.4V94.6H128Zm289.4 0V61.2H384v33.4h-33.4V128H384v33.4h33.4V128h33.4V94.6h-33.4ZM128 384v-33.4H94.6V384H61.2v33.4h33.4v33.4H128v-33.4h33.4V384H128Zm289.4 0v-33.4H384V384h-33.4v33.4H384v33.4h33.4v-33.4h33.4V384h-33.4Z"/></svg>