<svg xmlns="http://www.w3.org/2000/svg" width="512" height="512" fill="none"><path fill="#FCFCFC" d="M0 145.3h512v221.4H0z"/><path fill="#D80027" d="M0 345.1h512V512H0z"/><path fill="#FCFCFC" d="M0 0h512v166.9H0z"/><path fill="#D80027" d="M356.2 211.5V178h11.1v-22.3H345V167h-22.2v-11.2h-22.3v22.3h11.2v33.4h-22.3v-78h11.1v-22.2h-22.2v11.1H267v-11h-22v11h-11.2v-11h-22.2v22.2h11.1v77.9h-22.3V178h11.2v-22.3h-22.3V167H167v-11.2h-22.3v22.3h11.1v33.4h-22.2v89h244.8v-89h-22.2Z"/><path fill="#FFC635" d="M256 289.4a33.4 33.4 0 0 0-11.1 64.9v46.4h-33.4v44.5H267v-91a33.4 33.4 0 0 0-11.1-64.8Zm0 44.5a11.1 11.1 0 1 1 0-22.2 11.1 11.1 0 0 1 0 22.2Z"/></svg>