<svg xmlns="http://www.w3.org/2000/svg" width="512" height="512" fill="none"><g clip-path="url(#a)"><path fill="#333" d="M0 150.8h512V512H0V150.8Z"/><path fill="#0052B4" d="M0 0h512v176H0V0Z"/><path fill="#6DA544" d="M94 228a8 8 0 0 0-2 0 8 8 0 0 0-5 4 8 8 0 0 0-1 6l7 25-39-23a8 8 0 0 0-12 6 8 8 0 0 0 4 8l39 23-25 6a8 8 0 0 0-5 4 8 8 0 0 0 .3 9 8 8 0 0 0 8.7 3l41-11 8 5-26 6a8 8 0 0 0-4 4 8 8 0 0 0 .3 9 8 8 0 0 0 8.7 3l40-11 8 5-25 6a8 8 0 0 0-4 4 8 8 0 0 0 .3 9 8 8 0 0 0 8.7 3l40-11 25 14a8 8 0 0 0 11-3 8 8 0 0 0-3-10l-25-15-11-40a8 8 0 0 0-13-4.5 8 8 0 0 0-2 2.5 8 8 0 0 0 0 6l6 25-8-5-11-40a8 8 0 0 0-9-6 8 8 0 0 0-5 4 8 8 0 0 0-1 6l7 25-8-5-11-40a8 8 0 0 0-8-6Zm180 96 122 107c17-13 32-30 44-48l-166-59Z"/><path fill="#FFDA44" d="m256 480-21-29-31 19-8-35-36 5 6-35-36-9 19-31-29-21 29-21-19-31 36-8-6-36 36 6 8-36 31 19 21-29 21 29 31-19 8 36 36-6-6 36 36 8-19 31 29 21-29 21 19 31-36 8 6 36-36-5-8 35-31-19-21 29ZM133.8 28v120c4.4 0 5.5-8.7 5.5-23.2 3.2 6 10.5 9 20.5 5.2-10.1-5.9-13-10.3-14-17h5v-10h-5c4.4-13.2 23.3-6.9 16 4 21-3 17-22.2 12-27-12-11.4-23.5-1.6-33.2 15.7 0-9 2.4-13.1 5.2-21.8 8.8-26.7-2.7-38-10.4-45.3a2 2 0 0 0-1.6-.6Zm0 0v120c-4.3 0-5.4-8.7-5.4-23.2-3.2 6-10.5 9-20.6 5.2 10.2-5.9 13-10.3 14-17h-5v-10h5c-4.4-13.2-23.2-6.9-16 4-21-3-17-22.2-12-27 12-11.4 23.6-1.6 33.3 15.7 0-9-2.4-13.1-5.3-21.8-8.7-26.7 2.8-38 10.5-45.3.6-.5 1.1-.6 1.5-.6ZM256 28v120c4.3 0 5.5-8.7 5.5-23.2 3.1 6 10.5 9 20.5 5.2-10.2-5.9-13-10.3-14-17h5v-10h-5c4.4-13.2 23.3-6.9 16 4 21-3 17-22.2 12-27-12-11.4-23.6-1.6-33.2 15.7 0-9 2.4-13.1 5.2-21.8 8.7-26.7-2.7-38-10.5-45.3a2 2 0 0 0-1.5-.6Zm0 0v120c-4.3 0-5.5-8.7-5.5-23.2-3.1 6-10.5 9-20.5 5.2 10.2-5.9 13-10.3 14-17h-5v-10h5c-4.4-13.2-23.3-6.9-16 4-21-3-17-22.2-12-27 12-11.4 23.6-1.6 33.2 15.7 0-9-2.4-13.1-5.2-21.8-8.7-26.7 2.7-38 10.5-45.3a2 2 0 0 1 1.5-.6Zm122.2 0v120c4.3 0 5.4-8.7 5.4-23.2 3.2 6 10.5 9 20.6 5.2-10.2-5.9-13-10.3-14-17h5v-10h-5c4.4-13.2 23.2-6.9 16 4 21-3 17-22.2 12-27-12-11.4-23.6-1.6-33.3 15.7 0-9 2.4-13.1 5.3-21.8 8.7-26.7-2.8-38-10.5-45.3a2 2 0 0 0-1.5-.6Zm0 0v120c-4.4 0-5.5-8.7-5.5-23.2-3.2 6-10.5 9-20.5 5.2 10.1-5.9 13-10.3 14-17h-5v-10h5c-4.4-13.2-23.3-6.9-16 4-21-3-17-22.2-12-27 12-11.4 23.5-1.6 33.2 15.7 0-9-2.4-13.1-5.2-21.8-8.8-26.7 2.7-38 10.4-45.3a2 2 0 0 1 1.6-.6Z"/></g><defs><clipPath id="a"><path fill="#fff" d="M0 0h512v512H0z"/></clipPath></defs></svg>