<svg xmlns="http://www.w3.org/2000/svg" width="512" height="512" fill="none"><path fill="#EEE" d="M0 136h512v240H0z"/><path fill="#D80027" d="M0 344h512v168H0z"/><path fill="#6DA544" d="M0 0h512v168H0z"/><path fill="#0052B4" d="M0 0v512l256-256L0 0Z"/><path fill="#BDBCC1" d="M300.5 211.5V267c0 34.1 44.5 44.6 44.5 44.6s44.6-10.5 44.6-44.6v-55.6h-89Z"/><path fill="#85693D" d="M334 257.1h22.2v32.3h-22.3V257Z"/><path fill="#6DA544" d="M367.3 244.9a22.3 22.3 0 1 0-44.5 0 11.1 11.1 0 1 0 0 22.2h44.5a11.1 11.1 0 1 0 0-22.2Z"/></svg>