<svg xmlns="http://www.w3.org/2000/svg" width="512" height="512" fill="none"><path fill="#026" d="M0 0h512v512H0z"/><path fill="#026" d="M0 0h256v256H0z"/><path fill="#EEE" d="M232 256h24v-24L152 128 256 24V0h-24L128 104 24 0H0v24l104 104L0 232v24h24l104-104z"/><path fill="#EEE" d="M256 160V96h-96V0H96v96H0v64h96v96h64v-96z"/><path fill="var(--flag-palette-bright-red, #d80027)" d="M256 144v-32H144V0h-32v112H0v32h112v112h32V144z"/><path fill="var(--flag-palette-bright-red, #d80027)" d="M0 16V0l96 96H80zm256 224v16l-96-96h16zM16 256H0l96-96v16zM240 0h16l-96 96V80z"/><path fill="var(--flag-palette-green, #6da544)" d="M400 316h-32a16 16 0 1 0 0 32h32a16 16 0 1 0 0-32"/><path fill="var(--flag-palette-brown, #85693d)" d="M384 188a32 32 0 1 0 0-64 32 32 0 0 0 0 64"/><path fill="var(--flag-palette-mid-grey-3, #acabb1)" d="M384 252a48 48 0 1 0 0-96 48 48 0 0 0 0 96"/><path fill="var(--flag-palette-light-blue, #338af3)" d="M336 204v77c0 36 48 48 48 48s48-12 48-48v-77z"/><path fill="var(--flag-palette-dark-grey, #818085)" d="M336 204a16 16 0 1 0-32 0v96a16 16 0 1 0 32 0zm128 0a16 16 0 1 0-32 0v96a16 16 0 1 0 32 0z"/><path fill="var(--flag-palette-green, #6da544)" d="m336 204 48 112 48-112z"/><path fill="var(--flag-palette-dark-yellow, #ffc635)" fill-rule="evenodd" d="m296.7 367.5 11.4 6 .5.2-1.3 3-1.2 2.7 2.8 1.3a183 183 0 0 0 150.3 0l2.8-1.3-1.3-2.8-1.3-2.9.6-.3q5.8-2.7 11.4-6l4.6-2.6-4.6-2.7-9.5-6q-.2-6.2-.7-12.1l-.5-4.9-4.2 2.4a149 149 0 0 1-11.6 6l-6.2 2.8 1.8 4.9a151 151 0 0 1-113.2-.1l2-4.8-6.2-2.8q-5.9-2.7-11.6-6l-4.2-2.4-.4 4.9-.6 12q-4.7 3.3-9.7 6.1l-4.6 2.7z" clip-rule="evenodd"/></svg>