<svg xmlns="http://www.w3.org/2000/svg" width="512" height="512" fill="none"><path fill="#026" d="M0 0h512v512H0z"/><path fill="#026" d="M0 0h256v256H0z"/><path fill="#EEE" d="M232 256h24v-24L152 128 256 24V0h-24L128 104 24 0H0v24l104 104L0 232v24h24l104-104 104 104Z"/><path fill="#EEE" d="M256 160V96h-96V0H96v96H0v64h96v96h64v-96h96Z"/><path fill="#D80027" d="M256 144v-32H144V0h-32v112H0v32h112v112h32V144h112Z"/><path fill="#D80027" d="M0 16V0l96 96H80L0 16Zm256 224v16l-96-96h16l80 80ZM16 256H0l96-96v16l-80 80ZM240 0h16l-96 96V80l80-80Z"/><path fill="#6DA544" d="M400 316h-32a16 16 0 1 0 0 32h32a16 16 0 1 0 0-32Z"/><path fill="#85693D" d="M384 188a32 32 0 1 0 0-64 32 32 0 0 0 0 64Z"/><path fill="#ACABB1" d="M384 252a48 48 0 1 0 0-96 48 48 0 0 0 0 96Z"/><path fill="#338AF3" d="M336 204v77c0 36 48 48 48 48s48-12 48-48v-77h-96Z"/><path fill="#818085" d="M336 204a16 16 0 1 0-32 0v96a16 16 0 1 0 32 0v-96Zm128 0a16 16 0 1 0-32 0v96a16 16 0 1 0 32 0v-96Z"/><path fill="#6DA544" d="m336 204 48 112 48-112h-96Z"/><path fill="#FFC635" fill-rule="evenodd" d="m296.7 367.5 11.4 6 .5.2-1.3 3-1.2 2.7 2.8 1.3a182.7 182.7 0 0 0 150.3 0l2.8-1.3-1.3-2.8-1.3-2.9.6-.3c3.9-1.8 7.7-3.8 11.4-6l4.6-2.6-4.6-2.7-9.5-6c-.1-4.1-.4-8.2-.7-12.1l-.5-4.9-4.2 2.4a149 149 0 0 1-11.6 6l-6.2 2.8 1.8 4.9a150.6 150.6 0 0 1-113.2-.1l2-4.8-6.2-2.8c-3.9-1.8-7.8-3.8-11.6-6l-4.2-2.4-.4 4.9-.6 12c-3.1 2.2-6.4 4.2-9.7 6.1l-4.6 2.7 4.7 2.7Z" clip-rule="evenodd"/></svg>