<svg xmlns="http://www.w3.org/2000/svg" width="512" height="512" fill="none"><path fill="var(--flag-palette-white, #eeeeee)" d="M128 512V0h256v512z"/><path fill="var(--flag-palette-light-blue, #338af3)" d="M0 512V0h144v512zm368 0V0h144v512z"/><path fill="var(--flag-palette-green, #6da544)" d="m319 193-23.6 23.6a55.5 55.5 0 0 1-39.4 95 55.7 55.7 0 0 1-39.4-95L193 193a89 89 0 1 0 126 0"/><path fill="var(--flag-palette-mid-grey-3, #acabb1)" d="M322.9 299.3 279.6 256l41.2-41.2L319 193l-11.7-11.8-51.2 51.2-51.2-51.2-11.7 11.8-2 21.8 41.3 41.2-43.3 43.3 23.6 23.6 43.3-43.3 43.3 43.3z"/></svg>