<svg xmlns="http://www.w3.org/2000/svg" width="512" height="512" fill="none"><g clip-path="url(#a)"><path fill="#EEE" d="M0 136h512v240H0z"/><path fill="#0052B4" d="M0 344h512v168H0z"/><path fill="#D80027" d="M0 0h512v168H0z"/><path fill="#333" d="M256 80a176 176 0 1 0 0 352 176 176 0 0 0 0-352m0 16a160 160 0 1 1 0 320 160 160 0 0 1 0-320m0 7a32 32 0 0 0-32 32 32 32 0 0 0 20 30v28a64 64 0 0 0-24 10l-20-20a32 32 0 0 0-7-35 32 32 0 0 0-23-10 32 32 0 0 0-22 10 32 32 0 0 0 35 52l20 20a64 64 0 0 0-10 24h-29a32 32 0 0 0-29-20 32 32 0 1 0 0 64 32 32 0 0 0 29-20h29a64 64 0 0 0 10 24l-20 20a32 32 0 0 0-35 52 32 32 0 0 0 52-35l20-20a64 64 0 0 0 24 10v28a32 32 0 0 0-20 30 32 32 0 1 0 64 0 32 32 0 0 0-20-30v-28a64 64 0 0 0 24-10l20 20a32 32 0 0 0 52 35 32 32 0 0 0-35-52l-20-20a64 64 0 0 0 10-24h28a32 32 0 0 0 30 20 32 32 0 1 0 0-64 32 32 0 0 0-30 20h-28a64 64 0 0 0-10-24l20-20a32 32 0 0 0 35-52 32 32 0 0 0-22-10 32 32 0 0 0-23 10 32 32 0 0 0-7 35l-20 20a64 64 0 0 0-24-10v-28a32 32 0 0 0 20-30 32 32 0 0 0-32-32m0 105a48 48 0 1 1 0 96 48 48 0 0 1 0-96m0 16a32 32 0 1 0 0 64 32 32 0 0 0 0-64"/></g><defs><clipPath id="a"><path fill="#fff" d="M0 0h512v512H0z"/></clipPath></defs></svg>