<svg width="512" height="512" viewBox="0 0 512 512" fill="none" xmlns="http://www.w3.org/2000/svg">
<rect y="136" width="512" height="240" fill="var(--flag-palette-white, #eeeeee)"/>
<rect y="344" width="512" height="168" fill="var(--flag-palette-blue, #0052b4)"/>
<rect width="512" height="168" fill="var(--flag-palette-bright-red, #d80027)"/>
<path d="M256 80C209.322 80 164.556 98.5428 131.549 131.549C98.5428 164.556 80 209.322 80 256C80 302.678 98.5428 347.444 131.549 380.451C164.556 413.457 209.322 432 256 432C302.678 432 347.444 413.457 380.451 380.451C413.457 347.444 432 302.678 432 256C432 209.322 413.457 164.556 380.451 131.549C347.444 98.5428 302.678 80 256 80ZM256 96C298.435 96 339.131 112.857 369.137 142.863C399.143 172.869 416 213.565 416 256C416 298.435 399.143 339.131 369.137 369.137C339.131 399.143 298.435 416 256 416C213.565 416 172.869 399.143 142.863 369.137C112.857 339.131 96 298.435 96 256C96 213.565 112.857 172.869 142.863 142.863C172.869 112.857 213.565 96 256 96ZM256 103C247.513 103 239.374 106.371 233.373 112.373C227.371 118.374 224 126.513 224 135C223.933 141.431 225.805 147.733 229.373 153.085C232.94 158.436 238.038 162.589 244 165V193C235.4 194.656 227.232 198.06 220 203L200 183C202.442 177.131 203.08 170.667 201.833 164.433C200.586 158.2 197.511 152.479 193 148C190.037 144.87 186.473 142.371 182.52 140.653C178.568 138.934 174.31 138.032 170 138C161.642 138.33 153.744 141.919 148 148C142.076 153.991 138.754 162.075 138.754 170.5C138.754 178.925 142.076 187.009 148 193C152.479 197.511 158.2 200.586 164.433 201.833C170.667 203.08 177.131 202.442 183 200L203 220C198.06 227.232 194.656 235.4 193 244H164C161.653 238.195 157.655 233.205 152.5 229.65C147.345 226.095 141.26 224.131 135 224C126.513 224 118.374 227.371 112.373 233.373C106.371 239.374 103 247.513 103 256C103 264.487 106.371 272.626 112.373 278.627C118.374 284.629 126.513 288 135 288C141.26 287.869 147.345 285.905 152.5 282.35C157.655 278.795 161.653 273.805 164 268H193C194.656 276.6 198.06 284.768 203 292L183 312C177.131 309.558 170.667 308.92 164.433 310.167C158.2 311.414 152.479 314.489 148 319C142.076 324.991 138.754 333.075 138.754 341.5C138.754 349.925 142.076 358.009 148 364C153.991 369.924 162.075 373.246 170.5 373.246C178.925 373.246 187.009 369.924 193 364C197.511 359.521 200.586 353.8 201.833 347.567C203.08 341.333 202.442 334.869 200 329L220 309C227.232 313.94 235.4 317.344 244 319V347C238.038 349.411 232.94 353.564 229.373 358.915C225.805 364.267 223.933 370.569 224 377C224 385.487 227.371 393.626 233.373 399.627C239.374 405.629 247.513 409 256 409C264.487 409 272.626 405.629 278.627 399.627C284.629 393.626 288 385.487 288 377C288.067 370.569 286.195 364.267 282.627 358.915C279.06 353.564 273.962 349.411 268 347V319C276.6 317.344 284.768 313.94 292 309L312 329C309.558 334.869 308.92 341.333 310.167 347.567C311.414 353.8 314.489 359.521 319 364C324.991 369.924 333.075 373.246 341.5 373.246C349.925 373.246 358.009 369.924 364 364C369.924 358.009 373.246 349.925 373.246 341.5C373.246 333.075 369.924 324.991 364 319C359.521 314.489 353.8 311.414 347.567 310.167C341.333 308.92 334.869 309.558 329 312L309 292C313.94 284.768 317.344 276.6 319 268H347C349.411 273.962 353.564 279.06 358.915 282.627C364.267 286.195 370.569 288.067 377 288C385.487 288 393.626 284.629 399.627 278.627C405.629 272.626 409 264.487 409 256C409 247.513 405.629 239.374 399.627 233.373C393.626 227.371 385.487 224 377 224C370.569 223.933 364.267 225.805 358.915 229.373C353.564 232.94 349.411 238.038 347 244H319C317.344 235.4 313.94 227.232 309 220L329 200C334.869 202.442 341.333 203.08 347.567 201.833C353.8 200.586 359.521 197.511 364 193C369.924 187.009 373.246 178.925 373.246 170.5C373.246 162.075 369.924 153.991 364 148C358.256 141.919 350.358 138.33 342 138C337.69 138.032 333.432 138.934 329.48 140.653C325.527 142.371 321.963 144.87 319 148C314.489 152.479 311.414 158.2 310.167 164.433C308.92 170.667 309.558 177.131 312 183L292 203C284.768 198.06 276.6 194.656 268 193V165C273.962 162.589 279.06 158.436 282.627 153.085C286.195 147.733 288.067 141.431 288 135C288 126.513 284.629 118.374 278.627 112.373C272.626 106.371 264.487 103 256 103ZM256 208C268.73 208 280.939 213.057 289.941 222.059C298.943 231.061 304 243.27 304 256C304 268.73 298.943 280.939 289.941 289.941C280.939 298.943 268.73 304 256 304C243.27 304 231.061 298.943 222.059 289.941C213.057 280.939 208 268.73 208 256C208 243.27 213.057 231.061 222.059 222.059C231.061 213.057 243.27 208 256 208ZM256 224C247.513 224 239.374 227.371 233.373 233.373C227.371 239.374 224 247.513 224 256C224 264.487 227.371 272.626 233.373 278.627C239.374 284.629 247.513 288 256 288C264.487 288 272.626 284.629 278.627 278.627C284.629 272.626 288 264.487 288 256C288 247.513 284.629 239.374 278.627 233.373C272.626 227.371 264.487 224 256 224Z" fill="var(--flag-palette-black, #333333)"/>
</svg>