<svg xmlns="http://www.w3.org/2000/svg" width="512" height="512" fill="none"><path fill="#6DA544" d="M0 0h512v512H0z"/><mask id="a" width="512" height="512" x="0" y="0" maskUnits="userSpaceOnUse" style="mask-type:alpha"><path fill="#6DA544" d="M0 0h512v512H0z"/></mask><g mask="url(#a)"><path fill="#FFDA44" d="M-512 768 512 256-512-256V768Z"/><path fill="#EEE" fill-rule="evenodd" d="M512 256-512-256V768L512 256Zm-57.2 0-941.2-470.6v941.2L454.8 256Z" clip-rule="evenodd"/></g><mask id="b" width="512" height="512" x="0" y="0" maskUnits="userSpaceOnUse" style="mask-type:alpha"><path fill="#6DA544" d="M0 0h512v512H0z"/></mask><g mask="url(#b)"><path fill="#D80027" d="M-256-256V768l512-512-512-512Z"/><path fill="#333" fill-rule="evenodd" d="m-256 768 512-512-512-512V768Zm25.6-61.8L219.8 256l-450.2-450.2v900.4Z" clip-rule="evenodd"/></g></svg>