<svg width="512" height="512" viewBox="0 0 512 512" fill="none" xmlns="http://www.w3.org/2000/svg">
<rect width="512" height="512" fill="var(--flag-palette-white, #eeeeee)"/>
<path fill-rule="evenodd" clip-rule="evenodd" d="M153.843 217.521C118.228 241.105 75.5425 254.86 29.627 254.86V257.152C75.5425 257.152 118.228 270.906 153.843 294.491L192.327 256.006L153.843 217.521ZM217.564 358.212C241.148 393.827 254.903 436.513 254.903 482.428H257.195C257.195 436.513 270.949 393.827 294.534 358.212L256.049 319.728L217.564 358.212ZM358.284 294.491C393.898 270.907 436.584 257.152 482.499 257.152V254.861C436.584 254.861 393.898 241.106 358.284 217.521L319.799 256.006L358.284 294.491ZM294.548 153.787C270.964 118.172 257.209 75.4868 257.209 29.5713H254.917C254.917 75.4868 241.163 118.172 217.578 153.787L256.063 192.272L294.548 153.787ZM319.787 256.002L256.062 192.276L192.336 256.002L256.062 319.728L319.787 256.002Z" fill="var(--flag-palette-green, #6da544)"/>
<path fill-rule="evenodd" clip-rule="evenodd" d="M282.519 112.344C271.648 86.0993 266.052 57.9706 266.053 29.5637L248.053 29.5635C248.053 29.5639 248.053 29.5642 248.053 29.5646L245.822 29.5647C245.822 57.9715 240.227 86.1003 229.356 112.345C225.044 122.754 219.936 132.785 214.089 142.354L170.025 98.2902C150.232 78.4979 118.143 78.4979 98.3504 98.2902C78.5582 118.082 78.5582 150.172 98.3505 169.964L142.441 214.055C132.827 219.939 122.745 225.077 112.283 229.41C86.0378 240.279 57.9084 245.873 29.5013 245.87L29.5012 248.133C29.5008 248.133 29.5004 248.133 29.5 248.133V263.87V266.133C57.9055 266.133 86.0329 271.728 112.276 282.598C122.739 286.932 132.82 292.07 142.434 297.955L98.3478 342.041C78.5556 361.833 78.5556 393.923 98.3478 413.715C118.14 433.507 150.23 433.507 170.022 413.715L214.078 369.659C219.923 379.226 225.029 389.255 229.339 399.66C240.21 425.904 245.804 454.031 245.804 482.436H248.053V482.437H266.053C266.053 454.03 271.648 425.902 282.519 399.658C286.854 389.193 291.994 379.11 297.881 369.495L342.101 413.715C361.893 433.507 393.983 433.507 413.775 413.715C433.567 393.922 433.567 361.833 413.775 342.041L369.589 297.855C379.157 292.01 389.186 286.904 399.592 282.594C425.838 271.725 453.967 266.132 482.373 266.134L482.374 263.869H482.375L482.374 256.002L482.375 248.134H482.374L482.373 245.869C453.966 245.872 425.837 240.278 399.592 229.409C389.185 225.099 379.156 219.993 369.589 214.148L413.772 169.964C433.565 150.172 433.565 118.083 413.772 98.2904C393.98 78.4982 361.891 78.4982 342.098 98.2904L297.881 142.508C291.993 132.892 286.854 122.809 282.519 112.344ZM89.7208 256.004C99.7236 258.664 109.56 261.99 119.164 265.968C131.834 271.216 143.988 277.553 155.496 284.893L184.387 256.001L155.503 227.117C143.995 234.456 131.841 240.792 119.17 246.04C109.565 250.018 99.7256 253.344 89.7208 256.004ZM170.529 216.687L197.115 243.273L243.334 197.055L216.732 170.454C210.155 179.194 202.96 187.481 195.191 195.25C187.462 202.978 179.219 210.138 170.529 216.687ZM203.867 157.589L157.297 111.018C144.534 98.2553 123.841 98.2553 111.078 111.018C98.3156 123.781 98.3156 144.474 111.078 157.236L157.666 203.824C166.437 197.373 174.729 190.255 182.463 182.521C190.238 174.747 197.39 166.41 203.867 157.589ZM227.153 155.419L256.062 184.327L284.819 155.57C277.477 144.061 271.138 131.905 265.889 119.232C261.917 109.644 258.596 99.8235 255.938 89.8376C253.279 99.8239 249.958 109.645 245.986 119.233C240.76 131.85 234.453 143.955 227.153 155.419ZM111.076 354.769L157.658 308.187C166.427 314.637 174.718 321.754 182.45 329.487C190.226 337.262 197.379 345.601 203.857 354.424L157.294 400.987C144.531 413.75 123.839 413.75 111.076 400.987C98.3129 388.224 98.3129 367.532 111.076 354.769ZM195.178 316.759C202.948 324.528 210.144 332.818 216.722 341.559L243.334 314.947L197.115 268.729L170.521 295.323C179.21 301.871 187.451 309.031 195.178 316.759ZM245.969 392.772C240.744 380.159 234.44 368.057 227.142 356.595L256.061 327.675L284.819 356.433C277.478 367.942 271.139 380.097 265.89 392.769C261.913 402.368 258.589 412.201 255.929 422.198C253.269 412.202 249.945 402.371 245.969 392.772ZM295.25 170.595L268.789 197.055L315.008 243.273L341.488 216.793C332.745 210.216 324.455 203.019 316.684 195.249C308.957 187.522 301.798 179.282 295.25 170.595ZM354.353 203.928C345.528 197.45 337.188 190.296 329.412 182.52C321.679 174.789 314.563 166.5 308.113 157.732L354.826 111.018C367.589 98.2555 388.282 98.2555 401.044 111.018C413.807 123.781 413.807 144.474 401.044 157.237L354.353 203.928ZM356.524 227.213L327.736 256.001L356.525 284.79C367.987 277.492 380.091 271.188 392.705 265.964C402.309 261.987 412.146 258.661 422.149 256.002C412.146 253.342 402.309 250.017 392.704 246.039C380.09 240.815 367.987 234.511 356.524 227.213ZM315.008 268.729L341.488 295.21C332.746 301.787 324.456 308.983 316.685 316.754C308.958 324.48 301.798 332.72 295.25 341.408L268.789 314.947L315.008 268.729ZM354.829 400.987L308.113 354.271C314.563 345.503 321.68 337.214 329.413 329.482C337.189 321.706 345.529 314.553 354.353 308.075L401.047 354.769C413.81 367.531 413.81 388.224 401.047 400.987C388.284 413.75 367.592 413.75 354.829 400.987ZM256.061 302.219L209.843 256.001L256.062 209.783L302.28 256.001L256.061 302.219Z" fill="var(--flag-palette-black, #333333)"/>
</svg>