<svg xmlns="http://www.w3.org/2000/svg" width="512" height="512" fill="none"><g clip-path="url(#a)"><path fill="#D80027" d="M0 0h512v512H0z"/><path fill="#FFDA44" d="M256 244a111 111 0 1 0 0 222 111 111 0 0 0 0-222ZM228.3 42v32l-27.7 16 27.7 16v32l27.7-16 27.7 16v-32l27.7-16-27.7-16V42L256 58l-27.7-16ZM420 322l-25 19-10 21 28 69-34 34 54 15-19-18 24-17 24 17-19 18 54-15-34-34 28-69-10-21-25-19 17 37-23 24 3-24-15-25-15 25 3 24-23-24 17-37Zm0-290-25 19-10 21 12 33-14 17 5 27 12-26 13 18-34 34 54 15-19-18 24-17 24 17-19 18 54-15-34-34 13-18 12 26 5-27-14-17 12-33-10-21-25-19 17 37-23 24 3-24-15-25-15 25 3 24-23-24 17-37ZM56 322l-25 19-10 21 28 69-34 34 54 15-19-18 24-17 24 17-19 18 54-15-34-34 28-69-10-21-25-19 17 37-23 24 3-24-15-25-15 25 3 24-23-24 17-37Zm0-290L31 51 21 72l12 33-14 17 5 27 12-26 13 18-34 34 54 15-19-18 24-17 24 17-19 18 54-15-34-34 13-18 12 26 5-27-14-17 12-33-10-21-25-19 17 37-23 24 3-24-15-25-15 25 3 24-23-24 17-37Z"/></g><defs><clipPath id="a"><path fill="#fff" d="M0 0h512v512H0z"/></clipPath></defs></svg>