<svg width="512" height="512" viewBox="0 0 512 512" fill="none" xmlns="http://www.w3.org/2000/svg">
<path d="M512 128V384H0L1.11901e-05 128L512 128Z" fill="var(--flag-palette-white, #eeeeee)"/>
<path d="M512 368V512L0 512L6.29444e-06 368L512 368Z" fill="var(--flag-palette-light-blue, #338af3)"/>
<path d="M512 2.23802e-05V144L0 144L6.29444e-06 0L512 2.23802e-05Z" fill="var(--flag-palette-light-blue, #338af3)"/>
<path d="M159.347 274.457L167.634 299.963H194.452L172.756 315.726L181.043 341.231L159.347 325.468L137.65 341.231L145.938 315.726L124.241 299.963H151.059L159.347 274.457Z" fill="var(--flag-palette-light-blue, #338af3)"/>
<path d="M159.347 163.721L167.634 189.226H194.452L172.756 204.99L181.043 230.495L159.347 214.732L137.65 230.495L145.938 204.99L124.241 189.226H151.059L159.347 163.721Z" fill="var(--flag-palette-light-blue, #338af3)"/>
<path d="M352.652 274.457L360.939 299.963H387.758L366.061 315.726L374.349 341.231L352.652 325.468L330.956 341.231L339.243 315.726L317.547 299.963H344.365L352.652 274.457Z" fill="var(--flag-palette-light-blue, #338af3)"/>
<path d="M352.652 163.721L360.939 189.226H387.758L366.061 204.99L374.349 230.495L352.652 214.732L330.956 230.495L339.243 204.99L317.547 189.226H344.365L352.652 163.721Z" fill="var(--flag-palette-light-blue, #338af3)"/>
<path d="M256 219.089L264.287 244.594H291.105L269.409 260.358L277.696 285.863L256 270.1L234.304 285.863L242.591 260.358L220.894 244.594H247.713L256 219.089Z" fill="var(--flag-palette-light-blue, #338af3)"/>
</svg>