<svg xmlns="http://www.w3.org/2000/svg" width="512" height="512" fill="none"><path fill="#EEE" d="M512 122.4v267.1H0v-267z"/><path fill="#338AF3" d="M512 367.3V512H0V367.3zM512 0v144.7H0V0zM159.3 274.5l8.3 25.5h26.9l-21.7 15.7 8.2 25.5-21.7-15.7-21.7 15.7 8.3-25.5-21.7-15.7h26.9l8.2-25.5Zm0-110.8 8.3 25.5h26.9L172.8 205l8.2 25.5-21.7-15.8-21.7 15.8L146 205l-21.7-15.8h26.9l8.2-25.5Zm193.4 110.8 8.2 25.5h26.9L366 315.7l8.2 25.5-21.6-15.7-21.7 15.7 8.2-25.5-21.7-15.7h26.9l8.3-25.5Zm0-110.8 8.2 25.5h26.9L366 205l8.2 25.5-21.6-15.8-21.7 15.8 8.2-25.5-21.7-15.8h26.9l8.3-25.5ZM256 219l8.3 25.6H291l-21.7 15.8 8.3 25.5L256 270l-21.7 15.8 8.3-25.5-21.7-15.8h26.8L256 219Z"/></svg>