<svg xmlns="http://www.w3.org/2000/svg" width="512" height="512" fill="none"><path fill="#EEE" d="M0 136h512v240H0z"/><path fill="#0052B4" d="M0 344h512v168H0z"/><path fill="#D80027" d="M0 0h512v168H0z"/><path fill="#338AF3" d="M338.5 181.7h-55l9.2-68.7 36.6-27.5L366 113v55l-27.5 13.7Zm-165 0h55l-9.2-68.7-36.6-27.5L146 113v55l27.5 13.7Z"/><path fill="#0052B4" d="M292.7 181.7h-73.4V113L256 85.5l36.7 27.5v68.7Z"/><path fill="#EEE" d="M146 168v110a110 110 0 0 0 220 0V168H146Z"/><mask id="a" width="220" height="220" x="146" y="168" maskUnits="userSpaceOnUse" style="mask-type:alpha"><path fill="#D9D9D9" d="M146 168v110a110 110 0 0 0 220 0V168H146Z"/></mask><g fill="#D80027" mask="url(#a)"><path d="M146 168h44v44h-44zm0 88h44v44h-44zm0 88h44v44h-44zm88-88h44v44h-44zm0-88h44v44h-44zm-44 132h44v44h-44zm44 44h44v44h-44zm88-88h44v44h-44zm-132-44h44v44h-44zm88 88h44v44h-44zm44-132h44v44h-44zm0 176h44v44h-44zm-44-132h44v44h-44z"/></g></svg>