<svg xmlns="http://www.w3.org/2000/svg" width="512" height="512" fill="none"><path fill="#EEE" d="M0 136h512v240H0z"/><path fill="#0052B4" d="M0 344h512v168H0z"/><path fill="#D80027" d="M0 0h512v168H0z"/><path fill="#338AF3" d="M338.5 181.7h-55l9.2-68.7 36.6-27.5L366 113v55l-27.5 13.7Zm-165 0h55l-9.2-68.7-36.6-27.5L146 113v55l27.5 13.7Z"/><path fill="#0052B4" d="M292.7 181.7h-73.4V113L256 85.5l36.7 27.5v68.7Z"/><path fill="#EEE" d="M146 168v110a110 110 0 0 0 220 0V168H146Z"/><path fill="#EEE" d="M146 168v110a110 110 0 0 0 220 0V168H146Z"/><path fill="#D80027" fill-rule="evenodd" d="M146 212h44v44h44v-44h-44v-44h-44v44Zm88-44v44h44v44h44v-44h44v-44h-44v44h-44v-44h-44Zm132 88h-44v44h-44v-44h-44v44h44v44h-44v41.8c7 1.4 14.4 2.2 21.9 2.2h.2c7.5 0 14.8-.8 21.9-2.2V344h44v22c8.3-6.3 15.7-13.7 22-22h-22v-44h41.8a114 114 0 0 0 2.2-22v-22ZM190 366v-22h44v-44h-44v-44h-44v22c0 7.5.8 14.9 2.2 22H190v44h-22c6.3 8.3 13.7 15.7 22 22Z" clip-rule="evenodd"/></svg>