<svg xmlns="http://www.w3.org/2000/svg" width="512" height="512" fill="none"><path fill="#EEE" d="M0 136h512v240H0z"/><path fill="#0052B4" d="M0 344h512v168H0z"/><path fill="#D80027" d="M0 0h512v168H0z"/><path fill="#338AF3" d="M339.5 180.9h-55.7l9.3-69.6 37.1-27.8 37.1 27.8V167l-27.8 13.9Zm-167 0h55.7l-9.3-69.6-37.1-27.8-37.1 27.8V167l27.8 13.9Z"/><path fill="#0052B4" d="M293.1 180.9H219v-69.6l37-27.8 37.1 27.8v69.6Z"/><path fill="#EEE" d="M144.7 167v111.3a111.3 111.3 0 1 0 222.6 0V166.9H144.7Z"/><mask id="a" width="224" height="224" x="144" y="166" maskUnits="userSpaceOnUse" style="mask-type:alpha"><path fill="#D9D9D9" d="M144.7 167v111.3a111.3 111.3 0 1 0 222.6 0V166.9H144.7Z"/></mask><g fill="#D80027" mask="url(#a)"><path d="M144.7 166.9h44.5v44.5h-44.5zm0 89.1h44.5v44.5h-44.5zm0 89.1h44.5v44.5h-44.5zm89-89.1h44.5v44.5h-44.5zm0-89.1h44.5v44.5h-44.5zm-44.5 133.6h44.5V345h-44.5zm44.5 44.6h44.5v44.5h-44.5zm89.1-89.1h44.5v44.5h-44.5zm-133.6-44.5h44.5V256h-44.5zm89.1 89h44.5V345h-44.5zm44.5-133.6h44.5v44.5h-44.5zm0 178.2h44.5v44.5h-44.5zm-44.5-133.6h44.5V256h-44.5z"/></g></svg>