<svg xmlns="http://www.w3.org/2000/svg" width="512" height="512" fill="none"><path fill="#A2001D" d="M0 204.9h512V512H0z"/><path fill="#0052B4" d="M0 0h512v256H0z"/><path fill="#EEE" d="m345 322.8-89-11.1-89 11V189.3h178v133.6Z"/><path fill="#0052B4" d="M256 311.7a44.5 44.5 0 1 0 0-89 44.5 44.5 0 0 0 0 89Z"/><path fill="#A2001D" d="M256 289.4a22.3 22.3 0 1 0 0-44.5 22.3 22.3 0 0 0 0 44.5Z"/><path fill="#6DA544" d="M222.6 211.5h66.8L256 244.9l-33.4-33.4Z"/><path fill="#FFDA44" d="M244.9 233.7H267v66.8h-22v-66.8Z"/><path fill="#6DA544" d="M291.6 293.8h-71.2l-53.4 29h178l-53.4-29Z"/></svg>