<svg xmlns="http://www.w3.org/2000/svg" width="512" height="512" fill="none"><g clip-path="url(#a)"><path fill="#FFDA44" d="M0 0h512v512H0z"/><path fill="#D80027" d="m256 114-6 2-95 78c-4 3-4 9-1 13l102-33 102 33c3-4 3-10-1-13l-95-78z"/><path fill="#6DA544" d="m256 134-99 72 6 22 51-32 42 25 42-25 51 32 6-22z"/><path fill="#333" d="m256 191-28 60-9-21-10 21-7-16-10 21-7-16-13 27 14 23h140l14-23-12-27-8 16-10-21-7 16-10-21-9 21z"/><path fill="#338AF3" d="m183 290 11 32h124l11-32z"/><path fill="#EEE" d="M256 129a4 4 0 0 0-2 1l-100 73a4 4 0 0 0-2 4l38 117a4 4 0 0 0 4 3h124a4 4 0 0 0 4-3l38-117a4 4 0 0 0-2-4l-100-73a4 4 0 0 0-2-1m0 9 95 70-36 111H197l-36-111z"/><path fill="#FF9811" d="M261 174.5a4.5 4.5 0 0 0-9 0v133a4.5 4.5 0 0 0 9 0z"/><path fill="#D80027" d="M308 338H204a12 12 0 0 0 0 24h104a12 12 0 0 0 0-24"/><path fill="#EEE" d="M324 350H188a12 12 0 0 0 0 24h136a12 12 0 0 0 0-24"/><path fill="#FFDA44" d="m242 191 14-42 14 42-36-26h44z"/></g><defs><clipPath id="a"><path fill="#fff" d="M0 0h512v512H0z"/></clipPath></defs></svg>