<svg xmlns="http://www.w3.org/2000/svg" width="512" height="512" fill="none"><g clip-path="url(#a)"><path fill="#D80027" d="M0 0h512v73L256 96 0 73V0Z"/><path fill="#EEE" d="M0 73h512v73l-256 23L0 146V73Z"/><path fill="#333" d="M0 146h512v73l-256 23L0 219v-73Z"/><path fill="#FFDA44" d="M0 219h512v74l-256 22L0 293v-74Z"/><path fill="#4A1F63" d="M0 293h512v73l-256 23L0 366v-73Z"/><path fill="#338AF3" d="M0 366h512v73l-256 23L0 439v-73Z"/><path fill="#6DA544" d="M0 439h512v73H0v-73Z"/></g><defs><clipPath id="a"><path fill="#fff" d="M0 0h512v512H0z"/></clipPath></defs></svg>