<svg xmlns="http://www.w3.org/2000/svg" width="512" height="512" fill="none"><path fill="#EEE" d="M512 122.4v267.1H0v-267z"/><path fill="#6DA544" d="M512 367.3V512H0V367.3z"/><path fill="#FF9811" d="M512 0v144.7H0V0z"/><path fill="#0052B4" d="M256 345a89 89 0 1 0 0-178 89 89 0 0 0 0 178Z"/><path fill="#EEE" d="M256 311.7a55.7 55.7 0 1 0 0-111.4 55.7 55.7 0 0 0 0 111.4Z"/><path fill="#0052B4" d="m256 187.3 17.2 39 42.3-4.6-25.2 34.3 25.2 34.3-42.3-4.6-17.2 39-17.2-39-42.3 4.6 25.2-34.3-25.2-34.3 42.3 4.6 17.2-39Z"/></svg>