<svg width="512" height="512" viewBox="0 0 512 512" fill="none" xmlns="http://www.w3.org/2000/svg">
<g clip-path="url(#clip0_1_3117)">
<rect width="512" height="512" fill="var(--flag-palette-white, #eeeeee)"/>
<g clip-path="url(#clip1_1_3117)">
<path d="M4.03066 24.4885C8.8998 20.0362 13.7691 15.584 23.5076 15.584C33.2469 15.584 38.1166 20.0361 42.9865 24.4883C47.8564 28.9406 52.7264 33.393 62.4666 33.393C72.2068 33.393 77.0768 28.9406 81.9467 24.4883C86.8166 20.0361 91.6863 15.584 101.426 15.584C111.164 15.584 116.033 20.0362 120.903 24.4885C125.772 28.9407 130.641 33.393 140.379 33.393C150.118 33.393 154.987 28.9407 159.856 24.4885C164.726 20.0362 169.595 15.584 179.333 15.584C189.073 15.584 193.943 20.0361 198.813 24.4884C203.683 28.9406 208.553 33.393 218.293 33.393C228.033 33.393 232.903 28.9407 237.772 24.4885C242.642 20.0362 247.512 15.584 257.252 15.584C266.99 15.584 271.86 20.0362 276.729 24.4885C281.598 28.9407 286.467 33.393 296.206 33.393C305.944 33.393 310.813 28.9407 315.683 24.4885C320.552 20.0362 325.421 15.584 335.16 15.584C344.899 15.584 349.769 20.0361 354.639 24.4884C359.509 28.9406 364.379 33.393 374.119 33.393C383.859 33.393 388.729 28.9407 393.599 24.4885C398.469 20.0362 403.338 15.584 413.078 15.584C422.816 15.584 427.685 20.0362 432.554 24.4885C437.424 28.9407 442.293 33.393 452.031 33.393C461.77 33.393 466.639 28.9407 471.508 24.4885C476.378 20.0362 481.247 15.584 490.985 15.584C500.725 15.584 505.595 20.0361 510.465 24.4884C515.335 28.9406 520.204 33.393 529.945 33.393C539.685 33.393 544.554 28.9407 549.424 24.4885C554.294 20.0362 559.164 15.584 568.904 15.584V46.749C559.163 46.749 554.294 51.2013 549.424 55.6535C544.554 60.1058 539.685 64.558 529.945 64.558C520.204 64.558 515.335 60.1057 510.465 55.6534C505.595 51.2012 500.725 46.749 490.985 46.749C481.247 46.749 476.378 51.2013 471.508 55.6535C466.639 60.1058 461.77 64.558 452.031 64.558C442.293 64.558 437.424 60.1058 432.554 55.6535C427.685 51.2013 422.816 46.749 413.078 46.749C403.338 46.749 398.468 51.2013 393.598 55.6535C388.728 60.1058 383.859 64.558 374.119 64.558C364.379 64.558 359.509 60.1057 354.639 55.6534C349.769 51.2012 344.899 46.749 335.16 46.749C325.421 46.749 320.552 51.2013 315.683 55.6535C310.813 60.1058 305.944 64.558 296.206 64.558C286.467 64.558 281.598 60.1058 276.729 55.6535C271.86 51.2013 266.99 46.749 257.252 46.749C247.512 46.749 242.642 51.2013 237.772 55.6535C232.902 60.1058 228.033 64.558 218.293 64.558C208.553 64.558 203.683 60.1057 198.813 55.6534C193.943 51.2012 189.073 46.749 179.333 46.749C169.595 46.749 164.726 51.2013 159.856 55.6535C154.987 60.1058 150.118 64.558 140.379 64.558C130.641 64.558 125.772 60.1058 120.903 55.6535C116.033 51.2013 111.164 46.749 101.426 46.749C91.6855 46.749 86.8158 51.2013 81.9461 55.6535C77.0764 60.1058 72.2066 64.558 62.4666 64.558C52.7264 64.558 47.8564 60.1057 42.9865 55.6533C38.1166 51.2012 33.2469 46.749 23.5076 46.749C13.7691 46.749 8.8998 51.2013 4.03066 55.6535C-0.838478 60.1058 -5.70782 64.558 -15.4463 64.558C-25.185 64.558 -30.0543 60.1058 -34.9236 55.6535C-39.7928 51.2013 -44.6619 46.749 -54.4004 46.749V15.584C-44.6619 15.584 -39.7928 20.0362 -34.9236 24.4885C-30.0543 28.9407 -25.185 33.393 -15.4463 33.393C-5.70782 33.393 -0.838478 28.9407 4.03066 24.4885Z" fill="var(--flag-palette-navy, #002266)"/>
<path d="M4.03066 86.8734C8.8998 82.4212 13.7691 77.9689 23.5076 77.9689C33.2469 77.9689 38.1166 82.4211 42.9865 86.8732C47.8564 91.3256 52.7264 95.7779 62.4666 95.7779C72.2068 95.7779 77.0768 91.3256 81.9467 86.8732C86.8166 82.4211 91.6863 77.9689 101.426 77.9689C111.164 77.9689 116.033 82.4212 120.903 86.8734C125.772 91.3257 130.641 95.7779 140.379 95.7779C150.118 95.7779 154.987 91.3257 159.856 86.8734C164.726 82.4212 169.595 77.9689 179.333 77.9689C189.073 77.9689 193.943 82.4211 198.813 86.8733C203.683 91.3256 208.553 95.7779 218.293 95.7779C228.033 95.7779 232.903 91.3257 237.772 86.8734C242.642 82.4212 247.512 77.9689 257.252 77.9689C266.99 77.9689 271.86 82.4212 276.729 86.8734C281.598 91.3257 286.467 95.7779 296.206 95.7779C305.944 95.7779 310.813 91.3257 315.683 86.8734C320.552 82.4212 325.421 77.9689 335.16 77.9689C344.899 77.9689 349.769 82.4211 354.639 86.8733C359.509 91.3256 364.379 95.7779 374.119 95.7779C383.859 95.7779 388.729 91.3257 393.599 86.8734C398.469 82.4212 403.338 77.9689 413.078 77.9689C422.816 77.9689 427.685 82.4212 432.554 86.8734C437.424 91.3257 442.293 95.7779 452.031 95.7779C461.77 95.7779 466.639 91.3257 471.508 86.8734C476.378 82.4212 481.247 77.9689 490.985 77.9689C500.725 77.9689 505.595 82.4211 510.465 86.8733C515.335 91.3256 520.204 95.7779 529.945 95.7779C539.685 95.7779 544.554 91.3257 549.424 86.8734C554.294 82.4212 559.164 77.9689 568.904 77.9689V109.134C559.163 109.134 554.294 113.586 549.424 118.038C544.554 122.491 539.685 126.943 529.945 126.943C520.204 126.943 515.335 122.491 510.465 118.038C505.595 113.586 500.725 109.134 490.985 109.134C481.247 109.134 476.378 113.586 471.508 118.038C466.639 122.491 461.77 126.943 452.031 126.943C442.293 126.943 437.424 122.491 432.554 118.038C427.685 113.586 422.816 109.134 413.078 109.134C403.338 109.134 398.468 113.586 393.598 118.038C388.728 122.491 383.859 126.943 374.119 126.943C364.379 126.943 359.509 122.491 354.639 118.038C349.769 113.586 344.899 109.134 335.16 109.134C325.421 109.134 320.552 113.586 315.683 118.038C310.813 122.491 305.944 126.943 296.206 126.943C286.467 126.943 281.598 122.491 276.729 118.038C271.86 113.586 266.99 109.134 257.252 109.134C247.512 109.134 242.642 113.586 237.772 118.038C232.902 122.491 228.033 126.943 218.293 126.943C208.553 126.943 203.683 122.491 198.813 118.038C193.943 113.586 189.073 109.134 179.333 109.134C169.595 109.134 164.726 113.586 159.856 118.038C154.987 122.491 150.118 126.943 140.379 126.943C130.641 126.943 125.772 122.491 120.903 118.038C116.033 113.586 111.164 109.134 101.426 109.134C91.6855 109.134 86.8158 113.586 81.9461 118.038C77.0764 122.491 72.2066 126.943 62.4666 126.943C52.7275 126.943 47.8576 122.492 42.9883 118.04C38.1184 113.588 33.2469 109.134 23.5076 109.134C13.7691 109.134 8.8998 113.586 4.03066 118.038C-0.838478 122.491 -5.70782 126.943 -15.4463 126.943C-25.1838 126.943 -30.0531 122.492 -34.9219 118.04C-39.791 113.588 -44.6619 109.134 -54.4004 109.134V77.9689C-44.6619 77.9689 -39.7928 82.4212 -34.9236 86.8734C-30.0543 91.3257 -25.185 95.7779 -15.4463 95.7779C-5.70782 95.7779 -0.838478 91.3257 4.03066 86.8734Z" fill="var(--flag-palette-navy, #002266)"/>
<path d="M23.5076 140.354C13.7691 140.354 8.8998 144.806 4.03066 149.258C-0.838478 153.711 -5.70782 158.163 -15.4463 158.163C-25.185 158.163 -30.0543 153.711 -34.9236 149.258C-39.7928 144.806 -44.6619 140.354 -54.4004 140.354V171.519C-44.6619 171.519 -39.7928 175.971 -34.9236 180.423C-30.0543 184.876 -25.185 189.328 -15.4463 189.328C-5.70782 189.328 -0.838478 184.876 4.03066 180.423C8.8998 175.971 13.7691 171.519 23.5076 171.519C33.2469 171.519 38.1166 175.971 42.9865 180.423C47.8564 184.875 52.7264 189.328 62.4666 189.328C72.2066 189.328 77.0764 184.876 81.9461 180.423C86.8158 175.971 91.6855 171.519 101.426 171.519C111.164 171.519 116.033 175.971 120.903 180.423C125.772 184.876 130.641 189.328 140.379 189.328C150.118 189.328 154.987 184.876 159.856 180.423C164.726 175.971 169.595 171.519 179.333 171.519C189.073 171.519 193.943 175.971 198.813 180.423C203.683 184.876 208.553 189.328 218.293 189.328C228.033 189.328 232.902 184.876 237.772 180.423C242.642 175.971 247.512 171.519 257.252 171.519C266.99 171.519 271.86 175.971 276.729 180.423C281.598 184.876 286.467 189.328 296.206 189.328C305.944 189.328 310.813 184.876 315.683 180.423C320.552 175.971 325.421 171.519 335.16 171.519C344.899 171.519 349.769 175.971 354.639 180.423C359.509 184.876 364.379 189.328 374.119 189.328C383.859 189.328 388.728 184.876 393.598 180.423C398.468 175.971 403.338 171.519 413.078 171.519C422.816 171.519 427.685 175.971 432.554 180.423C437.424 184.876 442.293 189.328 452.031 189.328C461.77 189.328 466.639 184.876 471.508 180.423C476.378 175.971 481.247 171.519 490.985 171.519C500.725 171.519 505.595 175.971 510.465 180.423C515.335 184.876 520.204 189.328 529.945 189.328C539.685 189.328 544.554 184.876 549.424 180.423C554.294 175.971 559.163 171.519 568.904 171.519V140.354C559.164 140.354 554.294 144.806 549.424 149.258C544.554 153.711 539.685 158.163 529.945 158.163C520.204 158.163 515.335 153.711 510.465 149.258C505.595 144.806 500.725 140.354 490.985 140.354C481.247 140.354 476.378 144.806 471.508 149.258C466.639 153.711 461.77 158.163 452.031 158.163C442.293 158.163 437.424 153.711 432.554 149.258C427.685 144.806 422.816 140.354 413.078 140.354C403.338 140.354 398.469 144.806 393.599 149.258C388.729 153.711 383.859 158.163 374.119 158.163C364.379 158.163 359.509 153.711 354.639 149.258C349.769 144.806 344.899 140.354 335.16 140.354C325.421 140.354 320.552 144.806 315.683 149.258C310.813 153.711 305.944 158.163 296.206 158.163C286.467 158.163 281.598 153.711 276.729 149.258C271.86 144.806 266.99 140.354 257.252 140.354C247.512 140.354 242.642 144.806 237.772 149.258C232.903 153.711 228.033 158.163 218.293 158.163C208.553 158.163 203.683 153.711 198.813 149.258C193.943 144.806 189.073 140.354 179.333 140.354C169.595 140.354 164.726 144.806 159.856 149.258C154.987 153.711 150.118 158.163 140.379 158.163C130.641 158.163 125.772 153.711 120.903 149.258C116.033 144.806 111.164 140.354 101.426 140.354C91.6863 140.354 86.8166 144.806 81.9467 149.258C77.0768 153.711 72.2068 158.163 62.4666 158.163C52.7264 158.163 47.8564 153.711 42.9865 149.258C38.1166 144.806 33.2469 140.354 23.5076 140.354Z" fill="var(--flag-palette-navy, #002266)"/>
</g>
<g clip-path="url(#clip2_1_3117)">
<path d="M4.03066 149.258C8.8998 144.806 13.7691 140.354 23.5076 140.354C33.2469 140.354 38.1166 144.806 42.9865 149.258C47.8564 153.71 52.7264 158.163 62.4666 158.163C72.2068 158.163 77.0768 153.71 81.9467 149.258C86.8166 144.806 91.6863 140.354 101.426 140.354C111.164 140.354 116.033 144.806 120.903 149.258C125.772 153.71 130.641 158.163 140.379 158.163C150.118 158.163 154.987 153.71 159.856 149.258C164.726 144.806 169.595 140.354 179.333 140.354C189.073 140.354 193.943 144.806 198.813 149.258C203.683 153.71 208.553 158.163 218.293 158.163C228.033 158.163 232.903 153.71 237.772 149.258C242.642 144.806 247.512 140.354 257.252 140.354C266.99 140.354 271.86 144.806 276.729 149.258C281.598 153.71 286.467 158.163 296.206 158.163C305.944 158.163 310.813 153.71 315.683 149.258C320.552 144.806 325.421 140.354 335.16 140.354C344.899 140.354 349.769 144.806 354.639 149.258C359.509 153.71 364.379 158.163 374.119 158.163C383.859 158.163 388.729 153.71 393.599 149.258C398.469 144.806 403.338 140.354 413.078 140.354C422.816 140.354 427.685 144.806 432.554 149.258C437.424 153.71 442.293 158.163 452.031 158.163C461.77 158.163 466.639 153.71 471.508 149.258C476.378 144.806 481.247 140.354 490.985 140.354C500.725 140.354 505.595 144.806 510.465 149.258C515.335 153.71 520.204 158.163 529.945 158.163C539.685 158.163 544.554 153.71 549.424 149.258C554.294 144.806 559.164 140.354 568.904 140.354V171.519C559.163 171.519 554.294 175.971 549.424 180.423C544.554 184.875 539.685 189.328 529.945 189.328C520.204 189.328 515.335 184.875 510.465 180.423C505.595 175.971 500.725 171.519 490.985 171.519C481.247 171.519 476.378 175.971 471.508 180.423C466.639 184.875 461.77 189.328 452.031 189.328C442.293 189.328 437.424 184.875 432.554 180.423C427.685 175.971 422.816 171.519 413.078 171.519C403.338 171.519 398.468 175.971 393.598 180.423C388.728 184.875 383.859 189.328 374.119 189.328C364.379 189.328 359.509 184.875 354.639 180.423C349.769 175.971 344.899 171.519 335.16 171.519C325.421 171.519 320.552 175.971 315.683 180.423C310.813 184.875 305.944 189.328 296.206 189.328C286.467 189.328 281.598 184.875 276.729 180.423C271.86 175.971 266.99 171.519 257.252 171.519C247.512 171.519 242.642 175.971 237.772 180.423C232.902 184.875 228.033 189.328 218.293 189.328C208.553 189.328 203.683 184.875 198.813 180.423C193.943 175.971 189.073 171.519 179.333 171.519C169.595 171.519 164.726 175.971 159.856 180.423C154.987 184.875 150.118 189.328 140.379 189.328C130.641 189.328 125.772 184.875 120.903 180.423C116.033 175.971 111.164 171.519 101.426 171.519C91.6855 171.519 86.8158 175.971 81.9461 180.423C77.0764 184.875 72.2066 189.328 62.4666 189.328C52.7264 189.328 47.8564 184.875 42.9865 180.423C38.1166 175.971 33.2469 171.519 23.5076 171.519C13.7691 171.519 8.8998 175.971 4.03066 180.423C-0.838478 184.875 -5.70782 189.328 -15.4463 189.328C-25.185 189.328 -30.0543 184.875 -34.9236 180.423C-39.7928 175.971 -44.6619 171.519 -54.4004 171.519V140.354C-44.6619 140.354 -39.7928 144.806 -34.9236 149.258C-30.0543 153.71 -25.185 158.163 -15.4463 158.163C-5.70782 158.163 -0.838478 153.71 4.03066 149.258Z" fill="var(--flag-palette-navy, #002266)"/>
<path d="M4.03066 211.643C8.8998 207.191 13.7691 202.738 23.5076 202.738C33.2469 202.738 38.1166 207.191 42.9865 211.643C47.8564 216.095 52.7264 220.547 62.4666 220.547C72.2068 220.547 77.0768 216.095 81.9467 211.643C86.8166 207.191 91.6863 202.738 101.426 202.738C111.164 202.738 116.033 207.191 120.903 211.643C125.772 216.095 130.641 220.547 140.379 220.547C150.118 220.547 154.987 216.095 159.856 211.643C164.726 207.191 169.595 202.738 179.333 202.738C189.073 202.738 193.943 207.191 198.813 211.643C203.683 216.095 208.553 220.547 218.293 220.547C228.033 220.547 232.903 216.095 237.772 211.643C242.642 207.191 247.512 202.738 257.252 202.738C266.99 202.738 271.86 207.191 276.729 211.643C281.598 216.095 286.467 220.547 296.206 220.547C305.944 220.547 310.813 216.095 315.683 211.643C320.552 207.191 325.421 202.738 335.16 202.738C344.899 202.738 349.769 207.191 354.639 211.643C359.509 216.095 364.379 220.547 374.119 220.547C383.859 220.547 388.729 216.095 393.599 211.643C398.469 207.191 403.338 202.738 413.078 202.738C422.816 202.738 427.685 207.191 432.554 211.643C437.424 216.095 442.293 220.547 452.031 220.547C461.77 220.547 466.639 216.095 471.508 211.643C476.378 207.191 481.247 202.738 490.985 202.738C500.725 202.738 505.595 207.191 510.465 211.643C515.335 216.095 520.204 220.547 529.945 220.547C539.685 220.547 544.554 216.095 549.424 211.643C554.294 207.191 559.164 202.738 568.904 202.738V233.904C559.163 233.904 554.294 238.356 549.424 242.808C544.554 247.26 539.685 251.713 529.945 251.713C520.204 251.713 515.335 247.26 510.465 242.808C505.595 238.356 500.725 233.904 490.985 233.904C481.247 233.904 476.378 238.356 471.508 242.808C466.639 247.26 461.77 251.713 452.031 251.713C442.293 251.713 437.424 247.26 432.554 242.808C427.685 238.356 422.816 233.904 413.078 233.904C403.338 233.904 398.468 238.356 393.598 242.808C388.728 247.26 383.859 251.713 374.119 251.713C364.379 251.713 359.509 247.26 354.639 242.808C349.769 238.356 344.899 233.904 335.16 233.904C325.421 233.904 320.552 238.356 315.683 242.808C310.813 247.26 305.944 251.713 296.206 251.713C286.467 251.713 281.598 247.26 276.729 242.808C271.86 238.356 266.99 233.904 257.252 233.904C247.512 233.904 242.642 238.356 237.772 242.808C232.902 247.26 228.033 251.713 218.293 251.713C208.553 251.713 203.683 247.26 198.813 242.808C193.943 238.356 189.073 233.904 179.333 233.904C169.595 233.904 164.726 238.356 159.856 242.808C154.987 247.26 150.118 251.713 140.379 251.713C130.641 251.713 125.772 247.26 120.903 242.808C116.033 238.356 111.164 233.904 101.426 233.903C91.6855 233.903 86.8158 238.356 81.9461 242.808C77.0764 247.26 72.2066 251.713 62.4666 251.713C52.7275 251.713 47.8576 247.261 42.9883 242.809C38.1184 238.357 33.2469 233.903 23.5076 233.903C13.7691 233.903 8.8998 238.356 4.03066 242.808C-0.838478 247.26 -5.70782 251.713 -15.4463 251.713C-25.1838 251.713 -30.0531 247.261 -34.9219 242.81C-39.791 238.357 -44.6619 233.903 -54.4004 233.903V202.738C-44.6619 202.738 -39.7928 207.191 -34.9236 211.643C-30.0543 216.095 -25.185 220.547 -15.4463 220.547C-5.70782 220.547 -0.838478 216.095 4.03066 211.643Z" fill="var(--flag-palette-navy, #002266)"/>
<path d="M23.5076 265.123C13.7691 265.123 8.8998 269.576 4.03066 274.028C-0.838478 278.48 -5.70782 282.932 -15.4463 282.932C-25.185 282.932 -30.0543 278.48 -34.9236 274.028C-39.7928 269.576 -44.6619 265.123 -54.4004 265.123V296.288C-44.6619 296.288 -39.7928 300.741 -34.9236 305.193C-30.0543 309.645 -25.185 314.097 -15.4463 314.097C-5.70782 314.097 -0.838478 309.645 4.03066 305.193C8.8998 300.741 13.7691 296.288 23.5076 296.288C33.2469 296.288 38.1166 300.741 42.9865 305.193C47.8564 309.645 52.7264 314.097 62.4666 314.097C72.2066 314.097 77.0764 309.645 81.9461 305.193C86.8158 300.741 91.6855 296.288 101.426 296.288C111.164 296.288 116.033 300.741 120.903 305.193C125.772 309.645 130.641 314.097 140.379 314.097C150.118 314.097 154.987 309.645 159.856 305.193C164.726 300.741 169.595 296.288 179.333 296.288C189.073 296.288 193.943 300.741 198.813 305.193C203.683 309.645 208.553 314.097 218.293 314.097C228.033 314.097 232.902 309.645 237.772 305.193C242.642 300.741 247.512 296.288 257.252 296.288C266.99 296.288 271.86 300.741 276.729 305.193C281.598 309.645 286.467 314.097 296.206 314.097C305.944 314.097 310.813 309.645 315.683 305.193C320.552 300.741 325.421 296.288 335.16 296.288C344.899 296.288 349.769 300.741 354.639 305.193C359.509 309.645 364.379 314.097 374.119 314.097C383.859 314.097 388.728 309.645 393.598 305.193C398.468 300.741 403.338 296.288 413.078 296.288C422.816 296.288 427.685 300.741 432.554 305.193C437.424 309.645 442.293 314.097 452.031 314.097C461.77 314.097 466.639 309.645 471.508 305.193C476.378 300.741 481.247 296.288 490.985 296.288C500.725 296.288 505.595 300.741 510.465 305.193C515.335 309.645 520.204 314.097 529.945 314.097C539.685 314.097 544.554 309.645 549.424 305.193C554.294 300.741 559.163 296.288 568.904 296.288V265.123C559.164 265.123 554.294 269.576 549.424 274.028C544.554 278.48 539.685 282.932 529.945 282.932C520.204 282.932 515.335 278.48 510.465 274.028C505.595 269.576 500.725 265.123 490.985 265.123C481.247 265.123 476.378 269.576 471.508 274.028C466.639 278.48 461.77 282.932 452.031 282.932C442.293 282.932 437.424 278.48 432.554 274.028C427.685 269.576 422.816 265.123 413.078 265.123C403.338 265.123 398.469 269.576 393.599 274.028C388.729 278.48 383.859 282.932 374.119 282.932C364.379 282.932 359.509 278.48 354.639 274.028C349.769 269.576 344.899 265.123 335.16 265.123C325.421 265.123 320.552 269.576 315.683 274.028C310.813 278.48 305.944 282.932 296.206 282.932C286.467 282.932 281.598 278.48 276.729 274.028C271.86 269.576 266.99 265.123 257.252 265.123C247.512 265.123 242.642 269.576 237.772 274.028C232.903 278.48 228.033 282.932 218.293 282.932C208.553 282.932 203.683 278.48 198.813 274.028C193.943 269.576 189.073 265.123 179.333 265.123C169.595 265.123 164.726 269.576 159.856 274.028C154.987 278.48 150.118 282.932 140.379 282.932C130.641 282.932 125.772 278.48 120.903 274.028C116.033 269.576 111.164 265.123 101.426 265.123C91.6863 265.123 86.8166 269.576 81.9467 274.028C77.0768 278.48 72.2068 282.932 62.4666 282.932C52.7264 282.932 47.8564 278.48 42.9865 274.028C38.1166 269.576 33.2469 265.123 23.5076 265.123Z" fill="var(--flag-palette-navy, #002266)"/>
</g>
<g clip-path="url(#clip3_1_3117)">
<path d="M4.03066 274.029C8.8998 269.576 13.7691 265.124 23.5076 265.124C33.2469 265.124 38.1166 269.576 42.9865 274.028C47.8564 278.481 52.7264 282.933 62.4666 282.933C72.2068 282.933 77.0768 278.481 81.9467 274.028C86.8166 269.576 91.6863 265.124 101.426 265.124C111.164 265.124 116.033 269.576 120.903 274.029C125.772 278.481 130.641 282.933 140.379 282.933C150.118 282.933 154.987 278.481 159.856 274.029C164.726 269.576 169.595 265.124 179.333 265.124C189.073 265.124 193.943 269.576 198.813 274.028C203.683 278.481 208.553 282.933 218.293 282.933C228.033 282.933 232.903 278.481 237.772 274.029C242.642 269.576 247.512 265.124 257.252 265.124C266.99 265.124 271.86 269.576 276.729 274.029C281.598 278.481 286.467 282.933 296.206 282.933C305.944 282.933 310.813 278.481 315.683 274.029C320.552 269.576 325.421 265.124 335.16 265.124C344.899 265.124 349.769 269.576 354.639 274.028C359.509 278.481 364.379 282.933 374.119 282.933C383.859 282.933 388.729 278.481 393.599 274.029C398.469 269.576 403.338 265.124 413.078 265.124C422.816 265.124 427.685 269.576 432.554 274.029C437.424 278.481 442.293 282.933 452.031 282.933C461.77 282.933 466.639 278.481 471.508 274.029C476.378 269.576 481.247 265.124 490.985 265.124C500.725 265.124 505.595 269.576 510.465 274.028C515.335 278.481 520.204 282.933 529.945 282.933C539.685 282.933 544.554 278.481 549.424 274.029C554.294 269.576 559.164 265.124 568.904 265.124V296.289C559.163 296.289 554.294 300.741 549.424 305.194C544.554 309.646 539.685 314.098 529.945 314.098C520.204 314.098 515.335 309.646 510.465 305.193C505.595 300.741 500.725 296.289 490.985 296.289C481.247 296.289 476.378 300.741 471.508 305.194C466.639 309.646 461.77 314.098 452.031 314.098C442.293 314.098 437.424 309.646 432.554 305.194C427.685 300.741 422.816 296.289 413.078 296.289C403.338 296.289 398.468 300.741 393.598 305.194C388.728 309.646 383.859 314.098 374.119 314.098C364.379 314.098 359.509 309.646 354.639 305.193C349.769 300.741 344.899 296.289 335.16 296.289C325.421 296.289 320.552 300.741 315.683 305.194C310.813 309.646 305.944 314.098 296.206 314.098C286.467 314.098 281.598 309.646 276.729 305.194C271.86 300.741 266.99 296.289 257.252 296.289C247.512 296.289 242.642 300.741 237.772 305.194C232.902 309.646 228.033 314.098 218.293 314.098C208.553 314.098 203.683 309.646 198.813 305.193C193.943 300.741 189.073 296.289 179.333 296.289C169.595 296.289 164.726 300.741 159.856 305.194C154.987 309.646 150.118 314.098 140.379 314.098C130.641 314.098 125.772 309.646 120.903 305.194C116.033 300.741 111.164 296.289 101.426 296.289C91.6855 296.289 86.8158 300.741 81.9461 305.194C77.0764 309.646 72.2066 314.098 62.4666 314.098C52.7264 314.098 47.8564 309.646 42.9865 305.193C38.1166 300.741 33.2469 296.289 23.5076 296.289C13.7691 296.289 8.8998 300.741 4.03066 305.194C-0.838478 309.646 -5.70782 314.098 -15.4463 314.098C-25.185 314.098 -30.0543 309.646 -34.9236 305.194C-39.7928 300.741 -44.6619 296.289 -54.4004 296.289V265.124C-44.6619 265.124 -39.7928 269.576 -34.9236 274.029C-30.0543 278.481 -25.185 282.933 -15.4463 282.933C-5.70782 282.933 -0.838478 278.481 4.03066 274.029Z" fill="var(--flag-palette-navy, #002266)"/>
<path d="M4.03066 336.413C8.8998 331.961 13.7691 327.509 23.5076 327.509C33.2469 327.509 38.1166 331.961 42.9865 336.413C47.8564 340.866 52.7264 345.318 62.4666 345.318C72.2068 345.318 77.0768 340.866 81.9467 336.413C86.8166 331.961 91.6863 327.509 101.426 327.509C111.164 327.509 116.033 331.961 120.903 336.413C125.772 340.866 130.641 345.318 140.379 345.318C150.118 345.318 154.987 340.866 159.856 336.413C164.726 331.961 169.595 327.509 179.333 327.509C189.073 327.509 193.943 331.961 198.813 336.413C203.683 340.866 208.553 345.318 218.293 345.318C228.033 345.318 232.903 340.866 237.772 336.413C242.642 331.961 247.512 327.509 257.252 327.509C266.99 327.509 271.86 331.961 276.729 336.413C281.598 340.866 286.467 345.318 296.206 345.318C305.944 345.318 310.813 340.866 315.683 336.413C320.552 331.961 325.421 327.509 335.16 327.509C344.899 327.509 349.769 331.961 354.639 336.413C359.509 340.866 364.379 345.318 374.119 345.318C383.859 345.318 388.729 340.866 393.599 336.413C398.469 331.961 403.338 327.509 413.078 327.509C422.816 327.509 427.685 331.961 432.554 336.413C437.424 340.866 442.293 345.318 452.031 345.318C461.77 345.318 466.639 340.866 471.508 336.413C476.378 331.961 481.247 327.509 490.985 327.509C500.725 327.509 505.595 331.961 510.465 336.413C515.335 340.866 520.204 345.318 529.945 345.318C539.685 345.318 544.554 340.866 549.424 336.413C554.294 331.961 559.164 327.509 568.904 327.509V358.674C559.163 358.674 554.294 363.126 549.424 367.579C544.554 372.031 539.685 376.483 529.945 376.483C520.204 376.483 515.335 372.031 510.465 367.578C505.595 363.126 500.725 358.674 490.985 358.674C481.247 358.674 476.378 363.126 471.508 367.579C466.639 372.031 461.77 376.483 452.031 376.483C442.293 376.483 437.424 372.031 432.554 367.579C427.685 363.126 422.816 358.674 413.078 358.674C403.338 358.674 398.468 363.126 393.598 367.579C388.728 372.031 383.859 376.483 374.119 376.483C364.379 376.483 359.509 372.031 354.639 367.578C349.769 363.126 344.899 358.674 335.16 358.674C325.421 358.674 320.552 363.126 315.683 367.579C310.813 372.031 305.944 376.483 296.206 376.483C286.467 376.483 281.598 372.031 276.729 367.579C271.86 363.126 266.99 358.674 257.252 358.674C247.512 358.674 242.642 363.126 237.772 367.579C232.902 372.031 228.033 376.483 218.293 376.483C208.553 376.483 203.683 372.031 198.813 367.578C193.943 363.126 189.073 358.674 179.333 358.674C169.595 358.674 164.726 363.126 159.856 367.579C154.987 372.031 150.118 376.483 140.379 376.483C130.641 376.483 125.772 372.031 120.903 367.579C116.033 363.126 111.164 358.674 101.426 358.674C91.6855 358.674 86.8158 363.126 81.9461 367.579C77.0764 372.031 72.2066 376.483 62.4666 376.483C52.7275 376.483 47.8576 372.032 42.9883 367.58C38.1184 363.128 33.2469 358.674 23.5076 358.674C13.7691 358.674 8.8998 363.126 4.03066 367.579C-0.838478 372.031 -5.70782 376.483 -15.4463 376.483C-25.1838 376.483 -30.0531 372.032 -34.9219 367.58C-39.791 363.128 -44.6619 358.674 -54.4004 358.674V327.509C-44.6619 327.509 -39.7928 331.961 -34.9236 336.413C-30.0543 340.866 -25.185 345.318 -15.4463 345.318C-5.70782 345.318 -0.838478 340.866 4.03066 336.413Z" fill="var(--flag-palette-navy, #002266)"/>
<path d="M23.5076 389.894C13.7691 389.894 8.8998 394.346 4.03066 398.798C-0.838478 403.251 -5.70782 407.703 -15.4463 407.703C-25.185 407.703 -30.0543 403.251 -34.9236 398.798C-39.7928 394.346 -44.6619 389.894 -54.4004 389.894V421.059C-44.6619 421.059 -39.7928 425.511 -34.9236 429.963C-30.0543 434.416 -25.185 438.868 -15.4463 438.868C-5.70782 438.868 -0.838478 434.416 4.03066 429.963C8.8998 425.511 13.7691 421.059 23.5076 421.059C33.2469 421.059 38.1166 425.511 42.9865 429.963C47.8564 434.416 52.7264 438.868 62.4666 438.868C72.2066 438.868 77.0764 434.416 81.9461 429.963C86.8158 425.511 91.6855 421.059 101.426 421.059C111.164 421.059 116.033 425.511 120.903 429.963C125.772 434.416 130.641 438.868 140.379 438.868C150.118 438.868 154.987 434.416 159.856 429.963C164.726 425.511 169.595 421.059 179.333 421.059C189.073 421.059 193.943 425.511 198.813 429.963C203.683 434.416 208.553 438.868 218.293 438.868C228.033 438.868 232.902 434.416 237.772 429.963C242.642 425.511 247.512 421.059 257.252 421.059C266.99 421.059 271.86 425.511 276.729 429.963C281.598 434.416 286.467 438.868 296.206 438.868C305.944 438.868 310.813 434.416 315.683 429.963C320.552 425.511 325.421 421.059 335.16 421.059C344.899 421.059 349.769 425.511 354.639 429.963C359.509 434.416 364.379 438.868 374.119 438.868C383.859 438.868 388.728 434.416 393.598 429.963C398.468 425.511 403.338 421.059 413.078 421.059C422.816 421.059 427.685 425.511 432.554 429.963C437.424 434.416 442.293 438.868 452.031 438.868C461.77 438.868 466.639 434.416 471.508 429.963C476.378 425.511 481.247 421.059 490.985 421.059C500.725 421.059 505.595 425.511 510.465 429.963C515.335 434.416 520.204 438.868 529.945 438.868C539.685 438.868 544.554 434.416 549.424 429.963C554.294 425.511 559.163 421.059 568.904 421.059V389.894C559.164 389.894 554.294 394.346 549.424 398.798C544.554 403.251 539.685 407.703 529.945 407.703C520.204 407.703 515.335 403.251 510.465 398.798C505.595 394.346 500.725 389.894 490.985 389.894C481.247 389.894 476.378 394.346 471.508 398.798C466.639 403.251 461.77 407.703 452.031 407.703C442.293 407.703 437.424 403.251 432.554 398.798C427.685 394.346 422.816 389.894 413.078 389.894C403.338 389.894 398.469 394.346 393.599 398.798C388.729 403.251 383.859 407.703 374.119 407.703C364.379 407.703 359.509 403.251 354.639 398.798C349.769 394.346 344.899 389.894 335.16 389.894C325.421 389.894 320.552 394.346 315.683 398.798C310.813 403.251 305.944 407.703 296.206 407.703C286.467 407.703 281.598 403.251 276.729 398.798C271.86 394.346 266.99 389.894 257.252 389.894C247.512 389.894 242.642 394.346 237.772 398.798C232.903 403.251 228.033 407.703 218.293 407.703C208.553 407.703 203.683 403.251 198.813 398.798C193.943 394.346 189.073 389.894 179.333 389.894C169.595 389.894 164.726 394.346 159.856 398.798C154.987 403.251 150.118 407.703 140.379 407.703C130.641 407.703 125.772 403.251 120.903 398.798C116.033 394.346 111.164 389.894 101.426 389.894C91.6863 389.894 86.8166 394.346 81.9467 398.798C77.0768 403.251 72.2068 407.703 62.4666 407.703C52.7264 407.703 47.8564 403.251 42.9865 398.798C38.1166 394.346 33.2469 389.894 23.5076 389.894Z" fill="var(--flag-palette-navy, #002266)"/>
</g>
<g clip-path="url(#clip4_1_3117)">
<path d="M4.03066 398.799C8.8998 394.347 13.7691 389.895 23.5076 389.895C33.2469 389.895 38.1166 394.347 42.9865 398.799C47.8564 403.251 52.7264 407.704 62.4666 407.704C72.2068 407.704 77.0768 403.251 81.9467 398.799C86.8166 394.347 91.6863 389.895 101.426 389.895C111.164 389.895 116.033 394.347 120.903 398.799C125.772 403.251 130.641 407.704 140.379 407.704C150.118 407.704 154.987 403.251 159.856 398.799C164.726 394.347 169.595 389.895 179.333 389.895C189.073 389.895 193.943 394.347 198.813 398.799C203.683 403.251 208.553 407.704 218.293 407.704C228.033 407.704 232.903 403.251 237.772 398.799C242.642 394.347 247.512 389.895 257.252 389.895C266.99 389.895 271.86 394.347 276.729 398.799C281.598 403.251 286.467 407.704 296.206 407.704C305.944 407.704 310.813 403.251 315.683 398.799C320.552 394.347 325.421 389.895 335.16 389.895C344.899 389.895 349.769 394.347 354.639 398.799C359.509 403.251 364.379 407.704 374.119 407.704C383.859 407.704 388.729 403.251 393.599 398.799C398.469 394.347 403.338 389.895 413.078 389.895C422.816 389.895 427.685 394.347 432.554 398.799C437.424 403.251 442.293 407.704 452.031 407.704C461.77 407.704 466.639 403.251 471.508 398.799C476.378 394.347 481.247 389.895 490.985 389.895C500.725 389.895 505.595 394.347 510.465 398.799C515.335 403.251 520.204 407.704 529.945 407.704C539.685 407.704 544.554 403.251 549.424 398.799C554.294 394.347 559.164 389.895 568.904 389.895V421.06C559.163 421.06 554.294 425.512 549.424 429.964C544.554 434.416 539.685 438.869 529.945 438.869C520.204 438.869 515.335 434.416 510.465 429.964C505.595 425.512 500.725 421.06 490.985 421.06C481.247 421.06 476.378 425.512 471.508 429.964C466.639 434.416 461.77 438.869 452.031 438.869C442.293 438.869 437.424 434.416 432.554 429.964C427.685 425.512 422.816 421.06 413.078 421.06C403.338 421.06 398.468 425.512 393.598 429.964C388.728 434.416 383.859 438.869 374.119 438.869C364.379 438.869 359.509 434.416 354.639 429.964C349.769 425.512 344.899 421.06 335.16 421.06C325.421 421.06 320.552 425.512 315.683 429.964C310.813 434.416 305.944 438.869 296.206 438.869C286.467 438.869 281.598 434.416 276.729 429.964C271.86 425.512 266.99 421.06 257.252 421.06C247.512 421.06 242.642 425.512 237.772 429.964C232.902 434.416 228.033 438.869 218.293 438.869C208.553 438.869 203.683 434.416 198.813 429.964C193.943 425.512 189.073 421.06 179.333 421.06C169.595 421.06 164.726 425.512 159.856 429.964C154.987 434.416 150.118 438.869 140.379 438.869C130.641 438.869 125.772 434.416 120.903 429.964C116.033 425.512 111.164 421.06 101.426 421.06C91.6855 421.06 86.8158 425.512 81.9461 429.964C77.0764 434.416 72.2066 438.869 62.4666 438.869C52.7264 438.869 47.8564 434.416 42.9865 429.964C38.1166 425.512 33.2469 421.06 23.5076 421.06C13.7691 421.06 8.8998 425.512 4.03066 429.964C-0.838478 434.416 -5.70782 438.869 -15.4463 438.869C-25.185 438.869 -30.0543 434.416 -34.9236 429.964C-39.7928 425.512 -44.6619 421.06 -54.4004 421.06V389.895C-44.6619 389.895 -39.7928 394.347 -34.9236 398.799C-30.0543 403.251 -25.185 407.704 -15.4463 407.704C-5.70782 407.704 -0.838478 403.251 4.03066 398.799Z" fill="var(--flag-palette-navy, #002266)"/>
<path d="M4.03066 461.184C8.8998 456.732 13.7691 452.279 23.5076 452.279C33.2469 452.279 38.1166 456.732 42.9865 461.184C47.8564 465.636 52.7264 470.088 62.4666 470.088C72.2068 470.088 77.0768 465.636 81.9467 461.184C86.8166 456.732 91.6863 452.279 101.426 452.279C111.164 452.279 116.033 456.732 120.903 461.184C125.772 465.636 130.641 470.088 140.379 470.088C150.118 470.088 154.987 465.636 159.856 461.184C164.726 456.732 169.595 452.279 179.333 452.279C189.073 452.279 193.943 456.732 198.813 461.184C203.683 465.636 208.553 470.088 218.293 470.088C228.033 470.088 232.903 465.636 237.772 461.184C242.642 456.732 247.512 452.279 257.252 452.279C266.99 452.279 271.86 456.732 276.729 461.184C281.598 465.636 286.467 470.088 296.206 470.088C305.944 470.088 310.813 465.636 315.683 461.184C320.552 456.732 325.421 452.279 335.16 452.279C344.899 452.279 349.769 456.732 354.639 461.184C359.509 465.636 364.379 470.088 374.119 470.088C383.859 470.088 388.729 465.636 393.599 461.184C398.469 456.732 403.338 452.279 413.078 452.279C422.816 452.279 427.685 456.732 432.554 461.184C437.424 465.636 442.293 470.088 452.031 470.088C461.77 470.088 466.639 465.636 471.508 461.184C476.378 456.732 481.247 452.279 490.985 452.279C500.725 452.279 505.595 456.732 510.465 461.184C515.335 465.636 520.204 470.088 529.945 470.088C539.685 470.088 544.554 465.636 549.424 461.184C554.294 456.732 559.164 452.279 568.904 452.279V483.445C559.163 483.445 554.294 487.897 549.424 492.349C544.554 496.801 539.685 501.254 529.945 501.254C520.204 501.254 515.335 496.801 510.465 492.349C505.595 487.897 500.725 483.445 490.985 483.445C481.247 483.445 476.378 487.897 471.508 492.349C466.639 496.801 461.77 501.254 452.031 501.254C442.293 501.254 437.424 496.801 432.554 492.349C427.685 487.897 422.816 483.445 413.078 483.445C403.338 483.445 398.468 487.897 393.598 492.349C388.728 496.801 383.859 501.254 374.119 501.254C364.379 501.254 359.509 496.801 354.639 492.349C349.769 487.897 344.899 483.445 335.16 483.445C325.421 483.445 320.552 487.897 315.683 492.349C310.813 496.801 305.944 501.254 296.206 501.254C286.467 501.254 281.598 496.801 276.729 492.349C271.86 487.897 266.99 483.445 257.252 483.445C247.512 483.445 242.642 487.897 237.772 492.349C232.902 496.801 228.033 501.254 218.293 501.254C208.553 501.254 203.683 496.801 198.813 492.349C193.943 487.897 189.073 483.445 179.333 483.445C169.595 483.445 164.726 487.897 159.856 492.349C154.987 496.801 150.118 501.254 140.379 501.254C130.641 501.254 125.772 496.801 120.903 492.349C116.033 487.897 111.164 483.445 101.426 483.444C91.6855 483.444 86.8158 487.897 81.9461 492.349C77.0764 496.801 72.2066 501.254 62.4666 501.254C52.7275 501.254 47.8576 496.802 42.9883 492.35C38.1184 487.898 33.2469 483.444 23.5076 483.444C13.7691 483.444 8.8998 487.897 4.03066 492.349C-0.838478 496.801 -5.70782 501.254 -15.4463 501.254C-25.1838 501.254 -30.0531 496.802 -34.9219 492.351C-39.791 487.898 -44.6619 483.444 -54.4004 483.444V452.279C-44.6619 452.279 -39.7928 456.732 -34.9236 461.184C-30.0543 465.636 -25.185 470.088 -15.4463 470.088C-5.70782 470.088 -0.838478 465.636 4.03066 461.184Z" fill="var(--flag-palette-navy, #002266)"/>
<path d="M23.5076 514.664C13.7691 514.664 8.8998 519.117 4.03066 523.569C-0.838478 528.021 -5.70782 532.473 -15.4463 532.473C-25.185 532.473 -30.0543 528.021 -34.9236 523.569C-39.7928 519.117 -44.6619 514.664 -54.4004 514.664V545.829C-44.6619 545.829 -39.7928 550.282 -34.9236 554.734C-30.0543 559.186 -25.185 563.638 -15.4463 563.638C-5.70782 563.638 -0.838478 559.186 4.03066 554.734C8.8998 550.282 13.7691 545.829 23.5076 545.829C33.2469 545.829 38.1166 550.282 42.9865 554.734C47.8564 559.186 52.7264 563.638 62.4666 563.638C72.2066 563.638 77.0764 559.186 81.9461 554.734C86.8158 550.282 91.6855 545.829 101.426 545.829C111.164 545.829 116.033 550.282 120.903 554.734C125.772 559.186 130.641 563.638 140.379 563.638C150.118 563.638 154.987 559.186 159.856 554.734C164.726 550.282 169.595 545.829 179.333 545.829C189.073 545.829 193.943 550.282 198.813 554.734C203.683 559.186 208.553 563.638 218.293 563.638C228.033 563.638 232.902 559.186 237.772 554.734C242.642 550.282 247.512 545.829 257.252 545.829C266.99 545.829 271.86 550.282 276.729 554.734C281.598 559.186 286.467 563.638 296.206 563.638C305.944 563.638 310.813 559.186 315.683 554.734C320.552 550.282 325.421 545.829 335.16 545.829C344.899 545.829 349.769 550.282 354.639 554.734C359.509 559.186 364.379 563.638 374.119 563.638C383.859 563.638 388.728 559.186 393.598 554.734C398.468 550.282 403.338 545.829 413.078 545.829C422.816 545.829 427.685 550.282 432.554 554.734C437.424 559.186 442.293 563.638 452.031 563.638C461.77 563.638 466.639 559.186 471.508 554.734C476.378 550.282 481.247 545.829 490.985 545.829C500.725 545.829 505.595 550.282 510.465 554.734C515.335 559.186 520.204 563.638 529.945 563.638C539.685 563.638 544.554 559.186 549.424 554.734C554.294 550.282 559.163 545.829 568.904 545.829V514.664C559.164 514.664 554.294 519.117 549.424 523.569C544.554 528.021 539.685 532.473 529.945 532.473C520.204 532.473 515.335 528.021 510.465 523.569C505.595 519.117 500.725 514.664 490.985 514.664C481.247 514.664 476.378 519.117 471.508 523.569C466.639 528.021 461.77 532.473 452.031 532.473C442.293 532.473 437.424 528.021 432.554 523.569C427.685 519.117 422.816 514.664 413.078 514.664C403.338 514.664 398.469 519.117 393.599 523.569C388.729 528.021 383.859 532.473 374.119 532.473C364.379 532.473 359.509 528.021 354.639 523.569C349.769 519.117 344.899 514.664 335.16 514.664C325.421 514.664 320.552 519.117 315.683 523.569C310.813 528.021 305.944 532.473 296.206 532.473C286.467 532.473 281.598 528.021 276.729 523.569C271.86 519.117 266.99 514.664 257.252 514.664C247.512 514.664 242.642 519.117 237.772 523.569C232.903 528.021 228.033 532.473 218.293 532.473C208.553 532.473 203.683 528.021 198.813 523.569C193.943 519.117 189.073 514.664 179.333 514.664C169.595 514.664 164.726 519.117 159.856 523.569C154.987 528.021 150.118 532.473 140.379 532.473C130.641 532.473 125.772 528.021 120.903 523.569C116.033 519.117 111.164 514.664 101.426 514.664C91.6863 514.664 86.8166 519.117 81.9467 523.569C77.0768 528.021 72.2068 532.473 62.4666 532.473C52.7264 532.473 47.8564 528.021 42.9865 523.569C38.1166 519.117 33.2469 514.664 23.5076 514.664Z" fill="var(--flag-palette-navy, #002266)"/>
</g>
</g>
<rect width="256" height="256" fill="var(--flag-palette-navy, #002266)"/>
<path d="M232 256H256V232L152 128L256 24V0H232L128 104L24 0H0V24L104 128L0 232V256H24L128 152L232 256Z" fill="var(--flag-palette-white, #eeeeee)"/>
<path d="M256 160V96H160V0H96V96H0V160H96V256H160V160H256Z" fill="var(--flag-palette-white, #eeeeee)"/>
<path d="M256 144V112H144V0H112V112H0V144H112V256H144V144H256Z" fill="var(--flag-palette-bright-red, #d80027)"/>
<path d="M0 16V0L96 96H80L0 16Z" fill="var(--flag-palette-bright-red, #d80027)"/>
<path d="M256 240L256 256L160 160L176 160L256 240Z" fill="var(--flag-palette-bright-red, #d80027)"/>
<path d="M16 256L0 256L96 160L96 176L16 256Z" fill="var(--flag-palette-bright-red, #d80027)"/>
<path d="M240 -6.99382e-07L256 0L160 96L160 80L240 -6.99382e-07Z" fill="var(--flag-palette-bright-red, #d80027)"/>
<path d="M333.918 125.207H434.1L384.009 175.298L333.918 125.207Z" fill="var(--flag-palette-green, #6da544)"/>
<path d="M372.878 164.167H395.141V225.389H372.878V164.167Z" fill="var(--flag-palette-dark-red, #a2001d)"/>
<path d="M372.878 325.571H395.141V386.793H372.878V325.571Z" fill="var(--flag-palette-dark-red, #a2001d)"/>
<path d="M450.797 292.178C450.797 273.736 435.846 258.784 417.404 258.784C408.849 258.784 401.05 262.005 395.141 267.294V247.652H406.272V225.39H395.141V214.259H372.878V225.39H361.747V247.652H372.878V267.294C366.969 262.005 359.17 258.784 350.615 258.784C332.173 258.784 317.222 273.736 317.222 292.178C317.222 302.066 321.523 310.947 328.353 317.062V336.704H439.665V317.062C446.496 310.947 450.797 302.066 450.797 292.178Z" fill="var(--flag-palette-dark-yellow, #ffc635)"/>
<path d="M417.403 281.046C413.891 281.046 411.433 282.588 409.988 283.88L395.14 297.172H372.878L358.03 283.88C356.585 282.588 354.127 281.046 350.615 281.046C344.478 281.046 339.484 286.039 339.484 292.177C339.484 296.5 341.816 299.231 343.205 300.476L350.616 307.113V314.44H417.405V307.113L424.816 300.476C426.205 299.232 428.536 296.5 428.536 292.177C428.534 286.039 423.541 281.046 417.403 281.046Z" fill="var(--flag-palette-bright-red, #d80027)"/>
<defs>
<clipPath id="clip0_1_3117">
<rect width="512" height="512" fill="white"/>
</clipPath>
<clipPath id="clip1_1_3117">
<rect width="512" height="173.744" fill="white" transform="translate(0 15.584)"/>
</clipPath>
<clipPath id="clip2_1_3117">
<rect width="512" height="173.744" fill="white" transform="translate(0 140.354)"/>
</clipPath>
<clipPath id="clip3_1_3117">
<rect width="512" height="173.744" fill="white" transform="translate(0 265.124)"/>
</clipPath>
<clipPath id="clip4_1_3117">
<rect width="512" height="173.744" fill="white" transform="translate(0 389.895)"/>
</clipPath>
</defs>
</svg>