<svg xmlns="http://www.w3.org/2000/svg" width="512" height="512" fill="none"><g clip-path="url(#a)"><path fill="#EEE" d="M0 0h512v512H0z"/><g fill="#026" clip-path="url(#b)"><path d="M4 24.5c4.9-4.5 9.8-9 19.5-9s14.6 4.5 19.5 9c4.9 4.4 9.7 8.9 19.5 8.9 9.7 0 14.6-4.5 19.4-9 5-4.4 9.8-8.8 19.5-8.8 9.8 0 14.6 4.4 19.5 8.9 4.9 4.4 9.7 8.9 19.5 8.9 9.7 0 14.6-4.5 19.5-9 4.8-4.4 9.7-8.8 19.4-8.8 9.8 0 14.6 4.4 19.5 8.9 4.9 4.4 9.8 8.9 19.5 8.9s14.6-4.5 19.5-9c4.8-4.4 9.7-8.8 19.5-8.8 9.7 0 14.6 4.4 19.4 8.9 4.9 4.4 9.8 8.9 19.5 8.9s14.6-4.5 19.5-9c4.9-4.4 9.7-8.8 19.5-8.8 9.7 0 14.6 4.4 19.4 8.9 5 4.4 9.8 8.9 19.5 8.9 9.8 0 14.6-4.5 19.5-9 4.9-4.4 9.7-8.8 19.5-8.8 9.7 0 14.6 4.4 19.5 8.9 4.8 4.4 9.7 8.9 19.4 8.9 9.8 0 14.6-4.5 19.5-9 4.9-4.4 9.7-8.8 19.5-8.8 9.7 0 14.6 4.4 19.5 8.9 4.8 4.4 9.7 8.9 19.4 8.9 9.8 0 14.7-4.5 19.5-9 4.9-4.4 9.8-8.8 19.5-8.8v31.1c-9.7 0-14.6 4.5-19.5 9-4.8 4.4-9.7 8.9-19.5 8.9-9.7 0-14.6-4.5-19.4-9-4.9-4.4-9.8-8.9-19.5-8.9-9.8 0-14.6 4.5-19.5 9-4.9 4.4-9.7 8.9-19.5 8.9-9.7 0-14.6-4.5-19.4-9-5-4.4-9.8-8.9-19.5-8.9-9.8 0-14.6 4.5-19.5 9-4.9 4.4-9.7 8.9-19.5 8.9-9.7 0-14.6-4.5-19.5-9-4.8-4.4-9.7-8.9-19.4-8.9-9.8 0-14.6 4.5-19.5 9-4.9 4.4-9.8 8.9-19.5 8.9s-14.6-4.5-19.5-9c-4.8-4.4-9.7-8.9-19.4-8.9-9.8 0-14.7 4.5-19.5 9-4.9 4.4-9.8 8.9-19.5 8.9s-14.6-4.5-19.5-9c-4.9-4.4-9.7-8.9-19.5-8.9-9.7 0-14.6 4.5-19.4 9-5 4.4-9.8 8.9-19.5 8.9-9.8 0-14.6-4.5-19.5-9-4.9-4.4-9.7-8.9-19.5-8.9-9.7 0-14.6 4.5-19.5 9-4.8 4.4-9.7 8.9-19.4 8.9-9.8 0-14.6-4.5-19.5-9-4.9-4.4-9.8-8.9-19.5-8.9S9 51.2 4 55.7c-4.8 4.4-9.7 8.9-19.4 8.9-9.8 0-14.7-4.5-19.5-9-4.9-4.4-9.8-8.9-19.5-8.9V15.6c9.7 0 14.6 4.4 19.5 8.9 4.8 4.4 9.7 8.9 19.5 8.9 9.7 0 14.6-4.5 19.4-9Zm0 62.4c4.9-4.5 9.8-9 19.5-9s14.6 4.5 19.5 9c4.9 4.4 9.7 8.9 19.5 8.9 9.7 0 14.6-4.5 19.4-9 5-4.4 9.8-8.8 19.5-8.8 9.8 0 14.6 4.4 19.5 8.9 4.9 4.4 9.7 8.9 19.5 8.9 9.7 0 14.6-4.5 19.5-9 4.8-4.4 9.7-8.8 19.4-8.8 9.8 0 14.6 4.4 19.5 8.9 4.9 4.4 9.8 8.9 19.5 8.9s14.6-4.5 19.5-9c4.8-4.4 9.7-8.8 19.5-8.8 9.7 0 14.6 4.4 19.4 8.9 4.9 4.4 9.8 8.9 19.5 8.9s14.6-4.5 19.5-9c4.9-4.4 9.7-8.8 19.5-8.8 9.7 0 14.6 4.4 19.4 8.9 5 4.4 9.8 8.9 19.5 8.9 9.8 0 14.6-4.5 19.5-9 4.9-4.4 9.7-8.8 19.5-8.8 9.7 0 14.6 4.4 19.5 8.9 4.8 4.4 9.7 8.9 19.4 8.9 9.8 0 14.6-4.5 19.5-9 4.9-4.4 9.7-8.8 19.5-8.8 9.7 0 14.6 4.4 19.5 8.9 4.8 4.4 9.7 8.9 19.4 8.9 9.8 0 14.7-4.5 19.5-9 4.9-4.4 9.8-8.8 19.5-8.8v31c-9.7 0-14.6 4.5-19.5 9-4.8 4.4-9.7 8.8-19.5 8.8-9.7 0-14.6-4.4-19.4-8.9-4.9-4.4-9.8-8.9-19.5-8.9-9.8 0-14.6 4.5-19.5 9-4.9 4.4-9.7 8.8-19.5 8.8-9.7 0-14.6-4.4-19.4-8.9-5-4.4-9.8-8.9-19.5-8.9-9.8 0-14.6 4.5-19.5 9-4.9 4.4-9.7 8.8-19.5 8.8-9.7 0-14.6-4.4-19.5-8.9-4.8-4.4-9.7-8.9-19.4-8.9-9.8 0-14.6 4.5-19.5 9-4.9 4.4-9.8 8.8-19.5 8.8s-14.6-4.4-19.5-8.9c-4.8-4.4-9.7-8.9-19.4-8.9-9.8 0-14.7 4.5-19.5 9-4.9 4.4-9.8 8.8-19.5 8.8s-14.6-4.4-19.5-8.9c-4.9-4.4-9.7-8.9-19.5-8.9-9.7 0-14.6 4.5-19.4 9-5 4.4-9.8 8.8-19.5 8.8-9.8 0-14.6-4.4-19.5-8.9-4.9-4.4-9.7-8.9-19.5-8.9-9.7 0-14.6 4.5-19.5 9-4.8 4.4-9.7 8.8-19.4 8.8-9.8 0-14.6-4.4-19.5-8.9-4.9-4.4-9.8-8.9-19.5-8.9S9 113.6 4 118.1c-4.8 4.4-9.7 8.8-19.4 8.8-9.8 0-14.7-4.4-19.5-8.9-4.9-4.4-9.8-8.9-19.5-8.9V78c9.7 0 14.6 4.4 19.5 8.9 4.8 4.4 9.7 8.9 19.5 8.9 9.7 0 14.6-4.5 19.4-9Zm19.5 53.5c-9.7 0-14.6 4.4-19.5 8.9-4.8 4.4-9.7 8.9-19.4 8.9-9.8 0-14.7-4.5-19.5-9-4.9-4.4-9.8-8.8-19.5-8.8v31.1c9.7 0 14.6 4.5 19.5 9 4.8 4.4 9.7 8.8 19.5 8.8 9.7 0 14.6-4.4 19.4-8.9 4.9-4.4 9.8-8.9 19.5-8.9s14.6 4.5 19.5 9c4.9 4.4 9.7 8.8 19.5 8.8 9.7 0 14.6-4.4 19.4-8.9 5-4.4 9.8-8.9 19.5-8.9 9.8 0 14.6 4.5 19.5 9 4.9 4.4 9.7 8.8 19.5 8.8 9.7 0 14.6-4.4 19.5-8.9 4.8-4.4 9.7-8.9 19.4-8.9 9.8 0 14.6 4.5 19.5 9 4.9 4.4 9.8 8.8 19.5 8.8s14.6-4.4 19.5-8.9c4.8-4.4 9.7-8.9 19.5-8.9 9.7 0 14.6 4.5 19.4 9 4.9 4.4 9.8 8.8 19.5 8.8s14.6-4.4 19.5-8.9c4.9-4.4 9.7-8.9 19.5-8.9 9.7 0 14.6 4.5 19.4 9 5 4.4 9.8 8.8 19.5 8.8 9.8 0 14.6-4.4 19.5-8.9 4.9-4.4 9.7-8.9 19.5-8.9 9.7 0 14.6 4.5 19.5 9 4.8 4.4 9.7 8.8 19.4 8.8 9.8 0 14.6-4.4 19.5-8.9 4.9-4.4 9.7-8.9 19.5-8.9 9.7 0 14.6 4.5 19.5 9 4.8 4.4 9.7 8.8 19.4 8.8 9.8 0 14.7-4.4 19.5-8.9 4.9-4.4 9.8-8.9 19.5-8.9v-31.1c-9.7 0-14.6 4.4-19.5 8.9-4.8 4.4-9.7 8.9-19.5 8.9-9.7 0-14.6-4.5-19.4-9-4.9-4.4-9.8-8.8-19.5-8.8-9.8 0-14.6 4.4-19.5 8.9-4.9 4.4-9.7 8.9-19.5 8.9-9.7 0-14.6-4.5-19.4-9-5-4.4-9.8-8.8-19.5-8.8-9.8 0-14.6 4.4-19.5 8.9-4.9 4.4-9.7 8.9-19.5 8.9-9.7 0-14.6-4.5-19.5-9-4.8-4.4-9.7-8.8-19.4-8.8-9.8 0-14.6 4.4-19.5 8.9-4.9 4.4-9.8 8.9-19.5 8.9s-14.6-4.5-19.5-9c-4.8-4.4-9.7-8.8-19.4-8.8-9.8 0-14.7 4.4-19.5 8.9-4.9 4.4-9.8 8.9-19.5 8.9s-14.6-4.5-19.5-9c-4.9-4.4-9.7-8.8-19.5-8.8-9.7 0-14.6 4.4-19.4 8.9-5 4.4-9.8 8.9-19.5 8.9-9.8 0-14.6-4.5-19.5-9-4.9-4.4-9.7-8.8-19.5-8.8-9.7 0-14.6 4.4-19.5 8.9-4.8 4.4-9.7 8.9-19.4 8.9-9.8 0-14.6-4.5-19.5-9-4.9-4.4-9.8-8.8-19.5-8.8Z"/></g><g fill="#026" clip-path="url(#c)"><path d="M4 149.3c4.9-4.5 9.8-9 19.5-9s14.6 4.5 19.5 9c4.9 4.4 9.7 8.9 19.5 8.9 9.7 0 14.6-4.5 19.4-9 5-4.4 9.8-8.8 19.5-8.8 9.8 0 14.6 4.4 19.5 8.9 4.9 4.4 9.7 8.9 19.5 8.9 9.7 0 14.6-4.5 19.5-9 4.8-4.4 9.7-8.8 19.4-8.8 9.8 0 14.6 4.4 19.5 8.9 4.9 4.4 9.8 8.9 19.5 8.9s14.6-4.5 19.5-9c4.8-4.4 9.7-8.8 19.5-8.8 9.7 0 14.6 4.4 19.4 8.9 4.9 4.4 9.8 8.9 19.5 8.9s14.6-4.5 19.5-9c4.9-4.4 9.7-8.8 19.5-8.8 9.7 0 14.6 4.4 19.4 8.9 5 4.4 9.8 8.9 19.5 8.9 9.8 0 14.6-4.5 19.5-9 4.9-4.4 9.7-8.8 19.5-8.8 9.7 0 14.6 4.4 19.5 8.9 4.8 4.4 9.7 8.9 19.4 8.9 9.8 0 14.6-4.5 19.5-9 4.9-4.4 9.7-8.8 19.5-8.8 9.7 0 14.6 4.4 19.5 8.9 4.8 4.4 9.7 8.9 19.4 8.9 9.8 0 14.7-4.5 19.5-9 4.9-4.4 9.8-8.8 19.5-8.8v31.1c-9.7 0-14.6 4.5-19.5 9-4.8 4.4-9.7 8.8-19.5 8.8-9.7 0-14.6-4.4-19.4-8.9-4.9-4.4-9.8-8.9-19.5-8.9-9.8 0-14.6 4.5-19.5 9-4.9 4.4-9.7 8.8-19.5 8.8-9.7 0-14.6-4.4-19.4-8.9-5-4.4-9.8-8.9-19.5-8.9-9.8 0-14.6 4.5-19.5 9-4.9 4.4-9.7 8.8-19.5 8.8-9.7 0-14.6-4.4-19.5-8.9-4.8-4.4-9.7-8.9-19.4-8.9-9.8 0-14.6 4.5-19.5 9-4.9 4.4-9.8 8.8-19.5 8.8s-14.6-4.4-19.5-8.9c-4.8-4.4-9.7-8.9-19.4-8.9-9.8 0-14.7 4.5-19.5 9-4.9 4.4-9.8 8.8-19.5 8.8s-14.6-4.4-19.5-8.9c-4.9-4.4-9.7-8.9-19.5-8.9-9.7 0-14.6 4.5-19.4 9-5 4.4-9.8 8.8-19.5 8.8-9.8 0-14.6-4.4-19.5-8.9-4.9-4.4-9.7-8.9-19.5-8.9-9.7 0-14.6 4.5-19.5 9-4.8 4.4-9.7 8.8-19.4 8.8-9.8 0-14.6-4.4-19.5-8.9-4.9-4.4-9.8-8.9-19.5-8.9S9 176 4 180.5c-4.8 4.4-9.7 8.8-19.4 8.8-9.8 0-14.7-4.4-19.5-8.9-4.9-4.4-9.8-8.9-19.5-8.9v-31.1c9.7 0 14.6 4.4 19.5 8.9 4.8 4.4 9.7 8.9 19.5 8.9 9.7 0 14.6-4.5 19.4-9Zm0 62.3c4.9-4.4 9.8-8.9 19.5-8.9s14.6 4.5 19.5 9c4.9 4.4 9.7 8.8 19.5 8.8 9.7 0 14.6-4.4 19.4-8.9 5-4.4 9.8-8.9 19.5-8.9 9.8 0 14.6 4.5 19.5 9 4.9 4.4 9.7 8.8 19.5 8.8 9.7 0 14.6-4.4 19.5-8.9 4.8-4.4 9.7-8.9 19.4-8.9 9.8 0 14.6 4.5 19.5 9 4.9 4.4 9.8 8.8 19.5 8.8s14.6-4.4 19.5-8.9c4.8-4.4 9.7-8.9 19.5-8.9 9.7 0 14.6 4.5 19.4 9 4.9 4.4 9.8 8.8 19.5 8.8s14.6-4.4 19.5-8.9c4.9-4.4 9.7-8.9 19.5-8.9 9.7 0 14.6 4.5 19.4 9 5 4.4 9.8 8.8 19.5 8.8 9.8 0 14.6-4.4 19.5-8.9 4.9-4.4 9.7-8.9 19.5-8.9 9.7 0 14.6 4.5 19.5 9 4.8 4.4 9.7 8.8 19.4 8.8 9.8 0 14.6-4.4 19.5-8.9 4.9-4.4 9.7-8.9 19.5-8.9 9.7 0 14.6 4.5 19.5 9 4.8 4.4 9.7 8.8 19.4 8.8 9.8 0 14.7-4.4 19.5-8.9 4.9-4.4 9.8-8.9 19.5-8.9V234c-9.7 0-14.6 4.5-19.5 9-4.8 4.4-9.7 8.8-19.5 8.8-9.7 0-14.6-4.4-19.4-8.9-4.9-4.4-9.8-8.9-19.5-8.9-9.8 0-14.6 4.5-19.5 9-4.9 4.4-9.7 8.8-19.5 8.8-9.7 0-14.6-4.4-19.4-8.9-5-4.4-9.8-8.9-19.5-8.9-9.8 0-14.6 4.5-19.5 9-4.9 4.4-9.7 8.8-19.5 8.8-9.7 0-14.6-4.4-19.5-8.9-4.8-4.4-9.7-8.9-19.4-8.9-9.8 0-14.6 4.5-19.5 9-4.9 4.4-9.8 8.8-19.5 8.8s-14.6-4.4-19.5-8.9c-4.8-4.4-9.7-8.9-19.4-8.9-9.8 0-14.7 4.5-19.5 9-4.9 4.4-9.8 8.8-19.5 8.8s-14.6-4.4-19.5-8.9c-4.9-4.4-9.7-8.9-19.5-8.9-9.7 0-14.6 4.5-19.4 9-5 4.4-9.8 8.8-19.5 8.8-9.8 0-14.6-4.4-19.5-8.9-4.9-4.4-9.7-8.9-19.5-8.9-9.7 0-14.6 4.5-19.5 9-4.8 4.4-9.7 8.8-19.4 8.8-9.8 0-14.6-4.4-19.5-8.9-4.9-4.4-9.8-8.9-19.5-8.9S9 238.4 4 242.9c-4.8 4.4-9.7 8.8-19.4 8.8-9.8 0-14.7-4.4-19.5-8.9-4.9-4.4-9.8-8.9-19.5-8.9v-31.2c9.7 0 14.6 4.5 19.5 9 4.8 4.4 9.7 8.8 19.5 8.8 9.7 0 14.6-4.4 19.4-8.9Zm19.5 53.5c-9.7 0-14.6 4.5-19.5 9-4.8 4.4-9.7 8.8-19.4 8.8-9.8 0-14.7-4.4-19.5-8.9-4.9-4.4-9.8-8.9-19.5-8.9v31.2c9.7 0 14.6 4.4 19.5 8.9 4.8 4.4 9.7 8.9 19.5 8.9 9.7 0 14.6-4.5 19.4-9 4.9-4.4 9.8-8.8 19.5-8.8s14.6 4.4 19.5 8.9c4.9 4.4 9.7 8.9 19.5 8.9 9.7 0 14.6-4.5 19.4-9 5-4.4 9.8-8.8 19.5-8.8 9.8 0 14.6 4.4 19.5 8.9 4.9 4.4 9.7 8.9 19.5 8.9 9.7 0 14.6-4.5 19.5-9 4.8-4.4 9.7-8.8 19.4-8.8 9.8 0 14.6 4.4 19.5 8.9 4.9 4.4 9.8 8.9 19.5 8.9s14.6-4.5 19.5-9c4.8-4.4 9.7-8.8 19.5-8.8 9.7 0 14.6 4.4 19.4 8.9 4.9 4.4 9.8 8.9 19.5 8.9s14.6-4.5 19.5-9c4.9-4.4 9.7-8.8 19.5-8.8 9.7 0 14.6 4.4 19.4 8.9 5 4.4 9.8 8.9 19.5 8.9 9.8 0 14.6-4.5 19.5-9 4.9-4.4 9.7-8.8 19.5-8.8 9.7 0 14.6 4.4 19.5 8.9 4.8 4.4 9.7 8.9 19.4 8.9 9.8 0 14.6-4.5 19.5-9 4.9-4.4 9.7-8.8 19.5-8.8 9.7 0 14.6 4.4 19.5 8.9 4.8 4.4 9.7 8.9 19.4 8.9 9.8 0 14.7-4.5 19.5-9 4.9-4.4 9.8-8.8 19.5-8.8V265c-9.7 0-14.6 4.5-19.5 9-4.8 4.4-9.7 8.8-19.5 8.8-9.7 0-14.6-4.4-19.4-8.9-4.9-4.4-9.8-8.9-19.5-8.9-9.8 0-14.6 4.5-19.5 9-4.9 4.4-9.7 8.8-19.5 8.8-9.7 0-14.6-4.4-19.4-8.9-5-4.4-9.8-8.9-19.5-8.9-9.8 0-14.6 4.5-19.5 9-4.9 4.4-9.7 8.8-19.5 8.8-9.7 0-14.6-4.4-19.5-8.9-4.8-4.4-9.7-8.9-19.4-8.9-9.8 0-14.6 4.5-19.5 9-4.9 4.4-9.8 8.8-19.5 8.8s-14.6-4.4-19.5-8.9c-4.8-4.4-9.7-8.9-19.4-8.9-9.8 0-14.7 4.5-19.5 9-4.9 4.4-9.8 8.8-19.5 8.8s-14.6-4.4-19.5-8.9c-4.9-4.4-9.7-8.9-19.5-8.9-9.7 0-14.6 4.5-19.4 9-5 4.4-9.8 8.8-19.5 8.8-9.8 0-14.6-4.4-19.5-8.9-4.9-4.4-9.7-8.9-19.5-8.9-9.7 0-14.6 4.5-19.5 9-4.8 4.4-9.7 8.8-19.4 8.8-9.8 0-14.6-4.4-19.5-8.9-4.9-4.4-9.8-8.9-19.5-8.9Z"/></g><g fill="#026" clip-path="url(#d)"><path d="M4 274c4.9-4.4 9.8-8.9 19.5-8.9s14.6 4.5 19.5 9c4.9 4.4 9.7 8.8 19.5 8.8 9.7 0 14.6-4.4 19.4-8.9 5-4.4 9.8-8.9 19.5-8.9 9.8 0 14.6 4.5 19.5 9 4.9 4.4 9.7 8.8 19.5 8.8 9.7 0 14.6-4.4 19.5-8.9 4.8-4.4 9.7-8.9 19.4-8.9 9.8 0 14.6 4.5 19.5 9 4.9 4.4 9.8 8.8 19.5 8.8s14.6-4.4 19.5-8.9c4.8-4.4 9.7-8.9 19.5-8.9 9.7 0 14.6 4.5 19.4 9 4.9 4.4 9.8 8.8 19.5 8.8s14.6-4.4 19.5-8.9c4.9-4.4 9.7-8.9 19.5-8.9 9.7 0 14.6 4.5 19.4 9 5 4.4 9.8 8.8 19.5 8.8 9.8 0 14.6-4.4 19.5-8.9 4.9-4.4 9.7-8.9 19.5-8.9 9.7 0 14.6 4.5 19.5 9 4.8 4.4 9.7 8.8 19.4 8.8 9.8 0 14.6-4.4 19.5-8.9 4.9-4.4 9.7-8.9 19.5-8.9 9.7 0 14.6 4.5 19.5 9 4.8 4.4 9.7 8.8 19.4 8.8 9.8 0 14.7-4.4 19.5-8.9 4.9-4.4 9.8-8.9 19.5-8.9v31.2c-9.7 0-14.6 4.4-19.5 8.9-4.8 4.4-9.7 8.9-19.5 8.9-9.7 0-14.6-4.5-19.4-9-4.9-4.4-9.8-8.8-19.5-8.8-9.8 0-14.6 4.4-19.5 8.9-4.9 4.4-9.7 8.9-19.5 8.9-9.7 0-14.6-4.5-19.4-9-5-4.4-9.8-8.8-19.5-8.8-9.8 0-14.6 4.4-19.5 8.9-4.9 4.4-9.7 8.9-19.5 8.9-9.7 0-14.6-4.5-19.5-9-4.8-4.4-9.7-8.8-19.4-8.8-9.8 0-14.6 4.4-19.5 8.9-4.9 4.4-9.8 8.9-19.5 8.9s-14.6-4.5-19.5-9c-4.8-4.4-9.7-8.8-19.4-8.8-9.8 0-14.7 4.4-19.5 8.9-4.9 4.4-9.8 8.9-19.5 8.9s-14.6-4.5-19.5-9c-4.9-4.4-9.7-8.8-19.5-8.8-9.7 0-14.6 4.4-19.4 8.9-5 4.4-9.8 8.9-19.5 8.9-9.8 0-14.6-4.5-19.5-9-4.9-4.4-9.7-8.8-19.5-8.8-9.7 0-14.6 4.4-19.5 8.9-4.8 4.4-9.7 8.9-19.4 8.9-9.8 0-14.6-4.5-19.5-9-4.9-4.4-9.8-8.8-19.5-8.8S9 300.7 4 305.2c-4.8 4.4-9.7 8.9-19.4 8.9-9.8 0-14.7-4.5-19.5-9-4.9-4.4-9.8-8.8-19.5-8.8V265c9.7 0 14.6 4.5 19.5 9 4.8 4.4 9.7 8.8 19.5 8.8 9.7 0 14.6-4.4 19.4-8.9Zm0 62.4c4.9-4.4 9.8-8.9 19.5-8.9s14.6 4.5 19.5 9c4.9 4.4 9.7 8.8 19.5 8.8 9.7 0 14.6-4.4 19.4-8.9 5-4.4 9.8-8.9 19.5-8.9 9.8 0 14.6 4.5 19.5 9 4.9 4.4 9.7 8.8 19.5 8.8 9.7 0 14.6-4.4 19.5-8.9 4.8-4.4 9.7-8.9 19.4-8.9 9.8 0 14.6 4.5 19.5 9 4.9 4.4 9.8 8.8 19.5 8.8s14.6-4.4 19.5-8.9c4.8-4.4 9.7-8.9 19.5-8.9 9.7 0 14.6 4.5 19.4 9 4.9 4.4 9.8 8.8 19.5 8.8s14.6-4.4 19.5-8.9c4.9-4.4 9.7-8.9 19.5-8.9 9.7 0 14.6 4.5 19.4 9 5 4.4 9.8 8.8 19.5 8.8 9.8 0 14.6-4.4 19.5-8.9 4.9-4.4 9.7-8.9 19.5-8.9 9.7 0 14.6 4.5 19.5 9 4.8 4.4 9.7 8.8 19.4 8.8 9.8 0 14.6-4.4 19.5-8.9 4.9-4.4 9.7-8.9 19.5-8.9 9.7 0 14.6 4.5 19.5 9 4.8 4.4 9.7 8.8 19.4 8.8 9.8 0 14.7-4.4 19.5-8.9 4.9-4.4 9.8-8.9 19.5-8.9v31.2c-9.7 0-14.6 4.4-19.5 8.9-4.8 4.4-9.7 8.9-19.5 8.9-9.7 0-14.6-4.5-19.4-9-4.9-4.4-9.8-8.8-19.5-8.8-9.8 0-14.6 4.4-19.5 8.9-4.9 4.4-9.7 8.9-19.5 8.9-9.7 0-14.6-4.5-19.4-9-5-4.4-9.8-8.8-19.5-8.8-9.8 0-14.6 4.4-19.5 8.9-4.9 4.4-9.7 8.9-19.5 8.9-9.7 0-14.6-4.5-19.5-9-4.8-4.4-9.7-8.8-19.4-8.8-9.8 0-14.6 4.4-19.5 8.9-4.9 4.4-9.8 8.9-19.5 8.9s-14.6-4.5-19.5-9c-4.8-4.4-9.7-8.8-19.4-8.8-9.8 0-14.7 4.4-19.5 8.9-4.9 4.4-9.8 8.9-19.5 8.9s-14.6-4.5-19.5-9c-4.9-4.4-9.7-8.8-19.5-8.8-9.7 0-14.6 4.4-19.4 8.9-5 4.4-9.8 8.9-19.5 8.9-9.8 0-14.6-4.5-19.5-9-4.9-4.4-9.7-8.8-19.5-8.8-9.7 0-14.6 4.4-19.5 8.9-4.8 4.4-9.7 8.9-19.4 8.9-9.8 0-14.6-4.5-19.5-9-4.9-4.4-9.8-8.8-19.5-8.8S9 363 4 367.6c-4.8 4.4-9.7 8.9-19.4 8.9-9.8 0-14.7-4.5-19.5-9-4.9-4.4-9.8-8.8-19.5-8.8v-31.2c9.7 0 14.6 4.5 19.5 9 4.8 4.4 9.7 8.8 19.5 8.8 9.7 0 14.6-4.4 19.4-8.9Zm19.5 53.5c-9.7 0-14.6 4.4-19.5 8.9-4.8 4.5-9.7 8.9-19.4 8.9-9.8 0-14.7-4.4-19.5-8.9-4.9-4.5-9.8-9-19.5-9v31.3c9.7 0 14.6 4.4 19.5 8.9 4.8 4.4 9.7 8.9 19.5 8.9 9.7 0 14.6-4.5 19.4-9 4.9-4.4 9.8-8.8 19.5-8.8s14.6 4.4 19.5 8.9c4.9 4.4 9.7 8.9 19.5 8.9 9.7 0 14.6-4.5 19.4-9 5-4.4 9.8-8.8 19.5-8.8 9.8 0 14.6 4.4 19.5 8.9 4.9 4.4 9.7 8.9 19.5 8.9 9.7 0 14.6-4.5 19.5-9 4.8-4.4 9.7-8.8 19.4-8.8 9.8 0 14.6 4.4 19.5 8.9 4.9 4.4 9.8 8.9 19.5 8.9s14.6-4.5 19.5-9c4.8-4.4 9.7-8.8 19.5-8.8 9.7 0 14.6 4.4 19.4 8.9 4.9 4.4 9.8 8.9 19.5 8.9s14.6-4.5 19.5-9c4.9-4.4 9.7-8.8 19.5-8.8 9.7 0 14.6 4.4 19.4 8.9 5 4.4 9.8 8.9 19.5 8.9 9.8 0 14.6-4.5 19.5-9 4.9-4.4 9.7-8.8 19.5-8.8 9.7 0 14.6 4.4 19.5 8.9 4.8 4.4 9.7 8.9 19.4 8.9 9.8 0 14.6-4.5 19.5-9 4.9-4.4 9.7-8.8 19.5-8.8 9.7 0 14.6 4.4 19.5 8.9 4.8 4.4 9.7 8.9 19.4 8.9 9.8 0 14.7-4.5 19.5-9 4.9-4.4 9.8-8.8 19.5-8.8v-31.2c-9.7 0-14.6 4.4-19.5 8.9-4.8 4.5-9.7 8.9-19.5 8.9-9.7 0-14.6-4.4-19.4-8.9-4.9-4.5-9.8-9-19.5-9-9.8 0-14.6 4.5-19.5 9s-9.7 8.9-19.5 8.9c-9.7 0-14.6-4.4-19.4-8.9-5-4.5-9.8-9-19.5-9-9.8 0-14.6 4.5-19.5 9s-9.7 8.9-19.5 8.9c-9.7 0-14.6-4.4-19.5-8.9-4.8-4.5-9.7-9-19.4-9-9.8 0-14.6 4.5-19.5 9s-9.8 8.9-19.5 8.9-14.6-4.4-19.5-8.9c-4.8-4.5-9.7-9-19.4-9-9.8 0-14.7 4.5-19.5 9-4.9 4.5-9.8 8.9-19.5 8.9s-14.6-4.4-19.5-8.9-9.7-9-19.5-9c-9.7 0-14.6 4.5-19.4 9-5 4.5-9.8 8.9-19.5 8.9-9.8 0-14.6-4.4-19.5-8.9s-9.7-9-19.5-9c-9.7 0-14.6 4.5-19.5 9-4.8 4.5-9.7 8.9-19.4 8.9-9.8 0-14.6-4.4-19.5-8.9s-9.8-9-19.5-9Z"/></g><g fill="#026" clip-path="url(#e)"><path d="M4 398.8c4.9-4.5 9.8-9 19.5-9s14.6 4.5 19.5 9 9.7 8.9 19.5 8.9c9.7 0 14.6-4.4 19.4-8.9 5-4.5 9.8-9 19.5-9 9.8 0 14.6 4.5 19.5 9s9.7 8.9 19.5 8.9c9.7 0 14.6-4.4 19.5-8.9 4.8-4.5 9.7-9 19.4-9 9.8 0 14.6 4.5 19.5 9s9.8 8.9 19.5 8.9 14.6-4.4 19.5-8.9c4.8-4.5 9.7-9 19.5-9 9.7 0 14.6 4.5 19.4 9 4.9 4.5 9.8 8.9 19.5 8.9s14.6-4.4 19.5-8.9 9.7-9 19.5-9c9.7 0 14.6 4.5 19.4 9 5 4.5 9.8 8.9 19.5 8.9 9.8 0 14.6-4.4 19.5-8.9s9.7-9 19.5-9c9.7 0 14.6 4.5 19.5 9 4.8 4.5 9.7 8.9 19.4 8.9 9.8 0 14.6-4.4 19.5-8.9s9.7-9 19.5-9c9.7 0 14.6 4.5 19.5 9 4.8 4.5 9.7 8.9 19.4 8.9 9.8 0 14.7-4.4 19.5-8.9 4.9-4.5 9.8-9 19.5-9v31.3c-9.7 0-14.6 4.4-19.5 8.9-4.8 4.4-9.7 8.9-19.5 8.9-9.7 0-14.6-4.5-19.4-9-4.9-4.4-9.8-8.8-19.5-8.8-9.8 0-14.6 4.4-19.5 8.9-4.9 4.4-9.7 8.9-19.5 8.9-9.7 0-14.6-4.5-19.4-9-5-4.4-9.8-8.8-19.5-8.8-9.8 0-14.6 4.4-19.5 8.9-4.9 4.4-9.7 8.9-19.5 8.9-9.7 0-14.6-4.5-19.5-9-4.8-4.4-9.7-8.8-19.4-8.8-9.8 0-14.6 4.4-19.5 8.9-4.9 4.4-9.8 8.9-19.5 8.9s-14.6-4.5-19.5-9c-4.8-4.4-9.7-8.8-19.4-8.8-9.8 0-14.7 4.4-19.5 8.9-4.9 4.4-9.8 8.9-19.5 8.9s-14.6-4.5-19.5-9c-4.9-4.4-9.7-8.8-19.5-8.8-9.7 0-14.6 4.4-19.4 8.9-5 4.4-9.8 8.9-19.5 8.9-9.8 0-14.6-4.5-19.5-9-4.9-4.4-9.7-8.8-19.5-8.8-9.7 0-14.6 4.4-19.5 8.9-4.8 4.4-9.7 8.9-19.4 8.9-9.8 0-14.6-4.5-19.5-9-4.9-4.4-9.8-8.8-19.5-8.8S9 425.5 4 430c-4.8 4.4-9.7 8.9-19.4 8.9-9.8 0-14.7-4.5-19.5-9-4.9-4.4-9.8-8.8-19.5-8.8v-31.2c9.7 0 14.6 4.4 19.5 8.9 4.8 4.5 9.7 8.9 19.5 8.9 9.7 0 14.6-4.4 19.4-8.9Zm0 62.4c4.9-4.5 9.8-9 19.5-9s14.6 4.5 19.5 9c4.9 4.4 9.7 8.9 19.5 8.9 9.7 0 14.6-4.5 19.4-9 5-4.4 9.8-8.8 19.5-8.8 9.8 0 14.6 4.4 19.5 8.9 4.9 4.4 9.7 8.9 19.5 8.9 9.7 0 14.6-4.5 19.5-9 4.8-4.4 9.7-8.8 19.4-8.8 9.8 0 14.6 4.4 19.5 8.9 4.9 4.4 9.8 8.9 19.5 8.9s14.6-4.5 19.5-9c4.8-4.4 9.7-8.8 19.5-8.8 9.7 0 14.6 4.4 19.4 8.9 4.9 4.4 9.8 8.9 19.5 8.9s14.6-4.5 19.5-9c4.9-4.4 9.7-8.8 19.5-8.8 9.7 0 14.6 4.4 19.4 8.9 5 4.4 9.8 8.9 19.5 8.9 9.8 0 14.6-4.5 19.5-9 4.9-4.4 9.7-8.8 19.5-8.8 9.7 0 14.6 4.4 19.5 8.9 4.8 4.4 9.7 8.9 19.4 8.9 9.8 0 14.6-4.5 19.5-9 4.9-4.4 9.7-8.8 19.5-8.8 9.7 0 14.6 4.4 19.5 8.9 4.8 4.4 9.7 8.9 19.4 8.9 9.8 0 14.7-4.5 19.5-9 4.9-4.4 9.8-8.8 19.5-8.8v31.1c-9.7 0-14.6 4.5-19.5 9-4.8 4.4-9.7 8.9-19.5 8.9-9.7 0-14.6-4.5-19.4-9-4.9-4.4-9.8-8.9-19.5-8.9-9.8 0-14.6 4.5-19.5 9-4.9 4.4-9.7 8.9-19.5 8.9-9.7 0-14.6-4.5-19.4-9-5-4.4-9.8-8.9-19.5-8.9-9.8 0-14.6 4.5-19.5 9-4.9 4.4-9.7 8.9-19.5 8.9-9.7 0-14.6-4.5-19.5-9-4.8-4.4-9.7-8.9-19.4-8.9-9.8 0-14.6 4.5-19.5 9-4.9 4.4-9.8 8.9-19.5 8.9s-14.6-4.5-19.5-9c-4.8-4.4-9.7-8.9-19.4-8.9-9.8 0-14.7 4.5-19.5 9-4.9 4.4-9.8 8.9-19.5 8.9s-14.6-4.5-19.5-9c-4.9-4.4-9.7-8.9-19.5-8.9-9.7 0-14.6 4.5-19.4 9-5 4.4-9.8 8.9-19.5 8.9-9.8 0-14.6-4.5-19.5-9-4.9-4.4-9.7-8.9-19.5-8.9-9.7 0-14.6 4.5-19.5 9-4.8 4.4-9.7 8.9-19.4 8.9-9.8 0-14.6-4.5-19.5-9-4.9-4.4-9.8-8.9-19.5-8.9S9 488 4 492.4c-4.8 4.4-9.7 8.9-19.4 8.9-9.8 0-14.7-4.5-19.5-9-4.9-4.4-9.8-8.9-19.5-8.9v-31.1c9.7 0 14.6 4.4 19.5 8.9 4.8 4.4 9.7 8.9 19.5 8.9 9.7 0 14.6-4.5 19.4-9Zm19.5 53.5c-9.7 0-14.6 4.4-19.5 8.9-4.8 4.4-9.7 8.9-19.4 8.9-9.8 0-14.7-4.5-19.5-9-4.9-4.4-9.8-8.8-19.5-8.8v31.1c9.7 0 14.6 4.5 19.5 9 4.8 4.4 9.7 8.8 19.5 8.8 9.7 0 14.6-4.4 19.4-8.9 4.9-4.4 9.8-8.9 19.5-8.9s14.6 4.5 19.5 9c4.9 4.4 9.7 8.8 19.5 8.8 9.7 0 14.6-4.4 19.4-8.9 5-4.4 9.8-8.9 19.5-8.9 9.8 0 14.6 4.5 19.5 9 4.9 4.4 9.7 8.8 19.5 8.8 9.7 0 14.6-4.4 19.5-8.9 4.8-4.4 9.7-8.9 19.4-8.9 9.8 0 14.6 4.5 19.5 9 4.9 4.4 9.8 8.8 19.5 8.8s14.6-4.4 19.5-8.9c4.8-4.4 9.7-8.9 19.5-8.9 9.7 0 14.6 4.5 19.4 9 4.9 4.4 9.8 8.8 19.5 8.8s14.6-4.4 19.5-8.9c4.9-4.4 9.7-8.9 19.5-8.9 9.7 0 14.6 4.5 19.4 9 5 4.4 9.8 8.8 19.5 8.8 9.8 0 14.6-4.4 19.5-8.9 4.9-4.4 9.7-8.9 19.5-8.9 9.7 0 14.6 4.5 19.5 9 4.8 4.4 9.7 8.8 19.4 8.8 9.8 0 14.6-4.4 19.5-8.9 4.9-4.4 9.7-8.9 19.5-8.9 9.7 0 14.6 4.5 19.5 9 4.8 4.4 9.7 8.8 19.4 8.8 9.8 0 14.7-4.4 19.5-8.9 4.9-4.4 9.8-8.9 19.5-8.9v-31.1c-9.7 0-14.6 4.4-19.5 8.9-4.8 4.4-9.7 8.9-19.5 8.9-9.7 0-14.6-4.5-19.4-9-4.9-4.4-9.8-8.8-19.5-8.8-9.8 0-14.6 4.4-19.5 8.9-4.9 4.4-9.7 8.9-19.5 8.9-9.7 0-14.6-4.5-19.4-9-5-4.4-9.8-8.8-19.5-8.8-9.8 0-14.6 4.4-19.5 8.9-4.9 4.4-9.7 8.9-19.5 8.9-9.7 0-14.6-4.5-19.5-9-4.8-4.4-9.7-8.8-19.4-8.8-9.8 0-14.6 4.4-19.5 8.9-4.9 4.4-9.8 8.9-19.5 8.9s-14.6-4.5-19.5-9c-4.8-4.4-9.7-8.8-19.4-8.8-9.8 0-14.7 4.4-19.5 8.9-4.9 4.4-9.8 8.9-19.5 8.9s-14.6-4.5-19.5-9c-4.9-4.4-9.7-8.8-19.5-8.8-9.7 0-14.6 4.4-19.4 8.9-5 4.4-9.8 8.9-19.5 8.9-9.8 0-14.6-4.5-19.5-9-4.9-4.4-9.7-8.8-19.5-8.8-9.7 0-14.6 4.4-19.5 8.9-4.8 4.4-9.7 8.9-19.4 8.9-9.8 0-14.6-4.5-19.5-9-4.9-4.4-9.8-8.8-19.5-8.8Z"/></g></g><path fill="#026" d="M0 0h256v256H0z"/><path fill="#EEE" d="M232 256h24v-24L152 128 256 24V0h-24L128 104 24 0H0v24l104 104L0 232v24h24l104-104 104 104Z"/><path fill="#EEE" d="M256 160V96h-96V0H96v96H0v64h96v96h64v-96h96Z"/><path fill="#D80027" d="M256 144v-32H144V0h-32v112H0v32h112v112h32V144h112Z"/><path fill="#D80027" d="M0 16V0l96 96H80L0 16Zm256 224v16l-96-96h16l80 80ZM16 256H0l96-96v16l-80 80ZM240 0h16l-96 96V80l80-80Z"/><path fill="#6DA544" d="M334 125.2h100l-50 50.1-50.2-50Z"/><path fill="#A2001D" d="M372.9 164.2H395v61.2h-22v-61.2Zm0 161.4H395v61.2h-22v-61.2Z"/><path fill="#FFC635" d="M450.8 292.2a33.4 33.4 0 0 0-55.7-25v-19.5h11.2v-22.3H395v-11.1h-22v11h-11.2v22.4H373v19.6a33.3 33.3 0 0 0-55.7 24.9c0 9.9 4.3 18.7 11.2 24.9v19.6h111.3v-19.6c6.8-6.2 11.1-15 11.1-25Z"/><path fill="#D80027" d="M417.4 281a11 11 0 0 0-7.4 2.9l-15 13.3h-22l-15-13.3a11.1 11.1 0 0 0-14.8 16.6l7.4 6.6v7.3h66.8v-7.3l7.4-6.6a11.1 11.1 0 0 0-7.4-19.4Z"/><defs><clipPath id="a"><path fill="#fff" d="M0 0h512v512H0z"/></clipPath><clipPath id="b"><path fill="#fff" d="M0 15.6h512v173.7H0z"/></clipPath><clipPath id="c"><path fill="#fff" d="M0 140.4h512V314H0z"/></clipPath><clipPath id="d"><path fill="#fff" d="M0 265.1h512v173.7H0z"/></clipPath><clipPath id="e"><path fill="#fff" d="M0 389.9h512v173.7H0z"/></clipPath></defs></svg>