<svg xmlns="http://www.w3.org/2000/svg" width="512" height="512" fill="none"><g clip-path="url(#a)"><path fill="#EEE" d="M512 376H0V136h512z"/><path fill="#D80027" d="M512 168H0V0h512z"/><path fill="#6DA544" d="M512 512H0V344h512z"/><path fill="#FFC635" d="m256 95.9 19.4 83.6 56.1-65-21.6 83 79.8-31.4-57.7 63.5 85.3 9.2-80.7 29.3L408 316l-85-11.5 40.8 75.5-70-49.7L295 416l-39-76.4-38.9 76.4 1.2-85.8-70 49.7 40.8-75.5-85 11.5 71.3-47.9-80.7-29.3 85.3-9.3-57.7-63.4 79.8 31.5-21.6-83.1 56 65z"/></g><defs><clipPath id="a"><path fill="#fff" d="M0 0h512v512H0z"/></clipPath></defs></svg>