<svg width="512" height="512" viewBox="0 0 512 512" fill="none" xmlns="http://www.w3.org/2000/svg">
<rect x="512" y="376" width="512" height="240" transform="rotate(180 512 376)" fill="var(--flag-palette-white, #eeeeee)"/>
<rect x="512" y="168" width="512" height="168" transform="rotate(180 512 168)" fill="var(--flag-palette-bright-red, #d80027)"/>
<rect x="512" y="512" width="512" height="168" transform="rotate(180 512 512)" fill="var(--flag-palette-green, #6da544)"/>
<path d="M256 95.9004L275.4 179.5L331.5 114.5L309.9 197.5L389.7 166.1L332 229.6L417.3 238.8L336.6 268.1L408 316L323 304.5L363.8 380L293.8 330.3L295 416L256 339.6L217.1 416L218.3 330.2L148.3 379.9L189.1 304.4L104.1 315.9L175.4 268L94.7002 238.7L180 229.4L122.3 166L202.1 197.5L180.5 114.4L236.5 179.4L256 95.9004Z" fill="var(--flag-palette-dark-yellow, #ffc635)"/>
</svg>