<svg width="512" height="512" viewBox="0 0 512 512" fill="none" xmlns="http://www.w3.org/2000/svg">
<rect y="136" width="512" height="240" fill="var(--flag-palette-white, #eeeeee)"/>
<rect y="344" width="512" height="168" fill="var(--flag-palette-black, #333333)"/>
<rect width="512" height="168" fill="var(--flag-palette-dark-red, #a2001d)"/>
<path fill-rule="evenodd" clip-rule="evenodd" d="M194.783 239.304C194.704 239.304 194.627 239.307 194.549 239.309C194.488 239.312 194.427 239.314 194.366 239.315V239.304H145.429C147.91 229.718 156.608 222.608 166.957 222.608V189.217C136.27 189.217 111.305 214.183 111.305 244.869V272.139V272.696H194.366H194.783C197.852 272.696 200.348 275.193 200.348 278.261V289.391H89.043V322.782H233.739V278.26C233.739 256.78 216.263 239.304 194.783 239.304ZM278.261 289.391V189.217H244.87V322.783H300.522V289.391H278.261ZM389.565 189.217V289.392H411.826V322.784H311.652V256.001H345.043V289.392H356.174V189.217H389.565Z" fill="var(--flag-palette-dark-green, #496e2d)"/>
</svg>