<svg xmlns="http://www.w3.org/2000/svg" width="512" height="512" fill="none"><path fill="#EEE" d="M0 145.3h512v221.4H0z"/><path fill="#333" d="M0 345.1h512V512H0z"/><path fill="#A2001D" d="M0 0h512v166.9H0z"/><path fill="#496E2D" d="M194.8 239.3h-49.4a22.3 22.3 0 0 1 21.6-16.7v-33.4c-30.7 0-55.7 25-55.7 55.7v27.8h83.5c3 0 5.5 2.5 5.5 5.6v11H89v33.5h144.7v-44.5a39 39 0 0 0-39-39Zm83.5 50.1V189.2h-33.4v133.6h55.6v-33.4h-22.2Zm111.3 0V189.2h-33.4v100.2H345V256h-33.3v66.8h100.1v-33.4h-22.2Z"/></svg>