<svg xmlns="http://www.w3.org/2000/svg" width="512" height="512" fill="none"><path fill="#EEE" d="M512 122.4v267.1H0v-267z"/><path fill="#D80027" d="M512 367.3V512H0V367.3z"/><path fill="#6DA544" d="M512 0v144.7H0V0z"/><path fill="#D80027" d="M339.1 189.2h-33.4c.2 3.7.4 7.4.4 11.1 0 24.8-6.2 48.8-17 65.9-3.3 5.3-9 12.7-16.4 17.7v-94.7h-33.4V284c-7.5-5-13-12.4-16.4-17.7-10.8-17-17-41-17-65.9 0-3.7.2-7.4.4-11H173c-.3 3.6-.4 7.3-.4 11 0 68.7 36.7 122.5 83.5 122.5s83.5-53.8 83.5-122.5c0-3.7-.1-7.4-.4-11Z"/><path fill="#EEE" d="M139.1 122.4h-33.4v54.3h33.4v-54.3Zm33.4 0v54.3H206v-54.3h-33.4Zm66.8 0v54.3h33.4v-54.3h-33.4Zm66.7 0v54.3h33.5v-54.3H306Zm66.9 0v54.3h33.4v-54.3h-33.4Zm33.4 267.2v-54.3h-33.4v54.3h33.4Zm-66.8 0v-54.3H306v54.3h33.4Zm-66.8 0v-54.3h-33.4v54.3h33.4Zm-66.7 0v-54.3h-33.5v54.3H206Zm-66.9 0v-54.3h-33.4v54.3h33.4Z"/></svg>