<svg xmlns="http://www.w3.org/2000/svg" width="512" height="512" fill="none"><g clip-path="url(#a)"><path fill="#EEE" d="M0 0h512v512H0z"/><path fill="#D80027" d="M0 335.3h512V512H0z"/><path fill="#496E2D" d="M0 0h512v176.7H0z"/><path fill="#EEE" fill-rule="evenodd" d="M103.7 351.3h144v-32h-144v32Zm160 0h144v-32h-144v32Zm-160 32h208v-16h-208v16Zm176 32h48v32h80v-80h-16v64h-16v-64h-16v64h-16v-64h-16v32h-64v48h48v-16h-32v-16Zm-96-16h-80v48h16v-32h48v32h80v-48h-48v16h32v16h-48v-32Zm-48 48h16v-16h-16v16Zm-352-96h144v-32h-144v32Zm160 0h144v-32h-144v32Zm-160 32h208v-16h-208v16Zm176 32h48v32h80v-80h-16v64h-16v-64h-16v64h-16v-64h-16v32h-64v48h48v-16h-32v-16Zm-96-16h-80v48h16v-32h48v32h80v-48h-48v16h32v16h-48v-32Zm-48 48h16v-16h-16v16Zm607.9-96h144v-32h-144v32Zm160 0h144v-32h-144v32Zm-160 32h208v-16h-208v16Zm176 32h48v32h80v-80h-16v64h-16v-64h-16v64h-16v-64h-16v32h-64v48h48v-16h-32v-16Zm-96-16h-80v48h16v-32h48v32h80v-48h-48v16h32v16h-48v-32Zm-48 48h16v-16h-16v16ZM103.7 80.7h208v-16h-208v16Zm176 32h48v32h80v-80h-16v64h-16v-64h-16v64h-16v-64h-16v32h-64v48h48v-16h-32v-16Zm-96-16h-80v48h16v-32h48v32h80v-48h-48v16h32v16h-48v-32Zm-48 48h16v-16h-16v16Zm-32 48h144v-32h-144v32Zm160 0h144v-32h-144v32Zm-480-112h208v-16h-208v16Zm176 32h48v32h80v-80h-16v64h-16v-64h-16v64h-16v-64h-16v32h-64v48h48v-16h-32v-16Zm-96-16h-80v48h16v-32h48v32h80v-48h-48v16h32v16h-48v-32Zm-48 48h16v-16h-16v16Zm-32 48h144v-32h-144v32Zm160 0h144v-32h-144v32Zm479.9-112h208v-16h-208v16Zm176 32h48v32h80v-80h-16v64h-16v-64h-16v64h-16v-64h-16v32h-64v48h48v-16h-32v-16Zm-96-16h-80v48h16v-32h48v32h80v-48h-48v16h32v16h-48v-32Zm-48 48h16v-16h-16v16Zm-32 48h144v-32h-144v32Zm160 0h144v-32h-144v32Z" clip-rule="evenodd"/><path fill="#D80027" d="M271.8 201h-32v16h32v-16Zm-43.9 87a58 58 0 0 1-15.5-44 37 37 0 0 0-8.4 34.5l-15.5 4.1a53 53 0 0 1 34.3-64l9.7 11.2a42 42 0 0 0 15.3 54V221h16v63.1a42 42 0 0 0 15.7-54.3l9.7-11.1a53 53 0 0 1 34.3 64l-15.5-4.2a37 37 0 0 0-8.4-34.5 58 58 0 0 1-15.5 44c3.6-1.3 7-3 10.2-5.2l9.2 13a58 58 0 0 1-39.7 10.2v5h-16v-5a58.8 58.8 0 0 1-39.3-10.1l9.2-13.1a42 42 0 0 0 10.2 5.2Z"/></g><defs><clipPath id="a"><path fill="#fff" d="M0 0h512v512H0z"/></clipPath></defs></svg>