<svg width="512" height="512" viewBox="0 0 512 512" fill="none" xmlns="http://www.w3.org/2000/svg">
<rect width="512" height="512" fill="var(--flag-palette-green, #6da544)"/>
<path d="M253.901 161.3C247.629 149.879 245.072 136.788 246.584 123.846C248.095 110.905 253.601 98.7555 262.336 89.0875C271.071 79.4194 282.601 72.7128 295.323 69.8997C308.045 67.0866 321.328 68.3068 333.325 73.3908C345.322 78.4747 355.436 87.1698 362.264 98.2675C369.091 109.365 372.291 122.314 371.42 135.315C370.548 148.315 365.648 160.721 357.401 170.808C349.154 180.895 337.969 188.163 325.401 191.6C321.011 193.04 316.964 195.368 313.512 198.439C310.059 201.51 307.275 205.258 305.333 209.45C303.39 213.642 302.33 218.188 302.219 222.807C302.107 227.426 302.947 232.019 304.685 236.3C306.424 240.58 309.024 244.458 312.324 247.691C315.624 250.925 319.554 253.445 323.87 255.096C328.185 256.746 332.794 257.492 337.41 257.286C342.025 257.081 346.549 255.928 350.701 253.9C362.122 247.628 375.213 245.071 388.154 246.583C401.096 248.094 413.245 253.6 422.913 262.335C432.581 271.07 439.288 282.6 442.101 295.322C444.914 308.044 443.694 321.327 438.61 333.324C433.526 345.321 424.831 355.435 413.733 362.263C402.635 369.09 389.686 372.29 376.686 371.419C363.686 370.547 351.28 365.647 341.193 357.4C331.105 349.153 323.838 337.968 320.401 325.4C318.96 321.01 316.632 316.963 313.561 313.511C310.491 310.058 306.743 307.274 302.551 305.332C298.359 303.389 293.812 302.329 289.193 302.218C284.574 302.106 279.982 302.946 275.701 304.684C271.42 306.423 267.543 309.023 264.309 312.323C261.076 315.623 258.555 319.553 256.905 323.869C255.254 328.184 254.509 332.793 254.714 337.409C254.92 342.024 256.073 346.548 258.101 350.7C264.372 362.121 266.93 375.212 265.418 388.153C263.906 401.095 258.4 413.244 249.665 422.912C240.931 432.58 229.401 439.287 216.678 442.1C203.956 444.913 190.674 443.693 178.677 438.609C166.68 433.525 156.565 424.83 149.738 413.732C142.911 402.634 139.71 389.685 140.582 376.685C141.453 363.685 146.353 351.279 154.601 341.192C162.848 331.104 174.033 323.837 186.601 320.4C190.991 318.959 195.038 316.631 198.49 313.561C201.942 310.49 204.726 306.742 206.669 302.55C208.612 298.358 209.672 293.811 209.783 289.192C209.894 284.573 209.055 279.981 207.316 275.7C205.578 271.419 202.978 267.542 199.678 264.308C196.377 261.075 192.447 258.554 188.132 256.904C183.817 255.253 179.208 254.508 174.592 254.713C169.976 254.919 165.452 256.072 161.301 258.1C149.88 264.371 136.789 266.929 123.847 265.417C110.906 263.905 98.7565 258.399 89.0885 249.664C79.4204 240.93 72.7138 229.4 69.9007 216.678C67.0876 203.955 68.3078 190.673 73.3918 178.676C78.4757 166.679 87.1708 156.564 98.2685 149.737C109.366 142.91 122.315 139.709 135.315 140.581C148.316 141.452 160.722 146.352 170.809 154.6C180.896 162.847 188.164 174.032 191.601 186.6C193.041 190.99 195.369 195.037 198.44 198.489C201.511 201.941 205.259 204.725 209.451 206.668C213.643 208.611 218.189 209.671 222.808 209.782C227.427 209.893 232.02 209.054 236.301 207.315C240.581 205.577 244.459 202.977 247.692 199.677C250.926 196.376 253.446 192.446 255.097 188.131C256.747 183.816 257.493 179.207 257.287 174.591C257.081 169.975 255.929 165.451 253.901 161.3Z" fill="var(--flag-palette-white, #eeeeee)"/>
</svg>