<svg xmlns="http://www.w3.org/2000/svg" width="512" height="512" fill="none"><path fill="var(--flag-palette-dark-brown, #584528)" d="M0 204.9h512V512H0z"/><path fill="var(--flag-palette-blue, #0052b4)" d="M0 0h512v256H0z"/><path fill="var(--flag-palette-gold, #ff9811)" fill-rule="evenodd" d="M512 0H0v512h512zm-32 32H32v448h448z" clip-rule="evenodd"/><path fill="var(--flag-palette-yellow, #ffda44)" d="M168.9 200a48 48 0 1 0 0-96 48 48 0 0 0 0 96"/><path fill="var(--flag-palette-gold, #ff9811)" d="M384 288v-16c0-31-21.5-56-48-56h-88v-72c0-12-16-24-16-24s-16 12-16 24h-72v72h32v35.7c0 7.7 0 12.3 6.5 22.3L166 287.8l-54 .2v24h112v48h-24v24h48v-48l24-24h48v48h-24v24h48v-48l24-24 40 40v8h-24v24h48v-48z"/><path fill="var(--flag-palette-white, #eeeeee)" d="M264 144h136a24 24 0 0 1-24 24 24 24 0 0 1-24 24 24 24 0 0 1-24 24h-80c22.1 0 40-21.5 40-48a24 24 0 0 0-24-24m-80 168v64h-40a16 16 0 0 0-16 16 16 16 0 0 0-16-16H72v-64h40a16 16 0 0 1 16 16 16 16 0 0 1 16-16z"/><path fill="var(--flag-palette-gold, #ff9811)" d="M428 200c0-5.1-6-14.5-8.7-18.3L416 177l-3.3 4.7c-2.6 3.8-8.7 13.2-8.7 18.3a12 12 0 0 0 8 11.3V280a4 4 0 1 1-8 0v-16a12 12 0 0 0-12-12h-16v8h16a4 4 0 0 1 4 4v16a12 12 0 1 0 24 0v-68.7c4.7-1.7 8-6 8-11.3"/></svg>