<svg xmlns="http://www.w3.org/2000/svg" width="512" height="512" fill="none"><path fill="var(--flag-palette-blue, #0052b4)" d="M0 204.9h512V512H0z"/><path fill="var(--flag-palette-white, #eeeeee)" d="M0 0h512v256H0z"/><path fill="var(--flag-palette-white, #eeeeee)" d="M130 108.3v192c0 66.6 56.7 124.5 125.8 124.5s126-58 126-124.6v-192l-126 .7z"/><path fill="var(--flag-palette-black, #333333)" d="M255.8 428.8C185.4 428.8 126 370 126 300.2v-196l130 .7 129.9-.6v196c0 69.6-59.5 128.5-130 128.5zM134 112.3v188c0 65.3 55.8 120.5 122 120.5 66 0 121.9-55.2 121.9-120.6V112.3l-122 .6z"/><path fill="var(--flag-palette-black, #333333)" d="M259.8 423.9h-8V260.5H130.1v-8h121.7V110.2h8v142.3h121.1v8H259.8z"/><path fill="var(--flag-palette-black, #333333)" fill-rule="evenodd" d="M201.1 161.7a17.6 17.6 0 0 0-29-10.9 11 11 0 0 1 9.5 11l-26-3.7a5 5 0 0 0-5.6 5V212a14 14 0 0 0 13.6-14.2v.5q6.2-.1 10.1-4.5l2 2.9-12 21.2h54.6l-12.1-21.2 2-2.9q4 4.3 10.1 4.5v-.5A14 14 0 0 0 232 212v-49a5 5 0 0 0-5.7-4.9z" clip-rule="evenodd"/><path fill="var(--flag-palette-bright-red, #d80027)" fill-rule="evenodd" d="M331.1 161.7a17.6 17.6 0 0 0-29-10.9 11 11 0 0 1 9.5 11l-26-3.7a5 5 0 0 0-5.6 5V212a14 14 0 0 0 13.6-14.2v.5q6.2-.1 10.1-4.5l2 2.9-12 21.2h54.6l-12.1-21.2 2-2.9q4 4.3 10.1 4.5v-.5A14 14 0 0 0 362 212v-49a5 5 0 0 0-5.7-4.9zm-130 132.6a17.6 17.6 0 0 0-29-11 11 11 0 0 1 9.5 11l-26-3.6a5 5 0 0 0-5.6 5v48.8a14 14 0 0 0 13.6-14.1v.4q6.2-.2 10.1-4.4l2 2.8-12 21.2h54.6l-12.1-21.2 2-2.8q4 4.2 10.1 4.4v-.4a14 14 0 0 0 13.7 14.1v-48.9a5 5 0 0 0-5.7-5z" clip-rule="evenodd"/><path fill="var(--flag-palette-black, #333333)" fill-rule="evenodd" d="M331.1 294.3a17.6 17.6 0 0 0-29-11 11 11 0 0 1 9.5 11l-26-3.6a5 5 0 0 0-5.6 5v48.8a14 14 0 0 0 13.6-14.1v.4q6.2-.2 10.1-4.4l2 2.8-12 21.2h54.6l-12.1-21.2 2-2.8q4 4.2 10.1 4.4v-.4a14 14 0 0 0 13.7 14.1v-48.9a5 5 0 0 0-5.7-5z" clip-rule="evenodd"/></svg>