<svg xmlns="http://www.w3.org/2000/svg" width="512" height="512" fill="none"><path fill="var(--flag-palette-blue, #0052b4)" d="M0 204.9h512V512H0z"/><path fill="var(--flag-palette-white, #eeeeee)" d="M0 0h512v256H0z"/><path fill="var(--flag-palette-white, #eeeeee)" d="M130 108.3v192c0 66.6 56.7 124.5 125.8 124.5s126-58 126-124.6v-192l-126 .7z"/><path fill="var(--flag-palette-black, #333333)" d="M255.8 428.8C185.4 428.8 126 370 126 300.2v-196l130 .7 129.9-.6v196c0 69.6-59.5 128.5-130 128.5zM134 112.3v188c0 65.3 55.8 120.5 122 120.5 66 0 121.9-55.2 121.9-120.6V112.3l-122 .6z"/><path fill="var(--flag-palette-black, #333333)" d="M259.8 423.9h-8V260.5H130.1v-8h121.7V110.2h8v142.3h121.1v8H259.8z"/><path fill="var(--flag-palette-black, #333333)" d="M183.7 146.4c8.9 0 16.3 6.7 17.4 15.3l25.2-3.6a5 5 0 0 1 5.7 5V212a14 14 0 0 1-13.7-14.2v.5q-6.2-.1-10-4.5l-2.1 2.9 12 21.2h-54.5l12-21.2-2-2.9q-3.9 4.4-10 4.5v-.5A14 14 0 0 1 150 212v-49a5 5 0 0 1 5.7-4.9l25.9 3.7v-.2a11 11 0 0 0-9.6-10.8q4.8-4.2 11.7-4.4"/><path fill="var(--flag-palette-bright-red, #d80027)" d="M313.7 146.4c8.9 0 16.3 6.7 17.4 15.3l25.2-3.6a5 5 0 0 1 5.7 5V212a14 14 0 0 1-13.7-14.2v.5a13 13 0 0 1-10-4.5l-2.1 2.9 12 21.2h-54.5l12-21.2-2-2.9q-3.9 4.4-10 4.5v-.5A14 14 0 0 1 280 212v-49a5 5 0 0 1 5.7-4.9l25.9 3.7v-.2a11 11 0 0 0-9.6-10.8q4.8-4.2 11.7-4.4M183.7 279c8.9 0 16.3 6.7 17.4 15.3l25.2-3.6a5 5 0 0 1 5.7 5v48.8a14 14 0 0 1-13.7-14.1v.4q-6.2-.2-10-4.4l-2.1 2.8 12 21.2h-54.5l12-21.2-2-2.8q-3.9 4.2-10 4.4v-.4a14 14 0 0 1-13.7 14.1v-48.9a5 5 0 0 1 5.7-5l25.9 3.8v-.3c0-5.5-4.2-10-9.6-10.7q4.8-4.2 11.7-4.4"/><path fill="var(--flag-palette-black, #333333)" d="M313.7 279c8.9 0 16.3 6.7 17.4 15.3l25.2-3.6a5 5 0 0 1 5.7 5v48.8a14 14 0 0 1-13.7-14.1v.4c-4 0-7.6-1.7-10-4.4l-2.1 2.8 12 21.2h-54.5l12-21.2-2-2.8q-3.9 4.2-10 4.4v-.4a14 14 0 0 1-13.7 14.1v-48.9a5 5 0 0 1 5.7-5l25.9 3.8v-.3c0-5.5-4.2-10-9.6-10.7q4.8-4.2 11.7-4.4"/></svg>