<svg xmlns="http://www.w3.org/2000/svg" width="512" height="512" fill="none"><path fill="var(--flag-palette-bright-red, #d80027)" d="M136 512V0h240v512z"/><path fill="var(--flag-palette-light-blue, #338af3)" d="M344 512V0h168v512z"/><path fill="var(--flag-palette-green, #6da544)" d="M0 512V0h168v512z"/><path fill="var(--flag-palette-white, #eeeeee)" d="M256 144c44.2 0 80 17.9 80 40v88H176v-88c0-22.1 35.8-40 80-40"/><path fill="var(--flag-palette-mid-grey-3, #acabb1)" fill-rule="evenodd" d="M230.5 192.1c-.3.4-9.6-1.2-10-1-.5.3-3.5 9-4 9s-3.7-8.9-4.1-9.2-9.5 1.6-9.8 1.2c-.2-.4 6-7.7 6-8.2s-6.2-7.5-6-7.9 9.6 1.3 10 1c.5-.2 3.5-9 4-9s3.7 9 4.1 9.2 9.5-1.6 9.8-1.2c.2.5-5.9 7.7-5.9 8.2s6.1 7.5 5.9 8zm80.5 0c-.3.4-9.7-1.2-10.1-1-.4.3-3.4 9-3.9 9s-3.7-8.9-4.2-9.2-9.5 1.6-9.7 1.2c-.3-.4 5.9-7.7 5.9-8.2s-6.2-7.5-6-7.9 9.7 1.3 10.1 1c.5-.2 3.4-9 4-9 .4 0 3.6 9 4 9.2.5.2 9.6-1.6 9.8-1.2s-5.9 7.7-5.9 8.2 6.2 7.5 6 8zm0 62.2c-.3.4-9.7-1.3-10.1-1-.4.2-3.4 9-3.9 9s-3.7-9-4.2-9.2-9.5 1.6-9.7 1.2c-.3-.5 5.9-7.7 5.9-8.2s-6.2-7.5-6-8c.3-.3 9.7 1.3 10.1 1 .5-.2 3.4-9 4-9 .4 0 3.6 9 4 9.3.5.2 9.6-1.6 9.8-1.2s-5.9 7.7-5.9 8.2 6.2 7.5 6 7.9m-80.5 0c-.3.4-9.6-1.3-10-1-.5.2-3.5 9-4 9s-3.7-9-4.1-9.2-9.5 1.6-9.8 1.2c-.2-.5 6-7.7 6-8.2s-6.2-7.5-6-8c.3-.3 9.6 1.3 10 1 .5-.2 3.5-9 4-9s3.7 9 4.1 9.3c.4.2 9.5-1.6 9.8-1.2.2.4-5.9 7.7-5.9 8.2s6.1 7.5 5.9 7.9M224 280a48 48 0 0 0 96 0h16a80 80 0 0 1-160 0z" clip-rule="evenodd"/><path fill="var(--flag-palette-mid-grey-3, #acabb1)" d="M252 272h8v64h-8z"/><path fill="var(--flag-palette-bright-red, #d80027)" d="M336 208h-76v-64h-8v64h-76v8h76v56h8v-56h76z"/></svg>