<svg width="512" height="512" viewBox="0 0 512 512" fill="none" xmlns="http://www.w3.org/2000/svg">
<rect width="512" height="512" fill="var(--flag-palette-white, #eeeeee)"/>
<path fill-rule="evenodd" clip-rule="evenodd" d="M98.4678 61.8398V292.627C98.4678 379.585 169.042 450.159 255.999 450.159C342.957 450.159 413.531 379.585 413.531 292.627V61.8398H98.4678Z" fill="var(--flag-palette-white, #eeeeee)"/>
<path fill-rule="evenodd" clip-rule="evenodd" d="M98.4678 61.8398V182.136L128.937 155.435V96.1986H383.062V286.144C383.062 357.714 327.569 415.8 255.999 415.8C184.43 415.8 128.937 357.714 128.937 286.144V209.566H98.4678V292.627C98.4678 379.585 169.042 450.159 255.999 450.159C342.957 450.159 413.531 379.585 413.531 292.627V61.8398H98.4678Z" fill="var(--flag-palette-dark-green, #496e2d)"/>
<path fill-rule="evenodd" clip-rule="evenodd" d="M179.768 128.188C161.893 128.188 146.983 140.879 143.557 157.742L97.2847 198.23H145.713V321.84C145.713 340.698 161.092 356.118 179.951 356.118C198.809 356.118 214.188 340.698 214.188 321.84V309.766C226.16 317.967 240.641 322.772 256.204 322.772C273.877 322.772 290.125 316.561 302.916 306.226V322.043C302.751 333.732 308.905 344.593 319.002 350.486C329.099 356.379 341.562 356.379 351.659 350.486C361.756 344.593 367.91 333.732 367.744 322.043V165.24C367.752 152.103 359.834 140.265 347.688 135.257C343.893 133.693 339.93 132.903 335.979 132.826C327.285 132.658 318.678 135.977 312.316 142.389L236.346 219.007L282.171 264.832L302.916 243.925V293.433L214.188 204.704V178.61C215.822 174.436 216.72 169.892 216.72 165.139C216.72 144.731 200.176 128.188 179.768 128.188ZM155.782 165.139C155.782 151.892 166.521 141.153 179.768 141.153C193.015 141.153 203.754 151.892 203.754 165.139C203.754 178.387 193.015 189.126 179.768 189.126C166.521 189.126 155.782 178.387 155.782 165.139ZM201.222 195.229C195.174 199.549 187.768 202.091 179.768 202.091C173.852 202.091 168.261 200.701 163.304 198.23H158.679V321.84C158.679 333.74 168.051 343.152 179.951 343.152C191.85 343.152 201.222 333.74 201.222 321.84V298.462C189.085 285.194 181.652 267.559 181.652 248.22C181.652 228.893 189.096 211.281 201.222 198.019V195.229ZM145.713 179.507C145.039 177.911 144.474 176.259 144.027 174.558L131.792 185.264H145.713V179.507ZM205.071 213.942L290.523 299.394C288.131 300.998 285.64 302.463 283.027 303.729L239.835 260.537L230.638 269.735L269.372 308.429C267.067 308.933 264.717 309.286 262.322 309.523L226.586 273.787L217.389 282.984L242.752 308.348C215.179 302.217 194.618 277.663 194.618 248.22C194.618 235.51 198.501 223.739 205.071 213.942Z" fill="var(--flag-palette-black, #333333)"/>
</svg>