<svg xmlns="http://www.w3.org/2000/svg" width="512" height="512" fill="none"><g clip-path="url(#a)"><path fill="#EEE" d="M0 0h512v512H0z"/><path fill="#D80027" d="M0 392h512v48.3H0zM0 79.7h512V128H0z"/><path fill="#818085" d="M352 264v-8l-24-24h-24.2L288 200a8 8 0 0 0 8-8h16v-24h-40a8 8 0 0 0-8-8v16a8 8 0 0 0-8 8v30.1c-4.4-4-10.1-6.1-16-6.1h-64a16 16 0 0 0 16 16 16 16 0 0 0 16 16 8 8 0 0 0 8 8h32a8 8 0 0 1-8 8h-8a24 24 0 0 0-24 24 24 24 0 0 0-24-24 16 16 0 0 0-16 16v16a8 8 0 0 1-8 8h8a16 16 0 0 0 16-16 8 8 0 1 1 16 0 8 8 0 0 0 8 8h1.4a24 24 0 0 0 22.6 16v8a16 16 0 0 0 16 16l16 16v8h8v-8l-24-24v-8a16 16 0 0 0 16 16l16 16v8h8v-8l-24-24v-21.2c13.9-2.5 27.2-9 38-19.6l.6-.6L328 264l16 16v8h8v-8l-24-24h-16q0-3.3-.6-6.4L328 240l16 16v8z"/></g><defs><clipPath id="a"><path fill="#fff" d="M0 0h512v512H0z"/></clipPath></defs></svg>