<svg xmlns="http://www.w3.org/2000/svg" width="512" height="512" fill="none"><path fill="var(--flag-palette-blue, #0052b4)" d="M0 0h512v512H0z"/><path fill="var(--flag-palette-white, #eeeeee)" d="M256 416a160 160 0 1 0 0-320 160 160 0 0 0 0 320"/><path fill="var(--flag-palette-dark-yellow, #ffc635)" d="M357.8 357.8a144 144 0 0 1-203.6 0L256 256zM154.2 154.2a144 144 0 0 1 203.6 0L256 256z"/><path fill="var(--flag-palette-black, #333333)" d="M376 248h-24v-24h-16v24h-24v16h24v24h16v-24h24zm-208 8 8-32h-16zm0 0 32 8v-16zm0 0-8 32h16zm0 0-32-8v16z"/><path fill="var(--flag-palette-green, #6da544)" d="M248 192h16v24h-16z"/><path fill="var(--flag-palette-dark-green, #496e2d)" d="m256 120-32 80h64z"/><path fill="var(--flag-palette-light-blue, #338af3)" d="m280 384-48-16v-24h48zm-48-48a16 16 0 0 1-16-16h80a16 16 0 0 1-16 16"/></svg>