<svg xmlns="http://www.w3.org/2000/svg" width="512" height="512" fill="none"><g clip-path="url(#a)"><path fill="#EEE" d="M0 0h512v512H0z"/><path fill="#6DA544" d="M0 0h48v512H0z"/><path fill="#D80027" d="M464 0h48v512h-48z"/><path fill="#338AF3" d="M208 408a64 64 0 0 1-64-64v-1.6l4.8-54.4-4.8-38.4V184h65.6l46.4 3 46.4-3H368v65.6l-3.5 50.6 3.5 42.2v1.6a64 64 0 0 1-64 64"/><path fill="#EEE" d="M352 335.8 295.8 392h-79.6L160 335.8v-79.6l56.2-56.2h79.6l56.2 56.2z"/><path fill="#FFC635" d="M144 152h224v32H144z"/><path fill="#D80027" d="M302.4 184h-92.8L144 249.6v92.8l65.6 65.6h92.8l65.6-65.6v-92.8zm45.2 150L294 387.6h-76L164.4 334v-76l53.6-53.6h76l53.6 53.6z"/><path fill="#6DA544" d="M243.7 308.4c0 13.5-14 22.6-14 22.6h52.5s-13.9-9.1-13.9-22.6z"/><path fill="#496E2D" d="M256 245c-4.8 0-9.1 2.2-12.3 5.4a17 17 0 0 0-25.7 12.9 17.2 17.2 0 0 0-6.8 25.6q3 4.3 7.9 6a17 17 0 0 0 16.7 15.3 17 17 0 0 0 7.9-1.8c3.2 3.3 7.5 5.4 12.3 5.4s9.1-2.2 12.3-5.4q3.4 2.3 7.5 2.2A17 17 0 0 0 293 295a17 17 0 0 0 8.5-25.1 17 17 0 0 0-7.4-6.6 17 17 0 0 0-17.6-15.3 17 17 0 0 0-8 2.4A17 17 0 0 0 256 245"/><path fill="#FFC635" d="m352 120-16-16-16 16-16-16-16 16-16-16-16 16-16-16-16 16-16-16-16 16-16-16-16 16-16-16v32h224v-32z"/></g><defs><clipPath id="a"><path fill="#fff" d="M0 0h512v512H0z"/></clipPath></defs></svg>