<svg width="512" height="512" viewBox="0 0 512 512" fill="none" xmlns="http://www.w3.org/2000/svg">
<rect width="512" height="512" fill="var(--flag-palette-white, #eeeeee)"/>
<path d="M512 288V224H288V0H224V224H0V288H224V512H288V288H512Z" fill="var(--flag-palette-bright-red, #d80027)"/>
<path d="M405.593 344.35C385.293 344.35 367.593 358.05 362.493 377.65L405.593 388.85L448.693 377.65C446.212 368.109 440.633 359.663 432.832 353.636C425.031 347.609 415.45 344.342 405.593 344.35ZM361.093 444.45L416.693 455.65V431.95C432.393 427.95 444.693 415.55 448.693 399.95L405.593 388.85H349.893L361.093 422.25V444.45Z" fill="var(--flag-palette-black, #333333)"/>
<path d="M448.693 377.649H349.893V422.249H361.093V399.949H448.693C450.581 392.636 450.581 384.963 448.693 377.649Z" fill="var(--flag-palette-mid-grey-3, #acabb1)"/>
<path d="M405.593 56.3496C385.293 56.3496 367.593 70.0496 362.493 89.6496L405.593 100.85L448.693 89.6496C446.212 80.1092 440.633 71.6626 432.832 65.6356C425.031 59.6086 415.45 56.3424 405.593 56.3496ZM361.093 156.45L416.693 167.65V143.95C432.393 139.95 444.693 127.55 448.693 111.95L405.593 100.85H349.893L361.093 134.25V156.45Z" fill="var(--flag-palette-black, #333333)"/>
<path d="M448.693 89.6494H349.893V134.249H361.093V111.949H448.693C450.581 104.636 450.581 96.9628 448.693 89.6494Z" fill="var(--flag-palette-mid-grey-3, #acabb1)"/>
<path d="M117.593 344.35C97.2926 344.35 79.5926 358.05 74.4926 377.65L117.593 388.85L160.693 377.65C158.212 368.109 152.633 359.663 144.832 353.636C137.031 347.609 127.45 344.342 117.593 344.35ZM73.0926 444.45L128.693 455.65V431.95C144.393 427.95 156.693 415.55 160.693 399.95L117.593 388.85H61.8926L73.0926 422.25V444.45Z" fill="var(--flag-palette-black, #333333)"/>
<path d="M160.693 377.649H61.8926V422.249H73.0926V399.949H160.693C162.581 392.636 162.581 384.963 160.693 377.649Z" fill="var(--flag-palette-mid-grey-3, #acabb1)"/>
<path d="M117.593 56.3506C97.2926 56.3506 79.5926 70.0506 74.4926 89.6506L117.593 100.851L160.693 89.6506C158.212 80.1102 152.633 71.6636 144.832 65.6366C137.031 59.6096 127.45 56.3434 117.593 56.3506ZM73.0926 156.451L128.693 167.651V143.951C144.393 139.951 156.693 127.551 160.693 111.951L117.593 100.851H61.8926L73.0926 134.251V156.451Z" fill="var(--flag-palette-black, #333333)"/>
<path d="M160.693 89.6504H61.8926V134.25H73.0926V111.95H160.693C162.581 104.637 162.581 96.9638 160.693 89.6504Z" fill="var(--flag-palette-mid-grey-3, #acabb1)"/>
</svg>