<svg xmlns="http://www.w3.org/2000/svg" width="512" height="512" fill="none"><g clip-path="url(#a)"><path fill="#EEE" d="M0 0h512v512H0z"/><path fill="#D80027" d="M512 288v-64H288V0h-64v224H0v64h224v224h64V288h224Z"/><path fill="#333" d="M406.2 55.7c-20.3 0-38 13.8-43 33.4l43 11.2L449.4 89a44.5 44.5 0 0 0-43.2-33.4Zm-44.4 100.2 55.7 11v-23.5c15.6-4 28-16.4 32-32l-43.2-11.1h-55.6l11 33.4v22.2Z"/><path fill="#ACABB1" d="M449.4 89h-98.8v44.7h11v-22.3h87.8c1.9-7.4 1.9-15 0-22.3Z"/><path fill="#333" d="M116.9 55.7c-20.3 0-38 13.7-43.1 33.4l43.1 11.2L160 89a44.5 44.5 0 0 0-43.1-33.4ZM72.4 155.9l55.6 11v-23.5c15.7-4 28-16.4 32-32l-43.1-11.1H61.2l11.2 33.4v22.2Z"/><path fill="#ACABB1" d="M160 89H61.2v44.7h11.2v-22.3H160c1.9-7.4 1.9-15 0-22.3Z"/><path fill="#333" d="M406.2 345c-20.2 0-38 13.7-43 33.3l43 11.2 43.2-11.2a44.5 44.5 0 0 0-43.2-33.3Zm-44.4 100.1 55.7 11.2v-23.7c15.6-4 28-16.4 32-32l-43.2-11h-55.6l11 33.3v22.2Z"/><path fill="#ACABB1" d="M449.4 378.3h-98.8V423h11v-22.3h87.8c1.9-7.3 1.9-15 0-22.3Z"/><path fill="#333" d="M116.9 345c-20.3 0-38 13.7-43.1 33.3l43.1 11.2 43.1-11.2a44.5 44.5 0 0 0-43.1-33.3ZM72.4 445.1l55.6 11.2v-23.7c15.7-4 28-16.4 32-32l-43.1-11H61.2l11.2 33.3v22.2Z"/><path fill="#ACABB1" d="M160 378.3H61.2V423h11.2v-22.3H160c1.9-7.3 1.9-15 0-22.3Z"/></g><defs><clipPath id="a"><path fill="#fff" d="M0 0h512v512H0z"/></clipPath></defs></svg>