<svg xmlns="http://www.w3.org/2000/svg" width="512" height="512" fill="none"><path fill="var(--flag-palette-white, #eeeeee)" d="M0 0h512v512H0z"/><path fill="var(--flag-palette-bright-red, #d80027)" d="M512 288v-64H288V0h-64v224H0v64h224v224h64V288z"/><path fill="var(--flag-palette-black, #333333)" d="M405.6 344.4c-20.3 0-38 13.7-43.1 33.3l43 11.2 43.2-11.2a44.5 44.5 0 0 0-43.1-33.3m-44.5 100 55.6 11.3V432c15.7-4 28-16.4 32-32l-43.1-11.1h-55.7l11.2 33.4z"/><path fill="var(--flag-palette-mid-grey-3, #acabb1)" d="M448.7 377.6h-98.8v44.6H361V400h87.6q2.8-11.2 0-22.3"/><path fill="var(--flag-palette-black, #333333)" d="M405.6 56.3c-20.3 0-38 13.7-43.1 33.3l43 11.3 43.2-11.3a44.5 44.5 0 0 0-43.1-33.3M361 156.4l55.6 11.3V144c15.7-4 28-16.5 32-32l-43.1-11.2h-55.7l11.2 33.5z"/><path fill="var(--flag-palette-mid-grey-3, #acabb1)" d="M448.7 89.6h-98.8v44.6H361V112h87.6c1.9-7.3 1.9-15 0-22.3"/><path fill="var(--flag-palette-black, #333333)" d="M117.6 344.4c-20.3 0-38 13.7-43.1 33.3l43 11.2 43.2-11.2a44.5 44.5 0 0 0-43.1-33.3M73 444.4l55.6 11.3V432c15.7-4 28-16.4 32-32l-43.1-11.1H61.9L73 422.3z"/><path fill="var(--flag-palette-mid-grey-3, #acabb1)" d="M160.7 377.6H61.9v44.6H73V400h87.6q2.8-11.2 0-22.3"/><path fill="var(--flag-palette-black, #333333)" d="M117.6 56.4c-20.3 0-38 13.7-43.1 33.3l43 11.2 43.2-11.2a44.5 44.5 0 0 0-43.1-33.3M73 156.4l55.6 11.3V144c15.7-4 28-16.4 32-32l-43.1-11.1H61.9L73 134.3z"/><path fill="var(--flag-palette-mid-grey-3, #acabb1)" d="M160.7 89.7H61.9v44.6H73v-22.4h87.6a44 44 0 0 0 0-22.2"/></svg>