<svg width="512" height="512" viewBox="0 0 512 512" fill="none" xmlns="http://www.w3.org/2000/svg">
<rect y="136" width="512" height="240" fill="var(--flag-palette-dark-red, #a2001d)"/>
<rect y="344" width="512" height="168" fill="var(--flag-palette-dark-green, #496e2d)"/>
<rect width="512" height="168" fill="var(--flag-palette-black, #333333)"/>
<path fill-rule="evenodd" clip-rule="evenodd" d="M512 160L2.79753e-06 160L0 192L512 192V160ZM0.00012207 352L512 352V320L0.000124868 320L0.00012207 352Z" fill="var(--flag-palette-white, #eeeeee)"/>
<path d="M335.715 118.301L305.398 104.308L256 216.159L206.602 104.308L176.285 118.301L237.613 256L176.285 393.699L206.602 407.692L256 295.841L305.398 407.692L335.715 393.699L274.387 256L335.715 118.301Z" fill="var(--flag-palette-white, #eeeeee)"/>
<path d="M276.591 131.489C264.855 118.672 256 111.304 256 111.304C256 111.304 247.145 118.671 235.409 131.489V380.509C247.145 393.328 256 400.696 256 400.696C256 400.696 264.855 393.329 276.591 380.51V131.489Z" fill="var(--flag-palette-white, #eeeeee)"/>
<path d="M200.348 179.243V332.755C212.75 354.73 227.929 372.742 239.305 384.684V127.315C227.929 139.256 212.749 157.269 200.348 179.243Z" fill="var(--flag-palette-dark-red, #a2001d)"/>
<path d="M311.652 179.243C299.249 157.268 284.071 139.256 272.695 127.315V384.684C284.07 372.742 299.249 354.73 311.652 332.755V179.243Z" fill="var(--flag-palette-dark-red, #a2001d)"/>
<path d="M311.652 179.243V332.755C324.207 310.506 333.913 284.197 333.913 256C333.913 227.803 324.207 201.493 311.652 179.243Z" fill="var(--flag-palette-black, #333333)"/>
<path d="M200.348 179.243V332.755C187.793 310.506 178.087 284.197 178.087 256C178.087 227.803 187.793 201.493 200.348 179.243Z" fill="var(--flag-palette-black, #333333)"/>
</svg>