<svg xmlns="http://www.w3.org/2000/svg" width="512" height="512" fill="none"><path fill="var(--flag-palette-dark-red, #a2001d)" d="M0 136h512v240H0z"/><path fill="var(--flag-palette-dark-green, #496e2d)" d="M0 344h512v168H0z"/><path fill="var(--flag-palette-black, #333333)" d="M0 0h512v168H0z"/><path fill="var(--flag-palette-white, #eeeeee)" fill-rule="evenodd" d="M512 160H0v32h512zM0 352h512v-32H0z" clip-rule="evenodd"/><path fill="var(--flag-palette-white, #eeeeee)" d="m335.7 118.3-30.3-14L256 216.2l-49.4-111.9-30.3 14L237.6 256l-61.3 137.7 30.3 14L256 295.8l49.4 111.9 30.3-14L274.4 256z"/><path fill="var(--flag-palette-white, #eeeeee)" d="M276.6 131.5c-11.7-12.8-20.6-20.2-20.6-20.2s-8.9 7.4-20.6 20.2v249a236 236 0 0 0 20.6 20.2s8.9-7.4 20.6-20.2z"/><path fill="var(--flag-palette-dark-red, #a2001d)" d="M200.3 179.2v153.6a265 265 0 0 0 39 51.9V127.3c-11.4 12-26.6 30-39 52m111.4-.1a269 269 0 0 0-39-51.9v257.4c11.4-12 26.5-30 39-52z"/><path fill="var(--flag-palette-black, #333333)" d="M311.7 179.2v153.6a158 158 0 0 0 22.2-76.8c0-28.2-9.7-54.5-22.2-76.8m-111.4 0v153.6a158 158 0 0 1-22.2-76.8c0-28.2 9.7-54.5 22.2-76.8"/></svg>