<svg xmlns="http://www.w3.org/2000/svg" width="512" height="512" fill="none"><path fill="var(--flag-palette-bright-red, #d80027)" d="M0 0h512v512H0z"/><path fill="var(--flag-palette-yellow, #ffda44)" d="M381.2 256 330 280l27.3 49.6-55.6-10.6-7 56.1-38.7-41.3-38.7 41.3-7-56.1-55.6 10.6 27.3-49.5-51.2-24.1 51.2-24-27.3-49.6 55.6 10.6 7-56.1 38.7 41.3 38.7-41.3 7 56.1 55.6-10.6-27.3 49.5z"/><path fill="var(--flag-palette-bright-red, #d80027)" d="M256 334a78 78 0 1 0 0-156 78 78 0 0 0 0 156"/><path fill="var(--flag-palette-yellow, #ffda44)" d="M217 256q-2.7 0-5.5.3c0 10.8 4 20.6 10.4 28.3a78 78 0 0 1 15-24.9A55 55 0 0 0 217 256m24 42a44 44 0 0 0 30 0c-2.6-10-7.8-19-15-26-7.2 7-12.4 16-15 26m53.6-64.3a44.5 44.5 0 0 0-77.2 0 79 79 0 0 1 38.6 10.5 77 77 0 0 1 38.6-10.5m-19.6 26a78 78 0 0 1 15.1 25 44 44 0 0 0 10.4-28.4 56 56 0 0 0-25.5 3.4"/></svg>