<svg xmlns="http://www.w3.org/2000/svg" width="512" height="512" fill="none"><g clip-path="url(#a)"><path fill="#D80027" d="M0 0h512v362H0z"/><path fill="#FFDA44" d="m345 238-36.3 17.2 19.3 35.2-39.5-7.5-5 39.9-27.5-29.4-27.5 29.4-5-40-39.5 7.6 19.3-35.2L167 238l36.3-17.1-19.3-35.3 39.5 7.6 5-40 27.5 29.4 27.5-29.3 5 39.9 39.5-7.6-19.3 35.3zM322.8 83.5h-50.1a16.7 16.7 0 0 0-33.4 0h-50c0 9.2 8 16.7 17.2 16.7h-.6c0 9.2 7.5 16.7 16.7 16.7 0 9.2 7.5 16.7 16.7 16.7h33.4c9.2 0 16.7-7.5 16.7-16.7 9.2 0 16.7-7.5 16.7-16.7h-.6c9.3 0 17.3-7.5 17.3-16.7"/><path fill="#0052B4" d="M0 262.2h512V512H0z"/><g fill="#F3F3F3" clip-path="url(#b)"><path d="M4 244.6c4.9-4.4 9.8-8.9 19.5-8.9s14.6 4.5 19.5 9 9.7 8.9 19.5 8.9c9.7 0 14.6-4.5 19.4-9 5-4.4 9.8-8.9 19.5-8.9 9.8 0 14.6 4.5 19.5 9s9.7 8.9 19.5 8.9c9.7 0 14.6-4.5 19.5-9 4.8-4.4 9.7-8.9 19.4-8.9 9.8 0 14.6 4.5 19.5 9s9.8 8.9 19.5 8.9 14.6-4.5 19.5-9c4.8-4.4 9.7-8.9 19.5-8.9 9.7 0 14.6 4.5 19.4 9 4.9 4.4 9.8 8.9 19.5 8.9s14.6-4.5 19.5-9 9.7-8.9 19.5-8.9c9.7 0 14.6 4.5 19.4 9 5 4.4 9.8 8.9 19.5 8.9 9.8 0 14.6-4.5 19.5-9s9.7-8.9 19.5-8.9c9.7 0 14.6 4.5 19.5 9 4.8 4.4 9.7 8.9 19.4 8.9 9.8 0 14.6-4.5 19.5-9s9.7-8.9 19.5-8.9c9.7 0 14.6 4.5 19.5 9 4.8 4.4 9.7 8.9 19.4 8.9 9.8 0 14.7-4.5 19.5-9s9.8-8.9 19.5-8.9V267c-9.7 0-14.6 4.5-19.5 9-4.8 4.4-9.7 8.8-19.5 8.8-9.7 0-14.6-4.4-19.4-8.9-4.9-4.4-9.8-8.9-19.5-8.9-9.8 0-14.6 4.5-19.5 9s-9.7 8.8-19.5 8.8c-9.7 0-14.6-4.4-19.4-8.9-5-4.4-9.8-8.9-19.5-8.9-9.8 0-14.6 4.5-19.5 9s-9.7 8.8-19.5 8.8c-9.7 0-14.6-4.4-19.5-8.9-4.8-4.4-9.7-8.9-19.4-8.9-9.8 0-14.6 4.5-19.5 9s-9.8 8.8-19.5 8.8-14.6-4.4-19.5-8.9c-4.8-4.4-9.7-8.9-19.4-8.9-9.8 0-14.7 4.5-19.5 9s-9.8 8.8-19.5 8.8-14.6-4.4-19.5-8.9-9.7-8.9-19.5-8.9c-9.7 0-14.6 4.5-19.4 9-5 4.4-9.8 8.8-19.5 8.8-9.8 0-14.6-4.4-19.5-8.9s-9.7-8.9-19.5-8.9c-9.7 0-14.6 4.5-19.5 9-4.8 4.4-9.7 8.8-19.4 8.8-9.8 0-14.6-4.4-19.5-8.9s-9.8-8.9-19.5-8.9S9 271.4 4 276c-4.8 4.4-9.7 8.8-19.4 8.8-9.8 0-14.7-4.4-19.5-8.9s-9.8-8.9-19.5-8.9v-31.2c9.7 0 14.6 4.5 19.5 9 4.8 4.4 9.7 8.9 19.5 8.9 9.7 0 14.6-4.5 19.4-9M4 307c4.9-4.4 9.8-8.9 19.5-8.9s14.6 4.5 19.5 9 9.7 8.8 19.5 8.8c9.7 0 14.6-4.4 19.4-8.9 5-4.4 9.8-8.9 19.5-8.9 9.8 0 14.6 4.5 19.5 9s9.7 8.8 19.5 8.8c9.7 0 14.6-4.4 19.5-8.9 4.8-4.4 9.7-8.9 19.4-8.9 9.8 0 14.6 4.5 19.5 9s9.8 8.8 19.5 8.8 14.6-4.4 19.5-8.9c4.8-4.4 9.7-8.9 19.5-8.9 9.7 0 14.6 4.5 19.4 9 4.9 4.4 9.8 8.8 19.5 8.8s14.6-4.4 19.5-8.9 9.7-8.9 19.5-8.9c9.7 0 14.6 4.5 19.4 9 5 4.4 9.8 8.8 19.5 8.8 9.8 0 14.6-4.4 19.5-8.9s9.7-8.9 19.5-8.9c9.7 0 14.6 4.5 19.5 9 4.8 4.4 9.7 8.8 19.4 8.8 9.8 0 14.6-4.4 19.5-8.9s9.7-8.9 19.5-8.9c9.7 0 14.6 4.5 19.5 9 4.8 4.4 9.7 8.8 19.4 8.8 9.8 0 14.7-4.4 19.5-8.9s9.8-8.9 19.5-8.9v31.2c-9.7 0-14.6 4.4-19.5 8.9-4.8 4.5-9.7 8.9-19.5 8.9-9.7 0-14.6-4.4-19.4-8.9-4.9-4.5-9.8-9-19.5-9-9.8 0-14.6 4.5-19.5 9s-9.7 8.9-19.5 8.9c-9.7 0-14.6-4.4-19.4-8.9-5-4.5-9.8-9-19.5-9-9.8 0-14.6 4.5-19.5 9s-9.7 8.9-19.5 8.9c-9.7 0-14.6-4.4-19.5-8.9-4.8-4.5-9.7-9-19.4-9-9.8 0-14.6 4.5-19.5 9s-9.8 8.9-19.5 8.9-14.6-4.4-19.5-8.9c-4.8-4.5-9.7-9-19.4-9-9.8 0-14.7 4.5-19.5 9s-9.8 8.9-19.5 8.9-14.6-4.4-19.5-8.9-9.7-9-19.5-9c-9.7 0-14.6 4.5-19.4 9-5 4.5-9.8 8.9-19.5 8.9-9.8 0-14.6-4.4-19.5-8.9s-9.7-9-19.5-9c-9.7 0-14.6 4.5-19.5 9-4.8 4.5-9.7 8.9-19.4 8.9-9.8 0-14.6-4.4-19.5-8.9s-9.8-9-19.5-9-14.6 4.5-19.5 9c-4.8 4.5-9.7 8.9-19.4 8.9-9.8 0-14.7-4.4-19.5-8.9s-9.8-9-19.5-9v-31c9.7 0 14.6 4.4 19.5 8.8 4.8 4.5 9.7 9 19.5 9 9.7 0 14.6-4.5 19.4-9m19.5 53.5c-9.7 0-14.6 4.5-19.5 9-4.8 4.4-9.7 8.8-19.4 8.8-9.8 0-14.7-4.4-19.5-8.9s-9.8-8.9-19.5-8.9v31.2c9.7 0 14.6 4.4 19.5 8.9 4.8 4.4 9.7 8.9 19.5 8.9 9.7 0 14.6-4.5 19.4-9 4.9-4.4 9.8-8.8 19.5-8.8s14.6 4.4 19.5 8.9 9.7 8.9 19.5 8.9c9.7 0 14.6-4.5 19.4-9 5-4.4 9.8-8.8 19.5-8.8 9.8 0 14.6 4.4 19.5 8.9s9.7 8.9 19.5 8.9c9.7 0 14.6-4.5 19.5-9 4.8-4.4 9.7-8.8 19.4-8.8 9.8 0 14.6 4.4 19.5 8.9s9.8 8.9 19.5 8.9 14.6-4.5 19.5-9c4.8-4.4 9.7-8.8 19.5-8.8 9.7 0 14.6 4.4 19.4 8.9 4.9 4.4 9.8 8.9 19.5 8.9s14.6-4.5 19.5-9 9.7-8.8 19.5-8.8c9.7 0 14.6 4.4 19.4 8.9 5 4.4 9.8 8.9 19.5 8.9 9.8 0 14.6-4.5 19.5-9s9.7-8.8 19.5-8.8c9.7 0 14.6 4.4 19.5 8.9 4.8 4.4 9.7 8.9 19.4 8.9 9.8 0 14.6-4.5 19.5-9s9.7-8.8 19.5-8.8c9.7 0 14.6 4.4 19.5 8.9 4.8 4.4 9.7 8.9 19.4 8.9 9.8 0 14.7-4.5 19.5-9s9.8-8.8 19.5-8.8v-31.2c-9.7 0-14.6 4.5-19.5 9-4.8 4.4-9.7 8.8-19.5 8.8-9.7 0-14.6-4.4-19.4-8.9-4.9-4.4-9.8-8.9-19.5-8.9-9.8 0-14.6 4.5-19.5 9s-9.7 8.8-19.5 8.8c-9.7 0-14.6-4.4-19.4-8.9-5-4.4-9.8-8.9-19.5-8.9-9.8 0-14.6 4.5-19.5 9s-9.7 8.8-19.5 8.8c-9.7 0-14.6-4.4-19.5-8.9-4.8-4.4-9.7-8.9-19.4-8.9-9.8 0-14.6 4.5-19.5 9s-9.8 8.8-19.5 8.8-14.6-4.4-19.5-8.9c-4.8-4.4-9.7-8.9-19.4-8.9-9.8 0-14.7 4.5-19.5 9s-9.8 8.8-19.5 8.8-14.6-4.4-19.5-8.9-9.7-8.9-19.5-8.9c-9.7 0-14.6 4.5-19.4 9-5 4.4-9.8 8.8-19.5 8.8-9.8 0-14.6-4.4-19.5-8.9s-9.7-8.9-19.5-8.9c-9.7 0-14.6 4.5-19.5 9-4.8 4.4-9.7 8.8-19.4 8.8-9.8 0-14.6-4.4-19.5-8.9s-9.8-8.9-19.5-8.9"/></g></g><defs><clipPath id="a"><path fill="#fff" d="M0 0h512v512H0z"/></clipPath><clipPath id="b"><path fill="#fff" d="M0 235.7h512v173.7H0z"/></clipPath></defs></svg>