<svg width="512" height="512" viewBox="0 0 512 512" fill="none" xmlns="http://www.w3.org/2000/svg">
<rect width="512" height="362.001" fill="var(--flag-palette-bright-red, #d80027)"/>
<path d="M345.043 238.078L308.658 255.191L328.034 290.43L288.525 282.871L283.519 322.783L256 293.428L228.48 322.783L223.475 282.871L183.966 290.428L203.341 255.191L166.957 238.078L203.341 220.962L183.966 185.727L223.474 193.283L228.481 153.373L256 182.726L283.52 153.373L288.525 193.283L328.035 185.727L308.661 220.965L345.043 238.078Z" fill="var(--flag-palette-yellow, #ffda44)"/>
<path d="M322.783 83.4782H272.696C272.696 74.2592 265.22 66.7822 256 66.7822C246.78 66.7822 239.304 74.2582 239.304 83.4782H189.217C189.217 92.6982 197.249 100.174 206.469 100.174H205.912C205.912 109.394 213.386 116.87 222.608 116.87C222.608 126.09 230.082 133.566 239.304 133.566H272.695C281.914 133.566 289.391 126.091 289.391 116.87C298.61 116.87 306.087 109.395 306.087 100.174H305.53C314.751 100.174 322.783 92.6992 322.783 83.4782Z" fill="var(--flag-palette-yellow, #ffda44)"/>
<rect y="262.229" width="512" height="249.772" fill="var(--flag-palette-blue, #0052b4)"/>
<g clip-path="url(#clip0_1_2509)">
<path d="M4.03115 244.649C8.90029 240.196 13.7696 235.744 23.5081 235.744C33.2474 235.744 38.1171 240.196 42.987 244.648C47.8569 249.101 52.7269 253.553 62.4671 253.553C72.2073 253.553 77.0772 249.101 81.9472 244.648C86.8171 240.196 91.6868 235.744 101.426 235.744C111.165 235.744 116.034 240.196 120.903 244.649C125.772 249.101 130.641 253.553 140.38 253.553C150.118 253.553 154.988 249.101 159.857 244.649C164.726 240.196 169.596 235.744 179.334 235.744C189.073 235.744 193.943 240.196 198.813 244.649C203.683 249.101 208.553 253.553 218.293 253.553C228.033 253.553 232.903 249.101 237.773 244.649C242.643 240.196 247.513 235.744 257.252 235.744C266.991 235.744 271.86 240.196 276.729 244.649C281.598 249.101 286.467 253.553 296.206 253.553C305.945 253.553 310.814 249.101 315.683 244.649C320.552 240.196 325.421 235.744 335.16 235.744C344.899 235.744 349.769 240.196 354.639 244.649C359.509 249.101 364.379 253.553 374.119 253.553C383.859 253.553 388.729 249.101 393.599 244.649C398.469 240.196 403.339 235.744 413.078 235.744C422.817 235.744 427.686 240.196 432.555 244.649C437.424 249.101 442.293 253.553 452.032 253.553C461.771 253.553 466.64 249.101 471.509 244.649C476.378 240.196 481.247 235.744 490.986 235.744C500.725 235.744 505.595 240.196 510.465 244.649C515.335 249.101 520.205 253.553 529.945 253.553C539.685 253.553 544.555 249.101 549.425 244.649C554.295 240.196 559.165 235.744 568.904 235.744V266.909C559.164 266.909 554.294 271.361 549.424 275.814C544.555 280.266 539.685 284.718 529.945 284.718C520.205 284.718 515.335 280.266 510.465 275.814C505.595 271.361 500.725 266.909 490.986 266.909C481.247 266.909 476.378 271.361 471.509 275.814C466.64 280.266 461.771 284.718 452.032 284.718C442.293 284.718 437.424 280.266 432.555 275.814C427.686 271.361 422.817 266.909 413.078 266.909C403.338 266.909 398.468 271.361 393.598 275.814C388.729 280.266 383.859 284.718 374.119 284.718C364.379 284.718 359.509 280.266 354.639 275.814C349.769 271.361 344.899 266.909 335.16 266.909C325.421 266.909 320.552 271.361 315.683 275.814C310.814 280.266 305.945 284.718 296.206 284.718C286.467 284.718 281.598 280.266 276.729 275.814C271.86 271.361 266.991 266.909 257.252 266.909C247.512 266.909 242.642 271.361 237.772 275.814C232.903 280.266 228.033 284.718 218.293 284.718C208.553 284.718 203.683 280.266 198.813 275.814C193.943 271.361 189.073 266.909 179.334 266.909C169.596 266.909 164.726 271.361 159.857 275.814C154.988 280.266 150.118 284.718 140.38 284.718C130.641 284.718 125.772 280.266 120.903 275.814C116.034 271.361 111.165 266.909 101.426 266.909C91.686 266.909 86.8163 271.361 81.9466 275.814C77.0768 280.266 72.2071 284.718 62.4671 284.718C52.7269 284.718 47.8569 280.266 42.987 275.813C38.1171 271.361 33.2474 266.909 23.5081 266.909C13.7696 266.909 8.90029 271.361 4.03115 275.814C-0.83799 280.266 -5.70733 284.718 -15.4458 284.718C-25.1845 284.718 -30.0538 280.266 -34.9231 275.814C-39.7923 271.361 -44.6614 266.909 -54.3999 266.909V235.744C-44.6614 235.744 -39.7923 240.196 -34.9231 244.649C-30.0538 249.101 -25.1845 253.553 -15.4458 253.553C-5.70733 253.553 -0.83799 249.101 4.03115 244.649Z" fill="var(--flag-palette-light-grey, #f3f3f3)"/>
<path d="M4.03115 307.034C8.90029 302.581 13.7696 298.129 23.5081 298.129C33.2474 298.129 38.1171 302.581 42.987 307.033C47.8569 311.486 52.7269 315.938 62.4671 315.938C72.2073 315.938 77.0772 311.486 81.9472 307.033C86.8171 302.581 91.6868 298.129 101.426 298.129C111.165 298.129 116.034 302.581 120.903 307.034C125.772 311.486 130.641 315.938 140.38 315.938C150.118 315.938 154.988 311.486 159.857 307.034C164.726 302.581 169.596 298.129 179.334 298.129C189.073 298.129 193.943 302.581 198.813 307.034C203.683 311.486 208.553 315.938 218.293 315.938C228.033 315.938 232.903 311.486 237.773 307.034C242.643 302.581 247.513 298.129 257.252 298.129C266.991 298.129 271.86 302.581 276.729 307.034C281.598 311.486 286.467 315.938 296.206 315.938C305.945 315.938 310.814 311.486 315.683 307.034C320.552 302.581 325.421 298.129 335.16 298.129C344.899 298.129 349.769 302.581 354.639 307.034C359.509 311.486 364.379 315.938 374.119 315.938C383.859 315.938 388.729 311.486 393.599 307.034C398.469 302.581 403.339 298.129 413.078 298.129C422.817 298.129 427.686 302.581 432.555 307.034C437.424 311.486 442.293 315.938 452.032 315.938C461.771 315.938 466.64 311.486 471.509 307.034C476.378 302.581 481.247 298.129 490.986 298.129C500.725 298.129 505.595 302.581 510.465 307.034C515.335 311.486 520.205 315.938 529.945 315.938C539.685 315.938 544.555 311.486 549.425 307.034C554.295 302.581 559.165 298.129 568.904 298.129V329.294C559.164 329.294 554.294 333.746 549.424 338.199C544.555 342.651 539.685 347.103 529.945 347.103C520.205 347.103 515.335 342.651 510.465 338.199C505.595 333.746 500.725 329.294 490.986 329.294C481.247 329.294 476.378 333.746 471.509 338.199C466.64 342.651 461.771 347.103 452.032 347.103C442.293 347.103 437.424 342.651 432.555 338.199C427.686 333.746 422.817 329.294 413.078 329.294C403.338 329.294 398.468 333.746 393.598 338.199C388.729 342.651 383.859 347.103 374.119 347.103C364.379 347.103 359.509 342.651 354.639 338.199C349.769 333.746 344.899 329.294 335.16 329.294C325.421 329.294 320.552 333.746 315.683 338.199C310.814 342.651 305.945 347.103 296.206 347.103C286.467 347.103 281.598 342.651 276.729 338.199C271.86 333.746 266.991 329.294 257.252 329.294C247.512 329.294 242.642 333.746 237.772 338.199C232.903 342.651 228.033 347.103 218.293 347.103C208.553 347.103 203.683 342.651 198.813 338.199C193.943 333.746 189.073 329.294 179.334 329.294C169.596 329.294 164.726 333.746 159.857 338.199C154.988 342.651 150.118 347.103 140.38 347.103C130.641 347.103 125.772 342.651 120.903 338.199C116.034 333.746 111.165 329.294 101.426 329.294C91.686 329.294 86.8163 333.746 81.9466 338.199C77.0768 342.651 72.2071 347.103 62.4671 347.103C52.728 347.103 47.8581 342.652 42.9888 338.2C38.1188 333.748 33.2474 329.294 23.5081 329.294C13.7696 329.294 8.90029 333.746 4.03115 338.199C-0.83799 342.651 -5.70733 347.103 -15.4458 347.103C-25.1833 347.103 -30.0526 342.652 -34.9214 338.2C-39.7905 333.748 -44.6614 329.294 -54.3999 329.294V298.129C-44.6614 298.129 -39.7923 302.581 -34.9231 307.034C-30.0538 311.486 -25.1845 315.938 -15.4458 315.938C-5.70733 315.938 -0.83799 311.486 4.03115 307.034Z" fill="var(--flag-palette-light-grey, #f3f3f3)"/>
<path d="M23.5081 360.514C13.7696 360.514 8.90029 364.966 4.03115 369.419C-0.83799 373.871 -5.70733 378.323 -15.4458 378.323C-25.1845 378.323 -30.0538 373.871 -34.9231 369.419C-39.7923 364.966 -44.6614 360.514 -54.3999 360.514V391.679C-44.6614 391.679 -39.7923 396.131 -34.9231 400.583C-30.0538 405.036 -25.1845 409.488 -15.4458 409.488C-5.70733 409.488 -0.83799 405.036 4.03115 400.584C8.90029 396.131 13.7696 391.679 23.5081 391.679C33.2474 391.679 38.1171 396.131 42.987 400.583C47.8569 405.036 52.7269 409.488 62.4671 409.488C72.2071 409.488 77.0768 405.036 81.9466 400.584C86.8163 396.131 91.686 391.679 101.426 391.679C111.165 391.679 116.034 396.131 120.903 400.584C125.772 405.036 130.641 409.488 140.38 409.488C150.118 409.488 154.988 405.036 159.857 400.584C164.726 396.131 169.596 391.679 179.334 391.679C189.073 391.679 193.943 396.131 198.813 400.583C203.683 405.036 208.553 409.488 218.293 409.488C228.033 409.488 232.903 405.036 237.772 400.584C242.642 396.131 247.512 391.679 257.252 391.679C266.991 391.679 271.86 396.131 276.729 400.584C281.598 405.036 286.467 409.488 296.206 409.488C305.945 409.488 310.814 405.036 315.683 400.584C320.552 396.131 325.421 391.679 335.16 391.679C344.899 391.679 349.769 396.131 354.639 400.583C359.509 405.036 364.379 409.488 374.119 409.488C383.859 409.488 388.729 405.036 393.598 400.584C398.468 396.131 403.338 391.679 413.078 391.679C422.817 391.679 427.686 396.131 432.555 400.584C437.424 405.036 442.293 409.488 452.032 409.488C461.771 409.488 466.64 405.036 471.509 400.584C476.378 396.131 481.247 391.679 490.986 391.679C500.725 391.679 505.595 396.131 510.465 400.583C515.335 405.036 520.205 409.488 529.945 409.488C539.685 409.488 544.555 405.036 549.424 400.584C554.294 396.131 559.164 391.679 568.904 391.679V360.514C559.165 360.514 554.295 364.966 549.425 369.419C544.555 373.871 539.685 378.323 529.945 378.323C520.205 378.323 515.335 373.871 510.465 369.418C505.595 364.966 500.725 360.514 490.986 360.514C481.247 360.514 476.378 364.966 471.509 369.419C466.64 373.871 461.771 378.323 452.032 378.323C442.293 378.323 437.424 373.871 432.555 369.419C427.686 364.966 422.817 360.514 413.078 360.514C403.339 360.514 398.469 364.966 393.599 369.419C388.729 373.871 383.859 378.323 374.119 378.323C364.379 378.323 359.509 373.871 354.639 369.418C349.769 364.966 344.899 360.514 335.16 360.514C325.421 360.514 320.552 364.966 315.683 369.419C310.814 373.871 305.945 378.323 296.206 378.323C286.467 378.323 281.598 373.871 276.729 369.419C271.86 364.966 266.991 360.514 257.252 360.514C247.513 360.514 242.643 364.966 237.773 369.419C232.903 373.871 228.033 378.323 218.293 378.323C208.553 378.323 203.683 373.871 198.813 369.418C193.943 364.966 189.073 360.514 179.334 360.514C169.596 360.514 164.726 364.966 159.857 369.419C154.988 373.871 150.118 378.323 140.38 378.323C130.641 378.323 125.772 373.871 120.903 369.419C116.034 364.966 111.165 360.514 101.426 360.514C91.6868 360.514 86.8171 364.966 81.9472 369.418C77.0772 373.871 72.2073 378.323 62.4671 378.323C52.7269 378.323 47.8569 373.871 42.987 369.418C38.1171 364.966 33.2474 360.514 23.5081 360.514Z" fill="var(--flag-palette-light-grey, #f3f3f3)"/>
</g>
<defs>
<clipPath id="clip0_1_2509">
<rect width="512" height="173.744" fill="white" transform="translate(0 235.744)"/>
</clipPath>
</defs>
</svg>