<svg xmlns="http://www.w3.org/2000/svg" width="512" height="512" fill="none"><g clip-path="url(#a)"><path fill="#EEE" d="m228 0 32 211-32 211h-32l-32-211L196 0h32Z"/><path fill="#496E2D" d="M196 0v450H0V0h196Z"/><path fill="#EEE" d="m178 87-31-14-49 112L49 73 18 87l62 138-62 138 31 14 49-112 49 112 31-14-62-138 62-138Z"/><path fill="#EEE" d="M98 80 81 96 65 224l16 130 17 16 17-16 15-131-15-127-17-16Z"/><path fill="#333" d="m154 148-10 76 10 78a159 159 0 0 0 22-77c0-28-10-54-22-77Zm-112 0 9 74-9 80a159 159 0 0 1-22-77c0-28 10-54 22-77Z"/><path fill="#A2001D" d="M42 148v154a269 269 0 0 0 39 52V96c-11 12-26 30-39 52Zm112 0a269 269 0 0 0-39-52v258c11-12 26-30 39-52V148Z"/><path fill="#D80027" d="M512 0v422H228V0h284Z"/><path fill="#333" d="m0 450 86-17 75 8 55-51 41 18 106-56 149 70v90H0v-62Z"/></g><defs><clipPath id="a"><path fill="#fff" d="M0 0h512v512H0z"/></clipPath></defs></svg>