<svg xmlns="http://www.w3.org/2000/svg" width="512" height="512" fill="none"><path fill="#0052B4" d="m0 384 256-64 256 64v128H0V384Z"/><path fill="#D80027" d="m0 256 256-64 256 64v128H0V256Z"/><path fill="#EEE" d="m0 128 256-64 256 64v128H0V128Z"/><path fill="#FFC635" d="M0 0h512v128H0z"/><path fill="#6DA544" d="M0 0v512l256-256L0 0Z"/><path fill="#EEE" d="M67.5 255.3a78 78 0 0 1 61.2-76.1 78 78 0 1 0 0 152.2 78 78 0 0 1-61.2-76.1Z"/><path fill="#EEE" d="m127.9 188.5 4.1 12.7h13.4l-10.8 8 4.1 12.7-10.8-8-10.9 8 4.2-12.8-10.9-7.9h13.4l4.2-12.7Zm0 33.4 4.1 12.7h13.4l-10.8 7.9 4.1 12.8-10.8-8-10.9 8 4.2-12.8-10.9-7.9h13.4L128 222Zm0 33.4L132 268h13.4l-10.8 7.9 4.1 12.8-10.8-8-10.9 8 4.2-12.8-10.9-7.9h13.4l4.2-12.7Z"/><path fill="#EEE" d="m127.9 288.6 4.1 12.8h13.4l-10.8 7.9 4.1 12.7-10.8-7.8L117 322l4.2-12.7-10.9-7.9h13.4l4.2-12.8Z"/></svg>