<svg xmlns="http://www.w3.org/2000/svg" width="513" height="512" fill="none"><path fill="#D80027" d="M513 0v512H1V0h512Z"/><path fill="#6DA544" d="M1 512V0h512L1 512Z"/><path fill="#FFDA44" d="M513 110.2V0H402.8L1 401.8V512h110.2L513 110.2Z"/><path fill="#333" d="M1 449v63h63L513 63V0h-63L1 449Z"/><path fill="#EEE" d="m152.6 308.2 23.9 12.2 19-19-4.2 26.5 23.9 12.2-26.5 4.2-4.2 26.4-12.2-23.9-26.5 4.2 19-19-12.2-23.8Zm156.7-156.7 23.8 12.2 19-19-4.2 26.5 24 12.2-26.6 4.2-4.2 26.5-12.1-23.9-26.5 4.2 19-19-12.2-23.9Z"/></svg>