<svg width="512" height="512" viewBox="0 0 512 512" fill="none" xmlns="http://www.w3.org/2000/svg">
<rect y="136" width="512" height="240" fill="var(--flag-palette-white, #eeeeee)"/>
<rect y="344" width="512" height="168" fill="var(--flag-palette-yellow, #ffda44)"/>
<rect width="512" height="168" fill="var(--flag-palette-bright-red, #d80027)"/>
<path d="M255.999 71.4238L297.439 198.963H431.541L323.05 277.786L364.49 405.325L255.999 326.502L147.508 405.325L188.948 277.786L80.457 198.963H214.559L255.999 71.4238Z" fill="var(--flag-palette-white, #eeeeee)"/>
<path fill-rule="evenodd" clip-rule="evenodd" d="M297.439 198.963L255.999 71.4238L214.559 198.963H80.457L188.948 277.786L147.508 405.325L255.999 326.502L364.49 405.325L323.05 277.786L431.541 198.963H297.439ZM382.299 214.963H285.814L255.999 123.201L226.184 214.963H129.7L207.757 271.675L177.942 363.436L255.999 306.725L334.056 363.436L304.241 271.675L382.299 214.963Z" fill="var(--flag-palette-black, #333333)"/>
</svg>