<svg width="512" height="512" viewBox="0 0 512 512" fill="none" xmlns="http://www.w3.org/2000/svg">
<rect width="512" height="512" fill="var(--flag-palette-light-blue, #338af3)"/>
<path fill-rule="evenodd" clip-rule="evenodd" d="M167.676 258.783H111.304C111.304 278.762 128.705 294.957 148.682 294.957H147.478C147.478 314.936 163.673 331.131 183.652 331.131C183.652 351.11 199.847 367.305 219.826 367.305H292.174C312.153 367.305 328.348 351.11 328.348 331.131C348.327 331.131 364.522 314.936 364.522 294.957H363.318C383.293 294.957 400.696 278.762 400.696 258.783H344.323C327.433 290.253 294.215 311.653 256 311.653C217.784 311.653 184.566 290.253 167.676 258.783Z" fill="var(--flag-palette-yellow, #ffda44)"/>
<path d="M332.515 211.477L301.25 226.184L317.899 256.464L283.949 249.969L279.647 284.265L256 259.04L232.352 284.265L228.051 249.969L194.101 256.462L210.749 226.183L179.485 211.477L210.75 196.771L194.101 166.492L228.05 172.986L232.353 138.69L256 163.915L279.648 138.69L283.949 172.986L317.9 166.492L301.251 196.772L332.515 211.477Z" fill="var(--flag-palette-yellow, #ffda44)"/>
</svg>