<svg xmlns="http://www.w3.org/2000/svg" width="512" height="512" fill="none"><path fill="#FFDA44" d="M0 0h512v512H0z"/><path fill="#FF9811" d="M96 32h96v448H96V32Z"/><path fill="#A2001D" d="M512 32H224v448h288V345l-20.4-22.2h-48.2L423 345v44.6h-44.6v-22.3h22.3v-44.5H300.5v27.8h-22.2v-53a33.3 33.3 0 0 1-11.2-24.9V128c0-18.4 15-33.4 33.4-33.4v206H345l15.3-12.8a53.2 53.2 0 0 1-4.1-20.7v-33.4h-33.4V167h66.8c0-11.2 16.7-22.3 16.7-22.3S423 155.8 423 167v66.7c5.7.1 13 0 21.4 0h31.9a67.5 67.5 0 0 1 13.2-82.9l22.5-17.7V32Z"/><path fill="#6DA544" d="M0 32h96v448H0V32Z"/></svg>