<svg xmlns="http://www.w3.org/2000/svg" width="512" height="512" fill="none"><path fill="#EEE" d="m315.6 209.2 21 29 34-11.1-21 29 21 28.9-34-11.1-21 29V267l-34-11.1 34-11v-35.8Z"/><path fill="#EEE" d="M258.3 328.3a72.3 72.3 0 1 1 34.4-136 89 89 0 1 0 0 127.3 72 72 0 0 1-34.4 8.7Z"/><path fill="#333" d="M512 128v256H0V128z"/><path fill="#496E2D" d="M512 368v144H0V368z"/><path fill="#D80027" d="M512 0v144H0V0z"/><path fill="#EEE" d="m315.6 209.2 21 29 34-11.1-21 29 21 28.9-34-11.1-21 29V267l-34-11.1 34-11v-35.8Z"/><path fill="#EEE" d="M258.3 328.3a72.3 72.3 0 1 1 34.4-136 89 89 0 1 0 0 127.3 72 72 0 0 1-34.4 8.7Z"/></svg>