<svg width="512" height="512" viewBox="0 0 512 512" fill="none" xmlns="http://www.w3.org/2000/svg">
<path d="M315.586 209.187L336.59 238.132L370.607 227.102L349.569 256.022L370.571 284.966L336.567 273.894L315.529 302.814L315.551 267.053L281.545 255.981L315.563 244.951L315.586 209.187Z" fill="var(--flag-palette-white, #eeeeee)"/>
<path d="M258.261 328.348C218.305 328.348 185.913 295.956 185.913 256C185.913 216.044 218.305 183.652 258.261 183.652C270.719 183.652 282.442 186.802 292.676 192.348C276.62 176.647 254.664 166.956 230.435 166.956C181.257 166.956 141.392 206.822 141.392 255.999C141.392 305.176 181.258 345.042 230.435 345.042C254.665 345.042 276.621 335.351 292.676 319.65C282.441 325.198 270.72 328.348 258.261 328.348Z" fill="var(--flag-palette-white, #eeeeee)"/>
<path d="M512 128V384H0L1.11901e-05 128L512 128Z" fill="var(--flag-palette-black, #333333)"/>
<path d="M512 368V512L0 512L6.29444e-06 368L512 368Z" fill="var(--flag-palette-dark-green, #496e2d)"/>
<path d="M512 2.23802e-05V144L0 144L6.29444e-06 0L512 2.23802e-05Z" fill="var(--flag-palette-bright-red, #d80027)"/>
<path d="M315.586 209.187L336.59 238.132L370.607 227.102L349.569 256.022L370.571 284.966L336.567 273.894L315.529 302.814L315.551 267.053L281.545 255.981L315.563 244.951L315.586 209.187Z" fill="var(--flag-palette-white, #eeeeee)"/>
<path d="M258.261 328.348C218.305 328.348 185.913 295.956 185.913 256C185.913 216.044 218.305 183.652 258.261 183.652C270.719 183.652 282.442 186.802 292.676 192.348C276.62 176.647 254.664 166.956 230.435 166.956C181.257 166.956 141.392 206.822 141.392 255.999C141.392 305.176 181.258 345.042 230.435 345.042C254.665 345.042 276.621 335.351 292.676 319.65C282.441 325.198 270.72 328.348 258.261 328.348Z" fill="var(--flag-palette-white, #eeeeee)"/>
</svg>