<svg xmlns="http://www.w3.org/2000/svg" width="512" height="512" fill="none"><path fill="var(--flag-palette-bright-red, #d80027)" d="M0 0h512v512H0z"/><path fill="var(--flag-palette-green, #6da544)" d="M285.2 215.7H380l-76.6 55.7 29.3 90-76.6-55.6-76.6 55.6 29.3-90-76.6-55.7h94.7l29.2-90zm-80.5 111 40-29.1-24.7-18zm62.6-29.1 40 29-15.3-47zM236.4 229l-12.1 37.3 31.7 23 31.7-23-12.1-37.3zm62.6 29.1 40-29h-49.4zm-86 0 9.4-29H173zm27.7-42.3h30.6L256 168.7z"/><path fill="var(--flag-palette-green, #6da544)" d="m285.2 215.7-.9.4.2.6h.7zm94.7 0 .6.9 2.5-1.9h-3.1zm-76.6 55.7-.6-.8-.6.4.3.7zm29.3 90-.6.8 2.5 1.8-1-3zM256 305.8l.6-.9-.6-.4-.6.4zm-76.6 55.6-1-.3-.9 3 2.5-1.9zm29.3-90 1 .3.2-.7-.6-.4zM132 215.7v-1h-3l2.4 1.9zm94.7 0v1h.7l.2-.6zm29.2-90 1-.3-1-2.9-1 3zm-51.3 201-1-.4-1 3 2.6-1.8zm40-29.1.6.8 1.1-.8-1-.9zm-24.7-18 .6-.8-1.2-.8-.4 1.3zm47.3 18-.6-.9-1.1.9 1 .8zm40 29-.6.9 2.5 1.8-1-3zm-15.3-47 1-.3-.4-1.4-1.2.9zM236.4 229v-1h-.7l-.3.7zm-12.1 37.3-1-.3-.2.7.6.4zm31.7 23-.6.9.6.4.6-.4zm31.7-23 .6.8.6-.4-.2-.7zM275.6 229l1-.3-.3-.7h-.7zm23.4 29.1-1 .3.5 1.3 1-.8zm40-29 .6.7 2.5-1.8h-3zm-49.4 0v-1h-1.4l.4 1.2zM213 258l-.6.8 1.1.8.4-1.3zm9.4-29 1 .2.4-1.3h-1.4zm-49.5 0v-1h-3l2.5 1.7zm67.8-13.3-1-.4-.4 1.4h1.4zm30.6 0v1h1.4l-.5-1.4zm-15.3-47 1-.3-1-3-1 3zm29.2 47v1H380v-2h-94.7zm94.7 0-.6-.8-76.6 55.7.6.8.6.8 76.6-55.6zm-76.6 55.7-1 .3 29.3 90 1-.3 1-.3-29.3-90zm29.3 90 .6-.8-76.6-55.7-.6.9-.6.8 76.6 55.6zM256 305.8l-.6-.9-76.6 55.7.6.8.6.8 76.6-55.6zm-76.6 55.6 1 .3 29.2-90-1-.3-.9-.3-29.2 90zm29.3-90 .6-.8-76.6-55.7-.6.8-.6.9 76.6 55.6zM132 215.7v1h94.7v-2H132zm94.7 0 .9.4 29.3-90-1-.4-1-.3-29.2 90zm29.2-90-1 .3 29.3 90 1-.3.9-.3-29.2-90zm-51.3 201 .6.8 40-29.1-.6-.8-.6-.9-40 29.1zm40-29.1.6-.9-24.7-18-.6.9-.6.8 24.7 18zm-24.7-18-1-.3-15.3 47 1 .4 1 .3 15.2-47.1zm47.3 18-.6.8 40 29 .6-.7.6-.9-40-29zm40 29 1-.3-15.3-47-1 .3-1 .3 15.4 47zm-15.3-47-.6-.8-24.7 18 .6.8.6.8 24.7-18zM236.4 229l-1-.3-12 37.3.9.3 1 .3 12-37.3zm-12.1 37.3-.6.8 31.7 23 .6-.8.6-.8-31.7-23zm31.7 23 .6.9 31.7-23-.6-.9-.6-.8-31.7 23zm31.7-23 1-.3-12.1-37.3-1 .3-1 .3 12.2 37.3zM275.6 229v-1h-39.2v2h39.2zm23.4 29.1.6.8 40-29-.5-.9-.6-.8-40 29.1zm40-29v-1h-49.4v2H339zm-49.4 0-1 .2 9.5 29.1.9-.3 1-.3-9.5-29zM213 258l1 .3 9.4-29-1-.4-.9-.3-9.5 29.1zm9.4-29v-1H173v2h49.5zm-49.5 0-.5.7 40 29.1.6-.8.6-.8-40-29zm67.8-13.3v1h30.6v-2h-30.6zm30.6 0 1-.4-15.3-47-1 .3-1 .3 15.3 47zm-15.3-47-1-.3-15.3 47 1 .4 1 .3L257 169z"/></svg>