<svg xmlns="http://www.w3.org/2000/svg" width="512" height="512" fill="none"><path fill="var(--flag-palette-bright-red, #d80027)" d="M0 0h512v512H0z"/><path fill="var(--flag-palette-green, #6da544)" fill-rule="evenodd" d="m285.2 215.7-29.2-90-29.2 90H132l76.6 55.7-29.3 90 76.6-55.6 76.6 55.6-29.3-90 76.6-55.7zm-44.5 0 15.3-47 15.3 47zm34.9 13.3h-39.2l-12.1 37.3 31.7 23 31.7-23zm-53.2 0-9.4 29.1-40-29zm-2.4 50.6-15.3 47 40-29zm47.3 18 24.7-18 15.3 47zM299 258l40-29h-49.4z" clip-rule="evenodd"/><path fill="var(--flag-palette-green, #6da544)" d="m256 125.7 1-.3-1-2.9-1 3zm29.2 90-.9.4.2.6h.7zm-58.4 0v1h.7l.2-.6zm-94.7 0v-1h-3l2.4 1.9zm76.6 55.7 1 .3.2-.7-.6-.4zm-29.3 90-1-.3-.9 3 2.5-1.9zm76.6-55.6.6-.9-.6-.4-.6.4zm76.6 55.6-.6.8 2.5 1.8-1-3zm-29.3-90-.6-.8-.6.4.3.7zm76.6-55.7.6.9 2.5-1.9h-3.1zm-139.2 0-1-.3-.4 1.4h1.4zm15.3-47 1-.3-1-3-1 3zm15.3 47v1h1.4l-.4-1.3zm4.3 13.3 1-.3-.3-.7h-.7zm-39.2 0v-1h-.7l-.3.7zm-12.1 37.3-1-.3-.2.7.6.4zm31.7 23-.6.9.6.4.6-.4zm31.7-23 .6.8.6-.4-.2-.7zm-74.7-8.2-.6.8 1.1.8.4-1.3zm9.4-29 1 .2.4-1.3h-1.4zm-49.5 0v-1h-3l2.5 1.7zm31.8 97.6-1-.4-1 3 2.6-1.8zm15.3-47.1.6-.8-1.2-.8-.4 1.3zm24.7 18 .6.8 1.1-.8-1-.9zm47.3-18 1-.3-.4-1.3-1.2.8zm-24.7 18-.6-.9-1.1.9 1 .8zm40 29-.6.9 2.5 1.8-1-3zm31.8-97.6.5.8 2.5-1.8h-3zM299 258.1l-1 .3.5 1.3 1-.8zm-9.4-29v-1h-1.4l.4 1.2zM255 126l29.3 90 1.9-.7-29.2-90zm-27.3 90 29.3-90-2-.7-29.2 90zm-95.6.6h94.7v-2H132zm77.2 53.9-76.6-55.7-1.2 1.7 76.6 55.6zm-29 91.1 29.3-90-1.9-.6-29.2 90zm75.1-56.7-76.6 55.6 1.2 1.6 76.6-55.6zm77.8 55.6-76.6-55.7-1.2 1.7 76.6 55.6zm-30.8-89 29.2 90.1 2-.6-29.3-90zm77-56.7-76.7 55.7 1.2 1.6 76.6-55.6zm-94.2 1.8H380v-2h-94.7zm-43.5-.6 15.3-47-2-.6-15.2 47zm13.3-47 15.3 47 2-.6-15.3-47zm-14.3 47.8h30.6v-2h-30.6zm34.9 11.2h-39.2v2h39.2zm-50.4 38.6 12.1-37.3-1.9-.6-12 37.3zm31.4 22-31.7-23.1-1.2 1.6 31.7 23zm30.5-23.1-31.7 23 1.2 1.7 31.7-23zm-12.5-36.2 12.2 37.3 1.9-.6-12.1-37.3zM214 258.4l9.5-29-1.9-.7-9.5 29.1zm-41.5-28.6 40 29.1 1.2-1.6-40-29zm50-1.8H173v2h49.5zm-16.8 99 15.3-47.1-1.9-.6-15.3 47zm38.5-30.3-40 29.1 1.2 1.7 40-29.1zm-24.7-16.3 24.7 18 1.2-1.7-24.7-18zm72-1.6-24.7 18 1.2 1.6 24.7-18zm16.9 47.5-15.3-47-2 .6 15.4 47zm-41.6-28 40 29.2 1.2-1.7-40-29zm71.8-70-40 29 1 1.6 40.1-29zm-49 1.7h49.6v-2h-49.6zm10.5 27.8-9.5-29-1.9.5 9.5 29.1z"/></svg>