<svg xmlns="http://www.w3.org/2000/svg" width="512" height="512" fill="none"><path fill="#FFDA44" d="M384 512H128V0h256z"/><path fill="#0052B4" d="M144 512H0V0h144z"/><path fill="#D80027" d="M512 512H368V0h144z"/><path fill="#FF9811" d="M345 201.4h-61.2a27.8 27.8 0 1 0-55.6 0H167a28.2 28.2 0 0 0 28.3 27.4h-1a27.4 27.4 0 0 0 27.5 27.4c0 13.4 9.6 24.5 22.3 27l-21.6 48.7a88.8 88.8 0 0 0 67 0L268 283a27.4 27.4 0 0 0 22.3-26.9 27.4 27.4 0 0 0 27.4-27.4h-.9a28.2 28.2 0 0 0 28.3-27.4Z"/><path fill="#0052B4" d="M256 239.3 219.8 256v33.4l36.2 22.3 36.2-22.3V256L256 239.3Z"/><path fill="#D80027" d="M219.8 222.6h72.4V256h-72.4v-33.4Z"/></svg>