<svg width="512" height="512" viewBox="0 0 512 512" fill="none" xmlns="http://www.w3.org/2000/svg">
<rect width="512" height="512" fill="var(--flag-palette-dark-red, #a2001d)"/>
<rect width="512" height="48" fill="var(--flag-palette-yellow, #ffda44)"/>
<rect y="464" width="512" height="48" fill="var(--flag-palette-yellow, #ffda44)"/>
<path d="M200.349 189.217H311.653V144.696L289.392 155.826L256.001 122.435L222.61 155.826L200.349 144.696V189.217Z" fill="var(--flag-palette-yellow, #ffda44)"/>
<path d="M356.174 256H300.543C302.725 252.226 303.993 247.859 303.993 243.187C303.993 229 292.492 217.501 278.307 217.501C268.506 217.501 259.994 222.993 255.663 231.063C251.332 222.992 242.82 217.501 233.019 217.501C218.834 217.501 207.333 229 207.333 243.187C207.333 247.86 208.603 252.227 210.783 256H155.824C155.824 273.023 170.651 286.822 187.673 286.822H186.647C186.647 300.785 195.934 312.575 208.667 316.362L183.65 341.381L207.261 364.992L240.754 331.499C242.066 331.98 243.423 332.364 244.826 332.628L224.588 378.323C234.286 382.267 244.885 384.456 256 384.456C267.114 384.456 277.713 382.267 287.412 378.323L267.174 332.628C268.576 332.365 269.933 331.98 271.244 331.499L304.737 364.992L328.347 341.381L303.329 316.363C316.061 312.574 325.349 300.786 325.349 286.823H324.322C341.346 286.822 356.174 273.023 356.174 256Z" fill="var(--flag-palette-yellow, #ffda44)"/>
<path d="M256 272.696L219.826 289.391V322.783L256 345.043L292.174 322.783V289.391L256 272.696Z" fill="var(--flag-palette-green, #6da544)"/>
<path d="M219.826 256H292.174V300.522H219.826V256Z" fill="var(--flag-palette-blue, #0052b4)"/>
</svg>