<svg width="512" height="512" viewBox="0 0 512 512" fill="none" xmlns="http://www.w3.org/2000/svg">
<rect width="512" height="512" fill="var(--flag-palette-blue, #0052b4)"/>
<path fill-rule="evenodd" clip-rule="evenodd" d="M512 160L512 0H511.999L0 503.997V511.998L512 160Z" fill="var(--flag-palette-gold, #ff9811)"/>
<path fill-rule="evenodd" clip-rule="evenodd" d="M0 511.998V508.061L5.58821e-05 508L512 128L512 256L0 511.998Z" fill="var(--flag-palette-white, #eeeeee)"/>
<path d="M160 40L170.353 121.363L200 90.718L188.284 131.716L229.282 120L198.637 149.647L280 160L198.637 170.353L229.282 200L188.284 188.284L200 229.282L170.353 198.637L160 280L149.647 198.637L120 229.282L131.716 188.284L90.718 200L121.363 170.353L40 160L121.363 149.647L90.718 120L131.716 131.716L120 90.718L149.647 121.363L160 40Z" fill="var(--flag-palette-white, #eeeeee)"/>
</svg>