<svg xmlns="http://www.w3.org/2000/svg" width="512" height="512" fill="none"><path fill="var(--flag-palette-blue, #0052b4)" d="M0 0h512v512H0z"/><path fill="var(--flag-palette-gold, #ff9811)" fill-rule="evenodd" d="M512 160V0L0 504v8z" clip-rule="evenodd"/><path fill="var(--flag-palette-white, #eeeeee)" fill-rule="evenodd" d="M0 512v-4l512-380v128z" clip-rule="evenodd"/><path fill="var(--flag-palette-white, #eeeeee)" d="m160 40 10.4 81.4L200 90.7l-11.7 41 41-11.7-30.7 29.6L280 160l-81.4 10.4 30.7 29.6-41-11.7 11.7 41-29.6-30.7L160 280l-10.4-81.4-29.6 30.7 11.7-41-41 11.7 30.7-29.6L40 160l81.4-10.4L90.7 120l41 11.7-11.7-41 29.6 30.7z"/></svg>