<svg xmlns="http://www.w3.org/2000/svg" width="512" height="512" fill="none"><path fill="#0052B4" d="M0 0h512v512H0z"/><path fill="#FF9811" fill-rule="evenodd" d="M0 512 512 0v135L0 512Z" clip-rule="evenodd"/><path fill="#EEE" fill-rule="evenodd" d="m0 512 512-377v108L0 512Z" clip-rule="evenodd"/><path fill="#EEE" d="M222.3 150.1 191 164.8l16.7 30.3-34-6.5-4.3 34.3-23.6-25.2-23.7 25.2-4.3-34.3-33.9 6.5 16.6-30.3-31.2-14.7 31.2-14.7L84 105.1l34 6.5 4.2-34.3 23.7 25.3 23.6-25.3 4.3 34.3 34-6.5-16.7 30.3 31.3 14.7Z"/></svg>