<svg width="512" height="512" viewBox="0 0 512 512" fill="none" xmlns="http://www.w3.org/2000/svg">
<rect width="512" height="512" fill="var(--flag-palette-yellow, #ffda44)"/>
<path fill-rule="evenodd" clip-rule="evenodd" d="M219.109 0L243.297 167.856C247.446 167.264 251.687 166.957 256 166.957C260.205 166.957 264.343 167.249 268.393 167.813L291.978 0H447.512L309.342 184.696C316.066 189.735 322.055 195.703 327.117 202.409L512 63.0896V219.11L344.144 243.298C344.736 247.447 345.043 251.688 345.043 256C345.043 260.206 344.751 264.344 344.187 268.394L512 291.979V447.513L327.303 309.342C322.265 316.067 316.297 322.056 309.59 327.117L448.909 512H292.889L268.701 344.144C264.553 344.737 260.312 345.043 256 345.043C251.794 345.043 247.656 344.751 243.605 344.187L220.021 512H64.4867L202.657 327.303C195.933 322.265 189.944 316.297 184.883 309.59L0 448.909V292.89L167.856 268.702C167.264 264.553 166.957 260.312 166.957 256C166.957 251.794 167.249 247.657 167.813 243.606L0 220.022V64.4882L184.696 202.658C189.735 195.934 195.703 189.945 202.409 184.884L63.0892 0H219.109ZM256 322.783C292.884 322.783 322.783 292.883 322.783 256C322.783 219.117 292.884 189.217 256 189.217C219.117 189.217 189.217 219.117 189.217 256C189.217 292.883 219.117 322.783 256 322.783Z" fill="var(--flag-palette-bright-red, #d80027)"/>
</svg>