<svg width="512" height="512" viewBox="0 0 512 512" fill="none" xmlns="http://www.w3.org/2000/svg">
<rect x="376" width="512" height="240" transform="rotate(90 376 0)" fill="var(--flag-palette-blue, #0052b4)"/>
<rect x="168" width="512" height="168" transform="rotate(90 168 0)" fill="var(--flag-palette-dark-red, #a2001d)"/>
<rect x="512" width="512" height="168" transform="rotate(90 512 0)" fill="var(--flag-palette-dark-red, #a2001d)"/>
<path d="M117.393 256H139.654V345.043H117.393V256Z" fill="var(--flag-palette-yellow, #ffda44)"/>
<path d="M28.3477 256H50.6087V345.043H28.3477V256Z" fill="var(--flag-palette-yellow, #ffda44)"/>
<path d="M83.9993 311.653C96.2937 311.653 106.26 301.686 106.26 289.392C106.26 277.097 96.2937 267.131 83.9993 267.131C71.7049 267.131 61.7383 277.097 61.7383 289.392C61.7383 301.686 71.7049 311.653 83.9993 311.653Z" fill="var(--flag-palette-yellow, #ffda44)"/>
<path d="M83.9991 222.609C90.1461 222.609 95.1291 217.626 95.1291 211.479C95.1291 205.332 90.1461 200.349 83.9991 200.349C77.8522 200.349 72.8691 205.332 72.8691 211.479C72.8691 217.626 77.8522 222.609 83.9991 222.609Z" fill="var(--flag-palette-yellow, #ffda44)"/>
<path d="M61.7402 322.783H106.262V345.044H61.7402V322.783Z" fill="var(--flag-palette-yellow, #ffda44)"/>
<path d="M61.7402 233.739H106.262V256H61.7402V233.739Z" fill="var(--flag-palette-yellow, #ffda44)"/>
<path d="M84.0004 133.565L91.8844 157.825H117.392L96.7574 172.819L104.635 197.079L84.0004 182.085L63.3664 197.079L71.2444 172.819L50.6094 157.825H76.1174L84.0004 133.565Z" fill="var(--flag-palette-yellow, #ffda44)"/>
</svg>