<svg xmlns="http://www.w3.org/2000/svg" width="512" height="512" fill="none"><path fill="#0052B4" d="M376 0v512H136V0z"/><path fill="#A2001D" d="M168 0v512H0V0zm344 0v512H344V0z"/><path fill="#FFDA44" d="M116.9 256H139v89h-22v-89Zm-89.1 0h22.3v89H27.8v-89Zm55.7 55.7a22.3 22.3 0 1 0 0-44.6 22.3 22.3 0 0 0 0 44.6Zm0-89.1a11.1 11.1 0 1 0 0-22.3 11.1 11.1 0 0 0 0 22.3ZM61.2 322.8h44.5V345H61.2v-22.2Zm0-89.1h44.5V256H61.2v-22.3Zm22.3-100.1 7.9 24.2h25.5l-20.7 15 8 24.3-20.7-15-20.7 15 8-24.3-20.7-15h25.5l7.9-24.2Z"/></svg>