<svg xmlns="http://www.w3.org/2000/svg" width="512" height="512" fill="none"><path fill="var(--flag-palette-dark-green, #496e2d)" d="M0 0h512v512H0z"/><path fill="var(--flag-palette-white, #eeeeee)" d="M323.2 375.4a111 111 0 0 1-134.4 0zm34.8-44.2q-5.3 12-13.2 22.6H167.2q-7.9-10.5-13.2-22.6zM256 170.6s31.8 23.8 31.8 55.6c0 8-2 15.6-5 22.4q8.3-3.1 17.7-3.3c31.8 0 55.6 31.8 55.7 31.8-.1.1-24 31.8-55.7 31.8C282 309 266 298 256 289c-10 9.1-25.9 20-44.5 20-31.8 0-55.6-31.7-55.7-31.8 0 0 23.9-31.8 55.7-31.8q9.4.1 17.8 3.3c-3-6.8-5.1-14.3-5.1-22.4 0-31.7 31.7-55.6 31.8-55.6"/><path fill="var(--flag-palette-yellow, #ffda44)" d="m256 100.2 6.6 20.2h21.2l-17.2 12.5 6.6 20.2-17.2-12.5-17.2 12.5 6.6-20.2-17.2-12.5h21.2zm-80.8 35.3 12.6 11.4 14.7-8.5-6.9 15.5 12.7 11.4-17-1.8-6.9 15.6-3.5-16.7-17-1.7 14.8-8.5zM116 194.7l16.6 3.5 8.5-14.7 1.8 17 16.6 3.5-15.5 6.9 1.8 16.9-11.4-12.6-15.5 6.9 8.5-14.8zm220.8-59.2L324.2 147l-14.7-8.5 6.9 15.5-12.7 11.4 17-1.8 6.9 15.6 3.5-16.7 17-1.7-14.8-8.5zm59.2 59.2-16.6 3.5-8.5-14.7-1.8 17-16.6 3.5 15.5 6.9-1.8 16.9 11.4-12.6 15.5 6.9-8.5-14.8z"/></svg>