<svg xmlns="http://www.w3.org/2000/svg" width="512" height="512" fill="none"><path fill="var(--flag-palette-blue, #0052b4)" d="M0 0h512v512H0z"/><path fill="var(--flag-palette-white, #eeeeee)" d="M512 288v-64H288V0h-64v224H0v64h224v224h64V288z"/><path fill="var(--flag-palette-white, #eeeeee)" d="M379.1 338.2c6 0 11.6 2 15.7 5h12.4a38 38 0 0 1 0 76H394a6 6 0 0 0-6.2 6h.1a6 6 0 0 0 6.3 6.2h51v31.7H394a38 38 0 0 1 0-75.8h13.2a6.2 6.2 0 0 0 0-12.4h-28.5c-12.6 0-22.6-8.3-22.6-18.3s10.3-18.4 22.9-18.4m-289.4 0c6.1 0 11.6 2 15.7 5h12.4a38 38 0 0 1 0 76h-13.2a6 6 0 0 0-6.2 6h.1a6 6 0 0 0 6.3 6.2h51v31.7h-51.1a38 38 0 0 1 0-75.8H118a6.2 6.2 0 1 0 0-12.4H89.4c-12.6 0-22.6-8.3-22.6-18.3s10.3-18.4 23-18.4M379.1 49c6 0 11.6 2 15.7 5h12.4a38 38 0 0 1 0 75.9H394a6 6 0 0 0-6.2 6h.1a6 6 0 0 0 6.3 6.3h51v31.7H394a38 38 0 0 1 0-75.8h13.2a6.2 6.2 0 1 0 0-12.4h-28.5c-12.6-.1-22.6-8.3-22.6-18.3S366.4 49 379 49M89.6 49c6.1 0 11.6 2 15.7 5h12.4a38 38 0 0 1 0 75.9h-13.2a6 6 0 0 0-6.2 6h.1a6 6 0 0 0 6.3 6.3h51v31.7h-51.1a38 38 0 0 1 0-75.8H118a6.2 6.2 0 1 0 0-12.4H89.4c-12.6-.1-22.6-8.3-22.6-18.3S77.1 49 89.8 49"/></svg>