<svg xmlns="http://www.w3.org/2000/svg" width="512" height="512" fill="none"><g clip-path="url(#a)"><path fill="#0052B4" d="M0 0h512v512H0z"/><path fill="#EEE" d="M512 288v-64H288V0h-64v224H0v64h224v224h64V288h224Z"/><path fill="#EEE" fill-rule="evenodd" d="M100.3 131.5a6.2 6.2 0 0 0-1.9 4.4h.1a6.2 6.2 0 0 0 6.3 6.2h51v31.7h-51.1a38 38 0 0 1 0-75.8H118a6.2 6.2 0 0 0 0-12.4H89.4c-12.6-.1-22.6-8.3-22.6-18.3 0-10.1 10.3-18.4 22.9-18.4 6.1 0 11.6 2 15.7 5h12.4a38 38 0 0 1 0 75.9h-13.2c-1.6 0-3.2.6-4.3 1.7Zm287.5 4.4a6.2 6.2 0 0 1 6.2-6.1h13.2a38 38 0 0 0 0-76h-12.4c-4.1-3-9.6-5-15.7-5-12.6 0-23 8.4-23 18.5 0 10 10 18.2 22.7 18.3h28.5a6.2 6.2 0 1 1 0 12.4h-13.2a38 38 0 0 0 0 75.8h51V142h-51a6.2 6.2 0 0 1-6.2-6.2h-.1Zm-287.5 285a6.2 6.2 0 0 0-1.9 4.3h.1a6.2 6.2 0 0 0 6.3 6.2h51v31.7h-51.1a38 38 0 0 1 0-75.8H118a6.2 6.2 0 0 0 0-12.4H89.4c-12.6 0-22.6-8.3-22.6-18.3s10.3-18.4 22.9-18.4c6.1 0 11.6 2 15.7 5h12.4a38 38 0 0 1 0 76h-13.2c-1.6 0-3.2.6-4.3 1.7Zm289.3 0a6.2 6.2 0 0 0-1.8 4.3 6.2 6.2 0 0 0 6.4 6.2h51v31.7H394a38 38 0 0 1 0-75.8h13.2a6.2 6.2 0 1 0 0-12.4h-28.5c-12.6 0-22.6-8.3-22.6-18.3s10.3-18.4 22.9-18.4c6 0 11.6 2 15.7 5h12.4a38 38 0 0 1 0 76H394c-1.6 0-3.2.6-4.4 1.7Z" clip-rule="evenodd"/></g><defs><clipPath id="a"><path fill="#fff" d="M0 0h512v512H0z"/></clipPath></defs></svg>