<svg xmlns="http://www.w3.org/2000/svg" width="512" height="512" fill="none"><path fill="var(--flag-palette-navy, #002266)" d="M0 0h512v512H0z"/><g clip-path="url(#a)"><path fill="var(--flag-palette-navy, #002266)" d="M0 0h256v256H0z"/><path fill="var(--flag-palette-white, #eeeeee)" d="M232 256h24v-24L152 128 256 24V0h-24L128 104 24 0H0v24l104 104L0 232v24h24l104-104z"/><path fill="var(--flag-palette-white, #eeeeee)" d="M256 160V96h-96V0H96v96H0v64h96v96h64v-96z"/><path fill="var(--flag-palette-bright-red, #d80027)" d="M256 144v-32H144V0h-32v112H0v32h112v112h32V144z"/><path fill="var(--flag-palette-bright-red, #d80027)" d="M0 16V0l96 96H80zm256 224v16l-96-96h16zM16 256H0l96-96v16zM240 0h16l-96 96V80z"/></g><path fill="var(--flag-palette-light-blue, #338af3)" d="M306 155.8v122.5c0 59.6 78 77.9 78 77.9s78-18.3 78-78V155.9z"/><path fill="var(--flag-palette-dark-red, #a2001d)" d="M306 278.3c0 59.6 78 77.9 78 77.9s78-18.3 78-78z"/><path fill="var(--flag-palette-black, #333333)" d="M417.4 211.5h-22.3v-22.3H373v22.3h-22.3v22.2H373v66.8h22v-66.8h22.3z"/><defs><clipPath id="a"><path fill="#fff" d="M0 0h512v512H0z"/></clipPath></defs></svg>