<svg xmlns="http://www.w3.org/2000/svg" width="512" height="512" fill="none"><path fill="#0052B4" d="M0 0h512v512H0z"/><path fill="#EEE" d="M0 0h256v256H0z"/><path fill="#0052B4" d="m66.8 114 142 142h-142V114ZM256 208.8v-142H114l142 142Z"/><path fill="#D80027" d="M256 0H0v256h33.4V33.4H256V0Z"/><path fill="#D80027" d="M256 224.5 98.3 66.8H66.8L256 256v-31.5Z"/><path fill="#338AF3" d="M306 155.8v122.5c0 59.6 78 77.9 78 77.9s78-18.3 78-78V155.9H306Z"/><path fill="#A2001D" d="M306 278.3c0 59.6 78 77.9 78 77.9s78-18.3 78-78H306Z"/><path fill="#333" d="M417.4 211.5h-22.3v-22.3H373v22.3h-22.3v22.2H373v66.8h22v-66.8h22.3v-22.2Z"/></svg>