<svg xmlns="http://www.w3.org/2000/svg" width="512" height="512" fill="none"><path fill="#EEE" d="M384 512H128V0h256z"/><path fill="var(--flag-palette-dark-green, #496e2d)" d="M144 512H0V0h144z"/><path fill="var(--flag-palette-bright-red, #d80027)" d="M512 512H368V0h144z"/><path fill="var(--flag-palette-dark-yellow, #ffc635)" d="M256 277v10h12l10-22z"/><path fill="var(--flag-palette-dark-green, #496e2d)" d="M160 242a96 96 0 1 0 192 0h-11a85 85 0 1 1-170 0zm39 17-4 2c-2 2-2 6 1 8 15 14 34 22 54 24v17h12v-17c20-2 39-10 54-24 3-2 3-6 1-8s-6-2-8 0a78 78 0 0 1-53 21c-19 0-38-8-53-21z"/><path fill="var(--flag-palette-light-blue, #338af3)" d="M256 316c-14 0-28-5-40-13l6-9c20 13 48 13 68 0l7 9c-12 8-26 13-41 13"/><path fill="var(--flag-palette-dark-brown, #584528)" d="M256 174c22 11 12 33 11 34l-2-4c-5-11-18-18-31-18v11c6 0 11 5 11 11-7 7-9 17-4 26l4 8-13 23 29-7 18 18v-11l11 11 23-11-35-21-5-21 28 16c4 11 12 21 23 26 9-83-42-91-61-91z"/><path fill="var(--flag-palette-green, #6da544)" d="M222 271c-15 0-33-12-38-40l11-2c4 23 18 31 27 31q4.5 0 6-3c0-2 0-3-6-5-3-1-7-2-10-5-10-12 4-24 11-30 1-1 2-2 1-3 0 0-2-2-5-2-7 0-12-4-14-11-2-6 2-13 8-17l5 11c-2 0-2 2-2 4 0 0 1 2 3 2 7 0 14 4 16 9 1 3 2 9-5 15-7 7-11 12-9 15l5 1c5 2 14 5 13 17-1 8-8 13-17 13"/><path fill="var(--flag-palette-dark-yellow, #ffc635)" fill-rule="evenodd" d="m234 186-12 11v11l18-9c3-1 3-5 1-7zm-62 97a8 8 0 1 0 0-16 8 8 0 0 0 0 16m25 19a8 8 0 1 1-16 0 8 8 0 0 1 16 0m19 29a8 8 0 1 0 0-16 8 8 0 0 0 0 16m89-8a8 8 0 1 1-16 0 8 8 0 0 1 16 0m19-13a8 8 0 1 0 0-16 8 8 0 0 0 0 16m25-35a8 8 0 1 1-16 0 8 8 0 0 1 16 0" clip-rule="evenodd"/><path fill="var(--flag-palette-gold, #ff9811)" d="M262 299h-12a11 11 0 0 0 0 22h12a11 11 0 0 0 0-22"/></svg>