<svg xmlns="http://www.w3.org/2000/svg" width="512" height="512" fill="none"><path fill="#EEE" d="M384 512H128V0h256z"/><path fill="#496E2D" d="M144 512H0V0h144z"/><path fill="#D80027" d="M512 512H368V0h144z"/><path fill="#FFDA44" d="M256 277v10h12l10-22-22 12Z"/><path fill="#496E2D" d="M160 242a96 96 0 1 0 192 0h-11a85 85 0 1 1-170 0h-11Zm39 17-4 2c-2 2-2 6 1 8 15 14 34 22 54 24v17h12v-17c20-2 39-10 54-24 3-2 3-6 1-8s-6-2-8 0a78 78 0 0 1-53 21c-19 0-38-8-53-21l-4-2Z"/><path fill="#338AF3" d="M256 316c-14 0-28-5-40-13l6-9c20 13 48 13 68 0l7 9c-12 8-26 13-41 13Z"/><path fill="#584528" d="M256 174c22 11 12 33 11 34l-2-4c-5-11-18-18-31-18v11c6 0 11 5 11 11-7 7-9 17-4 26l4 8-13 23 29-7 18 18v-11l11 11 23-11-35-21-5-21 28 16c4 11 12 21 23 26 9-83-42-91-61-91h-7Z"/><path fill="#6DA544" d="M222 271c-15 0-33-12-38-40l11-2c4 23 18 31 27 31 3 0 5-1 6-3 0-2 0-3-6-5-3-1-7-2-10-5-10-12 4-24 11-30 1-1 2-2 1-3 0 0-2-2-5-2-7 0-12-4-14-11-2-6 2-13 8-17l5 11c-2 0-2 2-2 4 0 0 1 2 3 2 7 0 14 4 16 9 1 3 2 9-5 15-7 7-11 12-9 15l5 1c5 2 14 5 13 17-1 8-8 13-17 13Z"/><path fill="#FFDA44" d="m234 186-12 11v11l18-9c3-1 3-5 1-7l-7-6Zm-62 97a8 8 0 1 0 0-16 8 8 0 0 0 0 16Zm17 27a8 8 0 1 0 0-16 8 8 0 0 0 0 16Zm27 21a8 8 0 1 0 0-16 8 8 0 0 0 0 16Zm81 0a8 8 0 1 0 0-16 8 8 0 0 0 0 16Zm27-21a8 8 0 1 0 0-16 8 8 0 0 0 0 16Zm17-27a8 8 0 1 0 0-16 8 8 0 0 0 0 16Z"/><path fill="#FF9811" d="M262 299h-12a11 11 0 0 0 0 22h12a11 11 0 0 0 0-22Z"/></svg>