<svg xmlns="http://www.w3.org/2000/svg" width="512" height="512" fill="none"><path fill="#EEE" d="M0 0h512v512H0z"/><path fill="#D80027" d="M0 122.4V55.7h512v66.7H0ZM0 256v-66.8h512V256H0Zm0 133.6v-66.8h512v66.8H0ZM0 512h512v-55.7H0V512Z"/><path fill="#0052B4" d="M0 0h256v256H0z"/><path fill="#FFDA44" d="M84 128a63.3 63.3 0 0 0 93.5 55.7 78 78 0 1 1 0-111.4A63.3 63.3 0 0 0 84 128Z"/><path fill="#FFDA44" d="m176.5 107-11.3-23.5L154 107l-25.4-5.9 11.4 23.5-20.5 16.1 25.5 5.8-.1 26 20.3-16.3 20.3 16.3v-26l25.4-5.8-20.4-16.1 11.3-23.5-25.3 5.9Z"/></svg>