<svg width="512" height="512" viewBox="0 0 512 512" fill="none" xmlns="http://www.w3.org/2000/svg">
<rect width="512" height="512" fill="var(--flag-palette-white, #eeeeee)"/>
<path d="M0 122.435V55.6523H512V122.435H0Z" fill="var(--flag-palette-bright-red, #d80027)"/>
<path d="M0 256.001V189.218H512V256.001H0Z" fill="var(--flag-palette-bright-red, #d80027)"/>
<path d="M0 389.565V322.782H512V389.565H0Z" fill="var(--flag-palette-bright-red, #d80027)"/>
<path d="M0 512H512V456.348H0V512Z" fill="var(--flag-palette-bright-red, #d80027)"/>
<rect width="256" height="256" fill="var(--flag-palette-blue, #0052b4)"/>
<path d="M84.0732 127.999C84.0732 162.96 112.415 191.303 147.377 191.303C158.279 191.303 168.535 188.546 177.49 183.696C163.442 197.433 144.23 205.913 123.029 205.913C80.0002 205.913 45.1162 171.03 45.1162 128C45.1162 84.9699 80.0002 50.0869 123.029 50.0869C144.23 50.0869 163.442 58.5669 177.49 72.3039C168.535 67.4519 158.278 64.6949 147.377 64.6949C112.416 64.6949 84.0732 93.0379 84.0732 127.999Z" fill="var(--flag-palette-yellow, #ffda44)"/>
<path d="M176.454 106.98L165.215 83.4775L153.975 106.98L128.592 101.116L139.959 124.555L119.547 140.742L144.961 146.471L144.891 172.522L165.215 156.224L185.538 172.522L185.467 146.471L210.881 140.742L190.469 124.555L201.835 101.116L176.454 106.98Z" fill="var(--flag-palette-yellow, #ffda44)"/>
</svg>