<svg xmlns="http://www.w3.org/2000/svg" width="512" height="512" fill="none"><path fill="#EEE" d="M0 0h512v512H0z"/><path fill="#496E2D" d="M0 0h512v156.8H0z"/><path fill="#FFDA44" d="M0 354.3h512V512H0z"/><path fill="#333" d="M0 188.3h512v135.4H0z"/><path fill="#A2001D" d="M0 0v512l256-256L0 0Z"/><path fill="#FFDA44" d="m92.9 182 16.6 51.2h53.7l-43.5 31.5 16.6 51.1L93 284.2l-43.5 31.6 16.6-51-43.4-31.6h53.7L92.9 182Z"/><path fill="#EEE" d="M44.4 248.9h97v44.5h-97v-44.5Z"/><path fill="#333" d="M159.8 197.8 144 182.1l-51 51.1-51.2-51.1L26 197.8 77.2 249 26 300.1l15.7 15.5 51.2-51 51.1 51 15.8-15.5-51.2-51.2 51.2-51Z"/></svg>