<svg xmlns="http://www.w3.org/2000/svg" width="513" height="512" fill="none"><path fill="#496E2D" d="M513 0v512H1V0h512Z"/><path fill="#0052B4" d="M1 512V0h512L1 512Z"/><path fill="#EEE" d="M513 112V0H401L1 400v112h112l400-400Z"/><path fill="#A2001D" d="M1 448v64h64L513 64V0h-64L1 448Z"/><path fill="#FFDA44" fill-rule="evenodd" d="M118.7 45.7 129.9 76a43.3 43.3 0 0 0-22.4 0l11.2-30.3Zm30.5 41.5A42.9 42.9 0 0 0 130 76l24.8-20.6-5.5 31.8Zm0 0 31.8-5.5-20.6 24.8c-2-7.4-5.9-14-11.2-19.3Zm12.7 30.5c0-3.9-.5-7.6-1.5-11.2l30.3 11.2-30.3 11.2c1-3.6 1.5-7.3 1.5-11.2Zm-12.7 30.6c5.3-5.3 9.2-12 11.2-19.4l20.6 24.8-31.8-5.4Zm0 0 5.5 31.8-24.8-20.7a44 44 0 0 0 19.3-11.1Zm-30.5 12.6a42 42 0 0 0 11.2-1.5l-11.2 30.3-11.2-30.3c3.6 1 7.3 1.5 11.2 1.5ZM88 148.3c5.3 5.2 12 9.2 19.4 11.1l-24.8 20.7 5.4-31.8Zm-11-19.4c2 7.4 6 14 11.2 19.4l-31.8 5.4L77 129Zm-1.4-11.2c0 3.9.5 7.6 1.4 11.2l-30.2-11.2L77 106.5c-1 3.6-1.4 7.3-1.4 11.2ZM88 87.2c-5 5.2-9 11.8-11 19.3L56.3 81.7l31.8 5.5ZM107.5 76a44 44 0 0 0-19.4 11.2l-5.4-31.8L107.5 76Zm11.2 77.7a36 36 0 1 0 0-72 36 36 0 0 0 0 72Z" clip-rule="evenodd"/></svg>