<svg xmlns="http://www.w3.org/2000/svg" width="512" height="512" fill="none"><path fill="#496E2D" d="M512 0v512H0V0z"/><path fill="#0052B4" d="M0 512V0h512z"/><path fill="#EEE" d="M512 112V0H400L0 400v112h112z"/><path fill="#A2001D" d="M0 448v64h64L512 64V0h-64z"/><path fill="#FFDA44" fill-rule="evenodd" d="M117.7 45.7 128.9 76a43 43 0 0 0-22.4 0zm30.5 41.5q-8-8-19.3-11.2l24.8-20.6zm0 0 31.8-5.5-20.6 24.8q-3.1-11.2-11.2-19.3m12.7 30.5q0-5.8-1.5-11.2l30.3 11.2-30.3 11.2q1.5-5.4 1.5-11.2m-12.7 30.6q8-8.1 11.2-19.4l20.6 24.8zm0 0 5.5 31.8-24.8-20.7q11.2-3.2 19.3-11.1m-30.5 12.6q5.8 0 11.2-1.5l-11.2 30.3-11.2-30.3q5.4 1.5 11.2 1.5M87 148.3c5.3 5.2 12 9.2 19.4 11.1l-24.8 20.7zm-11-19.4q3.2 11.2 11.2 19.4l-31.8 5.4zm-1.4-11.2q0 5.8 1.4 11.2l-30.2-11.2L76 106.5q-1.5 5.4-1.4 11.2M87 87.2c-5 5.2-9 11.8-11 19.3L55.3 81.7zM106.5 76Q95.3 79 87 87.2l-5.4-31.8zm11.2 77.7a36 36 0 1 0 0-72 36 36 0 0 0 0 72" clip-rule="evenodd"/></svg>