<svg xmlns="http://www.w3.org/2000/svg" width="512" height="512" fill="none"><path fill="var(--flag-palette-white, #eeeeee)" d="M512 128v256H0V128z"/><path fill="var(--flag-palette-light-blue, #338af3)" d="M512 368v144H0V368zm0-368v144H0V0z"/><path fill="var(--flag-palette-dark-yellow, #ffc635)" d="M256 178a78 78 0 1 0 0 156 78 78 0 0 0 0-156m0 122.5a44.5 44.5 0 1 1 0-89 44.5 44.5 0 0 1 0 89"/><path fill="var(--flag-palette-blue, #0052b4)" d="M294.6 267.1 256 256l-38.6 11.1-12.8 22.3h102.8z"/><path fill="var(--flag-palette-light-blue, #338af3)" d="M256 200.3 230.3 245l25.7 11 25.7-11.1z"/><path fill="var(--flag-palette-green, #6da544)" d="M217.4 267.1h77.2L281.7 245h-51.4z"/></svg>