<svg xmlns="http://www.w3.org/2000/svg" width="512" height="512" fill="none"><path fill="#EEE" d="M512 122.4v267.1H0v-267z"/><path fill="#338AF3" d="M512 367.3V512H0V367.3zM512 0v144.7H0V0z"/><path fill="#FFC635" d="M256 178a78 78 0 1 0 0 156 78 78 0 0 0 0-156Zm0 122.5a44.5 44.5 0 1 1 0-89 44.5 44.5 0 0 1 0 89Z"/><path fill="#0052B4" d="M294.6 267.1 256 256l-38.6 11.1-12.8 22.3h102.8L294.6 267Z"/><path fill="#338AF3" d="M256 200.3 230.3 245l25.7 11 25.7-11.1-25.7-44.6Z"/><path fill="#6DA544" d="M217.4 267.1h77.2L281.7 245h-51.4l-12.9 22Z"/></svg>