<svg xmlns="http://www.w3.org/2000/svg" width="512" height="512" fill="none"><g clip-path="url(#a)"><path fill="#0052B4" d="M0 0h512v512H0z"/><path fill="#EEE" d="M0 334V200.4L311.6 512H178.1L0 334Zm445.1 178L0 66.9V0h66.7L512 445.3V512h-66.9ZM512 178.1v133.7L200.2 0H334l178 178.1Z"/><path fill="#D80027" d="M263.2 212.4a23.2 23.2 0 0 0-33.7.7 49 49 0 0 0 70.1 68.6 23.2 23.2 0 0 0-32.8-33 2.6 2.6 0 0 1-3.6 0 2.6 2.6 0 0 1 0-3.5 23.2 23.2 0 0 0 0-32.8Zm-129-129.1a23.2 23.2 0 0 0-33.8.7 49 49 0 0 0 70.1 68.6 23.2 23.2 0 0 0-32.8-33 2.6 2.6 0 0 1-3.6 0 2.6 2.6 0 0 1 0-3.5 23.2 23.2 0 0 0 0-32.8Zm258.1 258.2a23.2 23.2 0 0 0-33.7.7 49 49 0 0 0 70.1 68.6 23.2 23.2 0 0 0-32.8-33 2.6 2.6 0 0 1-3.6 0 2.6 2.6 0 0 1 0-3.5 23.2 23.2 0 0 0 0-32.8ZM64.4 282.2a23.2 23.2 0 0 0-33 0l-.7.7a49 49 0 1 0 70.1 68.6A23.3 23.3 0 0 0 68 318.6a2.6 2.6 0 0 1-3.6 0 2.6 2.6 0 0 1 0-3.7 23.2 23.2 0 0 0 0-32.7Zm129.1 129.1a23.3 23.3 0 0 0-33.7.8 49 49 0 0 0 70.1 68.5 23.2 23.2 0 0 0-32.8-32.9 2.6 2.6 0 0 1-3.6 0 2.6 2.6 0 0 1 0-3.6 23.2 23.2 0 0 0 0-32.8Zm267.3-267.2a23.2 23.2 0 0 0-33 0l-.7.6a49 49 0 1 0 70 68.7 23.3 23.3 0 0 0-32.7-33 2.6 2.6 0 0 1-3.6 0 2.6 2.6 0 0 1 0-3.7 23.2 23.2 0 0 0 0-32.6ZM331.7 15a23.2 23.2 0 0 0-33.7.7 49 49 0 0 0 70 68.6 23.2 23.2 0 1 0-32.7-33 2.6 2.6 0 0 1-3.6 0 2.6 2.6 0 0 1 0-3.7 23.2 23.2 0 0 0 0-32.6Z"/></g><defs><clipPath id="a"><path fill="#fff" d="M0 0h512v512H0z"/></clipPath></defs></svg>