<svg width="512" height="512" viewBox="0 0 512 512" fill="none" xmlns="http://www.w3.org/2000/svg">
<rect width="512" height="512" fill="var(--flag-palette-blue, #0052b4)"/>
<path d="M0 333.964V200.37L311.63 512H178.106L0 333.964Z" fill="var(--flag-palette-white, #eeeeee)"/>
<path d="M445.124 512L0 66.8762V0H66.7471L512 445.253V512H445.124Z" fill="var(--flag-palette-white, #eeeeee)"/>
<path d="M512 178.135V311.759L200.241 0H333.865L512 178.135Z" fill="var(--flag-palette-white, #eeeeee)"/>
<path fill-rule="evenodd" clip-rule="evenodd" d="M334.797 20.13C332.746 18.0719 330.308 16.4388 327.625 15.3246C324.941 14.2103 322.064 13.6367 319.159 13.6367C316.253 13.6367 313.376 14.2103 310.693 15.3246C308.009 16.4388 305.572 18.0719 303.521 20.13C303.27 20.3695 303.025 20.6149 302.785 20.8659C294.601 29.7087 290.159 41.3776 290.392 53.4245C290.624 65.4714 295.514 76.9601 304.034 85.4801C312.554 94.0001 324.042 98.8894 336.089 99.1222C348.136 99.355 359.805 94.9132 368.648 86.7286C368.899 86.4891 369.144 86.2438 369.384 85.9927C371.46 83.9395 373.109 81.4948 374.234 78.7999C375.359 76.1051 375.939 73.2139 375.939 70.2936C375.939 67.3733 375.359 64.4821 374.234 61.7873C373.109 59.0925 371.46 56.6477 369.384 54.5945C365.246 50.4752 359.646 48.1625 353.807 48.1625C347.969 48.1625 342.368 50.4752 338.231 54.5945C337.772 55.0439 337.156 55.2957 336.514 55.2957C335.872 55.2957 335.255 55.0439 334.797 54.5945C334.347 54.136 334.095 53.5195 334.095 52.8774C334.095 52.2353 334.347 51.6188 334.797 51.1603C338.879 47.0281 341.168 41.4536 341.168 35.6452C341.168 29.8367 338.879 24.2622 334.797 20.13ZM457.446 142.779C455.395 140.721 452.958 139.088 450.274 137.974C447.591 136.86 444.714 136.286 441.808 136.286C438.903 136.286 436.026 136.86 433.342 137.974C430.659 139.088 428.221 140.721 426.17 142.779C425.921 142.978 425.675 143.183 425.434 143.393C421.102 147.717 417.663 152.853 415.315 158.506C412.968 164.16 411.756 170.22 411.751 176.342C411.739 188.705 416.639 200.566 425.373 209.317C434.107 218.067 445.959 222.989 458.323 223.001C470.686 223.012 482.547 218.112 491.297 209.378C491.548 209.139 491.794 208.893 492.033 208.642C494.091 206.591 495.724 204.154 496.839 201.471C497.953 198.787 498.526 195.91 498.526 193.004C498.526 190.099 497.953 187.222 496.839 184.538C495.724 181.855 494.091 179.418 492.033 177.367C487.896 173.247 482.295 170.935 476.457 170.935C470.618 170.935 465.018 173.247 460.88 177.367C460.422 177.816 459.805 178.068 459.163 178.068C458.521 178.068 457.905 177.816 457.446 177.367C457.205 177.137 457.013 176.862 456.881 176.556C456.75 176.25 456.682 175.921 456.682 175.588C456.682 175.255 456.75 174.926 456.881 174.62C457.013 174.315 457.205 174.039 457.446 173.81C461.528 169.678 463.817 164.103 463.817 158.295C463.817 152.486 461.528 146.912 457.446 142.779ZM140.494 91.6217C138.443 89.5636 136.006 87.9305 133.322 86.8163C130.639 85.702 127.762 85.1284 124.856 85.1284C121.95 85.1284 119.073 85.702 116.39 86.8163C113.706 87.9305 111.269 89.5636 109.218 91.6217C108.967 91.8612 108.722 92.1066 108.482 92.3576C100.298 101.2 95.856 112.869 96.0888 124.916C96.3216 136.963 101.211 148.452 109.731 156.972C118.251 165.492 129.74 170.381 141.786 170.614C153.833 170.847 165.502 166.405 174.345 158.22C174.596 157.981 174.841 157.735 175.081 157.484C177.139 155.433 178.772 152.996 179.886 150.313C181.001 147.629 181.574 144.752 181.574 141.847C181.574 138.941 181.001 136.064 179.886 133.38C178.772 130.697 177.139 128.26 175.081 126.209C170.944 122.09 165.343 119.777 159.505 119.777C153.666 119.777 148.065 122.09 143.928 126.209C143.469 126.658 142.853 126.91 142.211 126.91C141.569 126.91 140.952 126.658 140.494 126.209C140.044 125.75 139.793 125.134 139.793 124.492C139.793 123.85 140.044 123.233 140.494 122.775C144.613 118.637 146.926 113.037 146.926 107.198C146.926 101.36 144.613 95.7591 140.494 91.6217ZM263.143 214.271C261.092 212.213 258.655 210.58 255.972 209.466C253.288 208.351 250.411 207.778 247.505 207.778C244.6 207.778 241.723 208.351 239.039 209.466C236.356 210.58 233.919 212.213 231.868 214.271C231.617 214.511 231.371 214.756 231.132 215.007C222.947 223.85 218.505 235.519 218.738 247.566C218.971 259.613 223.86 271.101 232.38 279.621C240.9 288.141 252.389 293.031 264.436 293.263C276.483 293.496 288.152 289.054 296.994 280.87C297.246 280.63 297.491 280.385 297.73 280.134C299.789 278.083 301.422 275.646 302.536 272.962C303.65 270.279 304.224 267.402 304.224 264.496C304.224 261.59 303.65 258.713 302.536 256.03C301.422 253.346 299.789 250.909 297.73 248.858C293.593 244.739 287.992 242.426 282.154 242.426C276.316 242.426 270.715 244.739 266.577 248.858C266.119 249.308 265.502 249.559 264.86 249.559C264.218 249.559 263.602 249.308 263.143 248.858C262.694 248.4 262.442 247.783 262.442 247.141C262.442 246.499 262.694 245.883 263.143 245.424C267.263 241.287 269.575 235.686 269.575 229.848C269.575 224.009 267.263 218.408 263.143 214.271ZM378.621 332.115C381.304 333.229 383.742 334.862 385.793 336.92C389.912 341.058 392.225 346.659 392.225 352.497C392.225 358.335 389.912 363.936 385.793 368.073C385.343 368.532 385.091 369.148 385.091 369.791C385.091 370.433 385.343 371.049 385.793 371.508C386.251 371.957 386.868 372.209 387.51 372.209C388.152 372.209 388.768 371.957 389.227 371.508C393.364 367.388 398.965 365.076 404.803 365.076C410.642 365.076 416.242 367.388 420.38 371.508C422.438 373.559 424.071 375.996 425.185 378.679C426.299 381.363 426.873 384.24 426.873 387.145C426.873 390.051 426.299 392.928 425.185 395.612C424.071 398.295 422.438 400.732 420.38 402.783C420.14 403.034 419.895 403.28 419.644 403.519C410.801 411.704 399.132 416.145 387.085 415.913C375.038 415.68 363.55 410.791 355.03 402.271C346.51 393.751 341.62 382.262 341.388 370.215C341.155 358.168 345.597 346.499 353.781 337.656C354.021 337.405 354.266 337.16 354.517 336.92C356.568 334.862 359.005 333.229 361.689 332.115C364.372 331.001 367.249 330.427 370.155 330.427C373.06 330.427 375.938 331.001 378.621 332.115ZM60.3442 282.539C63.0276 283.653 65.4648 285.286 67.5158 287.344C71.5979 291.477 73.887 297.051 73.887 302.86C73.887 308.668 71.5979 314.242 67.5158 318.375C67.2746 318.604 67.0825 318.88 66.9512 319.185C66.82 319.491 66.7523 319.82 66.7523 320.153C66.7523 320.486 66.82 320.815 66.9512 321.121C67.0825 321.427 67.2746 321.702 67.5158 321.931C67.9743 322.381 68.5908 322.633 69.2329 322.633C69.875 322.633 70.4914 322.381 70.95 321.931C75.0874 317.812 80.6881 315.499 86.5265 315.499C92.3648 315.499 97.9655 317.812 102.103 321.931C104.161 323.983 105.794 326.42 106.908 329.103C108.023 331.787 108.596 334.664 108.596 337.569C108.596 340.475 108.023 343.352 106.908 346.035C105.794 348.719 104.161 351.156 102.103 353.207C101.863 353.458 101.618 353.704 101.367 353.943C92.6168 362.677 80.7555 367.577 68.3923 367.566C56.0291 367.554 44.1769 362.632 35.443 353.882C26.7091 345.131 21.8088 333.27 21.8203 320.907C21.8318 308.544 26.7541 296.692 35.5043 287.958C35.7451 287.748 35.9905 287.543 36.2402 287.344C38.2912 285.286 40.7284 283.653 43.4118 282.539C46.0953 281.425 48.9724 280.851 51.878 280.851C54.7836 280.851 57.6607 281.425 60.3442 282.539ZM182.994 405.188C185.677 406.303 188.114 407.936 190.165 409.994C194.285 414.131 196.597 419.732 196.597 425.57C196.597 431.409 194.285 437.009 190.165 441.147C189.716 441.605 189.464 442.222 189.464 442.864C189.464 443.506 189.716 444.122 190.165 444.581C190.624 445.03 191.24 445.282 191.882 445.282C192.524 445.282 193.141 445.03 193.599 444.581C197.737 440.462 203.337 438.149 209.176 438.149C215.014 438.149 220.615 440.462 224.752 444.581C226.81 446.632 228.443 449.069 229.558 451.753C230.672 454.436 231.246 457.313 231.246 460.219C231.246 463.124 230.672 466.001 229.558 468.685C228.443 471.368 226.81 473.805 224.752 475.856C224.513 476.108 224.267 476.353 224.016 476.592C215.174 484.777 203.505 489.219 191.458 488.986C179.411 488.753 167.922 483.864 159.402 475.344C150.882 466.824 145.993 455.335 145.76 443.288C145.527 431.241 149.969 419.572 158.154 410.73C158.393 410.479 158.639 410.233 158.89 409.994C160.941 407.936 163.378 406.303 166.061 405.188C168.745 404.074 171.622 403.5 174.527 403.5C177.433 403.5 180.31 404.074 182.994 405.188Z" fill="var(--flag-palette-bright-red, #d80027)"/>
</svg>