<svg xmlns="http://www.w3.org/2000/svg" width="512" height="512" fill="none"><g clip-path="url(#a)"><path fill="#0052B4" d="M0 0h512v512H0z"/><path fill="#EEE" d="M0 334V200.4L311.6 512H178.1L0 334Zm445.1 178L0 66.9V0h66.7L512 445.3V512h-66.9ZM512 178.1v133.7L200.2 0H334l178 178.1Z"/><path fill="#D80027" fill-rule="evenodd" d="M334.8 20.1a22 22 0 0 0-32 .8 46.6 46.6 0 0 0 66.6 65 22 22 0 1 0-31.2-31.3 2.5 2.5 0 0 1-3.4 0 2.5 2.5 0 0 1 0-3.4 22 22 0 0 0 0-31Zm122.6 122.7a22 22 0 0 0-31.2 0l-.8.6a46.6 46.6 0 1 0 66.6 65.2 22 22 0 0 0-31.1-31.2 2.5 2.5 0 0 1-3.5 0 2.5 2.5 0 0 1-.5-2.8l.5-.8a22 22 0 0 0 0-31Zm-317-51.2a22 22 0 0 0-32 .8 46.6 46.6 0 0 0 66.7 65 22 22 0 0 0-31.2-31.2 2.5 2.5 0 0 1-3.4 0 2.5 2.5 0 0 1 0-3.4 22 22 0 0 0 0-31.2Zm122.7 122.7a22 22 0 0 0-32 .7 46.6 46.6 0 0 0 66.6 65.1 22 22 0 0 0-31.1-31.2 2.4 2.4 0 0 1-3.5 0 2.5 2.5 0 0 1 0-3.5 22 22 0 0 0 0-31.1ZM378.6 332a22 22 0 0 1 7.2 36 2.5 2.5 0 0 0 0 3.4 2.5 2.5 0 0 0 3.4 0 22 22 0 1 1 30.4 32 46.6 46.6 0 0 1-65-66.6 22 22 0 0 1 24-4.8ZM60.3 282.5a22 22 0 0 1 6.7 36.7 2.5 2.5 0 0 0 .5 2.7 2.5 2.5 0 0 0 3.5 0 22 22 0 1 1 30.4 32 46.6 46.6 0 1 1-65.2-66.6 22 22 0 0 1 24.1-4.8ZM183 405.2a22 22 0 0 1 7.2 36 2.5 2.5 0 0 0 0 3.4 2.5 2.5 0 0 0 3.4 0 22 22 0 1 1 30.4 32 46.6 46.6 0 0 1-65-66.6 22 22 0 0 1 24-4.8Z" clip-rule="evenodd"/></g><defs><clipPath id="a"><path fill="#fff" d="M0 0h512v512H0z"/></clipPath></defs></svg>