<svg xmlns="http://www.w3.org/2000/svg" width="512" height="512" fill="none"><path fill="var(--flag-palette-bright-red, #d80027)" fill-rule="evenodd" d="M448 288 0 0v512h480L240 288z" clip-rule="evenodd"/><path fill="var(--flag-palette-blue, #0052b4)" fill-rule="evenodd" d="M448 288 0 0v512h480L240 288zm-39 196L169 260h183.7L28 51.3V484z" clip-rule="evenodd"/><path fill="var(--flag-palette-white, #eeeeee)" d="m211.5 378-31.3-14.7L197 333l-34 6.5-4.3-34.3-23.6 25.2-23.7-25.2-4.3 34.3-34-6.5 16.7 30.3L58.4 378l31.3 14.7L73.1 423l34-6.5 4.2 34.3 23.7-25.2 23.6 25.2 4.3-34.3 34 6.5-16.7-30.3z"/><path fill="var(--flag-palette-white, #eeeeee)" fill-rule="evenodd" d="m163.1 186 19.5 9.2h9.5a57.2 57.2 0 1 1-114.3 0h9.5l19.5-9.2-10.4-18.8 21.2 4 2.6-21.3 14.8 15.7 14.7-15.7 2.7 21.3 21.1-4z" clip-rule="evenodd"/></svg>