<svg width="512" height="512" viewBox="0 0 512 512" fill="none" xmlns="http://www.w3.org/2000/svg">
<path fill-rule="evenodd" clip-rule="evenodd" d="M448 288L0 0V64V288V512H480L240 288H448Z" fill="var(--flag-palette-bright-red, #d80027)"/>
<path fill-rule="evenodd" clip-rule="evenodd" d="M448 288L0 0V512H480L240 288H448ZM408.963 484L168.963 260H352.665L28 51.2866V484H408.963Z" fill="var(--flag-palette-blue, #0052b4)"/>
<path d="M211.472 377.992L180.207 363.286L196.856 333.007L162.906 339.502L158.604 305.204L134.957 330.429L111.31 305.204L107.007 339.502L73.0577 333.006L89.7067 363.286L58.4407 377.992L89.7067 392.697L73.0577 422.977L107.009 416.483L111.309 450.779L134.957 425.554L158.604 450.779L162.906 416.483L196.855 422.978L180.206 392.699L211.472 377.992Z" fill="var(--flag-palette-white, #eeeeee)"/>
<path fill-rule="evenodd" clip-rule="evenodd" d="M163.14 186.028L182.611 195.186L182.61 195.186H192.14C192.14 226.768 166.538 252.37 134.956 252.37C103.374 252.37 77.772 226.768 77.772 195.186H87.3053L87.3045 195.186L106.777 186.028L96.4074 167.171L117.551 171.216L120.231 149.855L134.958 165.565L149.685 149.855L152.364 171.216L173.508 167.171L163.14 186.028Z" fill="var(--flag-palette-white, #eeeeee)"/>
</svg>