<svg xmlns="http://www.w3.org/2000/svg" width="512" height="512" fill="none"><g clip-path="url(#a)"><path fill="#FFDA44" d="M0 0h512v512H0z"/><path fill="#EEE" d="M0 0h256v256H0z"/><path fill="#0052B4" d="m66.8 114 142 142h-142V114ZM256 208.8v-142H114l142 142Z"/><path fill="#D80027" d="M256 0H0v256h33.4V33.4H256V0Z"/><path fill="#D80027" d="M256 224.5 98.3 66.8H66.8L256 256v-31.5Z"/><circle r="73.9" fill="#0052B4"/><path fill="#FFDA44" d="m0-74 16.6 51.2h53.7L26.9 8.7l16.5 51.1L0 28.2l-43.4 31.6 16.5-51-43.4-31.6h53.7L0-74Zm161.4 40.6 7.5 23h24.3L173.5 4l7.5 23-19.6-14.2L141.8 27l7.5-23-19.7-14.3H154l7.5-23.1ZM0 128l7.5 23h24.3L12 165.5l7.5 23L0 174.2l-19.6 14.2 7.5-23-19.7-14.3h24.3L0 128Z"/></g><defs><clipPath id="a"><path fill="#fff" d="M0 0h512v512H0z"/></clipPath></defs></svg>