<svg xmlns="http://www.w3.org/2000/svg" width="512" height="512" fill="none"><g clip-path="url(#a)"><path fill="#FFDA44" d="M0 0h512v512H0z"/><g clip-path="url(#b)"><path fill="#0052B4" d="M-256-256h512v512h-512z"/><path fill="#EEE" d="M208 256h48v-48L48 0l208-208v-48h-48L0-48l-208-208h-48v48L-48 0l-208 208v48h48L0 48l208 208Z"/><path fill="#EEE" d="M256 64V-64H64v-192H-64v192h-192V64h192v192H64V64h192Z"/><path fill="#D80027" d="M256 32v-64H32v-224h-64v224h-224v64h224v224h64V32h224Z"/><path fill="#D80027" d="M256 224v32L64 64h32l160 160Z"/></g><circle r="73.9" fill="#0052B4"/><path fill="#FFDA44" d="m0-74 16.6 51.2h53.7L26.9 8.7l16.5 51.1L0 28.2l-43.4 31.6 16.5-51-43.4-31.6h53.7L0-74Zm161.4 40.6 7.5 23h24.3L173.5 4l7.5 23-19.6-14.2L141.8 27l7.5-23-19.7-14.3H154l7.5-23.1ZM0 128l7.5 23h24.3L12 165.5l7.5 23L0 174.2l-19.6 14.2 7.5-23-19.7-14.3h24.3L0 128Z"/></g><defs><clipPath id="a"><path fill="#fff" d="M0 0h512v512H0z"/></clipPath><clipPath id="b"><path fill="#fff" d="M0 0h512v512H0z"/></clipPath></defs></svg>