<svg width="512" height="512" viewBox="0 0 512 512" fill="none" xmlns="http://www.w3.org/2000/svg">
<rect width="512" height="512" fill="var(--flag-palette-navy, #002266)"/>
<rect width="256" height="256" fill="var(--flag-palette-navy, #002266)"/>
<path d="M232 256H256V232L152 128L256 24V0H232L128 104L24 0H0V24L104 128L0 232V256H24L128 152L232 256Z" fill="var(--flag-palette-white, #eeeeee)"/>
<path d="M256 160V96H160V0H96V96H0V160H96V256H160V160H256Z" fill="var(--flag-palette-white, #eeeeee)"/>
<path d="M256 144V112H144V0H112V112H0V144H112V256H144V144H256Z" fill="var(--flag-palette-bright-red, #d80027)"/>
<path d="M0 16V0L96 96H80L0 16Z" fill="var(--flag-palette-bright-red, #d80027)"/>
<path d="M256 240L256 256L160 160L176 160L256 240Z" fill="var(--flag-palette-bright-red, #d80027)"/>
<path d="M16 256L0 256L96 160L96 176L16 256Z" fill="var(--flag-palette-bright-red, #d80027)"/>
<path d="M240 -6.99382e-07L256 0L160 96L160 80L240 -6.99382e-07Z" fill="var(--flag-palette-bright-red, #d80027)"/>
<path d="M451.356 200.349L456.881 217.355H474.762L460.296 227.865L465.822 244.87L451.356 234.361L436.889 244.87L442.415 227.865L427.948 217.355H445.829L451.356 200.349Z" fill="var(--flag-palette-bright-red, #d80027)"/>
<path fill-rule="evenodd" clip-rule="evenodd" d="M451.356 189.994L459.206 214.155H484.611L464.058 229.087L471.909 253.247L451.356 238.316L430.802 253.247L438.653 229.087L418.099 214.155H443.504L451.356 189.994ZM451.355 210.704L448.154 220.555H437.797L446.177 226.643L442.976 236.493L451.356 230.406L459.735 236.493L456.534 226.643L464.913 220.555H454.556L451.355 210.704Z" fill="var(--flag-palette-white, #eeeeee)"/>
<path d="M387.437 322.782L395.726 348.292H422.547L400.847 364.056L409.137 389.565L387.437 373.8L365.737 389.565L374.027 364.056L352.327 348.292H379.148L387.437 322.782Z" fill="var(--flag-palette-bright-red, #d80027)"/>
<path fill-rule="evenodd" clip-rule="evenodd" d="M387.437 312.428L398.051 345.093H432.396L404.609 365.279L415.224 397.944L387.437 377.756L359.649 397.944L370.265 365.279L342.477 345.093H376.823L387.437 312.428ZM387.437 333.138L381.473 351.493H362.176L377.789 362.834L371.824 381.188L387.437 369.845L403.049 381.188L397.085 362.834L412.697 351.493H393.401L387.437 333.138Z" fill="var(--flag-palette-white, #eeeeee)"/>
<path d="M389.851 122.436L396.759 143.695H419.11L401.026 156.83L407.934 178.088L389.851 164.949L371.769 178.088L378.676 156.83L360.594 143.695H382.944L389.851 122.436Z" fill="var(--flag-palette-bright-red, #d80027)"/>
<path fill-rule="evenodd" clip-rule="evenodd" d="M389.85 112.08L399.084 140.494H428.961L404.788 158.052L414.021 186.466L389.851 168.904L365.682 186.466L374.914 158.052L350.744 140.494H380.619L389.85 112.08ZM389.851 132.791L385.269 146.894H370.444L382.438 155.607L377.856 169.709L389.851 160.993L401.846 169.709L397.264 155.607L409.259 146.894H394.434L389.851 132.791Z" fill="var(--flag-palette-white, #eeeeee)"/>
<path d="M328.348 199.606L336.636 225.116H363.458L341.758 240.88L350.048 266.389L328.348 250.624L306.648 266.389L314.938 240.88L293.238 225.116H320.059L328.348 199.606Z" fill="var(--flag-palette-bright-red, #d80027)"/>
<path fill-rule="evenodd" clip-rule="evenodd" d="M328.348 189.251L338.961 221.917H373.307L345.52 242.103L356.135 274.767L328.348 254.58L300.56 274.767L311.176 242.103L283.388 221.917H317.734L328.348 189.251ZM328.348 209.962L322.384 228.317H303.087L318.7 239.658L312.735 258.012L328.348 246.669L343.96 258.012L337.996 239.658L353.608 228.317H334.311L328.348 209.962Z" fill="var(--flag-palette-white, #eeeeee)"/>
</svg>