<svg xmlns="http://www.w3.org/2000/svg" width="512" height="512" fill="none"><g clip-path="url(#a)"><path fill="#FF9811" d="m0 160 256-32 256 32v192l-256 32L0 352z"/><path fill="#EEE" d="m0 160 256-32 256 32v32H0z"/><path fill="#338AF3" d="M0 0h512v160H0z"/><path fill="#EEE" d="m0 352 256 32 256-32v-32H0z"/><path fill="#6DA544" d="M0 352h512v160H0z"/><path fill="#EEE" d="M256 416a160 160 0 1 0 0-320 160 160 0 0 0 0 320"/><path fill="#338AF3" d="M256 384a128 128 0 1 0 0-256 128 128 0 0 0 0 256"/><path fill="#FF9811" d="M207 139v68h-68l49 49-49 49h68v68l49-49 49 49v-68h68l-49-49 49-49h-68v-68l-49 49z"/></g><defs><clipPath id="a"><path fill="#fff" d="M0 0h512v512H0z"/></clipPath></defs></svg>