<svg xmlns="http://www.w3.org/2000/svg" width="512" height="512" fill="none"><path fill="var(--flag-palette-white, #eeeeee)" d="M512 128v256H0V128z"/><path fill="var(--flag-palette-bright-red, #d80027)" d="M512 368v144H0V368zm0-368v144H0V0z"/><path fill="var(--flag-palette-dark-yellow, #ffc635)" d="M345 256c0 49.2-39.8 78-89 78s-89-28.8-89-78a89 89 0 1 1 178 0"/><path fill="var(--flag-palette-blue, #0052b4)" d="M345 256a89 89 0 1 1-178 0"/><path fill="var(--flag-palette-bright-red, #d80027)" fill-rule="evenodd" d="M267.1 200.3H245v78h22zm-66.8 33.4h22.3v44.6h-22.3zm89 0h22.4v44.6h-22.3z" clip-rule="evenodd"/></svg>