<svg xmlns="http://www.w3.org/2000/svg" width="512" height="512" fill="none"><path fill="var(--flag-palette-dark-red, #a2001d)" d="M0 0h512v512H0z"/><path fill="var(--flag-palette-black, #333333)" d="M512 512H0V0z"/><path fill="var(--flag-palette-white, #eeeeee)" d="m179.6 361 4.2 12.8h13.4l-10.9 7.9 4.2 12.7-10.9-7.8-10.8 7.8 4.1-12.7-10.8-7.9h13.4zm-34.2-122.4 6.9 21.3h22.3l-18 13.1 6.9 21.3-18.1-13.2-18 13.2 6.8-21.3-18-13.1h22.3zm0 155.8 6.9 21.3h22.3l-18 13.1 6.9 21.3-18.1-13.2-18 13.2 6.8-21.3-18-13.1h22.3zm65.3-100.1 7 21.2H240l-18 13.2 6.8 21.2-18-13.1-18.1 13.1 6.9-21.2-18.1-13.2h22.3zm-130.7 0 7 21.2h22.3l-18 13.2 6.8 21.2-18-13.1L62 349.9l6.9-21.2-18.1-13.2H73z"/><path fill="var(--flag-palette-yellow, #ffda44)" d="M444.5 173.6a66 66 0 0 0-42.2-19.4L450 117a89 89 0 0 0-69.5-25.8 67 67 0 0 0-17-29.3l-19 37.8a27.8 27.8 0 1 0-37.8 37.8L269 156.4a66 66 0 0 0 29.3 17 89 89 0 0 0 25.8 69.5l41.7-53.7a16.6 16.6 0 0 1 23.6.1 16.6 16.6 0 0 1 0 23.6l15.7 15.8a39 39 0 0 0 3.7-50.9q11.1 3 20 11.5a44.6 44.6 0 0 1 0 63l15.7 15.7a66.4 66.4 0 0 0 0-94.4"/></svg>