<svg xmlns="http://www.w3.org/2000/svg" width="512" height="512" fill="none"><path fill="var(--flag-palette-gold, #ff9811)" d="M0 0h224l32 88-32 88-96 32L0 176z"/><path fill="var(--flag-palette-white, #eeeeee)" d="m0 224 256-32 256 32v48l-32 24 32 24v48l-32 24 32 24v48l-256 32L0 464v-48l32-24-32-24v-48l32-24-32-24z"/><path fill="var(--flag-palette-dark-green, #496e2d)" d="M224 0v176H0v48h512V0zM0 272v48h512v-48zm0 96v48h512v-48zm0 96v48h512v-48z"/><path fill="var(--flag-palette-white, #eeeeee)" fill-rule="evenodd" d="M376.2 165.7c20.6 0 39.3-8.5 52.7-22.1a80.5 80.5 0 1 1-97.8-110 73.7 73.7 0 0 0 45.1 132.1m11.3-97.1L370 76l18.4 4.4L390 100l10.3-16.7L420 88l-13.4-15L417 56l-18.6 7.9L386 50z" clip-rule="evenodd"/></svg>