<svg xmlns="http://www.w3.org/2000/svg" width="512" height="512" fill="none"><g clip-path="url(#a)"><path fill="#FF9811" d="M0 0h224l32 88-32 88-96 32L0 176V0Z"/><path fill="#EEE" d="m0 224 256-32 256 32v48l-32 24 32 24v48l-32 24 32 24v48l-256 32L0 464v-48l32-24-32-24v-48l32-24-32-24v-48Z"/><path fill="#496E2D" d="M224 0v176H0v48h512V0H224ZM0 272v48h512v-48H0Zm0 96v48h512v-48H0Zm0 96v48h512v-48H0Z"/><path fill="#EEE" d="M355.6 190.7a80.5 80.5 0 1 0 0-161 80.5 80.5 0 0 0 0 161Z"/><path fill="#496E2D" d="M376.2 165.7a73.8 73.8 0 1 0 0-147.6 73.8 73.8 0 0 0 0 147.6Z"/><path fill="#EEE" d="m370 76 47-20-27 44-4-50 34 38-50-12Z"/></g><defs><clipPath id="a"><path fill="#fff" d="M0 0h512v512H0z"/></clipPath></defs></svg>