<svg xmlns="http://www.w3.org/2000/svg" width="512" height="512" fill="none"><g clip-path="url(#a)"><path fill="#FF9811" d="M0 0h224l32 88-32 88-96 32L0 176V0Z"/><path fill="#EEE" d="m0 224 256-32 256 32v48l-32 24 32 24v48l-32 24 32 24v48l-256 32L0 464v-48l32-24-32-24v-48l32-24-32-24v-48Z"/><path fill="#496E2D" d="M224 0v176H0v48h512V0H224ZM0 272v48h512v-48H0Zm0 96v48h512v-48H0Zm0 96v48h512v-48H0Z"/><path fill="#EEE" fill-rule="evenodd" d="M376.2 165.7c20.6 0 39.3-8.5 52.7-22.1a80.5 80.5 0 1 1-97.8-110 73.7 73.7 0 0 0 45.1 132.1Zm11.3-97.1L370 76l18.4 4.4L390 100l10.3-16.7L420 88l-13.4-15L417 56l-18.6 7.9L386 50l1.5 18.6Z" clip-rule="evenodd"/></g><defs><clipPath id="a"><path fill="#fff" d="M0 0h512v512H0z"/></clipPath></defs></svg>