<svg xmlns="http://www.w3.org/2000/svg" width="512" height="512" fill="none"><path fill="var(--flag-palette-dark-green, #496e2d)" d="M0 0h512v512H0z"/><path fill="var(--flag-palette-white, #eeeeee)" d="M367.9 204.6A127 127 0 0 1 396 284c0 72.9-62.7 132-140 132s-140-59.1-140-132a127 127 0 0 1 28.1-79.4A102 102 0 0 0 134 249c0 61.3 54.6 111 122 111s122-49.7 122-111q-.2-23.9-10.1-44.4m-175.1-57.9c2 4.4 3.1 9.6 3 13.8 2.6-1.5 10.5-5 12.8-5.5-.1 5.8-1.9 12-4.7 16 6-.7 11.2.3 15.7 2-9.6 13-20.4 14.8-34 10.8a26 26 0 0 1-2.7 12.5 31 31 0 0 1 15.8-.3c-6.8 12.6-17.9 18.5-31 15.7q3 6.1 2.3 13 6.6-5 14.6-6.1c-3.9 16-12.3 22-23.4 26.6 3.6 1.5 7.8 10.3 8.1 11.4q3.9-7.3 10.7-11.7c4.2 13 1.5 25.2-8.9 32.5 1.4-.7 8 4.8 9.2 6.5q.8-8 5.4-14.8c8.7 10.2 11 22.4 4.5 33q5 1.4 9 4.4-.7-8.1 2.6-15.6c9.5 7.4 13.7 22.4 10.7 31.4q5.8 0 10.9 2.2-2.7-7.7-1.2-15.8c13.5 6.5 19.5 17.4 17.2 30.9l9.7 4-4.7 2.2-6.4-3.6c-13.6 6.5-26.6 6.5-36.4-2 4-2.8 8.8-5 13-5.6a26 26 0 0 1-6.1-7.5c-12.6 6.3-26.3 1.3-34-10.2 4.5-2 9.7-2.9 13.9-2.5a26 26 0 0 1-4.1-8.3c-13.5 1.5-26-4.3-30.3-16.6 4.8-1 10.1-1 14.1.1-.9-1.2-2.5-9.7-2.6-10.8-14.2-4.4-22.2-12.6-22.6-27.2 4.8.9 9.7 3 13 5.5.2-2.7 1.4-10.2 2-11.8a30 30 0 0 1-9.8-36 31 31 0 0 1 9.5 10.4c-.4-1 4.3-8.6 6.8-9.9a29 29 0 0 1 4-36c2.6 4 4.5 9 4.9 13.2 1.4-3 7.8-5.8 10-6.7-3.4-14.4-2.7-24.6 9.5-33.6m126.4 0c12.2 9 12.9 19.2 9.5 33.6 2.3.9 8.6 3.7 10 6.7.4-4.2 2.3-9.2 4.9-13.2 9.3 9.2 11.7 24 4 36 2.5 1.3 7.2 8.9 6.8 9.9a31 31 0 0 1 9.5-10.4 30 30 0 0 1-9.8 36q1.5 5.8 2 11.8c3.3-2.5 8.2-4.6 13-5.5-.4 14.6-8.4 22.8-22.6 27.2-.1 1.1-1.7 9.6-2.6 10.8 4-1.1 9.3-1.1 14.1-.1-4.3 12.3-16.8 18.1-30.3 16.6q-1.3 4.5-4.1 8.3 7.3-.3 13.9 2.5c-7.7 11.5-21.4 16.5-34 10.2a26 26 0 0 1-6.1 7.5c4.2.6 9 2.8 13 5.6-9.8 8.5-22.8 8.5-36.4 2l-6.4 3.6-4.7-2.2 9.7-4c-2.3-13.5 3.7-24.4 17.2-30.9q1.5 8-1.2 15.8 5.1-2.2 10.9-2.2c-3-9 1.2-24 10.7-31.4a31 31 0 0 1 2.6 15.6q4-3 9-4.4c-6.5-10.6-4.2-22.8 4.5-33q4.7 6.7 5.4 14.8c1.3-1.7 7.8-7.2 9.2-6.5-10.4-7.3-13-19.5-8.9-32.5q6.8 4.5 10.7 11.7c.3-1.1 4.5-9.9 8.1-11.4-11.1-4.6-19.5-10.6-23.4-26.6q8.1 1.1 14.6 6.1-.7-6.9 2.3-13c-13.1 2.8-24.2-3.1-31-15.7a31 31 0 0 1 15.8.3 26 26 0 0 1-2.7-12.5c-13.6 4-24.4 2.2-34-10.8 4.5-1.7 9.7-2.7 15.7-2-2.8-4-4.6-10.2-4.7-16a77 77 0 0 1 12.8 5.5c-.1-4.2 1-9.4 3-13.8m-62.4 2.8c.3 8.6 4.7 15 11.3 21s15.3 11.1 24.1 17.1a96 96 0 0 1 24 21.5 55 55 0 0 1 10.7 34.6c0 14.3-4.4 25.2-11 34a99 99 0 0 1-24.2 21.2c-8.8 6-17.5 11.2-24 17.2a32 32 0 0 0-10 15.2q-.7 3-.9 6.4h-1.5q-.3-3.4-1-6.5a32 32 0 0 0-10-15.1c-6.5-6-15.2-11.2-24-17.2a99 99 0 0 1-24.2-21.3 54 54 0 0 1-11.1-34 55 55 0 0 1 10.8-34.5 96 96 0 0 1 24-21.6c8.7-5.9 17.5-11.1 24.1-17s11-12.4 11.3-20.9zm5.8-31.7h29l-23 15.3 9 23.4-22.3-14.7h-.1l-22 14.6 8.3-24-21.2-14.6h26.2l7.6-22.2z"/></svg>