<svg xmlns="http://www.w3.org/2000/svg" width="512" height="512" fill="none"><path fill="var(--flag-palette-light-blue, #338af3)" d="M0 0h512v512H0z"/><path fill="var(--flag-palette-white, #eeeeee)" d="M0 146h170.7v220H0z"/><path fill="var(--flag-palette-bright-red, #d80027)" d="M170.7 0H0v170.7h170.7z"/><path fill="var(--flag-palette-green, #6da544)" d="M170.7 22.4V0h-21.4L0 148.3v22.4h21.3z"/><path fill="var(--flag-palette-green, #6da544)" d="M0 22.4V0h21.3l149.4 148.3v22.4h-21.4z"/><path fill="var(--flag-palette-white, #eeeeee)" d="M0 68.3h170.7v34.1H0z"/><path fill="var(--flag-palette-white, #eeeeee)" d="M68.3 0h34.1v170.7H68.3z"/><path fill="var(--flag-palette-bright-red, #d80027)" d="M0 512h170.7V341.3H0z"/><path fill="var(--flag-palette-yellow, #ffda44)" d="M119.5 375.5H51.2a17 17 0 1 0 0 34.1h68.3a17 17 0 1 0 0-34.1m0 68.2H51.2a17 17 0 0 0 0 34.2h68.3a17 17 0 1 0 0-34.2M345 155.1v145h-36.7c-22 0-22-29.4-22-29.4h-88V300h18.3l134.8 29.4 133-29.4v-22H411s0 22-22 22h-29.3V155.1z"/><path fill="var(--flag-palette-yellow, #ffda44)" d="M359.7 147.8V177c-28.5-10-56 7.4-73.4-29.3 30.3 21 46.8-9.2 73.4 0m-66 42.2s-22 22-14.7 66h-66s29.3-51.4 80.6-66m14.6 95.4h87.1c-28.4-44 0-95.4 0-95.4h-87s-36.8 51.3 0 95.4m92.6-22a88 88 0 0 1 3.7-58.8h57.8s-14.7 29.4-1 58.7zM308.3 300h176.1s-7.3 0-14.7 22-14.6 44-51.3 44h-132c-35.9 0-47.8-45.8-69.8-66z"/></svg>