<svg xmlns="http://www.w3.org/2000/svg" width="512" height="512" fill="none"><path fill="#0052B4" d="M0 0h512v512H0z"/><path fill="#EEE" d="M0 0h256v256H0z"/><path fill="#0052B4" d="m66.8 114 142 142h-142V114ZM256 208.8v-142H114l142 142Z"/><path fill="#D80027" d="M256 0H0v256h33.4V33.4H256V0Z"/><path fill="#D80027" d="M256 224.5 98.3 66.8H66.8L256 256v-31.5Z"/><path fill="#ACABB1" d="M417.4 183.6 384 194.8l-33.4-11.2-11.1-27.8 11.1-27.8h66.8l-11.1 27.8 11.1 27.8Z"/><path fill="#338AF3" d="M306 183.6v122.5c0 59.6 78 78 78 78s78-18.4 78-78V183.6H306Z"/><path fill="#6DA544" d="M313.1 335.1c19.2 36.8 71 49 71 49s51.7-12.2 70.8-49l-70.9-118-70.9 118Z"/><path fill="#FFDA44" d="m462 304.9-78-121.3L306 305v1.2a62 62 0 0 0 7.1 29l71-110.3 70.8 110.3a62 62 0 0 0 7-29V305Z"/></svg>