<svg xmlns="http://www.w3.org/2000/svg" width="512" height="512" fill="none"><path fill="#0052B4" d="M0 0h512v512H0z"/><g clip-path="url(#a)"><path fill="#0052B4" d="M-256-256h512v512h-512z"/><path fill="#EEE" d="M208 256h48v-48L48 0l208-208v-48h-48L0-48l-208-208h-48v48L-48 0l-208 208v48h48L0 48l208 208Z"/><path fill="#EEE" d="M256 64V-64H64v-192H-64v192h-192V64h192v192H64V64h192Z"/><path fill="#D80027" d="M256 32v-64H32v-224h-64v224h-224v64h224v224h64V32h224Z"/><path fill="#D80027" d="M256 224v32L64 64h32l160 160Z"/></g><path fill="#ACABB1" d="M417.4 183.6 384 194.8l-33.4-11.2-11.1-27.8 11.1-27.8h66.8l-11.1 27.8 11.1 27.8Z"/><path fill="#338AF3" d="M306 183.6v122.5c0 59.6 78 78 78 78s78-18.4 78-78V183.6H306Z"/><path fill="#6DA544" d="M313.1 335.1c19.2 36.8 71 49 71 49s51.7-12.2 70.8-49l-70.9-118-70.9 118Z"/><path fill="#FFDA44" d="m462 304.9-78-121.3L306 305v1.2a62 62 0 0 0 7.1 29l71-110.3 70.8 110.3a62 62 0 0 0 7-29V305Z"/><defs><clipPath id="a"><path fill="#fff" d="M0 0h512v512H0z"/></clipPath></defs></svg>