<svg xmlns="http://www.w3.org/2000/svg" width="512" height="512" fill="none"><g clip-path="url(#a)"><path fill="var(--flag-palette-yellow, #ffda44)" d="M128 0h256v512H128z"/><path fill="var(--flag-palette-blue, #0052b4)" d="M368 0h144v512H368zM0 0h144v512H0z"/><path fill="var(--flag-palette-bright-red, #d80027)" d="m328.4 278.3 16.7 22.2v-89l-16.7 22.2h-50v-50l22.2-16.7h-89l22.2 16.7v50h-50l-16.7-22.2v89l16.7-22.2h50v50L211.6 345h89l-22.2-16.7v-50z"/><path fill="#EEE" d="M323 244.9h-56v-55.7h-22V245h-55.7v22H245v55.7h22V267h55.7z"/></g><defs><clipPath id="a"><path fill="#fff" d="M0 0h512v512H0z"/></clipPath></defs></svg>