<svg width="512" height="512" viewBox="0 0 512 512" fill="none" xmlns="http://www.w3.org/2000/svg">
<path d="M512 128V384H0L1.11901e-05 128L512 128Z" fill="var(--flag-palette-white, #eeeeee)"/>
<path d="M512 368V512L0 512L6.29444e-06 368L512 368Z" fill="var(--flag-palette-blue, #0052b4)"/>
<path d="M512 2.23802e-05V144L0 144L6.29444e-06 0L512 2.23802e-05Z" fill="var(--flag-palette-bright-red, #d80027)"/>
<path fill-rule="evenodd" clip-rule="evenodd" d="M343.332 225.588C339.897 208.315 331.416 192.449 318.963 179.996L293.778 205.181C301.25 212.653 306.338 222.173 308.399 232.536C310.461 242.9 309.403 253.642 305.359 263.404C301.315 273.167 294.468 281.511 285.682 287.381C276.896 293.252 266.567 296.385 256 296.385C245.433 296.385 235.104 293.252 226.318 287.381C217.532 281.511 210.684 273.167 206.641 263.404C202.597 253.642 201.539 242.9 203.6 232.536C205.662 222.173 210.75 212.653 218.222 205.181L193.037 179.996C180.584 192.449 172.103 208.315 168.668 225.588C165.232 242.86 166.995 260.764 173.735 277.035C180.474 293.305 191.887 307.212 206.53 316.996C221.173 326.78 238.389 332.003 256 332.003C273.611 332.003 290.827 326.78 305.47 316.996C320.113 307.212 331.526 293.305 338.265 277.035C345.005 260.764 346.768 242.86 343.332 225.588Z" fill="var(--flag-palette-green, #6da544)"/>
<path d="M256 206.047L264.287 231.552H291.105L269.409 247.316L277.696 272.821L256 257.058L234.304 272.821L242.591 247.316L220.894 231.552H247.713L256 206.047Z" fill="var(--flag-palette-dark-yellow, #ffc635)"/>
</svg>