<svg xmlns="http://www.w3.org/2000/svg" width="512" height="512" fill="none"><path fill="#EEE" d="M512 128v256H0V128h512Z"/><path fill="#0052B4" d="M512 368v144H0V368h512Z"/><path fill="#D80027" d="M512 0v144H0V0h512Z"/><path fill="#6DA544" fill-rule="evenodd" d="M343.3 225.6A89 89 0 0 0 319 180l-25.2 25.2a53.4 53.4 0 1 1-75.6 0L193 180a89 89 0 1 0 150.3 45.6Z" clip-rule="evenodd"/><path fill="#FFC635" d="m256 206 8.3 25.6H291l-21.7 15.7 8.3 25.5-21.7-15.7-21.7 15.7 8.3-25.5-21.7-15.7h26.8L256 206Z"/></svg>