<svg width="512" height="512" viewBox="0 0 512 512" fill="none" xmlns="http://www.w3.org/2000/svg">
<rect width="369.786" height="512" fill="var(--flag-palette-white, #eeeeee)"/>
<rect x="200.273" width="311.727" height="512" fill="var(--flag-palette-dark-pink, #751a46)"/>
<g clip-path="url(#clip0_1_3651)">
<path d="M96 0.000736237L200.274 -28.4473V28.4418L96 0.000736237Z" fill="var(--flag-palette-dark-pink, #751a46)"/>
<path d="M96 170.667L200.274 142.219V199.108L96 170.667Z" fill="var(--flag-palette-dark-pink, #751a46)"/>
<path d="M96 341.335L200.274 312.887V369.776L96 341.335Z" fill="var(--flag-palette-dark-pink, #751a46)"/>
<path d="M96 56.8894L200.274 28.4414V85.3305L96 56.8894Z" fill="var(--flag-palette-dark-pink, #751a46)"/>
<path d="M96 227.555L200.274 199.107V255.996L96 227.555Z" fill="var(--flag-palette-dark-pink, #751a46)"/>
<path d="M96 398.223L200.274 369.775V426.664L96 398.223Z" fill="var(--flag-palette-dark-pink, #751a46)"/>
<path d="M96 113.778L200.274 85.3301V142.219L96 113.778Z" fill="var(--flag-palette-dark-pink, #751a46)"/>
<path d="M96 284.446L200.274 255.998V312.887L96 284.446Z" fill="var(--flag-palette-dark-pink, #751a46)"/>
<path d="M96 455.112L200.274 426.664V483.553L96 455.112Z" fill="var(--flag-palette-dark-pink, #751a46)"/>
<path d="M96 512.005L200.274 483.557V540.446L96 512.005Z" fill="var(--flag-palette-dark-pink, #751a46)"/>
</g>
<defs>
<clipPath id="clip0_1_3651">
<rect width="104.274" height="512.002" fill="white" transform="translate(96)"/>
</clipPath>
</defs>
</svg>