<svg xmlns="http://www.w3.org/2000/svg" width="512" height="512" fill="none"><g clip-path="url(#a)"><path fill="#4A1F63" d="M0 416h512v96H0z"/><path fill="#0052B4" d="M0 343h512v96H0z"/><path fill="#338AF3" d="M0 270h512v96H0z"/><path fill="#496E2D" d="M0 219h512v74H0z"/><path fill="#FFDA44" d="M0 123h512v96H0z"/><path fill="#FF9811" d="M0 50h512v96H0z"/><path fill="#D80027" d="M0 0h512v73H0z"/><circle cx="256" cy="256" r="112" fill="#85693D"/><path fill="#FFC635" fill-rule="evenodd" d="M360 256a104 104 0 1 1-208 0 104 104 0 0 1 208 0Zm-40 0a64 64 0 1 1-128 0 64 64 0 0 1 128 0Zm-64 56a56 56 0 1 0 0-112 56 56 0 0 0 0 112Z" clip-rule="evenodd"/><path fill="#85693D" fill-rule="evenodd" d="M212 232a16 16 0 1 1 32 0 16 16 0 0 1-32 0Zm16-8a8 8 0 1 0 0 16 8 8 0 0 0 0-16Zm40 8a16 16 0 1 1 32 0 16 16 0 0 1-32 0Zm16-8a8 8 0 1 0 0 16 8 8 0 0 0 0-16Zm-60 40h64a16 16 0 1 1 0 32h-64a16 16 0 1 1 0-32Zm0 8h2v6h12v-6h4v6h12v-6h-30Zm-7.7 6a8 8 0 0 1 5.7-5.7v5.7h-5.7Zm-.3 2Zm6 7.7a8 8 0 0 1-5.7-5.7h5.7v5.7Zm16 .3h-12v-6h12v6Zm16 0h-12v-6h12v6Zm16 0h-12v-6h12v6Zm16 0h-12v-6h12v6Zm9.7-6a8 8 0 0 1-5.7 5.7V282h5.7Zm-5.7-9.7c2.8.7 5 2.9 5.7 5.7H290v-5.7Zm-19.7-.3H286v6h-12v-6h-3.7Zm-16.3 0h16v6h-12v-6h-4Z" clip-rule="evenodd"/></g><defs><clipPath id="a"><path fill="#fff" d="M0 0h512v512H0z"/></clipPath></defs></svg>