<svg xmlns="http://www.w3.org/2000/svg" width="512" height="512" fill="none"><g clip-path="url(#a)"><path fill="#4A1F63" d="M0 512h512v-70l-256-32L0 442v70Z"/><path fill="#0052B4" d="M0 442h512v-70l-256-32L0 372v70Z"/><path fill="#D80027" d="M0 0h512v70l-256 32L0 70V0Z"/><path fill="#FFDA44" d="M0 70h512v70l-256 32L0 140V70Z"/><path fill="#EEE" d="M0 140h512v70l-32 46 32 46v70H0v-70l32-46-32-46v-70Z"/><path fill="#496E2D" d="M0 210h512v92H0v-92Z"/></g><defs><clipPath id="a"><path fill="#fff" d="M0 0h512v512H0z"/></clipPath></defs></svg>