<svg xmlns="http://www.w3.org/2000/svg" width="512" height="512" fill="none"><path fill="var(--flag-palette-purple, #4a1f63)" d="M0 416h512v96H0z"/><path fill="var(--flag-palette-blue, #0052b4)" d="M0 343h512v96H0z"/><path fill="var(--flag-palette-light-blue, #338af3)" d="M0 270h512v96H0z"/><path fill="var(--flag-palette-dark-green, #496e2d)" d="M0 219h512v74H0z"/><path fill="var(--flag-palette-yellow, #ffda44)" d="M0 123h512v96H0z"/><path fill="var(--flag-palette-gold, #ff9811)" d="M0 50h512v96H0z"/><path fill="var(--flag-palette-bright-red, #d80027)" d="M0 0h512v73H0z"/><circle cx="256" cy="256" r="112" fill="var(--flag-palette-brown, #85693d)"/><path fill="var(--flag-palette-dark-yellow, #ffc635)" fill-rule="evenodd" d="M360 256a104 104 0 1 1-208 0 104 104 0 0 1 208 0m-40 0a64 64 0 1 1-128 0 64 64 0 0 1 128 0m-64 56a56 56 0 1 0 0-112 56 56 0 0 0 0 112" clip-rule="evenodd"/><path fill="var(--flag-palette-brown, #85693d)" fill-rule="evenodd" d="M212 232a16 16 0 1 1 32 0 16 16 0 0 1-32 0m16-8a8 8 0 1 0 0 16 8 8 0 0 0 0-16m40 8a16 16 0 1 1 32 0 16 16 0 0 1-32 0m16-8a8 8 0 1 0 0 16 8 8 0 0 0 0-16m-60 40h64a16 16 0 1 1 0 32h-64a16 16 0 1 1 0-32m0 8h2v6h12v-6h4v6h12v-6zm-7.7 6a8 8 0 0 1 5.7-5.7v5.7zm5.7 9.7a8 8 0 0 1-5.7-5.7h5.7zm16 .3h-12v-6h12zm16 0h-12v-6h12zm16 0h-12v-6h12zm16 0h-12v-6h12zm9.7-6a8 8 0 0 1-5.7 5.7V282zm-5.7-9.7c2.8.7 5 2.9 5.7 5.7H290zm-19.7-.3H286v6h-12v-6zm-16.3 0h16v6h-12v-6z" clip-rule="evenodd"/></svg>