<svg xmlns="http://www.w3.org/2000/svg" width="512" height="512" fill="none"><g clip-path="url(#a)"><path fill="#0052B4" d="M64 0 0 64v160l32 32-32 32v224l256-32 256 32V288l-32-32 32-32V64L448 0H288l-32 32-32-32H64Z"/><path fill="#D80027" d="M256 256 0 512h512L256 256Z"/><path fill="#FFDA44" d="M0 224v64l512-64v64L0 224Z"/><path fill="#FFDA44" d="M256 256 0 64V0h64l192 256Zm0 0L448 0h64v64L256 256Zm0 0L224 0h64l-32 256Z"/></g><defs><clipPath id="a"><path fill="#fff" d="M0 0h512v512H0z"/></clipPath></defs></svg>