<svg xmlns="http://www.w3.org/2000/svg" width="512" height="512" fill="none"><path fill="var(--flag-palette-blue, #0052b4)" d="M512 376H0V136h512z"/><path fill="var(--flag-palette-bright-red, #d80027)" d="M512 168H0V0h512z"/><path fill="#EEE" d="M512 512H0V344h512z"/><path fill="var(--flag-palette-bright-red, #d80027)" d="M66.2 144.7v127.7c0 72.6 94.9 95 94.9 95s94.9-22.4 94.9-95V144.7z"/><path fill="var(--flag-palette-dark-yellow, #ffc635)" d="M105.4 167h111.4v-44.6l-22.3 11.2-33.4-33.4-33.4 33.4-22.3-11.2zm128.3 123.2-72.3-72.4L89 290.2l23.7 23.6 48.7-48.7 48.7 48.7z"/><path fill="#EEE" d="M233.7 222.6H200q3-5 3-11.1a22.3 22.3 0 0 0-42-10.5 22.3 22.3 0 1 0-38.9 21.6H89a23 23 0 0 0 23 22.3h-.7c0 12.3 10 22.2 22.3 22.2 0 11 7.8 20 18.1 21.9l-17.5 39.6a72 72 0 0 0 54.4 0L171.1 289c10.3-2 18.1-11 18.1-21.9 12.3 0 22.3-10 22.3-22.2h-.8a23 23 0 0 0 23-22.3"/></svg>