<svg xmlns="http://www.w3.org/2000/svg" width="512" height="512" fill="none"><path fill="#0052B4" d="M512 366.7H0V145.3h512z"/><path fill="#D80027" d="M512 167H0V0h512z"/><path fill="#EEE" d="M512 512H0V345.1h512z"/><path fill="#D80027" d="M256 0A256 256 0 0 0 16 167h480A256 256 0 0 0 256 0Z"/><path fill="#D80027" d="M66.2 144.7v127.7c0 72.6 94.9 94.9 94.9 94.9S256 345 256 272.4V144.7H66.2Z"/><path fill="#FFC635" d="M105.4 167h111.4v-44.6l-22.3 11.2-33.4-33.4-33.4 33.4-22.3-11.2V167Zm128.3 123.2-72.3-72.4L89 290.2l23.7 23.6 48.7-48.7 48.7 48.7 23.6-23.6Z"/><path fill="#EEE" d="M233.7 222.6H200a22.3 22.3 0 1 0-39-21.6 22.3 22.3 0 1 0-38.9 21.6H89a23 23 0 0 0 23 22.3h-.7c0 12.3 10 22.2 22.3 22.2 0 11 7.8 20 18.1 21.9l-17.5 39.6a72.1 72.1 0 0 0 54.4 0L171.1 289c10.3-2 18.1-11 18.1-21.9 12.3 0 22.3-10 22.3-22.2h-.8a23 23 0 0 0 23-22.3Z"/></svg>