<svg width="512" height="512" viewBox="0 0 512 512" fill="none" xmlns="http://www.w3.org/2000/svg">
<rect y="136" width="512" height="240" fill="var(--flag-palette-white, #eeeeee)"/>
<rect y="344" width="512" height="168" fill="var(--flag-palette-dark-green, #496e2d)"/>
<rect width="512" height="168" fill="var(--flag-palette-light-blue, #338af3)"/>
<path d="M260 267.317C263.41 266.112 266.112 263.41 267.317 260H289.07C290.453 262.391 293.039 264 296 264C300.418 264 304 260.418 304 256C304 251.582 300.418 248 296 248C293.039 248 290.453 249.609 289.07 252H270.928L286.639 242.929C287.816 243.61 289.183 244 290.641 244C295.059 244 298.641 240.418 298.641 236C298.641 231.582 295.059 228 290.641 228C286.222 228 282.641 231.582 282.641 236L266.929 245.071L276 229.359H276.004C280.422 229.359 284.004 225.778 284.004 221.359C284.004 216.941 280.422 213.359 276.004 213.359C271.586 213.359 268.004 216.941 268.004 221.359C268.004 222.816 268.393 224.181 269.073 225.357L260 241.072V222.93C262.391 221.547 264 218.961 264 216C264 211.582 260.418 208 256 208C251.582 208 248 211.582 248 216C248 218.961 249.609 221.547 252 222.93V241.072L242.931 225.364C243.613 224.186 244.004 222.818 244.004 221.359C244.004 216.941 240.422 213.359 236.004 213.359C231.586 213.359 228.004 216.941 228.004 221.359C228.004 225.776 231.584 229.357 236 229.359L245.071 245.071L229.359 236C229.359 231.582 225.778 228 221.359 228C216.941 228 213.359 231.582 213.359 236C213.359 240.418 216.941 244 221.359 244C222.817 244 224.184 243.61 225.361 242.929L241.072 252H222.93C221.547 249.609 218.961 248 216 248C211.582 248 208 251.582 208 256C208 260.418 211.582 264 216 264C218.961 264 221.547 262.391 222.93 260H244.683C245.888 263.41 248.59 266.112 252 267.317V295.999H260V267.317Z" fill="var(--flag-palette-dark-yellow, #ffc635)"/>
<path fill-rule="evenodd" clip-rule="evenodd" d="M324 256C324 293.555 293.555 324 256 324C218.445 324 188 293.555 188 256C188 218.445 218.445 188 256 188C293.555 188 324 218.445 324 256ZM316 256C316 289.137 289.137 316 256 316C222.863 316 196 289.137 196 256C196 222.863 222.863 196 256 196C289.137 196 316 222.863 316 256Z" fill="var(--flag-palette-dark-yellow, #ffc635)"/>
</svg>