<svg xmlns="http://www.w3.org/2000/svg" width="512" height="512" fill="none"><g clip-path="url(#a)"><path fill="#EEE" d="M0 145.3h512v221.4H0z"/><path fill="#496E2D" d="M0 345.1h512V512H0z"/><path fill="#338AF3" d="M0 0h512v166.9H0z"/><path fill="#FFC635" d="M260 267.3a12 12 0 0 0 7.3-7.3h21.8a8 8 0 1 0 0-8h-18.2l15.7-9a8 8 0 1 0-4-7l-15.7 9 9.1-15.6a8 8 0 1 0-7-4l-9 15.7v-18.2a8 8 0 1 0-8 0v18.2l-9-15.7a8 8 0 1 0-7 4l9 15.7-15.6-9.1a8 8 0 1 0-4 7l15.7 9h-18.2a8 8 0 1 0 0 8h21.8a12 12 0 0 0 7.3 7.3V296h8v-28.7Z"/><path fill="#FFC635" fill-rule="evenodd" d="M324 256a68 68 0 1 1-136 0 68 68 0 0 1 136 0Zm-8 0a60 60 0 1 1-120 0 60 60 0 0 1 120 0Z" clip-rule="evenodd"/></g><defs><clipPath id="a"><path fill="#fff" d="M0 0h512v512H0z"/></clipPath></defs></svg>