<svg xmlns="http://www.w3.org/2000/svg" width="512" height="512" fill="none"><g clip-path="url(#a)"><path fill="#FFDA44" d="M0 0h512v512H0z"/><path fill="#A2001D" d="M0 512V398.7h512V512H0Z"/><mask id="b" width="512" height="512" x="0" y="0" maskUnits="userSpaceOnUse" style="mask-type:alpha"><path fill="#FFDA44" d="M0 0h512v512H0z"/></mask><g mask="url(#b)"><path fill="#A2001D" fill-rule="evenodd" d="M279.5 11.8 256 35.3l-23.5-23.5v23.5H209l23.5 23.5L209 82.3h23.5v23.5L256 82.3l23.5 23.5V82.3H303l-23.5-23.5L303 35.3h-23.5V11.8Zm-38.7 20v11.8H229l15.2 15.2L229.1 74h11.7v11.8L256 70.6l15.2 15.2V74h11.7l-15.1-15.2 15.1-15.2h-11.7V32L256 47l-15.2-15.2Zm159.2 30-23.5 23.5L353 61.8v23.5h-23.5l23.5 23.5-23.5 23.5H353v23.5l23.5-23.5 23.5 23.5v-23.5h23.5L400 108.8l23.5-23.5H400V61.8Zm-38.7 20v11.8h-11.8l15.2 15.2-15.2 15.2h11.8v11.8l15.2-15.2 15.2 15.2V124h11.7l-15.2-15.2 15.2-15.2h-11.7V82l-15.2 15-15.2-15.2ZM249.8 217.3v187.9h12.4v-188l67.3-67.2v-23.5l-35.3-35.3-29.4 29.4V144l20.6 20.6 23.5-23.5-14.7-14.7-8.8 8.8 5.9 5.9-6 5.8-11.7-11.7 20.6-20.6 26.4 26.5-64.6 64.6-64.6-64.6 26.4-26.5 20.6 20.6-11.8 11.7-5.9-5.8 6-6-8.9-8.7-14.7 14.7 23.5 23.5 20.6-20.6v-23.5l-29.4-29.4-35.3 35.3V150l67.3 67.2Zm-8.3 3.4v17.7l-73.7-73.6-26.4 26.4 20.6 20.6 11.7-11.8-5.9-5.8-5.8 5.8-8.8-8.8 14.6-14.7 23.6 23.5-20.6 20.6h-23.5L117.9 191l35.3-35.2h23.5l64.8 64.7Zm29 0v17.7l73.7-73.6 26.4 26.4-20.6 20.6-11.7-11.8 5.9-5.8 5.8 5.8 8.8-8.8-14.6-14.7-23.6 23.5 20.6 20.6h23.5l29.4-29.4-35.3-35.2h-23.5l-64.8 64.7ZM-37 378v12.5h278.6V250l-44.3-44.2-29.4 29.4v23.5l17.7 17.6 26.4-26.4-14.7-14.7-8.8 8.8 5.9 5.9-5.9 5.9-11.7-11.8 20.5-20.6 31.8 31.8v122.7H-37.1Zm320.1 0V255.2l31.8-31.8 20.5 20.6-11.7 11.8-5.9-6 5.9-5.8-8.8-8.8-14.7 14.7 26.4 26.4 17.7-17.6v-23.5l-29.4-29.4-44.3 44.2v140.4h278.6V378h-266ZM135.5 85.3 159 61.8v23.5h23.5L159 108.8l23.5 23.5H159v23.5l-23.5-23.5-23.5 23.5v-23.5H88.5l23.5-23.5-23.5-23.5H112V61.8l23.5 23.5Zm-15.2 8.3V82l15.2 15 15.2-15.2v11.7h11.8l-15.2 15.2 15.2 15.2h-11.8v11.8l-15.2-15.2-15.2 15.2V124h-11.7l15.2-15.2-15.2-15.2h11.7Z" clip-rule="evenodd"/></g></g><defs><clipPath id="a"><path fill="#fff" d="M0 0h512v512H0z"/></clipPath></defs></svg>