<svg width="512" height="512" viewBox="0 0 512 512" fill="none" xmlns="http://www.w3.org/2000/svg">
<rect width="512" height="512" fill="var(--flag-palette-yellow, #ffda44)"/>
<path d="M0.00390625 512V416H512.004V512H0.00390625Z" fill="var(--flag-palette-dark-red, #a2001d)"/>
<path d="M0 395.36V407.826H241.455L228.989 395.359L0 395.36Z" fill="var(--flag-palette-dark-red, #a2001d)"/>
<path d="M283.011 395.359L270.544 407.826H512V395.359H283.011Z" fill="var(--flag-palette-dark-red, #a2001d)"/>
<path fill-rule="evenodd" clip-rule="evenodd" d="M279.504 29.2207L255.999 52.7316L232.491 29.2207V52.7316L208.98 52.7258L232.491 76.2338L208.986 99.7447H232.491V123.253L255.999 99.7447L279.507 123.253V99.7447L303.015 99.7476L279.507 76.2396L303.012 52.7316H279.507L279.504 29.2207ZM240.801 49.2846V61.0386H229.044L244.242 76.2338L229.05 91.4319H240.801V103.189L255.999 87.9907L271.192 103.186V91.4319H282.949L267.75 76.2338L282.949 61.0386H271.192V49.2846L255.999 64.4827L240.801 49.2846ZM135.513 102.735L159.021 79.2266V102.735H182.529L159.021 126.245L182.529 149.753L159.021 149.748L159.024 173.259L135.516 149.748L112.008 173.259V149.748H88.5L112.008 126.24L88.5 102.732H112.008V79.2266L135.513 102.735ZM120.315 111.042V99.2904L135.513 114.489L150.708 99.2904V111.042H162.465L147.267 126.24L162.462 141.438H150.708V153.189L135.516 137.997L120.315 153.195V141.438H108.567L123.759 126.24L108.564 111.042H120.315ZM399.994 79.2266L376.486 102.735L352.975 79.2266V102.735H329.473L352.981 126.245L329.473 149.748H352.981V173.259L376.486 149.748L399.994 173.259V149.753H423.502L399.994 126.245L423.502 102.735H399.994V79.2266ZM361.288 99.2904V111.047H349.537L364.732 126.243L349.537 141.438H361.288V153.195L376.486 137.997L391.681 153.195V141.438H403.435L388.243 126.243L403.438 111.047H391.681V99.2934L376.486 114.489L361.288 99.2904ZM249.766 234.619V422.506H262.235V234.619L329.458 167.393V143.885L294.199 108.623L264.814 138.008V161.513L285.385 182.084L308.893 158.576L294.199 143.885L285.385 152.699L291.262 158.576L285.385 164.45L273.631 152.699L294.199 132.128L320.644 158.576L256 223.22L191.353 158.576L217.801 132.128L238.366 152.699L226.615 164.45L220.738 158.576L226.615 152.699L217.801 143.885L203.107 158.576L226.615 182.084L247.186 161.513V138.008L217.801 108.623L182.539 143.885V167.393L249.766 234.619ZM241.457 238.061V255.692L167.847 182.085L141.402 208.53L161.97 229.101L173.724 217.347L167.847 211.47L161.97 217.347L153.156 208.53L167.847 193.836L191.355 217.347L170.784 237.915H147.281L117.891 208.53L153.156 173.271H176.666L241.457 238.061ZM270.547 238.061V255.692L344.157 182.085L370.602 208.53L350.031 229.101L338.28 217.347L344.157 211.47L350.031 217.347L358.845 208.53L344.157 193.836L320.646 217.347L341.217 237.915H364.723L394.11 208.53L358.845 173.271H335.337L270.547 238.061ZM241.455 407.832V267.449L197.23 223.221L167.845 252.606V276.12L185.473 293.748L211.921 267.3L197.23 252.612L188.416 261.426L194.293 267.3L188.416 273.177L176.659 261.426L197.23 240.855L228.989 272.611V407.831L241.455 407.832ZM283.011 407.831V272.611L314.77 240.855L335.341 261.426L323.584 273.177L317.707 267.3L323.584 261.426L314.77 252.612L300.076 267.3L326.521 293.748L344.155 276.12V252.612L314.77 223.227L270.544 267.449V407.832L283.011 407.831Z" fill="var(--flag-palette-dark-red, #a2001d)"/>
</svg>