<svg xmlns="http://www.w3.org/2000/svg" width="512" height="512" fill="none"><g clip-path="url(#a)"><path fill="var(--flag-palette-dark-green, #496e2d)" d="M0 136h512v240H0z"/><path fill="var(--flag-palette-bright-red, #d80027)" d="M0 344h512v168H0z"/><path fill="var(--flag-palette-dark-green, #496e2d)" d="M0 0h512v168H0z"/><path fill="#EEE" d="M0 0v512h96V352h416v-64H96V0z"/><path fill="var(--flag-palette-dark-yellow, #ffc635)" fill-rule="evenodd" d="M25.3 18.8a25.7 25.7 0 0 1 39.6-6c8.5 7.9 13 22 5 33l-4.5-3.3 4.6 3.3c-7.5 10.4-23.8 12.3-31.4.6-6.3-9.7-1.7-22 8.5-24.5a6 6 0 0 1 3 11.6c-1.7.4-3.6 3-1.4 6.3 2 3.1 7.8 4.1 11.5-1 3.3-4.6 2.2-12-3.5-17.3-6-5.5-16.1-4.6-21.1 3.5-6.5 10.9-1.8 23.5 7.2 34l17.4 17.2.2.2.2.2c10 11.6 19.3 30.3 8.5 48.2q-3 4.9-7.1 7.9 4.8 3.1 8.2 8.5c10.6 18 1.5 36.6-8.5 48.3l-.2.2-.2.1L44 207c-9 10.6-13.8 23.2-7.2 34 4.9 8.3 15 9.2 20.8 3.9 5.9-5.5 6.9-12.8 3.7-17.3-3.7-5.1-9.6-4.2-11.6-1-2.2 3.4 0 5.9 1.4 6.3a6 6 0 0 1-3 11.6c-10.3-2.6-14.5-15-8.5-24.4 7.6-11.8 23.9-9.9 31.4.5 8 11 3.4 25-5.2 33l-2.8 2.3q1.2.8 2.3 2c8.5 8 13 22 5 33.2-7.4 10.4-23.7 12.4-31.3.6-6.3-9.7-1.7-22 8.5-24.6a6 6 0 1 1 3 11.6c-1.6.4-3.7 3-1.4 6.4 2 3.2 7.8 4.2 11.5-1 3.3-4.6 2.2-12.2-3.5-17.5-6-5.6-16.1-4.7-21 3.5-6.6 11-1.9 23.8 7 34.4L60.6 322l.2.1.2.2c10 11.7 19.3 30.6 8.5 48.6q-3 5-7.4 8.1 4.5 3 7.5 8.2c10.7 17.9 1.6 36.5-8.5 48.2l-.1.2-.2.1-17.5 17.2c-9 10.6-13.7 23.2-7.1 34 4.8 8.3 15 9.2 20.8 3.9 5.9-5.5 6.9-12.8 3.6-17.3-3.7-5.1-9.5-4.2-11.5-1-2.2 3.4 0 6 1.4 6.3a6 6 0 0 1-3 11.6C37 487.7 33 475.3 39 466c7.6-11.8 23.9-9.9 31.4.5 8 11 3.4 25-5.3 33a25.6 25.6 0 0 1-39.2-6.4c-10.9-17.9-1.5-36.6 8.5-48.2l.2-.2.1-.1 17.5-17.2c9-10.5 13.6-23.2 7.2-34-5-8.2-15.2-9-21.1-3.5-5.7 5.3-6.8 12.7-3.6 17.2 3.8 5.2 9.6 4.2 11.6 1.1 2.2-3.3.2-6-1.4-6.3a6 6 0 0 1 3-11.7c10.2 2.6 14.8 14.9 8.4 24.5-7.5 11.8-23.8 9.8-31.3-.6-8-11-3.4-25 5-33l2.4-2-2.2-1.7C21.5 369 16.9 355 24.9 344c7.5-10.5 23.8-12.5 31.4-.6 6 9.5 1.9 22-8.6 24.6a6 6 0 1 1-3-11.6c1.5-.4 3.7-3 1.4-6.5-2-3.1-7.7-4.1-11.5 1-3.2 4.7-2.2 12 3.7 17.6 5.7 5.3 15.9 4.4 20.8-3.8v-.1c6.6-11 1.8-23.8-7.2-34.4L34.4 313l-.1-.2-.2-.2C24.1 300.7 15 282 25.6 264q3.3-5.6 8.2-8.7-4.4-3-7.4-8c-10.8-18-1.5-36.7 8.5-48.3l.2-.2.2-.1 17.4-17.2c9-10.5 13.7-23.2 7.2-34-5-8.2-15.2-9-21.1-3.6-5.7 5.4-6.8 12.8-3.5 17.3 3.7 5.1 9.5 4.2 11.5 1.1 2.2-3.4.3-6-1.4-6.3a6 6 0 0 1 3-11.7c10.2 2.6 14.8 14.9 8.5 24.5-7.6 11.8-23.9 9.8-31.4-.6-8-11-3.4-25 5.1-33l2-1.7q-1.5-1-2.8-2.3c-8.6-8-13.2-22-5.2-33 7.5-10.4 23.8-12.4 31.4-.6 6 9.5 1.8 21.8-8.6 24.5a6 6 0 0 1-2.9-11.7c1.5-.4 3.6-2.9 1.4-6.3-2-3.1-7.9-4-11.6 1-3.2 4.6-2.2 11.8 3.7 17.3 5.7 5.3 16 4.4 20.8-3.8 6.6-10.8 1.9-23.5-7.2-34L34.2 67.4l-.2-.2-.2-.2c-10-11.6-19.1-30.3-8.5-48.2" clip-rule="evenodd"/></g><defs><clipPath id="a"><path fill="#fff" d="M0 0h512v512H0z"/></clipPath></defs></svg>