<svg width="512" height="512" viewBox="0 0 512 512" fill="none" xmlns="http://www.w3.org/2000/svg">
<rect y="136" width="512" height="240" fill="var(--flag-palette-dark-green, #496e2d)"/>
<rect y="344" width="512" height="168" fill="var(--flag-palette-bright-red, #d80027)"/>
<rect width="512" height="168" fill="var(--flag-palette-dark-green, #496e2d)"/>
<path d="M0 0V512H96V352H512V288H96V0H0Z" fill="var(--flag-palette-white, #eeeeee)"/>
<path fill-rule="evenodd" clip-rule="evenodd" d="M25.3307 18.8002C34.2281 4.13399 53.3611 2.02302 64.8868 12.7147L64.8934 12.7209L64.9 12.727C73.4012 20.6608 77.9084 34.7521 69.9612 45.7749L65.4239 42.5035L69.9612 45.7749C62.4619 56.1764 46.2179 58.1272 38.6309 46.3746C32.2644 36.7407 36.8966 24.4543 47.1422 21.8843C50.3563 21.0781 53.6155 23.0301 54.4217 26.2442C55.2279 29.4583 53.2759 32.7175 50.0618 33.5237C48.4468 33.9288 46.4807 36.5054 48.6518 39.7728L48.6775 39.8116L48.7027 39.8508C50.692 42.948 56.5201 43.8988 60.2274 38.757C63.4936 34.2266 62.3957 26.8089 56.7194 21.5064C50.7672 15.9923 40.5615 16.8565 35.6026 25.0041C29.1487 35.8648 33.7921 48.5335 42.7644 59.0165L60.2331 76.2158L60.407 76.387L60.5664 76.5718C70.568 88.1642 79.9346 106.877 69.0853 124.782C67.1644 128.017 64.7314 130.654 61.9832 132.685C65.1564 134.771 67.9745 137.626 70.1695 141.244L70.1821 141.265L70.1944 141.286C80.8365 159.151 71.7178 177.83 61.6663 189.481L61.5069 189.666L61.333 189.837L43.8642 207.038C34.8407 217.578 30.1204 230.21 36.6891 241.029L36.7062 241.057L36.723 241.086C41.574 249.277 51.774 250.162 57.4896 244.88C63.3792 239.365 64.3977 232.116 61.1622 227.628C57.4573 222.489 51.6342 223.436 49.6414 226.528C47.4462 229.972 49.5345 232.495 50.9968 232.862C54.2109 233.668 56.1628 236.928 55.3566 240.142C54.5503 243.356 51.2912 245.308 48.077 244.502C37.6657 241.89 33.4887 229.523 39.5329 220.062L39.5368 220.056L39.5408 220.049C47.117 208.253 63.3887 210.197 70.8962 220.61C78.8735 231.675 74.2879 245.602 65.6741 253.656L65.6638 253.665L65.6534 253.675C64.7728 254.49 63.8464 255.229 62.8827 255.891C63.6844 256.479 64.4594 257.121 65.2027 257.816L65.2094 257.822L65.2162 257.829C73.7128 265.829 78.1844 279.989 70.2725 291.059C62.7777 301.545 46.5008 303.52 38.9148 291.666C32.5972 282.022 37.1507 269.664 47.4271 267.064C50.6395 266.251 53.9027 268.196 54.7156 271.409C55.5284 274.621 53.5831 277.884 50.3707 278.697C48.7864 279.098 46.7415 281.733 48.9619 285.104L48.9874 285.143L49.0123 285.182C51.0026 288.308 56.7981 289.274 60.5098 284.081C63.8114 279.461 62.6778 271.926 56.9973 266.572C51.0619 261.026 40.8816 261.872 35.9113 270.11C29.4247 281.121 34.1085 293.95 43.0789 304.521L60.5486 321.872L60.7216 322.044L60.8801 322.229C70.8852 333.927 80.2103 352.754 69.3939 370.76C67.4079 374.133 64.8711 376.863 62.0024 378.939C64.9112 380.98 67.4961 383.687 69.5406 387.057L69.5531 387.078L69.5655 387.099C80.2077 404.964 71.0888 423.642 61.0375 435.293L60.878 435.478L60.704 435.649L43.2351 452.849C34.2118 463.388 29.4915 476.019 36.0602 486.839L36.0773 486.867L36.094 486.895C40.9448 495.086 51.1444 495.971 56.8602 490.69C62.7503 485.175 63.7688 477.927 60.5333 473.439C56.8284 468.3 51.005 469.247 49.0122 472.34C46.8175 475.782 48.9055 478.305 50.3678 478.672C53.5819 479.478 55.5339 482.738 54.7277 485.952C53.9215 489.166 50.6624 491.118 47.4482 490.312C37.037 487.7 32.8596 475.333 38.9041 465.872L38.908 465.866L38.9119 465.86C46.488 454.065 62.7596 456.008 70.2673 466.421C78.2446 477.486 73.6589 491.412 65.0451 499.465L65.0348 499.475L65.0244 499.484C53.5939 510.071 34.4641 507.653 25.786 493.039C14.9366 475.134 24.3032 456.421 34.3048 444.829L34.4642 444.644L34.6381 444.473L52.1068 427.273C61.0792 416.791 65.7225 404.122 59.2687 393.261C54.3098 385.113 44.104 384.249 38.1519 389.763C32.4755 395.066 31.3776 402.483 34.6439 407.014C38.3511 412.156 44.1792 411.205 46.1685 408.108L46.1937 408.068L46.2195 408.03C48.3905 404.762 46.4244 402.186 44.8094 401.781C41.5953 400.974 39.6433 397.715 40.4495 394.501C41.2557 391.287 44.5149 389.335 47.729 390.141C57.9747 392.711 62.6068 404.998 56.2402 414.632C48.6532 426.384 32.4092 424.433 24.91 414.032C16.9628 403.009 21.4701 388.918 29.9712 380.984L29.9778 380.978L29.9844 380.972C30.7273 380.282 31.5018 379.646 32.3032 379.064C31.551 378.509 30.8235 377.905 30.1246 377.252L30.1143 377.242L30.104 377.232C21.4935 369.112 16.9449 355.117 24.8864 344.006C32.3895 333.509 48.6937 331.541 56.2689 343.438L56.2728 343.444L56.2767 343.45C62.2748 352.921 58.171 365.36 47.7319 368.001C44.5195 368.814 41.2563 366.869 40.4434 363.656C39.6306 360.444 41.5758 357.181 44.7883 356.368C46.2228 356.005 48.3844 353.423 46.1429 349.877C44.149 346.756 38.3585 345.794 34.6492 350.984C31.378 355.561 32.4334 362.926 38.3263 368.492C44.0241 373.804 54.199 372.939 59.0625 364.655L59.0791 364.627L59.0961 364.599C65.6979 353.63 60.9362 340.839 51.9153 330.21L34.4455 312.859L34.2725 312.687L34.114 312.502C24.0595 300.746 14.9811 281.953 25.5909 263.987L25.6032 263.966L25.6156 263.946C27.8047 260.306 30.6173 257.432 33.7859 255.329C30.9273 253.272 28.3979 250.569 26.4145 247.229C15.5657 229.324 24.9323 210.611 34.9336 199.018L35.093 198.833L35.2669 198.662L52.7357 181.461C61.7079 170.979 66.3516 158.309 59.8975 147.448C54.9386 139.3 44.733 138.436 38.7809 143.95C33.1043 149.254 32.0065 156.671 35.2728 161.202C38.9801 166.344 44.8081 165.393 46.7974 162.296L46.8225 162.256L46.8483 162.218C49.0196 158.95 47.0531 156.373 45.4383 155.968C42.2241 155.161 40.2722 151.902 41.0784 148.688C41.8847 145.474 45.1439 143.522 48.358 144.328C58.6037 146.898 63.2355 159.185 56.8693 168.819C49.2823 180.572 33.0381 178.621 25.5388 168.219C17.5917 157.196 22.0991 143.105 30.5998 135.171L30.6065 135.165L30.6132 135.158C31.2672 134.552 31.9455 133.986 32.6452 133.462C31.6715 132.796 30.7358 132.051 29.8468 131.227L29.8364 131.218L29.8261 131.208C21.2123 123.155 16.6266 109.229 24.6039 98.1641L24.604 98.164C32.1115 87.7511 48.3831 85.8074 55.9593 97.6031L55.9632 97.6092L55.9671 97.6153C62.0116 107.076 57.8342 119.443 47.423 122.055C44.2089 122.861 40.9497 120.909 40.1435 117.695C39.3373 114.481 41.2893 111.221 44.5035 110.415C45.9657 110.048 48.0537 107.525 45.859 104.083C43.8664 100.99 38.043 100.043 34.3379 105.182C31.1024 109.67 32.1209 116.918 38.0107 122.433C43.7265 127.715 53.9263 126.829 58.7772 118.638L58.794 118.61L58.811 118.582C65.3798 107.762 60.6595 95.1311 51.6361 84.5916L34.1672 67.3921L33.9932 67.2208L33.8338 67.036C23.7824 55.3851 14.6635 36.7067 25.3058 18.8416L25.3181 18.8209L25.3307 18.8002Z" fill="var(--flag-palette-dark-yellow, #ffc635)"/>
</svg>