<svg xmlns="http://www.w3.org/2000/svg" width="512" height="512" fill="none"><path fill="var(--flag-palette-dark-green, #496e2d)" d="m0 384 256-64 256 64v128H0z"/><path fill="var(--flag-palette-yellow, #ffda44)" d="m0 256 256-64 256 64v128H0z"/><path fill="var(--flag-palette-light-blue, #338af3)" d="m0 128 256-64 256 64v128H0z"/><path fill="var(--flag-palette-light-blue, #338af3)" d="M0 0h512v128H0z"/><path fill="var(--flag-palette-yellow, #ffda44)" fill-rule="evenodd" d="m384 56 11.2 30.3a43 43 0 0 0-22.4 0zm30.5 41.5q-8-8-19.3-11.2L420 65.6zm0 0 31.9-5.5-20.7 24.8q-3.1-11.2-11.2-19.3m12.7 30.5q0-5.8-1.5-11.2L456 128l-30.3 11.2q1.5-5.4 1.5-11.2m-12.7 30.5a43 43 0 0 0 11.2-19.3l20.7 24.8zm0 0 5.5 31.9-24.8-20.7q11.2-3.1 19.3-11.2M384 171.2q5.8 0 11.2-1.5L384 200l-11.2-30.3q5.4 1.5 11.2 1.5m-30.5-12.7q8 8 19.3 11.2L348 190.4zm-11.2-19.3q3.1 11.2 11.2 19.3l-31.9 5.5zm-1.5-11.2q0 5.8 1.5 11.2L312 128l30.3-11.2q-1.5 5.4-1.5 11.2m12.7-30.5a43 43 0 0 0-11.2 19.3L321.6 92zm19.3-11.2q-11.2 3.1-19.3 11.2L348 65.6zM384 164a36 36 0 1 0 0-72 36 36 0 0 0 0 72" clip-rule="evenodd"/></svg>