<svg width="512" height="512" viewBox="0 0 512 512" fill="none" xmlns="http://www.w3.org/2000/svg">
<path d="M512 0V512H0.00030365L0.015625 0H512Z" fill="var(--flag-palette-dark-green, #496e2d)"/>
<path d="M0 512L-4.47605e-05 4.47605e-05L512 0L0 512Z" fill="var(--flag-palette-blue, #0052b4)"/>
<path d="M489.388 0H512V22.643L22.643 512H0.0155521L0 511.984L0.000676184 489.387L489.388 0Z" fill="var(--flag-palette-yellow, #ffda44)"/>
<path d="M71.407 48L76.9339 65.007H94.8149L80.3489 75.5159L85.8739 92.5229L71.407 82.0119L56.94 92.5229L62.467 75.5159L48 65.007H65.882L71.407 48Z" fill="var(--flag-palette-white, #eeeeee)"/>
<path d="M162.746 48L168.273 65.007H186.153L171.687 75.5159L177.213 92.5229L162.746 82.0119L148.279 92.5229L153.806 75.5159L139.339 65.007H157.22L162.746 48Z" fill="var(--flag-palette-white, #eeeeee)"/>
<path d="M71.407 137.047L76.9339 154.054H94.8149L80.3489 164.564L85.8739 181.571L71.407 171.06L56.94 181.571L62.467 164.564L48 154.054H65.882L71.407 137.047Z" fill="var(--flag-palette-white, #eeeeee)"/>
<path d="M162.746 137.047L168.273 154.054H186.153L171.687 164.564L177.213 181.571L162.746 171.06L148.279 181.571L153.806 164.564L139.339 154.054H157.22L162.746 137.047Z" fill="var(--flag-palette-white, #eeeeee)"/>
<path d="M117.077 92.5234L122.604 109.53H140.484L126.018 120.04L131.544 137.047L117.077 126.536L102.61 137.047L108.136 120.04L93.6689 109.53H111.551L117.077 92.5234Z" fill="var(--flag-palette-white, #eeeeee)"/>
</svg>