<svg xmlns="http://www.w3.org/2000/svg" width="513" height="512" fill="none"><path fill="#496E2D" d="M513 0v512H1V0h512Z"/><path fill="#0052B4" d="M1 512V0h512L1 512Z"/><path fill="#FFDA44" d="M490.4 0H513v22.6L23.6 512H1v-22.6L490.4 0Z"/><path fill="#EEE" d="M72.4 48 78 65h18L81.2 75.5l5.6 17L72.4 82 58 92.5l5.6-17L49 65h17.9l5.5-17Zm91.3 0 5.6 17h17.9l-14.5 10.5 5.5 17L163.7 82l-14.4 10.5 5.5-17L140.3 65h18l5.4-17Zm-91.3 89 5.5 17h18l-14.6 10.6 5.6 17L72.4 171 58 181.6l5.6-17L49 154h17.9l5.5-17Zm91.3 0 5.6 17h17.9l-14.5 10.6 5.5 17-14.5-10.5-14.4 10.5 5.5-17-14.5-10.5h18l5.4-17ZM118 92.5l5.6 17h17.9L127 120l5.5 17-14.4-10.5-14.5 10.5 5.5-17-14.4-10.5h17.9l5.5-17Z"/></svg>