<svg xmlns="http://www.w3.org/2000/svg" width="512" height="512" fill="none"><path fill="#496E2D" d="M512 0v512H0L512 0Z"/><path fill="#0052B4" d="M0 512V0h512L0 512Z"/><path fill="#FFDA44" d="M0 488.4V512h23.6L512 23.6V0h-23.6L0 488.4Z"/><path fill="#EEE" d="m97.4 76.3 5.5 17h17.9l-14.5 10.5 5.5 17-14.4-10.5-14.5 10.5 5.5-17L74 93.3h17.9l5.5-17Zm91.3 0 5.5 17h18l-14.5 10.5 5.5 17-14.5-10.5-14.5 10.5 5.6-17-14.5-10.5h17.9l5.5-17Zm-91.3 89 5.5 17h17.9l-14.5 10.5 5.5 17-14.4-10.5-14.5 10.5 5.5-17L74 182.3h17.9l5.5-17Zm91.3 0 5.5 17h18l-14.5 10.5 5.5 17-14.5-10.5-14.5 10.5 5.6-17-14.5-10.5h17.9l5.5-17ZM143 120.8l5.6 17h17.9L152 148.3l5.5 17-14.5-10.5-14.4 10.5 5.5-17-14.5-10.5h18l5.4-17Z"/></svg>