<svg width="512" height="512" viewBox="0 0 512 512" fill="none" xmlns="http://www.w3.org/2000/svg">
<rect y="204.863" width="512" height="307.137" fill="var(--flag-palette-white, #eeeeee)"/>
<rect width="512" height="256" fill="var(--flag-palette-bright-red, #d80027)"/>
<path d="M83.4721 127.998C83.4721 90.6999 109.685 59.5419 144.689 51.8969C139.309 50.7229 133.728 50.0859 127.993 50.0859C84.9621 50.0859 50.0801 84.9679 50.0801 127.999C50.0801 171.03 84.9621 205.912 127.993 205.912C133.726 205.912 139.308 205.275 144.689 204.1C109.685 196.455 83.4721 165.297 83.4721 127.998Z" fill="var(--flag-palette-white, #eeeeee)"/>
<path d="M183.646 55.6504L189.172 72.6554H207.053L192.586 83.1664L198.112 100.171L183.646 89.6624L169.18 100.171L174.706 83.1664L160.24 72.6554H178.12L183.646 55.6504Z" fill="var(--flag-palette-white, #eeeeee)"/>
<path d="M140.271 89.041L145.796 106.047H163.677L149.211 116.557L154.737 133.562L140.271 123.053L125.803 133.562L131.33 116.557L116.863 106.047H134.744L140.271 89.041Z" fill="var(--flag-palette-white, #eeeeee)"/>
<path d="M227.022 89.041L232.549 106.047H250.429L235.962 116.557L241.489 133.562L227.022 123.053L212.556 133.562L218.082 116.557L203.616 106.047H221.496L227.022 89.041Z" fill="var(--flag-palette-white, #eeeeee)"/>
<path d="M210.327 139.129L215.853 156.135H233.733L219.267 166.645L224.793 183.65L210.327 173.141L195.861 183.65L201.387 166.645L186.921 156.135H204.8L210.327 139.129Z" fill="var(--flag-palette-white, #eeeeee)"/>
<path d="M156.966 139.129L162.491 156.135H180.373L165.906 166.645L171.433 183.65L156.966 173.141L142.499 183.65L148.025 166.645L133.559 156.135H151.44L156.966 139.129Z" fill="var(--flag-palette-white, #eeeeee)"/>
</svg>