<svg xmlns="http://www.w3.org/2000/svg" width="512" height="512" fill="none"><g clip-path="url(#a)"><path fill="#0052B4" d="M0 0h512v512H0z"/><g clip-path="url(#b)"><path fill="#0052B4" d="M-256-256h512v512h-512z"/><path fill="#EEE" d="M208 256h48v-48L48 0l208-208v-48h-48L0-48l-208-208h-48v48L-48 0l-208 208v48h48L0 48l208 208Z"/><path fill="#EEE" d="M256 64V-64H64v-192H-64v192h-192V64h192v192H64V64h192Z"/><path fill="#D80027" d="M256 32v-64H32v-224h-64v224h-224v64h224v224h64V32h224Z"/><path fill="#D80027" d="M256 224v32L64 64h32l160 160Z"/></g><path fill="#6DA544" d="m336 233.5 48-80 48 80h-96Z"/><path fill="#ACABB1" d="M384 281.5a48 48 0 1 0 0-96 48 48 0 0 0 0 96Z"/><path fill="#338AF3" d="M336 233.5v77c0 36 48 48 48 48s48-12 48-48v-77h-96Z"/><path fill="#85693D" d="M336 233.5a16 16 0 1 0-32 0v96a16 16 0 1 0 32 0v-96Zm128 0a16 16 0 1 0-32 0v96a16 16 0 1 0 32 0v-96Z"/><path fill="#6DA544" d="m384 249.5-48 67c2 11 9 19 16 26l32-45 32 45c8-7 14-15 16-26l-48-67Z"/></g><defs><clipPath id="a"><path fill="#fff" d="M0 0h512v512H0z"/></clipPath><clipPath id="b"><path fill="#fff" d="M0 0h512v512H0z"/></clipPath></defs></svg>