<svg xmlns="http://www.w3.org/2000/svg" width="512" height="512" fill="none"><g clip-path="url(#a)"><path fill="#0052B4" d="M0 0h512v512H0z"/><path fill="#EEE" d="M0 0h256v256H0z"/><path fill="#0052B4" d="m66.8 114 142 142h-142V114ZM256 208.8v-142H114l142 142Z"/><path fill="#D80027" d="M256 0H0v256h33.4V33.4H256V0Z"/><path fill="#D80027" d="M256 224.5 98.3 66.8H66.8L256 256v-31.5Z"/><path fill="#EEE" d="M304 152h160v80l-80 32-80-32v-80Z"/><path fill="#333" d="M384 164a14 14 0 0 0-14 14h-42a14 14 0 0 0 14 14 14 14 0 0 0 14 14 14 14 0 0 0 14 14h28a14 14 0 0 0 14-14 14 14 0 0 0 14-14 14 14 0 0 0 14-14h-42a14 14 0 0 0-14-14Z"/><path fill="#338AF3" d="M304 232v48c0 61 80 80 80 80s80-19 80-80v-48H304Z"/><path fill="#EEE" d="M388 245c-9 0-15 8-25 1 5 12 14 9 22 10v6h-14s-14 20 0 38h14v5h-14c-9 0-9-11-9-11h-34v11h7c9 8 13 26 27 26h52c15 0 17-9 20-17 3-7 5-8 6-9v-8h-29s0 8-8 8h-12v-6h14c-11-17 0-37 0-37h-14v-16l-4-1h1Zm-23 17c-20 6-31 26-31 26h25c-2-17 6-26 6-26Zm44 6a34 34 0 0 0-2 23h24c-5-12 0-23 0-23h-22Z"/></g><defs><clipPath id="a"><path fill="#fff" d="M0 0h512v512H0z"/></clipPath></defs></svg>