<svg xmlns="http://www.w3.org/2000/svg" width="512" height="512" fill="none"><g clip-path="url(#a)"><path fill="#0052B4" d="M0 0h512v512H0z"/><g clip-path="url(#b)"><path fill="#0052B4" d="M-256-256h512v512h-512z"/><path fill="#EEE" d="M208 256h48v-48L48 0l208-208v-48h-48L0-48l-208-208h-48v48L-48 0l-208 208v48h48L0 48l208 208Z"/><path fill="#EEE" d="M256 64V-64H64v-192H-64v192h-192V64h192v192H64V64h192Z"/><path fill="#D80027" d="M256 32v-64H32v-224h-64v224h-224v64h224v224h64V32h224Z"/><path fill="#D80027" d="M256 224v32L64 64h32l160 160Z"/></g><path fill="#EEE" d="M304 152h160v80l-80 32-80-32v-80Z"/><path fill="#333" d="M384 164a14 14 0 0 0-14 14h-42a14 14 0 0 0 14 14 14 14 0 0 0 14 14 14 14 0 0 0 14 14h28a14 14 0 0 0 14-14 14 14 0 0 0 14-14 14 14 0 0 0 14-14h-42a14 14 0 0 0-14-14Z"/><path fill="#338AF3" d="M304 232v48c0 61 80 80 80 80s80-19 80-80v-48H304Z"/><path fill="#EEE" d="M388 245c-9 0-15 8-25 1 5 12 14 9 22 10v6h-14s-14 20 0 38h14v5h-14c-9 0-9-11-9-11h-34v11h7c9 8 13 26 27 26h52c15 0 17-9 20-17 3-7 5-8 6-9v-8h-29s0 8-8 8h-12v-6h14c-11-17 0-37 0-37h-14v-16l-4-1h1Zm-23 17c-20 6-31 26-31 26h25c-2-17 6-26 6-26Zm44 6a34 34 0 0 0-2 23h24c-5-12 0-23 0-23h-22Z"/></g><defs><clipPath id="a"><path fill="#fff" d="M0 0h512v512H0z"/></clipPath><clipPath id="b"><path fill="#fff" d="M0 0h512v512H0z"/></clipPath></defs></svg>