<svg xmlns="http://www.w3.org/2000/svg" width="512" height="512" fill="none"><path fill="var(--flag-palette-white, #eeeeee)" d="M0 136h512v240H0z"/><path fill="var(--flag-palette-bright-red, #d80027)" d="M0 344h512v168H0z"/><path fill="var(--flag-palette-dark-green, #496e2d)" d="M0 0h512v168H0z"/><path fill="var(--flag-palette-black, #333333)" d="m256 200.3 13.8 42.6h44.7L278.4 269l13.8 42.6-36.2-26.3-36.2 26.3 13.8-42.6-36.1-26.2h44.7z"/><path fill="var(--flag-palette-white, #eeeeee)" fill-rule="evenodd" d="M332 50v52c0 8.2-6.6 14.9-14.8 14.9V139a37 37 0 0 0 37.1-37V50zm-159.5 52c0 8.2-6.6 14.9-14.8 14.9V139a37 37 0 0 0 37-37V50h-22.2zm126.2-52h22.2v52h-22.2zm-33.4 29.8a3.7 3.7 0 1 1-7.4 0V50h-22.3v29.7a3.7 3.7 0 1 1-7.4 0V50h-22.3v29.7a26 26 0 0 0 40.8 21.3q6.8 4.5 14.9 4.6l3.2-.2a15 15 0 0 1-14.4 11.4V139a37 37 0 0 0 37.1-37V50h-22.2zm-26 37.1H206l-.1 22.1h33.4z" clip-rule="evenodd"/></svg>