<svg width="512" height="512" viewBox="0 0 512 512" fill="none" xmlns="http://www.w3.org/2000/svg">
<rect y="204.863" width="512" height="307.137" fill="var(--flag-palette-blue, #0052b4)"/>
<rect width="512" height="256" fill="var(--flag-palette-bright-red, #d80027)"/>
<path d="M0 0V512L256 256L0 0Z" fill="var(--flag-palette-white, #eeeeee)"/>
<path d="M28.0617 256C27.9217 257.838 27.8267 259.69 27.8267 261.564C27.8267 301.52 60.2187 333.912 100.175 333.912C140.131 333.912 172.523 301.52 172.523 261.564C172.523 259.69 172.428 257.837 172.288 256H28.0617Z" fill="var(--flag-palette-dark-yellow, #ffc635)"/>
<path d="M100.174 222.608C112.468 222.608 122.435 212.641 122.435 200.347C122.435 188.053 112.468 178.086 100.174 178.086C87.8792 178.086 77.9126 188.053 77.9126 200.347C77.9126 212.641 87.8792 222.608 100.174 222.608Z" fill="var(--flag-palette-dark-yellow, #ffc635)"/>
<path d="M50.0874 194.781V267.129C50.0874 305.469 100.174 317.216 100.174 317.216C100.174 317.216 150.261 305.469 150.261 267.129V194.781H50.0874Z" fill="var(--flag-palette-bright-red, #d80027)"/>
<path d="M100.198 293.92C90.9062 290.576 72.3472 282.03 72.3472 267.13V217.043H128V267.13C128 282.079 109.443 290.604 100.198 293.92Z" fill="var(--flag-palette-light-blue, #338af3)"/>
<path d="M111.304 244.87V233.739L100.174 228.174L89.043 233.739V244.87L83.478 250.435V272.696H116.87V250.435L111.304 244.87Z" fill="var(--flag-palette-light-grey, #f3f3f3)"/>
</svg>