<svg xmlns="http://www.w3.org/2000/svg" width="512" height="512" fill="none"><path fill="var(--flag-palette-dark-red, #a2001d)" d="M512 128v256H0V128z"/><path fill="var(--flag-palette-blue, #0052b4)" d="M512 368v144H0V368z"/><path fill="#333" d="M512 0v144H0V0z"/><path fill="var(--flag-palette-yellow, #ffda44)" fill-rule="evenodd" d="M0 384h512v-32H0zm512-256H0v32h512zm-133.6 72.3H133.6v22.3h244.8zM423 245H89v22h334z" clip-rule="evenodd"/><path fill="#EEE" d="M380 256s-57.2 66.8-124 66.8-66.8-66.8-66.8-66.8 0-66.8 66.8-66.8S380 256 380 256"/><path fill="#333" d="M256 322.8c-66.8 0-124-66.8-124-66.8s57.2-66.8 124-66.8"/><path fill="#EEE" d="M211.5 233.7h22.2v44.6h-22.2z"/><path fill="#333" d="M278.3 233.7h22.2v44.6h-22.2z"/><path fill="var(--flag-palette-dark-brown, #584528)" fill-rule="evenodd" d="M111.3 256a22.3 22.3 0 1 1-44.5 0 22.3 22.3 0 0 1 44.5 0m334 0a22.3 22.3 0 1 1-44.6 0 22.3 22.3 0 0 1 44.5 0" clip-rule="evenodd"/></svg>