<svg xmlns="http://www.w3.org/2000/svg" width="512" height="512" fill="none"><path fill="#FFDA44" d="M0 126.7h512v69.4H0zm0 190h512v67.7H0z"/><path fill="#333" d="M0 0h512v144.7H0z"/><path fill="#0052B4" d="M0 367.3h512V512H0z"/><path fill="#A2001D" d="M0 178.1h512v155.8H0z"/><path fill="#FFDA44" fill-rule="evenodd" d="M378.4 200.3H133.6v22.3h244.8v-22.3ZM423 245H89v22h334v-22Z" clip-rule="evenodd"/><path fill="#EEE" d="M380 256s-57.2 66.8-124 66.8-66.8-66.8-66.8-66.8 0-66.8 66.8-66.8S380 256 380 256Z"/><path fill="#333" d="M256 322.8c-66.8 0-124-66.8-124-66.8s57.2-66.8 124-66.8"/><path fill="#EEE" d="M211.5 233.7h22.2v44.6h-22.2v-44.6Z"/><path fill="#333" d="M278.3 233.7h22.2v44.6h-22.2v-44.6Z"/><path fill="#0052B4" fill-rule="evenodd" d="M111.3 256a22.3 22.3 0 1 1-44.5 0 22.3 22.3 0 0 1 44.5 0Zm334 0a22.3 22.3 0 1 1-44.6 0 22.3 22.3 0 0 1 44.5 0Z" clip-rule="evenodd"/></svg>