<svg xmlns="http://www.w3.org/2000/svg" width="512" height="512" fill="none"><path fill="var(--flag-palette-navy, #002266)" d="M0 0h512v512H0z"/><path fill="var(--flag-palette-navy, #002266)" d="M0 0h256v256H0z"/><path fill="var(--flag-palette-white, #eeeeee)" d="M232 256h24v-24L152 128 256 24V0h-24L128 104 24 0H0v24l104 104L0 232v24h24l104-104z"/><path fill="var(--flag-palette-white, #eeeeee)" d="M256 160V96h-96V0H96v96H0v64h96v96h64v-96z"/><path fill="var(--flag-palette-bright-red, #d80027)" d="M256 144v-32H144V0h-32v112H0v32h112v112h32V144z"/><path fill="var(--flag-palette-bright-red, #d80027)" d="M0 16V0l96 96H80zm256 224v16l-96-96h16zM16 256H0l96-96v16zM240 0h16l-96 96V80z"/><path fill="var(--flag-palette-white, #eeeeee)" d="m336 204 48-80 48 80z"/><path fill="var(--flag-palette-white, #eeeeee)" fill-rule="evenodd" d="M296.7 358.6q5.6 3.1 11.4 6l.5.2-1.3 3-1.2 2.7 2.8 1.3a183 183 0 0 0 150.3 0l2.8-1.3-1.3-2.8-1.3-2.9.6-.3q5.8-2.7 11.4-6l4.6-2.5-4.6-2.8-9.5-6q-.2-6.2-.7-12.1l-.5-4.8-4.2 2.3a149 149 0 0 1-11.6 6l-6.2 2.8 1.8 5a151 151 0 0 1-113.2-.2l2-4.8-6.2-2.8q-5.9-2.7-11.6-6l-4.2-2.4-.4 4.9q-.4 6-.6 12.1l-9.7 6-4.6 2.7z" clip-rule="evenodd"/><path fill="var(--flag-palette-light-blue, #338af3)" d="M384 252a48 48 0 1 0 0-96 48 48 0 0 0 0 96"/><path fill="var(--flag-palette-light-blue, #338af3)" d="M336 204v48l48 32 48-32v-48z"/><path fill="var(--flag-palette-gold, #ff9811)" d="M336 204a16 16 0 1 0-32 0v96a16 16 0 1 0 32 0zm128 0a16 16 0 1 0-32 0v96a16 16 0 1 0 32 0z"/><path fill="var(--flag-palette-white, #eeeeee)" d="M336 252v29c0 36 48 48 48 48s48-12 48-48v-29zm48-48-16 48h32z"/><path fill="var(--flag-palette-light-blue, #338af3)" d="m368 252 16 48 16-48z"/></svg>