<svg xmlns="http://www.w3.org/2000/svg" width="512" height="512" fill="none"><path fill="#026" d="M0 0h512v512H0z"/><path fill="#026" d="M0 0h256v256H0z"/><path fill="#EEE" d="M232 256h24v-24L152 128 256 24V0h-24L128 104 24 0H0v24l104 104L0 232v24h24l104-104 104 104Z"/><path fill="#EEE" d="M256 160V96h-96V0H96v96H0v64h96v96h64v-96h96Z"/><path fill="#D80027" d="M256 144v-32H144V0h-32v112H0v32h112v112h32V144h112Z"/><path fill="#D80027" d="M0 16V0l96 96H80L0 16Zm256 224v16l-96-96h16l80 80ZM16 256H0l96-96v16l-80 80ZM240 0h16l-96 96V80l80-80Z"/><path fill="#FFDA44" d="M306 155.8v122.5c0 59.6 78 77.9 78 77.9s78-18.3 78-78V155.9H306Z"/><path fill="#FF9811" d="M372.9 200.3c0 12.3-10 44.6-22.3 44.6s-22.2-32.3-22.2-44.6c0-12.3 22.2-22.2 22.2-22.2s22.3 10 22.3 22.2Z"/><path fill="#A2001D" d="M432 224.6a92.2 92.2 0 0 0 6.3-28c0-10.2-13.3-18.5-13.3-18.5s-13.4 8.3-13.4 18.5c0 6.4 2.8 19.2 6.4 28l-7.7 17.4a39 39 0 0 0 29.4 0l-7.7-17.4Z"/><path fill="#6DA544" d="M367.3 278.3s-11.1 22.2-11.1 44.5h55.6c0-22.3-11-44.5-11-44.5L384 267l-16.7 11.2Z"/><path fill="#D80027" d="M400.7 278.3v-5.6a16.7 16.7 0 0 0-33.4 0v5.6h33.4Z"/></svg>