<svg xmlns="http://www.w3.org/2000/svg" width="512" height="512" fill="none"><g clip-path="url(#a)"><path fill="#026" d="M0 0h512v512H0z"/><path fill="#EEE" fill-rule="evenodd" d="m336 277-13-21h122l-13 21h-36v12h28l-12 20h-16v39l27-43 37 59h-18l-3.4-6h-31.2L384 400l-23.4-42h-31.2l-3.4 6h-18l37-59 27 43v-71h-36Zm1.2 67h15.6l-7.8-14-7.8 14Zm78 0h15.6l-7.8-14-7.8 14Zm-109-50-5.2-15-5.1 15H280l12.9 8.7L288 317l13-8.8 13 8.8-4.9-14.3L322 294h-15.9Zm166 0-5.2-15-5.1 15H446l12.9 8.7L454 317l13-8.8 13 8.8-4.9-14.3L488 294h-15.9Zm-128 101-5.2-15-5.1 15H318l12.9 8.7L326 418l13-8.8 13 8.8-4.9-14.3L360 395h-15.9Zm90 0-5.2-15-5.1 15H408l12.9 8.7L416 418l13-8.8 13 8.8-4.9-14.3L450 395h-15.9Zm-45 34-5.2-15-5.1 15H363l12.9 8.7L371 452l13-8.8 13 8.8-4.9-14.3L405 429h-15.9Z" clip-rule="evenodd"/><path fill="#EEE" d="M0 0h256v256H0z"/><path fill="#026" d="M0 0h75v224H0V0Z"/><path fill="#EEE" d="M75 0h74v224H75V0Z"/><path fill="#D80027" d="M149 0h75v224h-75V0Z"/></g><defs><clipPath id="a"><path fill="#fff" d="M0 0h512v512H0z"/></clipPath></defs></svg>