<svg xmlns="http://www.w3.org/2000/svg" width="512" height="512" fill="none"><path fill="#FFDA44" d="M0 0h512v512H0z"/><path fill="#D80027" d="M480 480V32H32v447.6h447.6l.4.4Z"/><path fill="#0052B4" d="m32 32 224 224-92.8-224H256v224L32 163.2V32Zm0 316.8V256h224L32 348.8ZM480 480 256 256l224 92.8V480Zm0-224H256l224-92.8V256Zm0-224L256 256l92.8-224H480Z"/><circle cx="256" cy="256" r="89" fill="#FFDA44"/><path fill="#EEE" d="m256 256 224 224H32l224-224Z"/><circle cx="256" cy="384" r="39" fill="#FFC635"/></svg>