<svg xmlns="http://www.w3.org/2000/svg" width="512" height="512" fill="none"><path fill="#FFDA44" d="M0 0h512v512H0z"/><path fill="#D80027" d="M512 480V32H32v447.6h479.5z"/><path fill="#026" d="m32 32 240 224-99.4-224H272v224L32 163.2zm0 316.8V256h240zM512 480 272 256l240 92.8zm0-224H272l240-92.8zm0-224L272 256l99.5-224z"/><circle cx="272" cy="256" r="89" fill="#FFDA44"/><path fill="#EEE" d="m272 256 240 224H32z"/><path fill="#FF9811" d="m272 356.9 24 24h-48z"/><path fill="#D80027" d="M270.9 293.5c-.6 2-1.2 3.3-2 4.9q-1.6 2.1-4.3 4c-2.2 1.6-4.8 3.4-6.4 6.5q-2.9 5.9-3.1 8.6l-.4-2.8a23 23 0 0 1 .5-6.4c.3-1.9.5-3-.2-1.9l-1.6 1.8c-2.8 3.1-8.6 9.5-9.7 15.2-.9 3.3-1.2 5.5 0 8.8 1 4 2.4 5.5 5.8 9.4l.8.9c.5.4.2-1.8-.3-4l-.5-4.1c-.3-1.4.3-.1 1.3 1.9a40 40 0 0 0 7.9 11.1c3 2.5 9.3 7 8.7 6.3a11 11 0 0 1-2-4.3l-.3-1.2c-.9-3.2-.9-5.7 0-9.3q.6-2.3 1.6-4.4 1.1-2 1-2.9c.2-1.3.5.2.8 2l.7 2.8c.8 3 2.4 6.3 3.6 9.1s2.3 5 2.1 5.6c-.3.4 4.4-3 6.4-5.1 2.7-2.7 4.2-7.3 5-9.6q.4-1.5.5-1.4c2.3 3 1.5 8.2 1.2 8.8s3.5-2.3 4.9-4.3c4.3-5.3 3.2-9.6 1.5-15.7l-1.7-3.9c-.8-1.4-1.5-2.7-2.1-5-.3-1.3.6-4 1.1-5.7.5-1.4.7-2.1-.2-.6q-1 1-3.2 2.7c-2.1 1.7-4.7 3.7-6.1 5.8l-.3.4.8-2.8.5-1.3q.2-1 1-2c.5-.8-3.2 1.8-4.8 3.3a10 10 0 0 0-3 3.8c.2-2.5 2.3-7.7 2.6-8.1.3-.8.6-2.6.3-4-.3-2-2-6.5-1.7-4.7.2 3.6-1.8 6.3-5 9.3q-3 2.3-6 5.6a14 14 0 0 1 2.8-8.2c3.2-3.7 5.2-8.1 4.1-13-.3-2.1-1.7-6.5-1.7-5.5q-.1 1.3-.5 2.2z"/><circle cx="272" cy="432" r="32" fill="#FFDA44"/><circle cx="272" cy="432" r="24" fill="#FF9811"/><path fill="#026" d="M296 432a24 24 0 1 1-48 0 12 12 0 1 1 24 0 12 12 0 1 0 24 0"/><path fill="#6DA544" d="m149 414.7 35.3-42a20 20 0 0 1 30.6 25.6l-.8 1a20 20 0 0 1-11 5.8zm246 0-35.3-42a20 20 0 0 0-30.6 25.6l.8 1q4.4 4.6 11 5.8z"/></svg>