<svg xmlns="http://www.w3.org/2000/svg" width="512" height="512" fill="none"><path fill="#FFDA44" d="M0 0h512v512H0z"/><path fill="#496E2D" d="M44.5 44.5h423v423h-423z"/><path fill="#D80027" d="M467.5 467.5v-423h-423v422.6h422.6l.4.4Z"/><path fill="#0052B4" d="M44.5 44.5 256 256 168.4 44.5H256V256L44.5 168.4V44.5Zm0 299.1V256H256L44.5 343.6Zm423 123.9L256 256l211.5 87.6v123.9Zm0-211.5H256l211.5-87.6V256Zm0-211.5L256 256l87.6-211.5h123.9Z"/><circle cx="256" cy="256" r="89" fill="#FFDA44"/><path fill="#EEE" d="m256 256 211 211H45l211-211Z"/><circle cx="256" cy="384" r="39" fill="#FFC635"/></svg>