<svg xmlns="http://www.w3.org/2000/svg" width="512" height="512" fill="none"><path fill="#FFDA44" d="M0 0h512v512H0z"/><path fill="#D80027" d="M512 480V32H32v447.6h479.5l.5.4Z"/><path fill="#026" d="m32 32 240 224-99.4-224H272v224L32 163.2V32Zm0 316.8V256h240L32 348.8ZM512 480 272 256l240 92.8V480Zm0-224H272l240-92.8V256Zm0-224L272 256l99.5-224H512Z"/><circle cx="272" cy="256" r="89" fill="#FFDA44"/><path fill="#EEE" d="m272 256 240 224H32l240-224Z"/><path fill="#FF9811" d="m272 356.9 24 24h-48l24-24Z"/><path fill="#D80027" d="M270.9 293.5c-.6 2-1.2 3.3-2 4.9-1 1.5-2.5 2.7-4.3 4-2.2 1.6-4.8 3.4-6.4 6.5-2 4-2.9 6.7-3.1 8.6a23 23 0 0 1 0-9.1c.4-2 .6-3.1-.1-2l-1.6 1.8c-2.8 3.1-8.6 9.5-9.7 15.2-.9 3.3-1.2 5.5 0 8.8 1 4 2.4 5.5 5.8 9.4l.8.9c.5.4.2-1.8-.3-4l-.5-4.1c-.3-1.4.3-.1 1.3 1.9a40.4 40.4 0 0 0 7.9 11.1c3 2.5 9.3 7 8.7 6.3a10.9 10.9 0 0 1-2-4.3l-.3-1.2c-.9-3.2-.9-5.7 0-9.3.3-1.5 1-3 1.6-4.4.7-1.3 1.1-2.4 1-2.9.2-1.3.5.2.8 2 .2 1 .4 2.1.7 2.8.8 3 2.4 6.3 3.6 9.1 1.3 2.8 2.3 5 2.1 5.6-.3.4 4.4-3 6.4-5.1 2.7-2.7 4.2-7.3 5-9.6.3-1 .4-1.5.5-1.4 2.3 3 1.5 8.2 1.2 8.8-.3.6 3.5-2.3 4.9-4.3 4.3-5.3 3.2-9.6 1.5-15.7-.6-1.6-1.2-2.8-1.8-3.9-.7-1.4-1.4-2.7-2-5-.3-1.3.6-4 1.1-5.7.5-1.4.7-2.1-.2-.6-.6.7-1.8 1.6-3.2 2.7-2.1 1.7-4.7 3.7-6.1 5.8l-.3.4.8-2.8.5-1.3c.2-.7.4-1.3 1-2 .5-.8-3.2 1.8-4.8 3.3a9.7 9.7 0 0 0-3 3.8c.2-2.5 2.3-7.7 2.6-8.1.3-.8.6-2.6.3-4-.3-2-2-6.5-1.7-4.7.2 3.6-1.8 6.3-5 9.3-2 1.6-4 3.4-6 5.6a14 14 0 0 1 2.8-8.2c3.2-3.7 5.2-8.1 4.1-13-.3-2.1-1.7-6.5-1.7-5.5 0 .9-.3 1.5-.5 2.2l-.4 1.4Z"/><circle cx="272" cy="432" r="32" fill="#FFDA44"/><circle cx="272" cy="432" r="24" fill="#FF9811"/><path fill="#026" d="M296 432a24 24 0 1 1-48 0 12 12 0 1 1 24 0 12 12 0 1 0 24 0Z"/><path fill="#6DA544" d="m149 414.7 35.3-42a20 20 0 0 1 30.6 25.6l-.8 1a20 20 0 0 1-11 5.8l-54.1 9.6Zm246 0-35.3-42a20 20 0 0 0-30.6 25.6l.8 1c2.9 3 6.6 5 11 5.8l54.1 9.6Z"/></svg>