<svg width="512" height="512" viewBox="0 0 512 512" fill="none" xmlns="http://www.w3.org/2000/svg">
<path d="M512 128V384H0L1.11901e-05 128L512 128Z" fill="var(--flag-palette-white, #eeeeee)"/>
<path d="M512 368V512L0 512L6.29444e-06 368L512 368Z" fill="var(--flag-palette-green, #6da544)"/>
<path d="M512 2.23802e-05V144L0 144L6.29444e-06 0L512 2.23802e-05Z" fill="var(--flag-palette-bright-red, #d80027)"/>
<path d="M211.479 322.782H300.523V284.938L282.714 293.842L256.001 267.129L229.288 293.842L211.479 284.938V322.782Z" fill="var(--flag-palette-dark-yellow, #ffc635)"/>
<path d="M160.532 278.26L164.677 291.014H178.087L167.237 298.897L171.382 311.651L160.532 303.769L149.682 311.651L153.827 298.897L142.977 291.014H156.387L160.532 278.26Z" fill="var(--flag-palette-dark-yellow, #ffc635)"/>
<path d="M173.381 233.738L177.526 246.492H190.936L180.086 254.375L184.23 267.129L173.381 259.247L162.531 267.129L166.676 254.375L155.826 246.492H169.236L173.381 233.738Z" fill="var(--flag-palette-dark-yellow, #ffc635)"/>
<path d="M210.112 200.348L214.257 213.102H227.666L216.818 220.985L220.961 233.739L210.112 225.857L199.263 233.739L203.407 220.985L192.557 213.102H205.968L210.112 200.348Z" fill="var(--flag-palette-dark-yellow, #ffc635)"/>
<path d="M351.467 278.26L347.322 291.014H333.912L344.762 298.897L340.617 311.651L351.467 303.769L362.316 311.651L358.172 298.897L369.022 291.014H355.612L351.467 278.26Z" fill="var(--flag-palette-dark-yellow, #ffc635)"/>
<path d="M338.619 233.738L334.474 246.492H321.064L331.914 254.375L327.769 267.129L338.619 259.247L349.469 267.129L345.324 254.375L356.174 246.492H342.764L338.619 233.738Z" fill="var(--flag-palette-dark-yellow, #ffc635)"/>
<path d="M301.886 200.348L297.741 213.102H284.332L295.18 220.985L291.036 233.739L301.886 225.857L312.735 233.739L308.591 220.985L319.44 213.102H306.03L301.886 200.348Z" fill="var(--flag-palette-dark-yellow, #ffc635)"/>
<path d="M256 183.65L260.145 196.404H273.555L262.705 204.287L266.85 217.041L256 209.159L245.15 217.041L249.295 204.287L238.445 196.404H251.855L256 183.65Z" fill="var(--flag-palette-dark-yellow, #ffc635)"/>
</svg>