<svg xmlns="http://www.w3.org/2000/svg" width="512" height="512" fill="none"><path fill="#EEE" d="M512 128v256H0V128h512Z"/><path fill="#6DA544" d="M512 368v144H0V368h512Z"/><path fill="#D80027" d="M512 0v144H0V0h512Z"/><path fill="#FFC635" d="M211.5 322.8h89v-37.9l-17.8 9L256 267l-26.7 26.7-17.8-8.9v37.9Zm-51-44.5 4.2 12.7H178l-10.9 7.9 4.2 12.8-10.9-8-10.8 8 4.1-12.8L143 291h13.4l4.1-12.7Zm12.9-44.6 4.1 12.8H191l-10.8 7.9 4.1 12.7-10.8-7.9-10.9 8 4.2-12.8-10.9-8h13.4l4.2-12.7Zm36.7-33.4 4.2 12.8h13.4l-10.9 7.9 4.2 12.7-11-7.7-10.8 7.8 4.1-12.7-10.8-7.9H206l4.1-12.8Zm141.4 78-4.2 12.7H334l10.9 7.9-4.2 12.8 10.9-8 10.8 8-4.1-12.8L369 291h-13.4l-4.1-12.7Zm-12.9-44.6-4.1 12.8H321l10.8 7.9-4.1 12.7 10.8-7.9 10.9 8-4.2-12.8 10.9-8h-13.4l-4.2-12.7Zm-36.7-33.4-4.2 12.8h-13.4l10.9 7.9-4.2 12.7 11-7.7 10.8 7.8-4.1-12.7 10.8-7.9H306l-4.1-12.8ZM256 183.7l4.1 12.7h13.5l-10.9 7.9 4.1 12.7-10.8-7.8-10.9 7.8 4.2-12.7-10.9-7.9H252l4.1-12.8Z"/></svg>