<svg xmlns="http://www.w3.org/2000/svg" width="512" height="512" fill="none"><path fill="var(--flag-palette-dark-green, #496e2d)" d="M0 0h512v512H0z"/><path fill="var(--flag-palette-bright-red, #d80027)" d="M64 0h128v512H64z"/><path fill="var(--flag-palette-white, #eeeeee)" d="M358.5 100.8q8.3 1 16.3 4A78 78 0 1 1 307.1 244a78 78 0 0 0 51.4-143.3m-41.6 95.8 16.9 6-17.2 5-.5 18-10.1-14.8-17.2 5 11-14.2-10-14.7 16.7 6 11-14.1zm-50.2-18 16.8 6-17.1 5-.6 18-10-14.8-17.2 5 11-14.2-10.1-14.8 16.8 6 11-14zm82.9-23.5 16.8 6-17.2 5-.5 18-10-14.8-17.2 5 11-14.2-10.2-14.7 16.9 6 11-14.1zm-81.7-29.3 16.8 6-17.1 5-.6 18-10-14.8-17.2 5 11-14.2-10.1-14.7 16.8 6 11-14.1zM320 109l16.9 6-17.2 5-.6 18-10-14.8-17.2 5 11-14.1-10.1-14.8 16.8 6 11-14.1zM112.2 85.2 89.8 68.6V45l22.4-16.7h31.6L166.2 45v23.6l-22.4 16.6z"/><path fill="var(--flag-palette-gold, #ff9811)" d="M128 28.3h-15.8L89.8 45v11.5H128zm0 56.9h15.8l22.4-16.6v-12H128z"/><path fill="var(--flag-palette-dark-green, #496e2d)" d="M167 146.8h-9.8V137h-17.1L128 125l-12.1 12H98.8v9.8H89v19.5h9.8v9.7h17.1l12.1 12.1 12.1-12.1h17.1v-9.7h9.8z"/><path fill="var(--flag-palette-bright-red, #d80027)" d="M128 167.7a11.1 11.1 0 1 0 0-22.3 11.1 11.1 0 0 0 0 22.3"/><path fill="var(--flag-palette-dark-green, #496e2d)" d="m112.2 284.4-22.4-16.6v-23.6l22.4-16.6h31.6l22.4 16.6v23.6l-22.4 16.6z"/><path fill="var(--flag-palette-bright-red, #d80027)" d="M116.9 244.9H139V267h-22z"/><path fill="var(--flag-palette-dark-green, #496e2d)" d="M167 345.7h-9.8V336h-17.1L128 323.9 115.9 336H98.8v9.7H89v19.5h9.8v9.8h17.1l12.1 12 12.1-12h17.1v-9.8h9.8z"/><path fill="var(--flag-palette-bright-red, #d80027)" d="M128 366.6a11.1 11.1 0 1 0 0-22.2 11.1 11.1 0 0 0 0 22.2"/><path fill="var(--flag-palette-white, #eeeeee)" d="m112.2 483.4-22.4-16.7v-23.5l22.4-16.7h31.6l22.4 16.7v23.5l-22.4 16.7z"/><path fill="var(--flag-palette-gold, #ff9811)" d="M128 426.5h-15.8l-22.4 16.7v11.5H128zm0 56.9h15.8l22.4-16.7v-12H128z"/></svg>