<svg xmlns="http://www.w3.org/2000/svg" width="512" height="512" fill="none"><path fill="#496E2D" d="M0 0h512v512H0z"/><path fill="#D80027" d="M66.8 0h133.6v512H66.8z"/><path fill="#EEE" d="M390.4 193.1a78 78 0 0 0-31.9-92.3 78 78 0 1 1-51.4 143.3 78 78 0 0 0 83.3-51ZM320.6 91.2l-11 14.1-16.8-6 10 14.8-10.9 14 17.2-5 10 14.9.6-18 17.2-5-16.9-6 .6-17.8Z"/><path fill="#EEE" d="m350.1 137.3-11 14-16.8-6 10.1 14.8-11 14.2 17.2-5 10.1 14.7.5-17.8 17.2-5-16.8-6 .5-18ZM268.5 108l-11 14-16.8-6 10 14.8-10.9 14.2 17.2-5 10 14.7.6-17.8 17.1-5-16.8-6 .6-18Zm-1.2 52.7-11 14.2-16.8-6 10 14.7-10.9 14.2 17.2-5 10 14.7.6-17.8 17.1-5-16.8-6 .6-18Zm50.2 18.1-11 14.1-16.8-6 10 14.7-10.9 14.2 17.2-5 10 14.8.6-18 17.2-5-16.9-6 .6-17.8ZM117.8 85.5 95.4 68.8V45.3l22.4-16.7h31.6l22.3 16.7v23.5l-22.3 16.7h-31.6Z"/><path fill="#FF9811" d="M133.6 28.6h-15.8L95.4 45.3v11.5h38.2V28.6Zm0 56.9h15.8l22.3-16.7v-12h-38.1v28.7Z"/><path fill="#EEE" d="m117.8 483.4-22.4-16.7v-23.5l22.4-16.7h31.6l22.3 16.7v23.5l-22.3 16.7h-31.6Z"/><path fill="#FF9811" d="M133.6 426.5h-15.8l-22.4 16.7v11.5h38.2v-28.2Zm0 56.9h15.8l22.3-16.7v-12h-38.1v28.7Z"/><path fill="#496E2D" d="m117.8 284.4-22.4-16.6v-23.6l22.4-16.6h31.6l22.3 16.6v23.6l-22.3 16.6h-31.6Z"/><path fill="#D80027" d="M122.4 244.9h22.3V267h-22.3v-22Z"/><path fill="#496E2D" d="M172.5 146.8h-9.7V137h-17.1l-12.1-12-12.1 12h-17.2v9.8h-9.7v19.5h9.7v9.7h17.2l12 12.1 12.2-12.1h17v-9.7h9.8v-19.5Z"/><path fill="#D80027" d="M133.6 167.6a11.1 11.1 0 1 0 0-22.2 11.1 11.1 0 0 0 0 22.2Z"/><path fill="#496E2D" d="M172.5 345.7h-9.7V336h-17.1l-12.1-12.1-12.1 12.1h-17.2v9.7h-9.7v19.5h9.7v9.8h17.2l12 12 12.2-12h17v-9.8h9.8v-19.5Z"/><path fill="#D80027" d="M133.6 366.6a11.1 11.1 0 1 0 0-22.2 11.1 11.1 0 0 0 0 22.2Z"/></svg>