<svg width="512" height="512" viewBox="0 0 512 512" fill="none" xmlns="http://www.w3.org/2000/svg">
<rect width="512" height="512" fill="var(--flag-palette-bright-red, #d80027)"/>
<path fill-rule="evenodd" clip-rule="evenodd" d="M378.435 255.999C378.435 323.618 323.619 378.434 256 378.434C188.381 378.434 133.565 323.618 133.565 255.999C133.565 188.38 188.381 133.564 256 133.564C323.619 133.564 378.435 188.38 378.435 255.999ZM283.826 328.347C243.87 328.347 211.478 295.955 211.478 255.999C211.478 216.043 243.87 183.651 283.826 183.651C296.284 183.651 308.007 186.801 318.241 192.347C302.186 176.646 280.231 166.955 256 166.955C206.824 166.955 166.957 206.821 166.957 255.998C166.957 305.175 206.824 345.041 256 345.041C280.231 345.041 302.187 335.35 318.241 319.649C308.007 325.197 296.284 328.347 283.826 328.347ZM271.083 209.186L292.087 238.131L326.104 227.101L305.067 256.021L326.069 284.965L292.063 273.893L271.026 302.813L271.048 267.052L237.043 255.98L271.061 244.95L271.083 209.186Z" fill="var(--flag-palette-white, #eeeeee)"/>
</svg>