<svg width="512" height="512" viewBox="0 0 512 512" fill="none" xmlns="http://www.w3.org/2000/svg">
<rect width="512" height="512" fill="var(--flag-palette-bright-red, #d80027)"/>
<path fill-rule="evenodd" clip-rule="evenodd" d="M210.356 358.068C225.789 365.747 242.763 369.827 260 370C279 370 297 366 314 357C294.137 376.349 269.009 389.412 241.76 394.554C214.511 399.697 186.351 396.69 160.802 385.911C135.253 375.131 113.45 357.058 98.1198 333.951C82.7896 310.844 74.613 283.73 74.613 256C74.613 228.27 82.7896 201.156 98.1198 178.049C113.45 154.942 135.253 136.869 160.802 126.089C186.351 115.31 214.511 112.303 241.76 117.446C269.009 122.588 294.137 135.651 314 155C298.727 147.007 281.839 142.583 264.609 142.058C247.379 141.534 230.254 144.925 214.523 151.974C198.792 159.024 184.865 169.549 173.789 182.758C162.713 195.968 154.777 211.517 150.577 228.236C146.378 244.955 146.025 262.408 149.545 279.284C153.065 296.159 160.366 312.016 170.899 325.662C181.432 339.308 194.923 350.388 210.356 358.068ZM351.077 239.404L300 256L351.077 272.596V326.302L382.645 282.853L433.723 299.449L402.155 256L433.723 212.551L382.645 229.147L351.077 185.698V239.404Z" fill="var(--flag-palette-white, #eeeeee)"/>
</svg>