<svg xmlns="http://www.w3.org/2000/svg" width="512" height="512" fill="none"><path fill="var(--flag-palette-light-blue, #338af3)" d="M0 0h512v512H0z"/><path fill="var(--flag-palette-blue, #0052b4)" d="M0 0h256v256H0z"/><path fill="#EEE" d="M232 256h24v-24L152 128 256 24V0h-24L128 104 24 0H0v24l104 104L0 232v24h24l104-104z"/><path fill="#EEE" d="M256 160V96h-96V0H96v96H0v64h96v96h64v-96z"/><path fill="var(--flag-palette-bright-red, #d80027)" d="M256 144v-32H144V0h-32v112H0v32h112v112h32V144z"/><path fill="var(--flag-palette-bright-red, #d80027)" d="M0 16V0l96 96H80zm256 224v16l-96-96h16zM16 256H0l96-96v16zM240 0h16l-96 96V80z"/><path fill="var(--flag-palette-yellow, #ffda44)" d="m279.4 423 5.5 17h18l-14.6 10.5 5.6 17-14.5-10.5-14.5 10.5 5.6-17L256 440h17.9zm142.4-111.3 5.5 17h18l-14.5 10.5 5.5 17-14.5-10.5-14.5 10.5 5.6-17-14.5-10.5h17.9zm35.7-167 5.5 17h18l-14.5 10.5 5.6 17-14.5-10.5-14.5 10.5 5.6-17-14.5-10.5H452zm8.8 122.4 5.6 17h17.8l-14.4 10.5 5.5 17-14.5-10.5-14.4 10.6 5.5-17-14.5-10.6h18zM305 383l16 8 12.6-12.6-2.8 17.7 16 8.1L329 407l-2.8 17.7-8.1-16-17.7 2.8 12.7-12.6zm0-66.8 16 8 12.6-12.6-2.8 17.7 16 8.1-17.7 2.8-2.8 17.7-8.1-16-17.7 2.9 12.7-12.7zm55.7 42.8 16 8.1 12.6-12.6-2.8 17.6 16 8.1-17.8 2.8-2.7 17.7-8.2-16-17.6 2.9 12.6-12.7zm0-143 16 8.1 12.6-12.6-2.8 17.6 16 8.2-17.8 2.8-2.7 17.6-8.2-16-17.6 2.9 12.6-12.7zm53.9-1.7 16 8.1 12.6-12.6-2.8 17.6 16 8.1-17.7 2.8-2.8 17.7-8.1-16-17.8 3 12.7-12.7z"/></svg>