<svg xmlns="http://www.w3.org/2000/svg" width="512" height="512" fill="none"><path fill="#D80027" d="M0 0h512v512H0z"/><path fill="#0052B4" d="M0 0h256v256H0z"/><path fill="#EEE" d="m204.5 128-31.3 14.7L190 173l-34-6.5-4.3 34.3-23.6-25.2-23.7 25.2-4.3-34.3-33.9 6.5 16.6-30.3L51.5 128l31.2-14.7L66.1 83l34 6.5 4.2-34.3L128 80.4l23.6-25.2 4.3 34.3 34-6.5-16.7 30.3 31.3 14.7Z"/><path fill="#0052B4" d="M128 175.7a47.7 47.7 0 1 0 0-95.4 47.7 47.7 0 0 0 0 95.4Z"/><path fill="#EEE" d="M128 153.4a25.4 25.4 0 1 1 0-50.8 25.4 25.4 0 0 1 0 50.8Z"/></svg>