<svg width="512" height="512" viewBox="0 0 512 512" fill="none" xmlns="http://www.w3.org/2000/svg">
<rect width="512" height="512" fill="var(--flag-palette-bright-red, #d80027)"/>
<rect width="256" height="256" fill="var(--flag-palette-blue, #0052b4)"/>
<path fill-rule="evenodd" clip-rule="evenodd" d="M204.515 127.999L173.359 142.656C174.852 138.037 175.658 133.109 175.658 127.994C175.658 122.884 174.853 117.963 173.365 113.349L204.515 127.999ZM156.066 166.512C164.06 160.679 170.169 152.417 173.308 142.813L189.898 172.986L156.066 166.512ZM128.079 175.647C138.483 175.631 148.105 172.281 155.935 166.608L151.646 200.787L128.079 175.647ZM100.065 166.601C107.894 172.277 117.517 175.629 127.922 175.647L104.352 200.787L100.065 166.601ZM82.6968 142.801C85.835 152.41 91.9451 160.675 99.9412 166.511L66.1014 172.984L82.6968 142.801ZM80.3516 127.994C80.3516 133.11 81.158 138.039 82.6506 142.658L51.4854 127.999L82.6462 113.343C81.1564 117.959 80.3516 122.882 80.3516 127.994ZM99.9289 89.4856C91.9372 95.3222 85.8309 103.586 82.6948 113.193L66.1014 83.0139L99.9289 89.4856ZM127.91 80.3409C117.51 80.361 107.892 83.7129 100.066 89.3861L104.353 55.2129L127.91 80.3409ZM155.933 89.3785C148.107 83.7084 138.489 80.3592 128.09 80.3409L151.647 55.2129L155.933 89.3785ZM189.899 83.0139L156.078 89.4842C164.068 95.319 170.174 103.58 173.311 113.184L189.899 83.0139ZM102.61 127.998C102.61 141.999 114 153.39 128.001 153.39C142 153.39 153.392 141.999 153.393 127.998C153.393 113.997 142.002 102.606 128.001 102.606C114.001 102.606 102.61 113.997 102.61 127.998Z" fill="var(--flag-palette-white, #eeeeee)"/>
</svg>