<svg xmlns="http://www.w3.org/2000/svg" width="512" height="512" fill="none"><path fill="var(--flag-palette-bright-red, #d80027)" d="M0 0h512v512H0z"/><path fill="var(--flag-palette-blue, #0052b4)" d="M0 0h256v256H0z"/><path fill="var(--flag-palette-white, #eeeeee)" fill-rule="evenodd" d="m204.5 128-31.1 14.7a48 48 0 0 0 0-29.4zm-48.4 38.5c8-5.8 14-14 17.2-23.7L190 173zm-28 9.1c10.4 0 20-3.3 27.8-9l-4.3 34.2zm-28-9c7.8 5.7 17.4 9 27.8 9l-23.5 25.2zm-17.4-23.8a48 48 0 0 0 17.2 23.7L66.1 173zM80.4 128q0 7.7 2.3 14.7L51.5 128l31.1-14.7a48 48 0 0 0-2.2 14.7m19.5-38.5a48 48 0 0 0-17.2 23.7L66 83zm28-9.2c-10.4 0-20 3.4-27.8 9l4.3-34zm28 9c-7.8-5.6-17.4-9-27.8-9l23.5-25zm34-6.3-33.8 6.5c8 5.8 14 14 17.2 23.7zm-87.3 45a25.4 25.4 0 1 0 50.9 0 25.4 25.4 0 0 0-50.9 0" clip-rule="evenodd"/></svg>