<svg xmlns="http://www.w3.org/2000/svg" width="512" height="512" fill="none"><path fill="var(--flag-palette-bright-red, #d80027)" d="M0 0h512v512H0z"/><path fill="var(--flag-palette-blue, #0052b4)" d="M0 0h256v256H0z"/><path fill="var(--flag-palette-white, #eeeeee)" d="M100 166.6c7.9 5.7 17.5 9 28 9l-23.6 25.2zm51.6 34.2-23.5-25.2c10.4 0 20-3.3 27.8-9zM190 173l-33.8-6.5c8-5.8 14-14 17.2-23.7zM82.7 142.8a48 48 0 0 0 17.2 23.7L66.1 173zm45.3-40.2a25.4 25.4 0 1 1 0 50.9 25.4 25.4 0 0 1 0-50.9m-45.3 10.7a48 48 0 0 0 0 29.4L51.5 128zM204.5 128l-31.1 14.7a48 48 0 0 0 0-29.4zM100 89.5a48 48 0 0 0-17.2 23.7L66.1 83zm73.4 23.7a48 48 0 0 0-17.2-23.7L190 83zM128 80.3c-10.4 0-20 3.4-27.8 9l4.3-34zm28 9c-7.8-5.6-17.4-9-27.8-9l23.5-25z"/></svg>