<svg xmlns="http://www.w3.org/2000/svg" width="512" height="512" fill="none"><g clip-path="url(#a)"><path fill="#D80027" d="M71 0 0 34v91l16 35-16 36v60l256 64 256-64v-60l-16-36 16-35V34L441 0h-85l-32 16-32-16h-72l-32 16-32-16H71Z"/><path fill="#0052B4" d="M0 256h512v256H0V256Z"/><path fill="#FFDA44" d="m292 0-36 256L356 0h-64Zm-36 256L512 34V0h-71L256 256Zm0 0 256-60v-71L256 256Zm0 0L0 125v71l256 60Zm0 0L71 0H0v35l256 221Zm0 0L220 0h-64l100 256Z"/><path fill="#FF9811" d="m256 128 83 256-217-159h268L173 384l83-256Z"/></g><defs><clipPath id="a"><path fill="#fff" d="M0 0h512v512H0z"/></clipPath></defs></svg>