<svg width="512" height="512" viewBox="0 0 512 512" fill="none" xmlns="http://www.w3.org/2000/svg">
<rect width="512" height="512" fill="var(--flag-palette-bright-red, #d80027)"/>
<path d="M512 416V512H416L256 352L96 512H0V416L160 256L0 96V0H96L256 160L416 0H512V96L352 256L512 416Z" fill="var(--flag-palette-white, #eeeeee)"/>
<path d="M464 512H512V464L304 256L512 48V0H464L256 208L48 0H0V48L208 256L0 464V512H48L256 304L464 512Z" fill="var(--flag-palette-blue, #0052b4)"/>
<path d="M256.004 223.998L263.188 246.11H286.438L267.629 259.775L274.813 281.887L256.004 268.221L237.195 281.887L244.379 259.775L225.57 246.11H248.819L256.004 223.998Z" fill="var(--flag-palette-white, #eeeeee)"/>
<path d="M325.598 293.594L332.782 315.705H356.031L337.222 329.371L344.407 351.482L325.598 337.817L306.789 351.482L313.973 329.371L295.164 315.705H318.413L325.598 293.594Z" fill="var(--flag-palette-white, #eeeeee)"/>
<path d="M186.414 293.598L193.599 315.709H216.848L198.039 329.375L205.223 351.486L186.414 337.821L167.605 351.486L174.789 329.375L155.98 315.709H179.23L186.414 293.598Z" fill="var(--flag-palette-white, #eeeeee)"/>
<path d="M395.191 363.188L402.376 385.299H425.625L406.816 398.965L414.001 421.076L395.191 407.41L376.382 421.076L383.567 398.965L364.758 385.299H388.007L395.191 363.188Z" fill="var(--flag-palette-white, #eeeeee)"/>
<path d="M116.82 363.193L124.005 385.305H147.254L128.445 398.97L135.629 421.082L116.82 407.416L98.0112 421.082L105.196 398.97L86.3865 385.305H109.636L116.82 363.193Z" fill="var(--flag-palette-white, #eeeeee)"/>
<path d="M464.785 432.783L471.97 454.895H495.219L476.41 468.56L483.594 490.672L464.785 477.006L445.976 490.672L453.16 468.56L434.351 454.895H457.601L464.785 432.783Z" fill="var(--flag-palette-white, #eeeeee)"/>
<path d="M47.2266 432.787L54.411 454.899H77.6604L58.8512 468.564L66.0357 490.676L47.2266 477.01L28.4174 490.676L35.6019 468.564L16.7928 454.899H40.0421L47.2266 432.787Z" fill="var(--flag-palette-white, #eeeeee)"/>
<path d="M186.41 154.404L193.595 176.516H216.844L198.035 190.181L205.219 212.293L186.41 198.627L167.601 212.293L174.785 190.181L155.976 176.516H179.226L186.41 154.404Z" fill="var(--flag-palette-white, #eeeeee)"/>
<path d="M325.602 154.412L332.786 176.524H356.035L337.226 190.189L344.411 212.301L325.602 198.635L306.792 212.301L313.977 190.189L295.168 176.524H318.417L325.602 154.412Z" fill="var(--flag-palette-white, #eeeeee)"/>
<path d="M116.816 84.8105L124.001 106.922H147.25L128.441 120.588L135.626 142.699L116.816 129.033L98.0073 142.699L105.192 120.588L86.3826 106.922H109.632L116.816 84.8105Z" fill="var(--flag-palette-white, #eeeeee)"/>
<path d="M395.195 84.8164L402.38 106.928H425.629L406.82 120.593L414.004 142.705L395.195 129.039L376.386 142.705L383.571 120.593L364.762 106.928H388.011L395.195 84.8164Z" fill="var(--flag-palette-white, #eeeeee)"/>
<path d="M47.2227 15.2168L54.4071 37.3283H77.6565L58.8473 50.9939L66.0318 73.1053L47.2227 59.4397L28.4135 73.1053L35.598 50.9939L16.7888 37.3283H40.0382L47.2227 15.2168Z" fill="var(--flag-palette-white, #eeeeee)"/>
<path d="M464.789 15.2227L471.974 37.3341H495.223L476.414 50.9997L483.598 73.1112L464.789 59.4456L445.98 73.1112L453.164 50.9997L434.355 37.3341H457.605L464.789 15.2227Z" fill="var(--flag-palette-white, #eeeeee)"/>
</svg>