<svg xmlns="http://www.w3.org/2000/svg" width="512" height="512" fill="none"><path fill="#D80027" d="M0 0h512v512H0z"/><path fill="#EEE" d="M512 417.6V512h-94.4L256 350.4 94.4 512H0v-94.4L161.6 256 0 94.4V0h94.4L256 161.6 417.6 0H512v94.4L350.4 256 512 417.6Z"/><path fill="#0052B4" d="M464.8 512H512v-47.2L303.2 256 512 47.2V0h-47.2L256 208.8 47.2 0H0v47.2L208.8 256 0 464.8V512h47.2L256 303.2 464.8 512Z"/><path fill="#EEE" d="m256 224 7.2 22.1h23.2l-18.8 13.7 7.2 22-18.8-13.6-18.8 13.7 7.2-22.1-18.8-13.7h23.2L256 224Zm69.6 69.6 7.2 22.1H356l-18.8 13.7 7.2 22-18.8-13.6-18.8 13.7 7.2-22.1-18.8-13.7h23.2l7.2-22.1Zm-139.2 0 7.2 22.1h23.2L198 329.4l7.2 22-18.8-13.6-18.8 13.7 7.2-22.1-18.8-13.7h23.2l7.2-22.1Zm208.8 69.6 7.2 22.1h23.2L406.8 399l7.2 22-18.8-13.6-18.8 13.7 7.2-22.1-18.8-13.7H388l7.2-22.1Zm-278.4 0 7.2 22.1h23.3L128.4 399l7.2 22-18.8-13.6L98 421.1l7.2-22.1-18.8-13.7h23.2l7.2-22.1Zm348 69.6 7.2 22h23.2l-18.8 13.8 7.2 22-18.8-13.6-18.8 13.7 7.2-22.1-18.8-13.7h23.2l7.2-22.1Zm-417.6 0 7.2 22.1h23.3l-18.8 13.7 7.1 22L47.2 477l-18.8 13.7 7.2-22.1-18.8-13.7H40l7.2-22.1Zm139.2-278.4 7.2 22.1h23.2L198 190.2l7.2 22-18.8-13.6-18.8 13.7 7.2-22.1-18.8-13.7h23.2l7.2-22.1Zm139.2 0 7.2 22.1H356l-18.8 13.7 7.2 22.1-18.8-13.7-18.8 13.7 7.2-22.1-18.8-13.7h23.2l7.2-22ZM116.8 84.8 124 107h23.3l-18.9 13.7 7.2 22.1-18.8-13.7L98 142.7l7.2-22.1-18.8-13.7h23.2l7.2-22Zm278.4 0 7.2 22.1h23.2l-18.8 13.7 7.2 22.1-18.8-13.7-18.8 13.7 7.2-22.1-18.8-13.7H388l7.2-22Zm-348-69.6 7.2 22.1h23.3L58.8 51 66 73 47.2 59.4 28.4 73.1 35.6 51 16.8 37.3H40l7.2-22Zm417.6 0 7.2 22.1h23.2L476.4 51l7.2 22.1-18.8-13.7L446 73.1l7.2-22.1-18.8-13.7h23.2l7.2-22Z"/></svg>