<svg xmlns="http://www.w3.org/2000/svg" width="512" height="512" fill="none"><path fill="var(--flag-palette-bright-red, #d80027)" d="M0 0h512v512H0z"/><path fill="var(--flag-palette-white, #eeeeee)" d="M512 416v96h-96L256 352 96 512H0v-96l160-160L0 96V0h96l160 160L416 0h96v96L352 256z"/><path fill="var(--flag-palette-blue, #0052b4)" d="M464 512h48v-48L304 256 512 48V0h-48L256 208 48 0H0v48l208 208L0 464v48h48l208-208z"/><path fill="var(--flag-palette-white, #eeeeee)" d="m256 224 7.2 22.1h23.2l-18.8 13.7 7.2 22-18.8-13.6-18.8 13.7 7.2-22.1-18.8-13.7h23.2zm69.6 69.6 7.2 22.1H356l-18.8 13.7 7.2 22-18.8-13.6-18.8 13.7 7.2-22.1-18.8-13.7h23.2zm-139.2 0 7.2 22.1h23.2L198 329.4l7.2 22-18.8-13.6-18.8 13.7 7.2-22.1-18.8-13.7h23.2zm208.8 69.6 7.2 22.1h23.2L406.8 399l7.2 22-18.8-13.6-18.8 13.7 7.2-22.1-18.8-13.7H388zm-278.4 0 7.2 22.1h23.3L128.4 399l7.2 22-18.8-13.6L98 421.1l7.2-22.1-18.8-13.7h23.2zm348 69.6 7.2 22h23.2l-18.8 13.8 7.2 22-18.8-13.6-18.8 13.7 7.2-22.1-18.8-13.7h23.2zm-417.6 0 7.2 22.1h23.3l-18.8 13.7 7.1 22L47.2 477l-18.8 13.7 7.2-22.1-18.8-13.7H40zm139.2-278.4 7.2 22.1h23.2L198 190.2l7.2 22-18.8-13.6-18.8 13.7 7.2-22.1-18.8-13.7h23.2zm139.2 0 7.2 22.1H356l-18.8 13.7 7.2 22.1-18.8-13.7-18.8 13.7 7.2-22.1-18.8-13.7h23.2zM116.8 84.8 124 107h23.3l-18.9 13.7 7.2 22.1-18.8-13.7L98 142.7l7.2-22.1-18.8-13.7h23.2zm278.4 0 7.2 22.1h23.2l-18.8 13.7 7.2 22.1-18.8-13.7-18.8 13.7 7.2-22.1-18.8-13.7H388zm-348-69.6 7.2 22.1h23.3L58.8 51 66 73 47.2 59.4 28.4 73.1 35.6 51 16.8 37.3H40zm417.6 0 7.2 22.1h23.2L476.4 51l7.2 22.1-18.8-13.7L446 73.1l7.2-22.1-18.8-13.7h23.2z"/></svg>