<svg xmlns="http://www.w3.org/2000/svg" width="512" height="512" fill="none"><g clip-path="url(#a)"><path fill="#EEE" d="M0 0h512v512H0z"/><path fill="var(--flag-palette-bright-red, #d80027)" d="M0 186h512v96H0zm0 153h512v96H0zM93 29l14.4 44.2h46.5l-37.7 27.4 14.4 44.2L93 117.4l-37.6 27.4 14.4-44.2L32 73.2h46.5zm163 0 14.4 44.2h46.5l-37.7 27.4 14.4 44.2-37.6-27.4-37.6 27.4 14.4-44.2L195 73.2h46.5zm163 0 14.4 44.2h46.5l-37.7 27.4 14.4 44.2-37.6-27.4-37.6 27.4 14.4-44.2L358 73.2h46.5z"/></g><defs><clipPath id="a"><path fill="#fff" d="M0 0h512v512H0z"/></clipPath></defs></svg>