<svg xmlns="http://www.w3.org/2000/svg" width="512" height="512" fill="none"><g clip-path="url(#a)"><path fill="#EEE" d="M0 0h512v512H0z"/><path fill="#D80027" d="M464.8 512H512v-47.2L303.2 256 512 47.2V0h-47.2L256 208.8 47.2 0H0v47.2L208.8 256 0 464.8V512h47.2L256 303.2 464.8 512Z"/><path fill="#FFC635" d="M256 352a96 96 0 1 0 0-192 96 96 0 0 0 0 192Z"/><path fill="#6DA544" d="M256 320a64 64 0 1 0 0-128 64 64 0 0 0 0 128Z"/></g><defs><clipPath id="a"><path fill="#fff" d="M0 0h512v512H0z"/></clipPath></defs></svg>