<svg xmlns="http://www.w3.org/2000/svg" width="512" height="512" fill="none"><g clip-path="url(#a)"><path fill="#D80027" d="M512 0v171l-64 85 64 85v171H0V341L341 0h171Z"/><path fill="#EEE" d="M341 171h171v170H341l-64-85 64-85Z"/><path fill="#026" d="M0 0h341v341H0V0Z"/><path fill="#FFDA44" d="M168 117a40 40 0 0 0-40 40v60h80v-60a40 40 0 0 0-40-40Z"/><path fill="#EEE" d="m151 89 52-37h-64l52 37-20-61-20 61Zm101 62 37 52v-64l-37 52 61-20-61-20Zm-62 101-52 37h64l-52-37 20 61 20-61ZM89 191l-37-52v64l37-52-61 20 61 20Zm125-92 63 10-45-45 10 63 29-57-57 29Zm28 115-10 63 45-45-63 10 57 29-29-57Zm-115 28-63-10 45 45-10-63-29 57 57-29ZM99 127l10-63-45 45 63-10-57-29 29 57Z"/></g><defs><clipPath id="a"><path fill="#fff" d="M0 0h512v512H0z"/></clipPath></defs></svg>