<svg xmlns="http://www.w3.org/2000/svg" width="512" height="512" fill="none"><g clip-path="url(#a)"><path fill="#EEE" d="M0 256V96l32-32L0 32V0h32l32 32L96 0h416v64l-32 64 32 64v64l-32 64 32 64v64l-256 32L0 448v-64l32-64-32-64Z"/><path fill="#0052B4" d="m173 128 83 83v-19h256v-64L384 96l-128 32h-83Zm-45 45v83h83l-83-83ZM0 320v64h512v-64l-256-32L0 320Z"/><path fill="#D80027" d="M32 0v32H0v64h32v160H0v64h512v-64H96V96h160v32h256V64H256V32H96V0H32Zm224 256v-31l-97-97h-31l128 128ZM0 448v64h512v-64H0Z"/><path fill="#EEE" d="M0 0h256v256H0z"/><path fill="#0052B4" d="m66.8 114 142 142h-142V114ZM256 208.8v-142H114l142 142Z"/><path fill="#D80027" d="M256 0H0v256h33.4V33.4H256V0Z"/><path fill="#D80027" d="M256 224.5 98.3 66.8H66.8L256 256v-31.5Z"/></g><defs><clipPath id="a"><path fill="#fff" d="M0 0h512v512H0z"/></clipPath></defs></svg>