<svg xmlns="http://www.w3.org/2000/svg" width="512" height="512" fill="none"><g clip-path="url(#a)"><path fill="#EEE" d="M0 256V96l32-32L0 32V0h32l32 32L96 0h416v64l-32 64 32 64v64l-32 64 32 64v64l-256 32L0 448v-64l32-64z"/><path fill="#026" d="m173 128 83 83v-19h256v-64L384 96l-128 32zm-45 45v83h83zM0 320v64h512v-64l-256-32z"/><path fill="var(--flag-palette-bright-red, #d80027)" d="M32 0v32H0v64h32v160H0v64h512v-64H96V96h160v32h256V64H256V32H96V0zm224 256v-31l-97-97h-31zM0 448v64h512v-64z"/><path fill="#026" d="M0 0h256v256H0z"/><path fill="#EEE" d="M232 256h24v-24L152 128 256 24V0h-24L128 104 24 0H0v24l104 104L0 232v24h24l104-104z"/><path fill="#EEE" d="M256 160V96h-96V0H96v96H0v64h96v96h64v-96z"/><path fill="var(--flag-palette-bright-red, #d80027)" d="M256 144v-32H144V0h-32v112H0v32h112v112h32V144z"/><path fill="var(--flag-palette-bright-red, #d80027)" d="M0 16V0l96 96H80zm256 224v16l-96-96h16zM16 256H0l96-96v16zM240 0h16l-96 96V80z"/></g><defs><clipPath id="a"><path fill="#fff" d="M0 0h512v512H0z"/></clipPath></defs></svg>