<svg xmlns="http://www.w3.org/2000/svg" width="512" height="512" fill="none"><g clip-path="url(#a)"><path fill="#EEE" d="M0 256V96l32-32L0 32V0h32l32 32L96 0h416v64l-32 64 32 64v64l-32 64 32 64v64l-256 32L0 448v-64l32-64-32-64Z"/><path fill="#0052B4" d="m173 128 83 83v-19h256v-64L384 96l-128 32h-83Zm-45 45v83h83l-83-83ZM0 320v64h512v-64l-256-32L0 320Z"/><path fill="#D80027" d="M32 0v32H0v64h32v160H0v64h512v-64H96V96h160v32h256V64H256V32H96V0H32Zm224 256v-31l-97-97h-31l128 128ZM0 448v64h512v-64H0Z"/><g clip-path="url(#b)"><path fill="#0052B4" d="M-256-256h512v512h-512z"/><path fill="#EEE" d="M208 256h48v-48L48 0l208-208v-48h-48L0-48l-208-208h-48v48L-48 0l-208 208v48h48L0 48l208 208Z"/><path fill="#EEE" d="M256 64V-64H64v-192H-64v192h-192V64h192v192H64V64h192Z"/><path fill="#D80027" d="M256 32v-64H32v-224h-64v224h-224v64h224v224h64V32h224Z"/><path fill="#D80027" d="M256 224v32L64 64h32l160 160Z"/></g></g><defs><clipPath id="a"><path fill="#fff" d="M0 0h512v512H0z"/></clipPath><clipPath id="b"><path fill="#fff" d="M0 0h512v512H0z"/></clipPath></defs></svg>