<svg xmlns="http://www.w3.org/2000/svg" width="512" height="512" fill="none"><path fill="var(--flag-palette-blue, #0052b4)" d="M0 0h512v512H0z"/><path fill="var(--flag-palette-light-grey, #f3f3f3)" d="M247.6 94.8c6.9-.3 13 3.5 15.8 9.4a16.7 16.7 0 0 1 30.4 4.6 16.7 16.7 0 0 1 28.9 10.6 16.7 16.7 0 0 1 26.1 16.2 16.7 16.7 0 0 1 22.3 21.2 16.7 16.7 0 0 1 17.7 25.1 16.7 16.7 0 0 1 12.2 28.3 16.7 16.7 0 0 1 6.2 30c6 2.6 10.2 8.5 10.2 15.4v.4c0 6.9-4.2 12.8-10.2 15.4a16.7 16.7 0 0 1-6.1 30 16.7 16.7 0 0 1-12.2 28.3 16.7 16.7 0 0 1-17.5 25.3 16.7 16.7 0 0 1-22.3 21.2 16.7 16.7 0 0 1-26 16.3 17 17 0 0 1-11 14.9c-6.4 2.4 0 0 0 0-6.5 2.4-13.5.5-18-4.2a16.7 16.7 0 0 1-30.3 4.6 17 17 0 0 1-15 9.4h-.9a17 17 0 0 1-14.8-11 16.7 16.7 0 0 1-29.8-7.6 16.7 16.7 0 0 1-27.6-13.5 16.7 16.7 0 0 1-24.3-18.9 16.7 16.7 0 0 1-20-23.3 16.7 16.7 0 0 1-15-26.8 16.7 16.7 0 0 1-9.3-29.4 16.7 16.7 0 0 1-3.1-30.5 16.7 16.7 0 0 1 3-30.6 16.7 16.7 0 0 1 9.2-29.4 16.7 16.7 0 0 1 15-26.9 16.7 16.7 0 0 1 20-23.3 16.7 16.7 0 0 1 24.2-18.9 16.7 16.7 0 0 1 27.6-13.6 16.7 16.7 0 0 1 29.7-7.7 17 17 0 0 1 14.9-11m8.4 49.9a111.3 111.3 0 1 0 0 222.6 111.3 111.3 0 0 0 0-222.6"/><path fill="var(--flag-palette-mid-grey-3, #acabb1)" d="M280.4 218.2c5.4-4 9-10.5 9-17.9v-11c0-12.4-10-22.3-22.3-22.3H245c-12.3 0-22.3 10-22.3 22.2v11.1c0 7.4 3.6 13.9 9 18L211.5 423s11.1 11 44.5 11 44.5-11 44.5-11z"/><path fill="var(--flag-palette-white, #eeeeee)" d="m256 182 16.6 51.2h53.7l-43.4 31.5 16.5 51.1-43.4-31.6-43.4 31.6 16.5-51-43.4-31.6h53.7z"/></svg>