<svg xmlns="http://www.w3.org/2000/svg" width="512" height="512" fill="none"><g clip-path="url(#a)"><path fill="#026" d="M0 0h232l64 256-64 256H0z"/><path fill="var(--flag-palette-bright-red, #d80027)" d="M232 0h280v256l-140 64-140-64z"/><path fill="#EEE" d="M232 256h280v256H232z"/><path fill="#026" d="M0 0h232v512H0z"/><path fill="#EEE" d="m91 294 65-47H76l65 47-25-76z"/><path fill="var(--flag-palette-dark-yellow, #ffc635)" fill-rule="evenodd" d="M203.3 121.4q-5.6-3.1-11.4-6l-.5-.2 1.3-3 1.2-2.7-2.8-1.3a183 183 0 0 0-150.3 0l-2.8 1.3 1.3 2.8 1.3 2.9-.6.3a178 178 0 0 0-11.4 6L24 124l4.6 2.8 9.5 6q.2 6.2.7 12.1l.5 4.8 4.2-2.3a149 149 0 0 1 11.6-6l6.2-2.8-1.8-5a151 151 0 0 1 113.2.2l-2 4.8 6.2 2.8q5.9 2.7 11.6 6l4.2 2.4.4-4.9q.5-6 .6-12.1 4.7-3.1 9.7-6l4.6-2.7zM28.7 390.6a180 180 0 0 0 11.4 6l.5.2-1.3 3-1.2 2.7 2.8 1.3a183 183 0 0 0 150.3 0l2.8-1.3-1.3-2.8-1.3-2.9.6-.3q5.8-2.7 11.4-6l4.6-2.5-4.6-2.8-9.5-6q-.2-6.2-.7-12.1l-.5-4.8-4.2 2.3a149 149 0 0 1-11.6 6l-6.2 2.8 1.8 5a151 151 0 0 1-113.2-.2l2-4.8-6.2-2.8q-5.9-2.7-11.6-6l-4.2-2.4-.4 4.9q-.5 6-.6 12.1-4.7 3.2-9.7 6L24 388zM64 224H24v64h40zm144 0h-40v64h40z" clip-rule="evenodd"/></g><defs><clipPath id="a"><path fill="#fff" d="M0 0h512v512H0z"/></clipPath></defs></svg>