<svg xmlns="http://www.w3.org/2000/svg" width="512" height="512" fill="none"><g clip-path="url(#a)"><path fill="#0052B4" d="M0 0h232l64 256-64 256H0V0Z"/><path fill="#D80027" d="M232 0h280v256l-140 64-140-64V0Z"/><path fill="#EEE" d="M232 256h280v256H232V256Z"/><path fill="#0052B4" d="M0 0h232v512H0V0Z"/><path fill="#EEE" d="m91 294 65-47H76l65 47-25-76-25 76Z"/><path fill="#FFC635" fill-rule="evenodd" d="M203.3 121.4c-3.7-2.1-7.5-4.1-11.4-6l-.5-.2 1.3-3 1.2-2.7-2.8-1.3a182.7 182.7 0 0 0-150.3 0l-2.8 1.3 1.3 2.8 1.3 2.9-.6.3a178 178 0 0 0-11.4 6L24 124l4.6 2.8c3.2 1.9 6.4 4 9.5 6 .1 4.1.4 8.2.7 12.1l.5 4.8 4.2-2.3a149 149 0 0 1 11.6-6l6.2-2.8-1.8-5a150.6 150.6 0 0 1 113.2.2l-2 4.8 6.2 2.8c3.9 1.8 7.8 3.8 11.6 6l4.2 2.4.4-4.9c.3-4 .5-8 .6-12.1 3.1-2.1 6.4-4.1 9.7-6l4.6-2.7-4.7-2.7ZM28.7 390.6a180 180 0 0 0 11.4 6l.5.2-1.3 3-1.2 2.7 2.8 1.3a182.6 182.6 0 0 0 150.3 0l2.8-1.3-1.3-2.8-1.3-2.9.6-.3c3.9-1.8 7.7-3.8 11.4-6l4.6-2.5-4.6-2.8c-3.2-1.9-6.4-4-9.5-6-.1-4.1-.4-8.2-.7-12.1l-.5-4.8-4.2 2.3a149 149 0 0 1-11.6 6l-6.2 2.8 1.8 5a150.6 150.6 0 0 1-113.2-.2l2-4.8-6.2-2.8c-3.9-1.8-7.8-3.8-11.6-6l-4.2-2.4-.4 4.9c-.3 4-.5 8-.6 12.1-3.1 2.1-6.4 4.1-9.7 6L24 388l4.7 2.7ZM64 224H24v64h40v-64Zm144 0h-40v64h40v-64Z" clip-rule="evenodd"/></g><defs><clipPath id="a"><path fill="#fff" d="M0 0h512v512H0z"/></clipPath></defs></svg>