<svg xmlns="http://www.w3.org/2000/svg" width="512" height="512" fill="none"><path fill="var(--flag-palette-navy, #002266)" d="M448 0h64v512h-64l-16-256z"/><path fill="var(--flag-palette-white, #eeeeee)" d="M416 0h32v512h-32l-16-256z"/><path fill="var(--flag-palette-bright-red, #d80027)" d="M0 0h416v512H0z"/><path fill="var(--flag-palette-white, #eeeeee)" d="M208 416a160 160 0 1 0 0-320 160 160 0 0 0 0 320"/><path fill="var(--flag-palette-navy, #002266)" d="M208 384a128 128 0 1 0 0-256 128 128 0 0 0 0 256"/><path fill="var(--flag-palette-white, #eeeeee)" d="m145 284 60 83V265l-60 83 98-32zm15-128-22 100 76-68-102 11 89 51zm147 49-42 93-21-100 75 69-102-11z"/></svg>