<svg xmlns="http://www.w3.org/2000/svg" width="512" height="512" fill="none"><g clip-path="url(#a)"><path fill="#026" d="M448 0h64v512h-64l-16-256L448 0Z"/><path fill="#EEE" d="M416 0h32v512h-32l-16-256L416 0Z"/><path fill="#D80027" d="M0 0h416v512H0V0Z"/><path fill="#EEE" d="M208 416a160 160 0 1 0 0-320 160 160 0 0 0 0 320Z"/><path fill="#026" d="M208 384a128 128 0 1 0 0-256 128 128 0 0 0 0 256Z"/><path fill="#EEE" d="m145 284 60 83V265l-60 83 98-32-98-32Zm15-128-22 100 76-68-102 11 89 51-41-94Zm147 49-42 93-21-100 75 69-102-11 90-51Z"/></g><defs><clipPath id="a"><path fill="#fff" d="M0 0h512v512H0z"/></clipPath></defs></svg>