<svg xmlns="http://www.w3.org/2000/svg" width="512" height="512" fill="none"><path fill="#EEE" d="M0 0h512v512H0z"/><path fill="#D80027" d="M0 122.4V55.7h512v66.7H0ZM0 256v-66.8h512V256H0Zm0 133.6v-66.8h512v66.8H0ZM0 512h512v-55.7H0V512Z"/><path fill="#0052B4" d="M0 0h256v256H0z"/><path fill="#EEE" fill-rule="evenodd" d="m44.8 6.4 8.6 26.5h28L58.6 49.3 67.4 76 44.8 59.5 22.2 75.9 31 49.3 8.3 33h27.9l8.6-26.5Zm83.2 0 8.6 26.5h28l-22.7 16.4 8.7 26.6L128 59.5l-22.6 16.4 8.6-26.6L91.5 33h27.9L128 6.4Zm91.8 26.5-8.6-26.5-8.6 26.5h-28l22.7 16.4-8.7 26.6 22.6-16.4 22.6 16.4-8.7-26.6L247.8 33h-27.9Zm-175 56.7 8.6 26.5h28l-22.7 16.4 8.7 26.6-22.6-16.4L22.2 159l8.7-26.6L8.3 116h27.9l8.6-26.5Zm91.8 26.5L128 89.6l-8.6 26.5h-28l22.6 16.4-8.6 26.6 22.6-16.4 22.6 16.4-8.7-26.6 22.6-16.4h-27.9Zm74.6-26.5 8.6 26.5h28L225 132.5l8.7 26.6-22.6-16.4-22.6 16.4 8.7-26.6-22.6-16.4h27.9l8.6-26.5ZM53.4 199.3l-8.6-26.5-8.6 26.5h-28L31 215.7l-8.7 26.6 22.6-16.4 22.6 16.4-8.7-26.6 22.6-16.4h-28Zm74.6-26.5 8.6 26.5h28l-22.7 16.4 8.7 26.6-22.6-16.4-22.6 16.4 8.6-26.6-22.5-16.4h27.9l8.6-26.5Zm91.8 26.5-8.6-26.5-8.6 26.5h-28l22.7 16.4-8.7 26.6 22.6-16.4 22.6 16.4-8.7-26.6 22.6-16.4h-27.9Z" clip-rule="evenodd"/></svg>