<svg width="512" height="512" viewBox="0 0 512 512" fill="none" xmlns="http://www.w3.org/2000/svg">
<rect y="166.955" width="512" height="178.089" fill="var(--flag-palette-bright-red, #d80027)"/>
<rect width="512" height="178.089" fill="var(--flag-palette-light-blue, #338af3)"/>
<rect y="333.91" width="512" height="178.089" fill="var(--flag-palette-green, #6da544)"/>
<rect y="200.35" width="512" height="111.302" fill="var(--flag-palette-white, #eeeeee)"/>
<path d="M116.987 89.045C116.987 65.068 133.838 45.038 156.341 40.124C152.883 39.368 149.294 38.959 145.608 38.959C117.946 38.959 95.5205 61.383 95.5205 89.046C95.5205 116.709 117.944 139.133 145.608 139.133C149.294 139.133 152.882 138.723 156.341 137.968C133.839 133.052 116.987 113.022 116.987 89.045Z" fill="var(--flag-palette-white, #eeeeee)"/>
<path d="M185.944 111.812L189.334 122.247H200.306L191.43 128.697L194.82 139.132L185.944 132.684L177.066 139.132L180.457 128.697L171.58 122.247H182.552L185.944 111.812Z" fill="var(--flag-palette-white, #eeeeee)"/>
<path d="M220.965 111.812L224.356 122.247H235.328L226.451 128.697L229.842 139.132L220.965 132.684L212.088 139.132L215.479 128.697L206.603 122.247H217.574L220.965 111.812Z" fill="var(--flag-palette-white, #eeeeee)"/>
<path d="M255.985 111.812L259.375 122.247H270.348L261.471 128.697L264.861 139.132L255.985 132.684L247.107 139.132L250.499 128.697L241.621 122.247H252.594L255.985 111.812Z" fill="var(--flag-palette-white, #eeeeee)"/>
<path d="M291.007 111.812L294.398 122.247H305.369L296.493 128.697L299.884 139.132L291.007 132.684L282.129 139.132L285.521 128.697L276.643 122.247H287.615L291.007 111.812Z" fill="var(--flag-palette-white, #eeeeee)"/>
<path d="M326.026 111.812L329.417 122.247H340.389L331.513 128.697L334.904 139.132L326.026 132.684L317.149 139.132L320.54 128.697L311.664 122.247H322.635L326.026 111.812Z" fill="var(--flag-palette-white, #eeeeee)"/>
<path d="M220.965 75.3848L224.356 85.8188H235.328L226.451 92.2698L229.842 102.704L220.965 96.2548L212.088 102.704L215.479 92.2698L206.603 85.8188H217.574L220.965 75.3848Z" fill="var(--flag-palette-white, #eeeeee)"/>
<path d="M255.985 75.3848L259.375 85.8188H270.348L261.471 92.2698L264.861 102.704L255.985 96.2548L247.107 102.704L250.499 92.2698L241.621 85.8188H252.594L255.985 75.3848Z" fill="var(--flag-palette-white, #eeeeee)"/>
<path d="M291.007 75.3848L294.398 85.8188H305.369L296.493 92.2698L299.884 102.704L291.007 96.2548L282.129 102.704L285.521 92.2698L276.643 85.8188H287.615L291.007 75.3848Z" fill="var(--flag-palette-white, #eeeeee)"/>
<path d="M326.026 75.3848L329.417 85.8188H340.389L331.513 92.2698L334.904 102.704L326.026 96.2548L317.149 102.704L320.54 92.2698L311.664 85.8188H322.635L326.026 75.3848Z" fill="var(--flag-palette-white, #eeeeee)"/>
<path d="M255.985 38.957L259.375 49.393H270.348L261.471 55.842L264.861 66.278L255.985 59.829L247.107 66.278L250.499 55.842L241.621 49.393H252.594L255.985 38.957Z" fill="var(--flag-palette-white, #eeeeee)"/>
<path d="M291.007 38.957L294.398 49.393H305.369L296.493 55.842L299.884 66.278L291.007 59.829L282.129 66.278L285.521 55.842L276.643 49.393H287.615L291.007 38.957Z" fill="var(--flag-palette-white, #eeeeee)"/>
<path d="M326.026 38.957L329.417 49.393H340.389L331.513 55.842L334.904 66.278L326.026 59.829L317.149 66.278L320.54 55.842L311.664 49.393H322.635L326.026 38.957Z" fill="var(--flag-palette-white, #eeeeee)"/>
</svg>