<svg width="512" height="512" viewBox="0 0 512 512" fill="none" xmlns="http://www.w3.org/2000/svg">
<rect x="307.137" width="512" height="307.137" transform="rotate(90 307.137 0)" fill="var(--flag-palette-yellow, #ffda44)"/>
<rect x="512" width="512" height="256" transform="rotate(90 512 0)" fill="var(--flag-palette-white, #eeeeee)"/>
<path d="M354.03 222.766L402.141 286.412C394.561 297.89 394.601 313.354 403.368 324.951C414.488 339.662 435.429 342.574 450.141 331.453C464.852 320.333 467.764 299.392 456.642 284.681C447.877 273.084 433.009 268.828 419.899 272.99L344.918 173.797L327.16 187.221L300.52 207.355L327.368 242.87L354.03 222.766ZM423.293 295.936C428.197 292.228 435.178 293.2 438.885 298.102C442.591 303.006 441.622 309.987 436.718 313.695C431.815 317.4 424.834 316.432 421.128 311.527C417.419 306.623 418.39 299.642 423.293 295.936Z" fill="var(--flag-palette-mid-grey-3, #acabb1)"/>
<path d="M436.549 242.868L463.397 207.353L436.759 187.217L419.001 173.793L344.02 272.986C330.912 268.824 316.043 273.081 307.277 284.677C296.155 299.389 299.067 320.329 313.778 331.449C328.49 342.569 349.43 339.658 360.55 324.947C369.316 313.35 369.356 297.886 361.777 286.408L409.888 222.762L436.549 242.868ZM342.792 311.525C339.086 316.43 332.106 317.399 327.202 313.693C322.298 309.985 321.328 303.004 325.035 298.1C328.741 293.198 335.722 292.226 340.627 295.934C345.53 299.641 346.499 306.622 342.792 311.525Z" fill="var(--flag-palette-dark-yellow, #ffc635)"/>
</svg>