<svg width="512" height="512" viewBox="0 0 512 512" fill="none" xmlns="http://www.w3.org/2000/svg">
<path d="M512 128V384H0L1.11901e-05 128L512 128Z" fill="var(--flag-palette-blue, #0052b4)"/>
<path d="M512 368V512L0 512L6.29444e-06 368L512 368Z" fill="var(--flag-palette-bright-red, #d80027)"/>
<path d="M512 2.23802e-05V144L0 144L6.29444e-06 0L512 2.23802e-05Z" fill="var(--flag-palette-yellow, #ffda44)"/>
<path d="M443.368 306.251L429.847 316.817L435.715 332.938L421.488 323.345L407.966 333.909L412.694 317.414L398.469 307.818L415.618 307.22L420.35 290.725L426.22 306.849L443.368 306.251Z" fill="var(--flag-palette-white, #eeeeee)"/>
<path d="M408.741 246.281L399.65 260.834L410.681 273.976L394.03 269.83L384.936 284.38L383.737 267.262L367.088 263.109L383 256.68L381.804 239.562L392.833 252.71L408.741 246.281Z" fill="var(--flag-palette-white, #eeeeee)"/>
<path d="M355.695 201.768L352.129 218.553L366.989 227.133L349.924 228.932L346.356 245.712L339.376 230.038L322.309 231.829L335.063 220.347L328.084 204.673L342.944 213.251L355.695 201.768Z" fill="var(--flag-palette-white, #eeeeee)"/>
<path d="M290.622 178.086L293.013 195.079L309.91 198.057L294.488 205.583L296.877 222.575L284.957 210.231L269.531 217.753L277.589 202.6L265.668 190.258L282.568 193.237L290.622 178.086Z" fill="var(--flag-palette-white, #eeeeee)"/>
<path d="M221.377 178.086L229.434 193.237L246.33 190.256L234.413 202.603L242.466 217.755L227.044 210.231L215.122 222.572L217.513 205.583L202.09 198.061L218.989 195.079L221.377 178.086Z" fill="var(--flag-palette-white, #eeeeee)"/>
<path d="M156.307 201.768L169.061 213.251L183.918 204.673L176.941 220.353L189.692 231.833L172.627 230.038L165.645 245.712L162.082 228.929L145.016 227.137L159.876 218.555L156.307 201.768Z" fill="var(--flag-palette-white, #eeeeee)"/>
<path d="M103.259 246.28L119.172 252.708L130.198 239.564L129.005 256.685L144.913 263.114L128.264 267.263L127.065 284.378L117.975 269.829L101.324 273.978L112.354 260.833L103.259 246.28Z" fill="var(--flag-palette-white, #eeeeee)"/>
<path d="M68.6348 306.251L85.7868 306.849L91.6528 290.727L96.3878 307.223L113.535 307.822L99.3088 317.418L104.037 333.912L90.5168 323.348L76.2898 332.941L82.1588 316.817L68.6348 306.251Z" fill="var(--flag-palette-white, #eeeeee)"/>
</svg>