<svg xmlns="http://www.w3.org/2000/svg" width="512" height="512" fill="none"><path fill="#026" d="M0 0h512v512H0z"/><path fill="#026" d="M0 0h256v256H0z"/><path fill="#EEE" d="M232 256h24v-24L152 128 256 24V0h-24L128 104 24 0H0v24l104 104L0 232v24h24l104-104 104 104Z"/><path fill="#EEE" d="M256 160V96h-96V0H96v96H0v64h96v96h64v-96h96Z"/><path fill="#D80027" d="M256 144v-32H144V0h-32v112H0v32h112v112h32V144h112Z"/><path fill="#D80027" d="M0 16V0l96 96H80L0 16Zm256 224v16l-96-96h16l80 80ZM16 256H0l96-96v16l-80 80ZM240 0h16l-96 96V80l80-80Z"/><path fill="#496E2D" d="M306 139.1v122.5c0 59.6 78 77.9 78 77.9s78-18.3 78-78V139.2H306Z"/><path fill="#EEE" d="M367.3 194.8h33.4v89h-33.4v-89Z"/><path fill="#584528" d="M384 211.5a16.7 16.7 0 1 0 0-33.4 16.7 16.7 0 0 0 0 33.4Z"/><path fill="#FFDA44" d="M328.4 161.4h22.2v22.2h-22.2v-22.2Zm0 50.1h22.2v22.2h-22.2v-22.2Zm0 50.1h22.2v22.2h-22.2v-22.2Zm89-100.2h22.3v22.2h-22.3v-22.2Zm0 50.1h22.3v22.2h-22.3v-22.2Zm0 50.1h22.3v22.2h-22.3v-22.2Z"/><path fill="#FFDA44" fill-rule="evenodd" d="M296.7 343.5a180 180 0 0 0 11.4 6l.6.2-1.4 2.9-1.2 2.8 2.8 1.3a182.7 182.7 0 0 0 150.3 0l2.8-1.3-1.3-2.8-1.3-2.9.6-.3c3.9-1.8 7.7-3.8 11.4-6l4.6-2.6-4.6-2.7-9.5-6c-.1-4.1-.4-8.2-.7-12.2l-.4-4.8-4.2 2.4a149 149 0 0 1-11.7 6l-6.2 2.8 1.8 4.9a150.6 150.6 0 0 1-113.2-.1l2-4.8-6.1-2.8c-4-1.8-8-3.8-11.7-6l-4.2-2.4-.4 4.9-.6 12c-3.1 2.2-6.4 4.2-9.6 6.1l-4.7 2.7 4.7 2.7Z" clip-rule="evenodd"/></svg>