<svg xmlns="http://www.w3.org/2000/svg" width="512" height="512" fill="none"><path fill="#026" d="M0 0h512v512H0z"/><path fill="#026" d="M0 0h256v256H0z"/><path fill="#EEE" d="M232 256h24v-24L152 128 256 24V0h-24L128 104 24 0H0v24l104 104L0 232v24h24l104-104z"/><path fill="#EEE" d="M256 160V96h-96V0H96v96H0v64h96v96h64v-96z"/><path fill="var(--flag-palette-bright-red, #d80027)" d="M256 144v-32H144V0h-32v112H0v32h112v112h32V144z"/><path fill="var(--flag-palette-bright-red, #d80027)" d="M0 16V0l96 96H80zm256 224v16l-96-96h16zM16 256H0l96-96v16zM240 0h16l-96 96V80z"/><path fill="var(--flag-palette-dark-green, #496e2d)" d="M306 139.1v122.5c0 59.6 78 77.9 78 77.9s78-18.3 78-78V139.2z"/><path fill="#EEE" d="M367.3 194.8h33.4v89h-33.4z"/><path fill="var(--flag-palette-dark-brown, #584528)" d="M384 211.5a16.7 16.7 0 1 0 0-33.4 16.7 16.7 0 0 0 0 33.4"/><path fill="var(--flag-palette-yellow, #ffda44)" d="M328.4 161.4h22.2v22.2h-22.2zm0 50.1h22.2v22.2h-22.2zm0 50.1h22.2v22.2h-22.2zm89-100.2h22.3v22.2h-22.3zm0 50.1h22.3v22.2h-22.3zm0 50.1h22.3v22.2h-22.3z"/><path fill="var(--flag-palette-yellow, #ffda44)" fill-rule="evenodd" d="M296.7 343.5a180 180 0 0 0 11.4 6l.6.2-1.4 2.9-1.2 2.8 2.8 1.3a183 183 0 0 0 150.3 0l2.8-1.3-1.3-2.8-1.3-2.9.6-.3q5.9-2.7 11.4-6l4.6-2.6-4.6-2.7-9.5-6q-.2-6.2-.7-12.2l-.4-4.8-4.2 2.4a149 149 0 0 1-11.7 6l-6.2 2.8 1.8 4.9a151 151 0 0 1-113.2-.1l2-4.8-6.1-2.8q-6-2.7-11.7-6l-4.2-2.4-.4 4.9-.6 12q-4.7 3.3-9.6 6.1l-4.7 2.7z" clip-rule="evenodd"/></svg>