<svg xmlns="http://www.w3.org/2000/svg" width="512" height="512" fill="none"><path fill="var(--flag-palette-bright-white, #fcfcfc)" d="M0 0h512v512H0z"/><path fill="var(--flag-palette-dark-yellow, #ffc635)" d="M299.5 178.8a43.5 43.5 0 0 0-87 0H117a44 44 0 0 0 44.2 42.9h-1.4a43 43 0 0 0 42.8 42.8c0 20.9 15 38.3 34.9 42l-.1.3h37.4v-.3a43 43 0 0 0 34.8-42 43 43 0 0 0 42.8-42.8H351a44 44 0 0 0 44.2-42.9z"/><path fill="var(--flag-palette-dark-yellow, #ffc635)" d="m236.9 302.3-27 60.9a122 122 0 0 0 92.2 0l-27-60.9z"/><path fill="var(--flag-palette-white, #eeeeee)" d="M200.3 200.2v75c0 42.5 55.7 55.6 55.7 55.6s55.7-13 55.7-55.7v-74.9z"/><path fill="var(--flag-palette-light-blue, #338af3)" d="M62 257.8 92.3 342l29.8-84.2h22.7l-43.4 111.3H83L39.3 257.8zm349.8 111.3V257.8h21.7v111.3z"/><path fill="var(--flag-palette-bright-red, #d80027)" d="M222.6 224.4v90.8a98 98 0 0 0 22.3 12V224.3zm66.8 0v90.8a98 98 0 0 1-22.3 12V224.3z"/><path fill="var(--flag-palette-blue, #0052b4)" d="M200.3 200.2h111.4v35.3H200.3z"/></svg>