<svg width="512" height="512" viewBox="0 0 512 512" fill="none" xmlns="http://www.w3.org/2000/svg">
<rect width="512" height="512" fill="var(--flag-palette-bright-white, #fcfcfc)"/>
<path d="M299.478 178.845C299.478 154.833 280.012 135.367 255.999 135.367C231.986 135.367 212.52 154.833 212.52 178.845H116.869C116.869 202.486 137.463 221.653 161.104 221.653H159.68C159.68 245.296 178.844 264.464 202.489 264.464C202.489 285.397 217.523 302.791 237.378 306.509L237.267 306.759H274.732L274.621 306.509C294.477 302.789 309.51 285.396 309.51 264.464C333.154 264.464 352.319 245.296 352.319 221.653H350.893C374.534 221.653 395.129 202.486 395.129 178.845H299.478Z" fill="var(--flag-palette-dark-yellow, #ffc635)"/>
<path d="M236.886 302.322L209.928 363.185C224.152 368.967 239.699 372.181 256 372.181C272.301 372.181 287.848 368.968 302.071 363.185L275.114 302.322H236.886Z" fill="var(--flag-palette-dark-yellow, #ffc635)"/>
<path d="M200.348 200.227V275.118C200.348 317.716 256 330.77 256 330.77C256 330.77 311.652 317.716 311.652 275.118V200.227H200.348Z" fill="var(--flag-palette-white, #eeeeee)"/>
<path d="M62.0787 257.801L92.1777 341.985L121.964 257.801H144.696L101.27 369.105H83.0847L39.3477 257.801H62.0787Z" fill="var(--flag-palette-light-blue, #338af3)"/>
<path d="M411.826 369.105V257.801H433.459V369.105H411.826Z" fill="var(--flag-palette-light-blue, #338af3)"/>
<path d="M222.609 224.41V315.164C230.26 320.795 238.492 324.668 244.87 327.148V224.41H222.609Z" fill="var(--flag-palette-bright-red, #d80027)"/>
<path d="M289.392 224.41V315.164C281.741 320.795 273.509 324.668 267.131 327.148V224.41H289.392Z" fill="var(--flag-palette-bright-red, #d80027)"/>
<path d="M200.348 200.225H311.652V235.541H200.348V200.225Z" fill="var(--flag-palette-blue, #0052b4)"/>
</svg>