<svg width="512" height="512" viewBox="0 0 512 512" fill="none" xmlns="http://www.w3.org/2000/svg">
<rect y="204.863" width="512" height="307.137" fill="var(--flag-palette-green, #6da544)"/>
<rect width="512" height="256" fill="var(--flag-palette-bright-red, #d80027)"/>
<path d="M512 289.394V222.611H222.606C190.12 190.127 79.3044 79.3098 0 0.00390625V512.001L222.609 289.394H512Z" fill="var(--flag-palette-black, #333333)"/>
<path d="M512 267.039V244.778H213.2L0 31.5977V62.9967L192.849 255.907L0 448.758V480.242L213.203 267.039H512Z" fill="var(--flag-palette-yellow, #ffda44)"/>
<path d="M54.5881 310.571V289.129C75.9861 289.129 93.393 271.72 93.393 250.324C93.393 235.185 81.0761 222.869 65.9381 222.869C55.6251 222.869 47.2341 231.259 47.2341 241.574C47.2341 248.169 52.5991 253.535 59.1951 253.535C62.9231 253.535 65.9561 250.5 65.9561 246.772H87.398C87.398 262.325 74.7461 274.977 59.1961 274.977C40.7771 274.978 25.7942 259.992 25.7942 241.576C25.7942 219.439 43.8041 201.43 65.9391 201.43C92.901 201.43 114.837 223.366 114.837 250.327C114.836 283.544 87.809 310.571 54.5881 310.571Z" fill="var(--flag-palette-yellow, #ffda44)"/>
</svg>