<svg width="512" height="512" viewBox="0 0 512 512" fill="none" xmlns="http://www.w3.org/2000/svg">
<rect width="512" height="512" fill="var(--flag-palette-bright-red, #d80027)"/>
<rect width="256" height="256" fill="var(--flag-palette-blue, #0052b4)"/>
<path d="M184.225 144.695L188.37 157.45H201.78L190.93 165.331L195.075 178.086L184.225 170.203L173.375 178.086L177.52 165.331L166.67 157.45H180.08L184.225 144.695Z" fill="var(--flag-palette-white, #eeeeee)"/>
<path d="M116.869 44.5215L123.776 65.7805H146.128L128.044 78.9155L134.953 100.173L116.869 87.0345L98.7861 100.173L105.694 78.9155L87.6111 65.7805H109.961L116.869 44.5215Z" fill="var(--flag-palette-white, #eeeeee)"/>
<path d="M183.652 66.7812L190.559 88.0413H212.91L194.827 101.176L201.734 122.434L183.652 109.295L165.569 122.434L172.477 101.176L154.394 88.0413H176.744L183.652 66.7812Z" fill="var(--flag-palette-white, #eeeeee)"/>
<path d="M130.864 155.826L137.772 177.085H160.122L142.039 190.22L148.947 211.478L130.864 198.34L112.781 211.478L119.689 190.22L101.606 177.085H123.957L130.864 155.826Z" fill="var(--flag-palette-white, #eeeeee)"/>
<path d="M72.3471 100.174L79.2551 121.433H101.606L83.5221 134.568L90.4301 155.826L72.3471 142.688L54.2651 155.826L61.1721 134.568L43.0901 121.433H65.4401L72.3471 100.174Z" fill="var(--flag-palette-white, #eeeeee)"/>
</svg>