<svg xmlns="http://www.w3.org/2000/svg" width="512" height="512" fill="none"><g clip-path="url(#a)"><path fill="#EEE" d="M0 0h512v512H0V0Z"/><path fill="#ACABB1" fill-rule="evenodd" d="M0 64V0h64v32H32v32H0ZM234.7 0h-128v32h128V0Zm42.6 0v32h128V0h-128ZM448 0v32h32v32h32V0h-64Zm64 106.7h-32v128h32v-128Zm0 170.6h-32v128h32v-128Zm0 170.7h-32v32h-32v32h64v-64Zm-106.7 64v-32h-128v32h128Zm-170.6 0v-32h-128v32h128ZM64 512v-32H32v-32H0v64h64ZM0 405.3h32v-128H0v128Zm0-170.6h32v-128H0v128Z" clip-rule="evenodd"/><path fill="#ACABB1" d="M256.9 115.2c28.1 0 49.9 6.7 65.5 20.3 15.5 13.6 23.2 32.6 23.3 57.3 0 11-2.6 22-7.6 31.8-7 12.4-15.9 23.6-26.4 33.2L295.5 273a54 54 0 0 0-17.3 33.9l-.8 13.1h-51c0-18.5 2.3-34.2 6.8-45.2a90.4 90.4 0 0 1 24.8-32.3 123 123 0 0 0 23.9-26c4-6.6 6-13.7 6-21.1 0-22.4-10.3-33.4-31-33.4-9.8 0-17.7 2.9-23.5 9a35.2 35.2 0 0 0-9.3 24.8l-.1 9h-57.6V192h.2a75 75 0 0 1 24.3-55.4c16.1-14.2 38.1-21.4 66-21.4ZM285 380a32 32 0 1 1-64 0 32 32 0 0 1 64 0Z"/></g><defs><clipPath id="a"><path fill="#fff" d="M0 0h512v512H0z"/></clipPath></defs></svg>