<svg xmlns="http://www.w3.org/2000/svg" width="512" height="512" fill="none"><g clip-path="url(#a)"><path fill="#6DA544" d="M512 0v512H0V0z"/><path fill="#338AF3" d="M0 512V0h512z"/><path fill="#EEE" d="M512 112V0H400L0 400v112h112z"/><path fill="#FFC635" d="m432 234-6 11h-13l6 11-6 11h13l6 11 6-11h13l-6-11 6-11h-13zm-14-68-6 11h-13l6 11-6 10h13l6 12 6-12h13l-6-10 6-11h-12zm-37-56-7 11h-12l6 11-6 10h12l7 12 6-12h13l-7-10 7-11h-13zm-56-38-7 11h-12l6 11-6 11h12l7 11 6-11h13l-7-11 7-11h-13zm-69-14-6 11h-13l6 11-6 11h13l6 11 6-11h13l-6-11 6-11h-13zm-68 14-7 11h-13l7 11-6 11h12l7 11 6-11h13l-7-11 7-11h-13zm-56 38-7 11h-13l7 11-7 10h13l7 12 6-12h13l-7-10 7-11h-13zm-38 56-7 11H75l6 11-6 10h12l7 12 6-12h13l-7-10 7-11h-13zm-14 68-6 11H61l6 11-6 11h13l6 11 6-11h13l-6-11 6-11H86zm14 69-7 11H75l6 11-6 10h12l7 11 6-11h13l-7-11 7-10h-13zm38 56-7 11h-13l7 11-7 10h13l7 11 6-11h13l-7-11 7-10h-13zm56 37-7 11h-13l7 11-6 11h12l7 11 6-11h13l-7-11 7-11h-13zm68 14-6 11h-13l6 11-6 11h13l6 11 6-11h13l-6-11 6-11h-13zm69-14-7 11h-12l6 11-6 11h12l7 11 6-11h13l-7-11 7-11h-13zm56-37-7 11h-12l6 11-6 10h12l7 11 6-11h13l-7-11 7-10h-13zm37-56-6 11h-13l6 11-6 10h13l6 11 6-11h13l-6-11 6-10h-13zM256 165c-3 0-6 3-6 6v20c-9 1-17.2 4.5-23 9.6a24 24 0 0 0-9 18.4q.2 2.6 1 5l3 23a80 80 0 0 0 4.5 27.1q4.6 12.6 12.5 19.9v22h34v-22a50 50 0 0 0 12.5-19.9A80 80 0 0 0 290 247l3-23q.8-2.4 1-5a24 24 0 0 0-9-18.4c-5.8-5.1-14-8.5-23-9.6v-20c0-3-3-6-6-6"/><path fill="#D80027" d="M199 199a80 80 0 1 0 114 0l-17 17a56 56 0 0 1 16 40 56 56 0 0 1-112 0 56 56 0 0 1 16-40z"/></g><defs><clipPath id="a"><path fill="#fff" d="M0 0h512v512H0z"/></clipPath></defs></svg>