<svg xmlns="http://www.w3.org/2000/svg" width="512" height="512" fill="none"><g clip-path="url(#a)"><path fill="#EEE" d="M512 366.7H0V145.3h512z"/><path fill="#0052B4" d="M512 167H0V0h512z"/><path fill="#D80027" d="M512 512H0V345.1h512z"/><path fill="#D80027" d="m256 66 42.7 131.3h138L325 278.4l42.7 131.3L256 328.6l-111.7 81.1L187 278.4 75.3 197.3h138L256 66Z"/><path fill="#FFC635" fill-rule="evenodd" d="M298.7 197.3 256 66l-42.7 131.3h-138L187 278.4l-42.7 131.3L256 328.6l111.7 81.1L325 278.4l111.7-81.1h-138Zm76.4 20h-91L256 130.7l-28.1 86.6h-91l73.6 53.5-28.1 86.6 73.6-53.5 73.6 53.5-28-86.6 73.5-53.5Z" clip-rule="evenodd"/></g><defs><clipPath id="a"><path fill="#fff" d="M0 0h512v512H0z"/></clipPath></defs></svg>