<svg width="512" height="512" viewBox="0 0 512 512" fill="none" xmlns="http://www.w3.org/2000/svg">
<g clip-path="url(#clip0_1_3294)">
<rect y="204.863" width="512" height="307.137" fill="var(--flag-palette-blue, #0052b4)"/>
<rect width="512" height="256" fill="var(--flag-palette-bright-red, #d80027)"/>
<path fill-rule="evenodd" clip-rule="evenodd" d="M267.862 222.608L45.2547 0L0 4.88281e-05V512H45.2549L267.865 289.391L511.999 289.392V288V222.609L267.862 222.608Z" fill="var(--flag-palette-green, #6da544)"/>
<path fill-rule="evenodd" clip-rule="evenodd" d="M58.5096 -32L281.117 190.608L543.999 190.609V192L544 320L543.999 321.392L281.119 321.391L58.5097 544H-32V-31.9999L58.5096 -32ZM269.255 288.001L511.999 288L512 224H269.255L45.2547 1.52588e-05L0 6.48499e-05V512H45.2549L269.255 288.001Z" fill="var(--flag-palette-white, #eeeeee)"/>
<path fill-rule="evenodd" clip-rule="evenodd" d="M0 44.8008V467.201L211.2 256.001L0 44.8008Z" fill="var(--flag-palette-black, #333333)"/>
<path fill-rule="evenodd" clip-rule="evenodd" d="M0 44.8008V90.0556L165.945 256.001L0 421.946V467.201L211.2 256.001L0 44.8008Z" fill="var(--flag-palette-yellow, #ffda44)"/>
</g>
<defs>
<clipPath id="clip0_1_3294">
<rect width="512" height="512" fill="white"/>
</clipPath>
</defs>
</svg>