<svg xmlns="http://www.w3.org/2000/svg" width="512" height="512" fill="none"><g clip-path="url(#a)"><path fill="#0052B4" d="M0 204.9h512V512H0z"/><path fill="#D80027" d="M0 0h512v256H0z"/><path fill="#6DA544" fill-rule="evenodd" d="M267.9 222.6 45.3 0H0v512h45.3l222.6-222.6H512v-66.8H267.9Z" clip-rule="evenodd"/><path fill="#EEE" fill-rule="evenodd" d="m58.5-32 222.6 222.6H544v130.8H281.1L58.5 544H-32V-32h90.5ZM268 289.4h244v-66.8H267.9L45.3 0H0v512h45.3l222.6-222.6Z" clip-rule="evenodd"/><mask id="b" width="512" height="512" x="0" y="0" maskUnits="userSpaceOnUse" style="mask-type:alpha"><path fill="#F0F" d="M0 0h512v512H0z"/></mask><g mask="url(#b)"><path fill="#333" d="M-172.8-128v768l384-384-384-384Z"/><path fill="#FFDA44" fill-rule="evenodd" d="m-172.8 640 384-384-384-384v768Zm32-77.3L165.9 256-140.8-50.7v613.4Z" clip-rule="evenodd"/></g></g><defs><clipPath id="a"><path fill="#fff" d="M0 0h512v512H0z"/></clipPath></defs></svg>