<svg xmlns="http://www.w3.org/2000/svg" width="512" height="512" fill="none"><path fill="#333" d="M0 200.3h512v111.3H0z"/><path fill="#FFDA44" d="M0 58.5h512v99.6H0zm0 289.6h512v111.3H0z"/><path fill="#6DA544" fill-rule="evenodd" d="M512 0H0v72.2h512V0Zm0 439.8H0V512h512v-72.2Z" clip-rule="evenodd"/><path fill="#D80027" fill-rule="evenodd" d="M512 144.4H0v72.2h512v-72.2Zm0 151H0v72.2h512v-72.2Z" clip-rule="evenodd"/><path fill="#EEE" d="M0 0v512l256-256L0 0Z"/><path fill="#333" d="M31.5 0H0l256 256L0 512h31.5l256-256L31.5 0Z"/><path fill="#D80027" d="m103 189.2 16.5 51h53.6l-43.4 31.6 16.6 51-43.4-31.5-43.4 31.5 16.6-51-43.4-31.6h53.6l16.6-51Z"/><path fill="#FFC635" d="m148.5 260.2-43.2-15.3-3.4-31a16.7 16.7 0 1 0-32.5 7.6l-12 12.1h21.5c0 22.4-16.7 22.4-16.7 44.7l9.2 22.2h55.7l9.3-22.2a23 23 0 0 0 1.7-6.6c8-3.2 10.4-11.5 10.4-11.5Z"/></svg>