<svg xmlns="http://www.w3.org/2000/svg" width="512" height="512" fill="none"><path fill="var(--flag-palette-bright-red, #d80027)" d="M0 136h512v240H0z"/><path fill="var(--flag-palette-green, #6da544)" d="M0 344h512v168H0z"/><path fill="var(--flag-palette-light-blue, #338af3)" d="M0 0h512v168H0z"/><path fill="var(--flag-palette-white, #eeeeee)" d="M261 321a65 65 0 1 1 31-122.2 80 80 0 1 0 0 114.4q-14 7.6-31 7.8"/><path fill="var(--flag-palette-white, #eeeeee)" d="m311 211 8.6 24.2 23.2-11-11 23.2L356 256l-24.2 8.6 11 23.2-23.2-11L311 301l-8.6-24.2-23.2 11 11-23.2L266 256l24.2-8.6-11-23.2 23.2 11z"/></svg>