<svg xmlns="http://www.w3.org/2000/svg" width="512" height="512" fill="none"><path fill="var(--flag-palette-navy, #002266)" d="M0 0h512v512H0z"/><path fill="var(--flag-palette-white, #eeeeee)" d="m184.4 370.5 14 29.4 31.8-7.4-14.2 29.3 25.5 20.3-31.8 7.1v32.6l-25.3-20.4-25.4 20.4v-32.6l-31.7-7.1 25.5-20.3-14.2-29.3 31.7 7.4zm228.9 55.7 7 14.7 15.9-3.7-7.1 14.6 12.7 10.2-15.9 3.5v16.3l-12.6-10.2-12.7 10.2v-16.3l-15.9-3.5 12.8-10.2-7.1-14.6 15.9 3.7zM348 270.3l7 14.7 15.8-3.6-7 14.6 12.7 10.1-16 3.6.1 16.3-12.7-10.2-12.7 10.2v-16.3l-15.8-3.6 12.8-10-7.2-14.7 16 3.6zm65.3-89 7 14.7 15.9-3.7L429 207l12.7 10-15.9 3.7V237l-12.6-10.2-12.7 10.2v-16.3l-15.9-3.6 12.8-10.1-7.1-14.7 15.9 3.7zm57.1 66.7 7 14.8 15.9-3.7-7.1 14.7 12.7 10-15.9 3.7v16.2l-12.6-10.2-12.7 10.2v-16.2l-15.9-3.6 12.8-10.1-7.1-14.7 15.8 3.7zm-40.8 78 5.5 17H453l-14.5 10.5 5.5 17-14.4-10.5-14.5 10.5 5.5-17-14.5-10.5h18zM0 512V0h496L320 176v16l-32 32h-64v64z"/><path fill="var(--flag-palette-blue, #0052b4)" d="M192 144V0H48zM464 0 320 144V0zM144 192 0 48v144zM0 320v144l144-144z"/><path fill="var(--flag-palette-bright-red, #d80027)" d="m224 288 64-64V0h-64v224H0v64z"/><path fill="var(--flag-palette-bright-red, #d80027)" d="m0 32 160 160h32L0 0zM480 0 320 160v32L512 0z"/></svg>