<svg xmlns="http://www.w3.org/2000/svg" width="512" height="512" fill="none"><g clip-path="url(#a)"><path fill="#0052B4" d="M0 0h512v512H0z"/><mask id="b" width="513" height="512" x="-1" y="0" maskUnits="userSpaceOnUse" style="mask-type:alpha"><path fill="#F0F" d="M0 512V0h512L0 512Z"/></mask><g mask="url(#b)"><path fill="#EEE" d="M0 0h512v512H0z"/><path fill="#0052B4" d="M189.2 0h-142l142 142V0ZM0 189.2v-142l142 142H0Zm0 275.6v-142h142L0 464.8ZM189.2 512h-142l142-142v142Zm275.6 0h-142V370l142 142ZM512 322.8v142l-142-142h142Zm0-275.6v142H370l142-142ZM322.8 0h142l-142 142V0Z"/><path fill="#D80027" d="M512 0 322.8 189.2v-31.5L480.5 0H512Z"/><path fill="#D80027" d="M512 222.6H289.4V0h-66.8v222.6H0v66.8h222.6V512h66.8V289.4H512v-66.8Z"/><path fill="#D80027" d="M512 480.5 354.3 322.8h-31.5L512 512v-31.5ZM31.5 512l157.7-157.7v-31.5L0 512h31.5ZM0 0l189.2 189.2h-31.5L0 31.5V0Z"/></g><path fill="#EEE" d="m184.4 370.5 14 29.4 31.8-7.3-14.2 29.3 25.5 20.2-31.8 7.2.1 32.5-25.4-20.3-25.4 20.3v-32.5l-31.7-7.2 25.5-20.2-14.2-29.3 31.7 7.3 14-29.4Zm228.9 55.7 7 14.7 15.9-3.7-7.1 14.6 12.7 10.2-15.9 3.5v16.3l-12.6-10.2-12.7 10.2v-16.3l-15.9-3.5 12.8-10.2-7.1-14.6 15.9 3.7 7-14.7ZM348 270.3l7 14.7 15.8-3.6-7 14.6 12.7 10.1-16 3.6.1 16.3-12.7-10.2-12.7 10.2v-16.3l-15.8-3.6 12.7-10-7-14.7 15.8 3.6 7-14.7Zm65.3-89 7 14.7 15.9-3.7L429 207l12.7 10-15.9 3.7V237l-12.6-10.2-12.7 10.2v-16.3l-15.9-3.6 12.8-10.1-7.1-14.7 15.9 3.7 7-14.7Zm57.1 66.7 7 14.8 15.9-3.7-7.1 14.7 12.7 10-15.9 3.7v16.2l-12.6-10.1-12.7 10.1v-16.2l-15.9-3.6 12.8-10.1-7.1-14.7 15.8 3.7 7-14.7Zm-40.8 78 5.5 17H453l-14.5 10.5 5.5 17-14.4-10.5-14.5 10.5 5.5-17-14.5-10.5h18l5.4-17Z"/></g><defs><clipPath id="a"><path fill="#fff" d="M0 0h512v512H0z"/></clipPath></defs></svg>