<svg xmlns="http://www.w3.org/2000/svg" width="512" height="512" fill="none"><g clip-path="url(#a)"><path fill="#0052B4" d="M0 0h512v512H0z"/><mask id="b" width="513" height="512" x="-1" y="0" maskUnits="userSpaceOnUse" style="mask-type:alpha"><path fill="#F0F" d="M0 512V0h512L0 512Z"/></mask><g mask="url(#b)"><path fill="#0052B4" d="M0 0h512v512H0z"/><path fill="#EEE" d="M464 512h48v-48L304 256 512 48V0h-48L256 208 48 0H0v48l208 208L0 464v48h48l208-208 208 208Z"/><path fill="#EEE" d="M512 320V192H320V0H192v192H0v128h192v192h128V320h192Z"/><path fill="#D80027" d="M512 288v-64H288V0h-64v224H0v64h224v224h64V288h224Z"/><path fill="#D80027" d="M0 32V0l192 192h-32L0 32Zm512 448v32L320 320h32l160 160ZM32 512H0l192-192v32L32 512ZM480 0h32L320 192v-32L480 0Z"/></g><path fill="#EEE" d="m184.4 370.5 14 29.4 31.8-7.3-14.2 29.3 25.5 20.2-31.8 7.2.1 32.5-25.4-20.3-25.4 20.3v-32.5l-31.7-7.2 25.5-20.2-14.2-29.3 31.7 7.3 14-29.4Zm228.9 55.7 7 14.7 15.9-3.7-7.1 14.6 12.7 10.2-15.9 3.5v16.3l-12.6-10.2-12.7 10.2v-16.3l-15.9-3.5 12.8-10.2-7.1-14.6 15.9 3.7 7-14.7ZM348 270.3l7 14.7 15.8-3.6-7 14.6 12.7 10.1-16 3.6.1 16.3-12.7-10.2-12.7 10.2v-16.3l-15.8-3.6 12.7-10-7-14.7 15.8 3.6 7-14.7Zm65.3-89 7 14.7 15.9-3.7L429 207l12.7 10-15.9 3.7V237l-12.6-10.2-12.7 10.2v-16.3l-15.9-3.6 12.8-10.1-7.1-14.7 15.9 3.7 7-14.7Zm57.1 66.7 7 14.8 15.9-3.7-7.1 14.7 12.7 10-15.9 3.7v16.2l-12.6-10.1-12.7 10.1v-16.2l-15.9-3.6 12.8-10.1-7.1-14.7 15.8 3.7 7-14.7Zm-40.8 78 5.5 17H453l-14.5 10.5 5.5 17-14.4-10.5-14.5 10.5 5.5-17-14.5-10.5h18l5.4-17Z"/></g><defs><clipPath id="a"><path fill="#fff" d="M0 0h512v512H0z"/></clipPath></defs></svg>