<svg width="512" height="512" viewBox="0 0 512 512" fill="none" xmlns="http://www.w3.org/2000/svg">
<rect width="512" height="512" fill="var(--flag-palette-navy, #002266)"/>
<path d="M184.383 370.496L198.433 399.874L230.16 392.541L215.952 421.843L241.466 442.076L209.699 449.236L209.788 481.8L184.383 461.427L158.979 481.8L159.068 449.236L127.3 442.076L152.815 421.843L138.605 392.541L170.334 399.874L184.383 370.496Z" fill="var(--flag-palette-white, #eeeeee)"/>
<path d="M413.284 426.17L420.309 440.859L436.173 437.192L429.068 451.843L441.826 461.96L425.942 465.54L425.986 481.822L413.284 471.635L400.582 481.822L400.626 465.54L384.743 461.96L397.5 451.843L390.396 437.192L406.259 440.859L413.284 426.17Z" fill="var(--flag-palette-white, #eeeeee)"/>
<path d="M347.933 270.344L354.957 285.034L370.821 281.366L363.717 296.017L376.474 306.134L360.591 309.714L360.634 325.996L347.933 315.809L335.231 325.996L335.274 309.714L319.391 306.134L332.148 296.017L325.044 281.366L340.908 285.034L347.933 270.344Z" fill="var(--flag-palette-white, #eeeeee)"/>
<path d="M413.284 181.3L420.309 195.99L436.173 192.323L429.069 206.974L441.825 217.09L425.942 220.671L425.986 236.953L413.284 226.766L400.582 236.953L400.626 220.671L384.743 217.09L397.499 206.974L390.396 192.323L406.259 195.99L413.284 181.3Z" fill="var(--flag-palette-white, #eeeeee)"/>
<path d="M470.368 248.083L477.392 262.773L493.256 259.105L486.152 273.756L498.909 283.873L483.025 287.454L483.069 303.735L470.368 293.549L457.666 303.735L457.709 287.454L441.826 283.873L454.583 273.756L447.479 259.105L463.342 262.773L470.368 248.083Z" fill="var(--flag-palette-white, #eeeeee)"/>
<path d="M429.55 325.996L435.075 343.002H452.957L438.49 353.513L444.017 370.518L429.55 360.008L415.084 370.518L420.609 353.513L406.143 343.002H424.024L429.55 325.996Z" fill="var(--flag-palette-white, #eeeeee)"/>
<path d="M3.25494e-05 512L0.000168863 -6.20511e-05L496 -2.00882e-05L320 176L320 192L288 224L224 224L224 288L3.25494e-05 512Z" fill="var(--flag-palette-white, #eeeeee)"/>
<path d="M192 144L192 -7.32413e-05L47.9996 -9.8419e-05L192 144Z" fill="var(--flag-palette-blue, #0052b4)"/>
<path d="M464 -2.56833e-05L320 144L320 -5.0861e-05L464 -2.56833e-05Z" fill="var(--flag-palette-blue, #0052b4)"/>
<path d="M144 192L0.000151696 48.0004L0.000100198 192L144 192Z" fill="var(--flag-palette-blue, #0052b4)"/>
<path d="M6.61197e-05 320L4.09421e-05 463.999L144 320L6.61197e-05 320Z" fill="var(--flag-palette-blue, #0052b4)"/>
<path d="M224 288L288 224L288 -5.64561e-05L224 -6.76462e-05L224 224L8.87539e-05 224L7.17148e-05 288L224 288Z" fill="var(--flag-palette-bright-red, #d80027)"/>
<path d="M0.000139871 32.0004L160 192L192 192L0.000148391 0.000428262L0.000139871 32.0004Z" fill="var(--flag-palette-bright-red, #d80027)"/>
<path d="M480 -2.28857e-05L320 160L320 192L512 -1.72907e-05L480 -2.28857e-05Z" fill="var(--flag-palette-bright-red, #d80027)"/>
</svg>