<svg xmlns="http://www.w3.org/2000/svg" width="512" height="512" fill="none"><g clip-path="url(#a)"><path fill="#EEE" d="M384 512H128V0h256v512Z"/><path fill="#D80027" d="M144 512H0V0h144v512Zm368 0H368V0h144v512ZM300.5 289.4 345 267l-22.2-11v-22.3L278.3 256l22.2-44.5h-22.2L256 178l-22.3 33.4h-22.2l22.2 44.5-44.5-22.3V256L167 267.1l44.5 22.3-11.2 22.3H245V345h22v-33.3h44.6l-11.2-22.3Z"/><path fill="#EEE" d="M384 368H128v-512h256v512Z"/><path fill="#D80027" d="M144 368H0v-512h144v512Zm368 0H368v-512h144v512ZM300.5 145.4 345 123l-22.2-11V89.7L278.3 112l22.2-44.5h-22.2L256 34l-22.3 33.4h-22.2l22.2 44.5-44.5-22.3V112L167 123.1l44.5 22.3-11.2 22.3H245V201h22v-33.3h44.6l-11.2-22.3Z"/><path fill="#EEE" d="M512 0v512H16l176-176v-16l32-32h64v-64L512 0Z"/><path fill="#0052B4" d="M320 368v144h144L320 368ZM48 512l144-144v144H48Zm320-192 144 144V320H368Zm144-128V48L368 192h144Z"/><path fill="#D80027" d="m288 224-64 64v224h64V288h224v-64H288Z"/><path fill="#D80027" d="M512 480 352 320h-32l192 192v-32ZM32 512l160-160v-32L0 512h32Z"/></g><defs><clipPath id="a"><path fill="#fff" d="M0 0h512v512H0z"/></clipPath></defs></svg>