<svg xmlns="http://www.w3.org/2000/svg" width="512" height="512" fill="none"><g clip-path="url(#a)"><path fill="var(--flag-palette-white, #eeeeee)" d="M384 512H128V0h256z"/><path fill="var(--flag-palette-bright-red, #d80027)" d="M144 512H0V0h144zm368 0H368V0h144zM300.5 289.4 345 267l-22.2-11v-22.3L278.3 256l22.2-44.5h-22.2L256 178l-22.3 33.4h-22.2l22.2 44.5-44.5-22.3V256L167 267.1l44.5 22.3-11.2 22.3H245V345h22v-33.3h44.6z"/><path fill="var(--flag-palette-white, #eeeeee)" d="M384 368H128v-512h256z"/><path fill="var(--flag-palette-bright-red, #d80027)" d="M144 368H0v-512h144zm368 0H368v-512h144zM300.5 145.4 345 123l-22.2-11V89.7L278.3 112l22.2-44.5h-22.2L256 34l-22.3 33.4h-22.2l22.2 44.5-44.5-22.3V112L167 123.1l44.5 22.3-11.2 22.3H245V201h22v-33.3h44.6z"/><path fill="var(--flag-palette-white, #eeeeee)" d="M512 0v512H16l176-176v-16l32-32h64v-64z"/><path fill="var(--flag-palette-blue, #0052b4)" d="M320 368v144h144zM48 512l144-144v144zm320-192 144 144V320zm144-128V48L368 192z"/><path fill="var(--flag-palette-bright-red, #d80027)" d="m288 224-64 64v224h64V288h224v-64z"/><path fill="var(--flag-palette-bright-red, #d80027)" d="M512 480 352 320h-32l192 192zM32 512l160-160v-32L0 512z"/></g><defs><clipPath id="a"><path fill="#fff" d="M0 0h512v512H0z"/></clipPath></defs></svg>