<svg xmlns="http://www.w3.org/2000/svg" width="512" height="512" fill="none"><g clip-path="url(#a)"><path fill="#EEE" d="M389.5 512h-267V0h267z"/><path fill="#D80027" d="M144.7 512H0V0h144.7zm367.3 0H367.3V0H512zM300.5 289.4 345 267l-22.2-11v-22.3L278.3 256l22.2-44.5h-22.2L256 178l-22.3 33.4h-22.2l22.2 44.5-44.5-22.3V256L167 267.1l44.5 22.3-11.2 22.3H245V345h22v-33.3h44.6l-11.2-22.3Z"/><path fill="#EEE" d="M389.5 368h-267v-512h267z"/><path fill="#D80027" d="M144.7 368H0v-512h144.7zm367.3 0H367.3v-512H512zM300.5 145.4 345 123l-22.2-11V89.7L278.3 112l22.2-44.5h-22.2L256 34l-22.3 33.4h-22.2l22.2 44.5-44.5-22.3V112L167 123.1l44.5 22.3-11.2 22.3H245V201h22v-33.3h44.6l-11.2-22.3Z"/><mask id="b" width="513" height="512" x="0" y="0" maskUnits="userSpaceOnUse" style="mask-type:alpha"><path fill="#F0F" d="M512 0v512H0L512 0Z"/></mask><g mask="url(#b)"><path fill="#0052B4" d="M512 512H0V0h512z"/><path fill="#EEE" d="M48 0H0v48l208 208L0 464v48h48l208-208 208 208h48v-48L304 256 512 48V0h-48L256 208 48 0Z"/><path fill="#EEE" d="M0 192v128h192v192h128V320h192V192H320V0H192v192H0Z"/><path fill="#D80027" d="M0 224v64h224v224h64V288h224v-64H288V0h-64v224H0Z"/><path fill="#D80027" d="M512 480v32L320 320h32l160 160ZM0 32V0l192 192h-32L0 32ZM480 0h32L320 192v-32L480 0ZM32 512H0l192-192v32L32 512Z"/></g></g><defs><clipPath id="a"><path fill="#fff" d="M0 0h512v512H0z"/></clipPath></defs></svg>