<svg width="512" height="512" viewBox="0 0 512 512" fill="none" xmlns="http://www.w3.org/2000/svg">
<g clip-path="url(#clip0_53_7780)">
<rect width="512" height="512" fill="var(--flag-palette-bright-red, #d80027)"/>
<rect x="-114" y="-104" width="512" height="512" fill="var(--flag-palette-bright-red, #d80027)"/>
<path d="M168.43 89.668C162.612 113.867 152.275 109.252 147.202 130.356C117.319 123.171 98.915 93.121 106.1 63.236C113.282 33.353 143.335 14.949 173.219 22.134C163.072 64.341 173.635 68.025 168.43 89.668Z" fill="var(--flag-palette-white, #eeeeee)"/>
<path d="M90.8871 107.6C112.104 120.61 104.52 129.017 123.022 140.364C106.954 166.565 72.6891 174.78 46.4871 158.713C20.2861 142.646 12.0691 108.379 28.1371 82.178C65.1431 104.87 71.9081 95.963 90.8871 107.6Z" fill="var(--flag-palette-white, #eeeeee)"/>
<path d="M83.9781 186.892C102.909 170.734 108.558 180.544 125.067 166.454C145.022 189.831 142.246 224.959 118.87 244.914C95.4921 264.869 60.3641 262.09 40.4121 238.715C73.4261 210.532 67.0451 201.343 83.9781 186.892Z" fill="var(--flag-palette-white, #eeeeee)"/>
<path d="M157.254 217.965C147.734 194.968 158.81 192.624 150.511 172.571C178.91 160.818 211.462 174.312 223.216 202.711C234.969 231.11 221.473 263.661 193.074 275.415C176.477 235.306 165.768 238.535 157.254 217.965Z" fill="var(--flag-palette-white, #eeeeee)"/>
<path d="M209.45 157.876C184.637 159.823 185.828 148.563 164.193 150.261C161.79 119.622 184.684 92.831 215.325 90.426C245.965 88.027 272.755 110.919 275.157 141.561C231.88 144.954 231.641 156.137 209.45 157.876Z" fill="var(--flag-palette-white, #eeeeee)"/>
<path d="M512 0L512 512L16.0005 512L192.001 336L192.001 320L224.001 288L288.001 288L288.001 224L512 0Z" fill="var(--flag-palette-white, #eeeeee)"/>
<path d="M320.001 368L320.001 512L464 512L320.001 368Z" fill="var(--flag-palette-blue, #0052b4)"/>
<path d="M48.0005 512L192.001 368L192.001 512L48.0005 512Z" fill="var(--flag-palette-blue, #0052b4)"/>
<path d="M368.001 320L512 464L512 320L368.001 320Z" fill="var(--flag-palette-blue, #0052b4)"/>
<path d="M512 192L512 48.0005L368.001 192L512 192Z" fill="var(--flag-palette-blue, #0052b4)"/>
<path d="M288.001 224L224.001 288L224.001 512L288.001 512L288.001 288L512 288L512 224L288.001 224Z" fill="var(--flag-palette-bright-red, #d80027)"/>
<path d="M512 480L352.001 320L320.001 320L512 512L512 480Z" fill="var(--flag-palette-bright-red, #d80027)"/>
<path d="M32.0005 512L192.001 352L192.001 320L0.000518799 512L32.0005 512Z" fill="var(--flag-palette-bright-red, #d80027)"/>
</g>
<defs>
<clipPath id="clip0_53_7780">
<rect width="512" height="512" fill="white"/>
</clipPath>
</defs>
</svg>