<svg xmlns="http://www.w3.org/2000/svg" width="512" height="512" fill="none"><g clip-path="url(#a)"><path fill="#D80027" d="M0 0h512v512H0z"/><path fill="#D80027" d="M-64-64h512v512H-64z"/><path fill="#EEE" d="M218.4 129.7c-5.8 24.2-16.1 19.6-21.2 40.7a55.7 55.7 0 0 1 26-108.3c-10.1 42.2.4 46-4.8 67.6Zm-77.5 17.9c21.2 13 13.6 21.4 32.1 32.8a55.7 55.7 0 0 1-94.9-58.2c37 22.7 43.8 13.8 62.8 25.4Zm-6.9 79.3c19-16.2 24.6-6.4 41-20.4a55.7 55.7 0 0 1-84.6 72.2c33-28.2 26.6-37.4 43.6-51.8Zm73.3 31.1c-9.6-23 1.5-25.4-6.8-45.4a55.7 55.7 0 0 1 42.6 102.8c-16.6-40-27.3-36.9-35.8-57.4Zm52.1-60.1c-24.8 2-23.6-9.3-45.2-7.6a55.7 55.7 0 0 1 111-8.7c-43.3 3.4-43.6 14.5-65.8 16.3Z"/><mask id="b" width="513" height="512" x="0" y="0" maskUnits="userSpaceOnUse" style="mask-type:alpha"><path fill="#F0F" d="M512 0v512H0L512 0Z"/></mask><g mask="url(#b)"><path fill="#0052B4" d="M512 512H0V0h512z"/><path fill="#EEE" d="M48 0H0v48l208 208L0 464v48h48l208-208 208 208h48v-48L304 256 512 48V0h-48L256 208 48 0Z"/><path fill="#EEE" d="M0 192v128h192v192h128V320h192V192H320V0H192v192H0Z"/><path fill="#D80027" d="M0 224v64h224v224h64V288h224v-64H288V0h-64v224H0Z"/><path fill="#D80027" d="M512 480v32L320 320h32l160 160ZM0 32V0l192 192h-32L0 32ZM480 0h32L320 192v-32L480 0ZM32 512H0l192-192v32L32 512Z"/></g></g><defs><clipPath id="a"><path fill="#fff" d="M0 0h512v512H0z"/></clipPath></defs></svg>