<svg xmlns="http://www.w3.org/2000/svg" width="512" height="512" fill="none"><g clip-path="url(#a)"><path fill="#D80027" d="M0 0h512v512H0z"/><path fill="#D80027" d="M-64-64h512v512H-64z"/><path fill="#EEE" d="M218.4 129.7c-5.8 24.2-16.1 19.6-21.2 40.7a55.7 55.7 0 0 1 26-108.3c-10.1 42.2.4 46-4.8 67.6Zm-77.5 17.9c21.2 13 13.6 21.4 32.1 32.8a55.7 55.7 0 0 1-94.9-58.2c37 22.7 43.8 13.8 62.8 25.4Zm-6.9 79.3c19-16.2 24.6-6.4 41-20.4a55.7 55.7 0 0 1-84.6 72.2c33-28.2 26.6-37.4 43.6-51.8Zm73.3 31.1c-9.6-23 1.5-25.4-6.8-45.4a55.7 55.7 0 0 1 42.6 102.8c-16.6-40-27.3-36.9-35.8-57.4Zm52.1-60.1c-24.8 2-23.6-9.3-45.2-7.6a55.7 55.7 0 0 1 111-8.7c-43.3 3.4-43.6 14.5-65.8 16.3Z"/><mask id="b" width="513" height="512" x="0" y="0" maskUnits="userSpaceOnUse" style="mask-type:alpha"><path fill="#F0F" d="M512 0v512H0L512 0Z"/></mask><g mask="url(#b)"><path fill="#EEE" d="M512 512H0V0h512z"/><path fill="#0052B4" d="M322.8 512h142l-142-142v142ZM512 322.8v142l-142-142h142Zm0-275.6v142H370l142-142ZM322.8 0h142l-142 142V0ZM47.2 0h142v142L47.2 0ZM0 189.2v-142l142 142H0Zm0 275.6v-142h142L0 464.8ZM189.2 512h-142l142-142v142Z"/><path fill="#D80027" d="m0 512 189.2-189.2v31.5L31.5 512H0Z"/><path fill="#D80027" d="M0 289.4h222.6V512h66.8V289.4H512v-66.8H289.4V0h-66.8v222.6H0v66.8Z"/><path fill="#D80027" d="m0 31.5 157.7 157.7h31.5L0 0v31.5ZM480.5 0 322.8 157.7v31.5L512 0h-31.5ZM512 512 322.8 322.8h31.5L512 480.5V512Z"/></g></g><defs><clipPath id="a"><path fill="#fff" d="M0 0h512v512H0z"/></clipPath></defs></svg>