<svg xmlns="http://www.w3.org/2000/svg" width="512" height="512" fill="none"><g clip-path="url(#a)"><path fill="#EEE" d="M512 122.4v267.1H0v-267z"/><path fill="#6DA544" d="M512 367.3V512H0V367.3z"/><path fill="#FF9811" d="M512 0v144.7H0V0z"/><path fill="#0052B4" d="M256 345a89 89 0 1 0 0-178 89 89 0 0 0 0 178Z"/><path fill="#EEE" d="M256 311.7a55.7 55.7 0 1 0 0-111.4 55.7 55.7 0 0 0 0 111.4Z"/><path fill="#0052B4" d="m256 187.3 17.2 39 42.3-4.6-25.2 34.3 25.2 34.3-42.3-4.6-17.2 39-17.2-39-42.3 4.6 25.2-34.3-25.2-34.3 42.3 4.6 17.2-39Z"/><mask id="b" width="513" height="512" x="0" y="0" maskUnits="userSpaceOnUse" style="mask-type:alpha"><path fill="#F0F" d="M512 0v512H0L512 0Z"/></mask><g mask="url(#b)"><path fill="#EEE" d="M512 512H0V0h512z"/><path fill="#0052B4" d="M322.8 512h142l-142-142v142ZM512 322.8v142l-142-142h142Zm0-275.6v142H370l142-142ZM322.8 0h142l-142 142V0ZM47.2 0h142v142L47.2 0ZM0 189.2v-142l142 142H0Zm0 275.6v-142h142L0 464.8ZM189.2 512h-142l142-142v142Z"/><path fill="#D80027" d="m0 512 189.2-189.2v31.5L31.5 512H0Z"/><path fill="#D80027" d="M0 289.4h222.6V512h66.8V289.4H512v-66.8H289.4V0h-66.8v222.6H0v66.8Z"/><path fill="#D80027" d="m0 31.5 157.7 157.7h31.5L0 0v31.5ZM480.5 0 322.8 157.7v31.5L512 0h-31.5ZM512 512 322.8 322.8h31.5L512 480.5V512Z"/></g></g><defs><clipPath id="a"><path fill="#fff" d="M0 0h512v512H0z"/></clipPath></defs></svg>