<svg xmlns="http://www.w3.org/2000/svg" width="512" height="512" fill="none"><g clip-path="url(#a)"><path fill="#EEE" d="M136 512V0h240v512z"/><path fill="#FF9811" d="M344 512V0h168v512z"/><path fill="#6DA544" d="M0 512V0h168v512z"/><path fill="#EEE" d="M512 0v512H16l176-176v-16l32-32h64v-64L512 0Z"/><path fill="#0052B4" d="M320 368v144h144L320 368ZM48 512l144-144v144H48Zm320-192 144 144V320H368Zm144-128V48L368 192h144Z"/><path fill="#D80027" d="m288 224-64 64v224h64V288h224v-64H288Z"/><path fill="#D80027" d="M512 480 352 320h-32l192 192v-32ZM32 512l160-160v-32L0 512h32Z"/></g><defs><clipPath id="a"><path fill="#fff" d="M0 0h512v512H0z"/></clipPath></defs></svg>