<svg xmlns="http://www.w3.org/2000/svg" width="512" height="512" fill="none"><path fill="var(--flag-palette-white, #eeeeee)" d="M512 384H0V128h512z"/><path fill="var(--flag-palette-dark-green, #496e2d)" d="M512 512H0V368h512z"/><path fill="var(--flag-palette-gold, #ff9811)" d="M512 144H0V0h512z"/><path fill="var(--flag-palette-navy, #002266)" d="M255.8 168.4a88 88 0 1 1 0 176 88 88 0 0 1 0-176M246.6 283l-26.1 36.3q4.4 2.4 9 4.3a8 8 0 0 1 15.5 4.1q4.8.8 10 .8l-4.5-44.5 2-3.7q-3-.4-5.8-1.6zm18.3-4.3q-2.8 1.2-5.9 1.6l2 3.7-4.4 44.5q5 0 10-.8a8 8 0 0 1 15.4-4.1q4.8-1.8 9-4.3L265 283zm9.9-7.5q-2 2.4-4.3 4.3l3.6 2.2 18.4 40.8q4.3-2.6 8.2-5.7a8 8 0 0 1 11.3-11.3q3.2-4 5.7-8.3L277 274.7zm-40.2 3.6-40.8 18.4q2.6 4.4 5.7 8.3a8 8 0 0 1 11.3 11.3q4 3 8.3 5.7l18.4-40.8 3.6-2.2q-2.4-1.8-4.3-4.3zm48.7-13-3.7-2q-.4 3-1.6 5.8l4.2.1 36.3 26.1q2.5-4.3 4.4-9a8 8 0 0 1 4-15.5q.8-4.9.9-10zm-99.5-4.5q0 5.1.8 10a8 8 0 0 1 4.1 15.5q1.8 4.7 4.3 9l36.3-26.1h4.3q-1.2-3-1.6-6l-3.7 2zm9.2-36q-2.4 4.2-4.3 9a8 8 0 0 1-4.1 15.4q-.8 5-.8 10l44.5-4.4 3.7 2q.4-3 1.6-5.9h-4.2zm89.2 26-4.2.1q1.2 2.8 1.6 6l3.7-2.1 44.5 4.4q0-5-.8-10a8 8 0 0 1-4.1-15.4 72 72 0 0 0-4.4-9zm-63.1-52.7a72 72 0 0 0-8.3 5.7 8 8 0 0 1-11.3 11.3q-3 3.9-5.7 8.2l40.8 18.4 2.2 3.6q1.9-2.4 4.3-4.3l-3.6-2.1zm55 40.8-3.6 2.1q2.4 2 4.3 4.3l2.2-3.6 40.7-18.4a72 72 0 0 0-5.7-8.2 8 8 0 0 1-11.3-11.3q-3.9-3.1-8.2-5.7zm-19.1-51q-5.2 0-10 .8a8 8 0 0 1-15.5 4.2 72 72 0 0 0-9 4.3l26.1 36.3v4.2q3-1.1 6-1.6l-2-3.7zm6 44.5-2 3.7q3 .4 5.9 1.6V230l26.2-36.3q-4.5-2.5-9-4.3a8 8 0 0 1-15.5-4.2q-5-.7-10-.8z"/><path fill="var(--flag-palette-white, #eeeeee)" d="M512 0v512H16l176-176v-16l32-32h64v-64z"/><path fill="var(--flag-palette-blue, #0052b4)" d="M320 368v144h144zM48 512l144-144v144zm320-192 144 144V320zm144-128V48L368 192z"/><path fill="var(--flag-palette-bright-red, #d80027)" d="m288 224-64 64v224h64V288h224v-64z"/><path fill="var(--flag-palette-bright-red, #d80027)" d="M512 480 352 320h-32l192 192zM32 512l160-160v-32L0 512z"/></svg>