<svg xmlns="http://www.w3.org/2000/svg" width="512" height="512" fill="none"><g clip-path="url(#a)"><path fill="var(--flag-palette-dark-red, #a2001d)" d="M-128 136h512v240h-512z"/><path fill="var(--flag-palette-dark-green, #496e2d)" d="M-128 344h512v168h-512z"/><path fill="var(--flag-palette-black, #333333)" d="M-128 0h512v168h-512z"/><path fill="var(--flag-palette-white, #eeeeee)" d="M384 352h-512v-32h512zm0-160h-512v-32h512z"/><path fill="var(--flag-palette-white, #eeeeee)" d="m207.7 118.3-30.3-14L128 216.2 78.6 104.3l-30.3 14L109.6 256 48.3 393.7l30.3 14L128 295.8l49.4 111.9 30.3-14L146.4 256z"/><path fill="var(--flag-palette-white, #eeeeee)" d="M148.6 131.5a236 236 0 0 0-20.6-20.2s-8.9 7.4-20.6 20.2v249a236 236 0 0 0 20.6 20.2s8.9-7.4 20.6-20.2z"/><path fill="var(--flag-palette-dark-red, #a2001d)" d="M72.3 179.2v153.6a269 269 0 0 0 39 51.9V127.3c-11.4 12-26.6 30-39 52m111.4-.1a269 269 0 0 0-39-51.9v257.4c11.4-12 26.5-30 39-52z"/><path fill="var(--flag-palette-black, #333333)" d="M183.7 179.2v153.6a158 158 0 0 0 22.2-76.8c0-28.2-9.7-54.5-22.2-76.8m-111.4 0v153.6A158 158 0 0 1 50.1 256c0-28.2 9.7-54.5 22.2-76.8"/><path fill="var(--flag-palette-dark-red, #a2001d)" d="M256 136h512v240H256z"/><path fill="var(--flag-palette-dark-green, #496e2d)" d="M256 344h512v168H256z"/><path fill="var(--flag-palette-black, #333333)" d="M256 0h512v168H256z"/><path fill="var(--flag-palette-white, #eeeeee)" d="M768 352H256v-32h512zm0-160H256v-32h512z"/><path fill="var(--flag-palette-white, #eeeeee)" d="m591.7 118.3-30.3-14L512 216.2l-49.4-111.9-30.3 14L493.6 256l-61.3 137.7 30.3 14L512 295.8l49.4 111.9 30.3-14L530.4 256z"/><path fill="var(--flag-palette-white, #eeeeee)" d="M532.6 131.5c-11.7-12.8-20.6-20.2-20.6-20.2s-8.9 7.4-20.6 20.2v249a236 236 0 0 0 20.6 20.2s8.9-7.4 20.6-20.2z"/><path fill="var(--flag-palette-dark-red, #a2001d)" d="M456.3 179.2v153.6a265 265 0 0 0 39 51.9V127.3c-11.4 12-26.6 30-39 52"/><path fill="var(--flag-palette-black, #333333)" d="M456.3 179.2v153.6a158 158 0 0 1-22.2-76.8c0-28.2 9.7-54.5 22.2-76.8"/><path fill="var(--flag-palette-white, #eeeeee)" d="M512 0v512H16l176-176v-16l32-32h64v-64z"/><path fill="var(--flag-palette-blue, #0052b4)" d="M320 368v144h144zM48 512l144-144v144zm320-192 144 144V320zm144-128V48L368 192z"/><path fill="var(--flag-palette-bright-red, #d80027)" d="m288 224-64 64v224h64V288h224v-64z"/><path fill="var(--flag-palette-bright-red, #d80027)" d="M512 480 352 320h-32l192 192zM32 512l160-160v-32L0 512z"/></g><defs><clipPath id="a"><path fill="#fff" d="M0 0h512v512H0z"/></clipPath></defs></svg>