<svg xmlns="http://www.w3.org/2000/svg" width="512" height="512" fill="none"><g clip-path="url(#a)"><path fill="#EEE" d="M-128 0h512v512h-512z"/><path fill="#333" d="M-128 0h512v144.7h-512z"/><path fill="#496E2D" d="M-128 367.3h512V512h-512z"/><path fill="#A2001D" d="M-128 178.1h512v155.8h-512z"/><path fill="#EEE" d="m207.7 118.3-30.3-14L128 216.2 78.6 104.3l-30.3 14L109.6 256 48.3 393.7l30.3 14L128 295.8l49.4 111.9 30.3-14L146.4 256l61.3-137.7Z"/><path fill="#EEE" d="M148.6 131.5a235.7 235.7 0 0 0-20.6-20.2s-8.9 7.4-20.6 20.2v249a235.6 235.6 0 0 0 20.6 20.2s8.9-7.4 20.6-20.2v-249Z"/><path fill="#A2001D" d="M72.3 179.2v153.6a269 269 0 0 0 39 51.9V127.3c-11.4 12-26.6 30-39 52Zm111.4 0a269 269 0 0 0-39-51.9v257.4c11.4-12 26.5-30 39-52V179.3Z"/><path fill="#333" d="M183.7 179.2v153.6a157.7 157.7 0 0 0 22.2-76.8c0-28.2-9.7-54.5-22.2-76.8Zm-111.4 0v153.6A157.7 157.7 0 0 1 50.1 256c0-28.2 9.7-54.5 22.2-76.8Z"/><path fill="#EEE" d="M256 0h512v512H256z"/><path fill="#333" d="M256 0h512v144.7H256z"/><path fill="#496E2D" d="M256 367.3h512V512H256z"/><path fill="#A2001D" d="M256 178.1h512v155.8H256z"/><path fill="#EEE" d="m591.7 118.3-30.3-14L512 216.2l-49.4-111.9-30.3 14L493.6 256l-61.3 137.7 30.3 14L512 295.8l49.4 111.9 30.3-14L530.4 256l61.3-137.7Z"/><path fill="#EEE" d="M532.6 131.5c-11.7-12.8-20.6-20.2-20.6-20.2s-8.9 7.4-20.6 20.2v249a235.6 235.6 0 0 0 20.6 20.2s8.9-7.4 20.6-20.2v-249Z"/><path fill="#A2001D" d="M456.3 179.2v153.6a265 265 0 0 0 39 51.9V127.3c-11.4 12-26.6 30-39 52Z"/><path fill="#333" d="M456.3 179.2v153.6a157.7 157.7 0 0 1-22.2-76.8c0-28.2 9.7-54.5 22.2-76.8Z"/><mask id="b" width="513" height="512" x="0" y="0" maskUnits="userSpaceOnUse" style="mask-type:alpha"><path fill="#F0F" d="M512 0v512H0L512 0Z"/></mask><g mask="url(#b)"><path fill="#EEE" d="M512 512H0V0h512z"/><path fill="#0052B4" d="M322.8 512h142l-142-142v142ZM512 322.8v142l-142-142h142Zm0-275.6v142H370l142-142ZM322.8 0h142l-142 142V0ZM47.2 0h142v142L47.2 0ZM0 189.2v-142l142 142H0Zm0 275.6v-142h142L0 464.8ZM189.2 512h-142l142-142v142Z"/><path fill="#D80027" d="m0 512 189.2-189.2v31.5L31.5 512H0Z"/><path fill="#D80027" d="M0 289.4h222.6V512h66.8V289.4H512v-66.8H289.4V0h-66.8v222.6H0v66.8Z"/><path fill="#D80027" d="m0 31.5 157.7 157.7h31.5L0 0v31.5ZM480.5 0 322.8 157.7v31.5L512 0h-31.5ZM512 512 322.8 322.8h31.5L512 480.5V512Z"/></g></g><defs><clipPath id="a"><path fill="#fff" d="M0 0h512v512H0z"/></clipPath></defs></svg>