<svg xmlns="http://www.w3.org/2000/svg" width="512" height="512" fill="none"><g clip-path="url(#a)"><path fill="#EEE" d="M-128 0h512v512h-512z"/><path fill="#333" d="M-128 0h512v144.7h-512z"/><path fill="#496E2D" d="M-128 367.3h512V512h-512z"/><path fill="#A2001D" d="M-128 178.1h512v155.8h-512z"/><path fill="#EEE" d="m207.7 118.3-30.3-14L128 216.2 78.6 104.3l-30.3 14L109.6 256 48.3 393.7l30.3 14L128 295.8l49.4 111.9 30.3-14L146.4 256l61.3-137.7Z"/><path fill="#EEE" d="M148.6 131.5a235.7 235.7 0 0 0-20.6-20.2s-8.9 7.4-20.6 20.2v249a235.6 235.6 0 0 0 20.6 20.2s8.9-7.4 20.6-20.2v-249Z"/><path fill="#A2001D" d="M72.3 179.2v153.6a269 269 0 0 0 39 51.9V127.3c-11.4 12-26.6 30-39 52Zm111.4 0a269 269 0 0 0-39-51.9v257.4c11.4-12 26.5-30 39-52V179.3Z"/><path fill="#333" d="M183.7 179.2v153.6a157.7 157.7 0 0 0 22.2-76.8c0-28.2-9.7-54.5-22.2-76.8Zm-111.4 0v153.6A157.7 157.7 0 0 1 50.1 256c0-28.2 9.7-54.5 22.2-76.8Z"/><path fill="#EEE" d="M256 0h512v512H256z"/><path fill="#333" d="M256 0h512v144.7H256z"/><path fill="#496E2D" d="M256 367.3h512V512H256z"/><path fill="#A2001D" d="M256 178.1h512v155.8H256z"/><path fill="#EEE" d="m591.7 118.3-30.3-14L512 216.2l-49.4-111.9-30.3 14L493.6 256l-61.3 137.7 30.3 14L512 295.8l49.4 111.9 30.3-14L530.4 256l61.3-137.7Z"/><path fill="#EEE" d="M532.6 131.5c-11.7-12.8-20.6-20.2-20.6-20.2s-8.9 7.4-20.6 20.2v249a235.6 235.6 0 0 0 20.6 20.2s8.9-7.4 20.6-20.2v-249Z"/><path fill="#A2001D" d="M456.3 179.2v153.6a265 265 0 0 0 39 51.9V127.3c-11.4 12-26.6 30-39 52Z"/><path fill="#333" d="M456.3 179.2v153.6a157.7 157.7 0 0 1-22.2-76.8c0-28.2 9.7-54.5 22.2-76.8Z"/><mask id="b" width="513" height="512" x="0" y="0" maskUnits="userSpaceOnUse" style="mask-type:alpha"><path fill="#F0F" d="M512 0v512H0L512 0Z"/></mask><g mask="url(#b)"><path fill="#0052B4" d="M512 512H0V0h512z"/><path fill="#EEE" d="M48 0H0v48l208 208L0 464v48h48l208-208 208 208h48v-48L304 256 512 48V0h-48L256 208 48 0Z"/><path fill="#EEE" d="M0 192v128h192v192h128V320h192V192H320V0H192v192H0Z"/><path fill="#D80027" d="M0 224v64h224v224h64V288h224v-64H288V0h-64v224H0Z"/><path fill="#D80027" d="M512 480v32L320 320h32l160 160ZM0 32V0l192 192h-32L0 32ZM480 0h32L320 192v-32L480 0ZM32 512H0l192-192v32L32 512Z"/></g></g><defs><clipPath id="a"><path fill="#fff" d="M0 0h512v512H0z"/></clipPath></defs></svg>