<svg width="512" height="512" viewBox="0 0 512 512" fill="none" xmlns="http://www.w3.org/2000/svg">
<g clip-path="url(#clip0_53_7986)">
<rect width="512" height="512" fill="var(--flag-palette-navy, #002266)"/>
<path d="M451.356 270.349L456.881 287.355H474.762L460.296 297.865L465.822 314.87L451.356 304.361L436.889 314.87L442.415 297.865L427.948 287.355H445.829L451.356 270.349Z" fill="var(--flag-palette-bright-red, #d80027)"/>
<path fill-rule="evenodd" clip-rule="evenodd" d="M451.356 259.994L459.206 284.155H484.611L464.058 299.087L471.909 323.247L451.356 308.316L430.802 323.247L438.653 299.087L418.099 284.155H443.504L451.356 259.994ZM451.355 280.704L448.154 290.555H437.797L446.177 296.643L442.976 306.493L451.356 300.406L459.735 306.493L456.534 296.643L464.913 290.555H454.556L451.355 280.704Z" fill="var(--flag-palette-white, #eeeeee)"/>
<path d="M387.437 392.783L395.726 418.293H422.547L400.847 434.057L409.137 459.566L387.437 443.801L365.737 459.566L374.027 434.057L352.327 418.293H379.148L387.437 392.783Z" fill="var(--flag-palette-bright-red, #d80027)"/>
<path fill-rule="evenodd" clip-rule="evenodd" d="M387.437 382.428L398.051 415.093H432.397L404.609 435.279L415.225 467.944L387.437 447.756L359.65 467.944L370.265 435.279L342.478 415.093H376.823L387.437 382.428ZM387.437 403.138L381.473 421.493H362.177L377.789 432.835L371.825 451.188L387.437 439.846L403.05 451.188L397.085 432.835L412.698 421.493H393.401L387.437 403.138Z" fill="var(--flag-palette-white, #eeeeee)"/>
<path d="M389.851 192.436L396.759 213.695H419.11L401.026 226.83L407.934 248.088L389.851 234.949L371.769 248.088L378.676 226.83L360.594 213.695H382.944L389.851 192.436Z" fill="var(--flag-palette-bright-red, #d80027)"/>
<path fill-rule="evenodd" clip-rule="evenodd" d="M389.851 182.08L399.084 210.495H428.961L404.788 228.052L414.022 256.466L389.851 238.904L365.682 256.466L374.914 228.052L350.744 210.495H380.619L389.851 182.08ZM389.851 202.791L385.269 216.895H370.444L382.438 225.607L377.856 239.709L389.851 230.993L401.847 239.709L397.264 225.607L409.259 216.895H394.434L389.851 202.791Z" fill="var(--flag-palette-white, #eeeeee)"/>
<path d="M328.348 269.607L336.636 295.117H363.458L341.758 310.881L350.048 336.39L328.348 320.625L306.648 336.39L314.938 310.881L293.238 295.117H320.059L328.348 269.607Z" fill="var(--flag-palette-bright-red, #d80027)"/>
<path fill-rule="evenodd" clip-rule="evenodd" d="M328.348 259.251L338.961 291.917H373.308L345.52 312.103L356.136 344.768L328.348 324.58L300.561 344.768L311.176 312.103L283.389 291.917H317.734L328.348 259.251ZM328.348 279.962L322.384 298.317H303.088L318.7 309.658L312.736 328.012L328.348 316.67L343.961 328.012L337.996 309.658L353.609 298.317H334.311L328.348 279.962Z" fill="var(--flag-palette-white, #eeeeee)"/>
<path d="M-8.95209e-05 512L4.67923e-05 -6.20511e-05L496 -2.00882e-05L319.999 176L319.999 192L287.999 224L223.999 224L223.999 288L-8.95209e-05 512Z" fill="var(--flag-palette-white, #eeeeee)"/>
<path d="M191.999 144L191.999 -7.32413e-05L47.9995 -9.8419e-05L191.999 144Z" fill="var(--flag-palette-blue, #0052b4)"/>
<path d="M464 -2.56833e-05L319.999 144L319.999 -5.0861e-05L464 -2.56833e-05Z" fill="var(--flag-palette-blue, #0052b4)"/>
<path d="M143.999 192L2.96259e-05 48.0004L-2.18723e-05 192L143.999 192Z" fill="var(--flag-palette-blue, #0052b4)"/>
<path d="M-5.59506e-05 320L-8.11283e-05 463.999L143.999 320L-5.59506e-05 320Z" fill="var(--flag-palette-blue, #0052b4)"/>
<path d="M223.999 288L287.999 224L287.999 -5.64561e-05L223.999 -6.76462e-05L223.999 224L-3.33164e-05 224L-5.03555e-05 288L223.999 288Z" fill="var(--flag-palette-bright-red, #d80027)"/>
<path d="M1.78009e-05 32.0004L159.999 192L191.999 192L2.63205e-05 0.000428262L1.78009e-05 32.0004Z" fill="var(--flag-palette-bright-red, #d80027)"/>
<path d="M479.999 -2.28857e-05L319.999 160L319.999 192L511.999 -1.72907e-05L479.999 -2.28857e-05Z" fill="var(--flag-palette-bright-red, #d80027)"/>
</g>
<defs>
<clipPath id="clip0_53_7986">
<rect width="512" height="512" fill="white"/>
</clipPath>
</defs>
</svg>