<svg xmlns="http://www.w3.org/2000/svg" width="512" height="512" fill="none"><g clip-path="url(#a)"><path fill="var(--flag-palette-navy, #002266)" d="M0 0h512v512H0z"/><path fill="var(--flag-palette-bright-red, #d80027)" d="m451.4 270.3 5.5 17h17.9L460.3 298l5.5 17-14.4-10.5-14.5 10.5 5.5-17-14.5-10.5h18z"/><path fill="var(--flag-palette-white, #eeeeee)" fill-rule="evenodd" d="m451.4 260 7.8 24.2h25.4L464.1 299l7.8 24.1-20.5-14.9-20.6 15 7.9-24.2-20.6-15h25.4zm0 20.7-3.2 9.9h-10.4l8.4 6-3.2 9.9 8.4-6 8.3 6-3.2-9.9 8.4-6h-10.3z" clip-rule="evenodd"/><path fill="var(--flag-palette-bright-red, #d80027)" d="m387.4 392.8 8.3 25.5h26.8L400.8 434l8.3 25.5-21.7-15.8-21.7 15.8L374 434l-21.7-15.8h26.8z"/><path fill="var(--flag-palette-white, #eeeeee)" fill-rule="evenodd" d="m387.4 382.4 10.7 32.7h34.3l-27.8 20.2 10.6 32.6-27.8-20.1-27.7 20.1 10.6-32.6-27.8-20.2h34.3zm0 20.7-6 18.4h-19.2l15.6 11.3-6 18.4 15.6-11.4 15.7 11.4-6-18.4 15.6-11.3h-19.3z" clip-rule="evenodd"/><path fill="var(--flag-palette-bright-red, #d80027)" d="m389.9 192.4 6.9 21.3H419l-18 13.1 6.8 21.3-18-13.2-18.1 13.2 6.9-21.3-18.1-13.1h22.3z"/><path fill="var(--flag-palette-white, #eeeeee)" fill-rule="evenodd" d="m389.9 182 9.2 28.5H429L404.8 228l9.2 28.4-24.1-17.6-24.2 17.6 9.2-28.4-24.2-17.6h30zm0 20.8-4.6 14h-14.9l12 8.8-4.5 14.1 12-8.7 12 8.7-4.6-14 12-8.8h-14.9z" clip-rule="evenodd"/><path fill="var(--flag-palette-bright-red, #d80027)" d="m328.3 269.6 8.3 25.5h26.9L341.8 311l8.2 25.5-21.7-15.8-21.7 15.8 8.3-25.5-21.7-15.8h26.9z"/><path fill="var(--flag-palette-white, #eeeeee)" fill-rule="evenodd" d="m328.3 259.3 10.7 32.6h34.3l-27.8 20.2 10.6 32.7-27.8-20.2-27.7 20.2 10.6-32.7-27.8-20.2h34.3zm0 20.7-6 18.3h-19.2l15.6 11.4-6 18.3 15.6-11.3L344 328l-6-18.3 15.6-11.4h-19.3z" clip-rule="evenodd"/><path fill="var(--flag-palette-white, #eeeeee)" d="M0 512V0h496L320 176v16l-32 32h-64v64z"/><path fill="var(--flag-palette-blue, #0052b4)" d="M192 144V0H48zM464 0 320 144V0zM144 192 0 48v144zM0 320v144l144-144z"/><path fill="var(--flag-palette-bright-red, #d80027)" d="m224 288 64-64V0h-64v224H0v64z"/><path fill="var(--flag-palette-bright-red, #d80027)" d="m0 32 160 160h32L0 0zM480 0 320 160v32L512 0z"/></g><defs><clipPath id="a"><path fill="#fff" d="M0 0h512v512H0z"/></clipPath></defs></svg>