<svg xmlns="http://www.w3.org/2000/svg" width="512" height="512" fill="none"><path fill="var(--flag-palette-bright-red, #d80027)" d="M0 204.9h512V512H0z"/><path fill="var(--flag-palette-blue, #0052b4)" d="M0 0h512v256H0z"/><path fill="var(--flag-palette-white, #eeeeee)" d="M0 0v512l256-256z"/><path fill="var(--flag-palette-dark-yellow, #ffc635)" d="m23 55.4 11.3 13.3 16-6.7-9 14.9L52.6 90l-17-4-9 14.8-1.4-17.3-17-4.1 16.1-6.7zm0 401.2 1.3-17.4-16-6.7 16.9-4 1.3-17.4 9.1 14.8 17-4L41.3 435l9 14.9-16-6.7zM233.6 256l-16.6 5.4v17.4l-10.2-14-16.6 5.3 10.2-14.1-10.2-14.1 16.6 5.4 10.2-14.1v17.4zm-126.8-71.2 4 4-6 29.7q7.5 1.6 13.6 5.6l16.9-25.2h5.6l-20.4 26.7 1.9 1.5L147 199h7v7l-28.3 24.7 1.6 2 26.7-20.5v5.6l-25.2 16.8q4 6.1 5.6 13.6l29.7-5.9 4 4-33.3 4.4.2 2.4 37.5-2.4 4.9 4.9-5 5-37.4-2.5-.2 2.4 33.3 4.4-4 4-29.7-6q-1.6 7.5-5.6 13.7l25.2 16.8v5.6l-26.7-20.4-1.6 1.9 28.3 24.7v7h-7L122.3 284l-2 1.5 20.5 26.7h-5.6L118.3 287q-6 4-13.5 5.6l5.9 29.7-4 4-4.4-33.3-2.4.2 2.4 37.5-5 4.9-4.8-5 2.4-37.4-2.4-.2-4.4 33.3-4-4 6-29.7q-7.5-1.6-13.7-5.6l-16.7 25H54l20.4-26.7-1.9-1.5L48 312h-7v-7l28.2-24.7-1.5-2L40.9 299v-5.6l25.2-16.8q-4-6.1-5.6-13.6l-29.7 5.9-4-4 33.3-4.4-.2-2.4-37.5 2.4-5-4.9 5-5L60 253l.2-2.4-33.3-4.4 4-4 29.7 6q1.6-7.5 5.6-13.7L41 217.7v-5.6l26.7 20.4 1.5-1.9L41 206v-7h7l24.7 28.2 2-1.5L54 198.9h5.6l16.8 25.2q6.1-4 13.6-5.6l-5.9-29.7 4-4 4.4 33.3 2.4-.2-2.4-37.5 4.9-4.9 5 5-2.5 37.4 2.4.2z"/><path fill="var(--flag-palette-white, #eeeeee)" d="M512 0v512H16l176-176v-16l32-32h64v-64z"/><path fill="var(--flag-palette-blue, #0052b4)" d="M320 368v144h144zM48 512l144-144v144zm320-192 144 144V320zm144-128V48L368 192z"/><path fill="var(--flag-palette-bright-red, #d80027)" d="m288 224-64 64v224h64V288h224v-64z"/><path fill="var(--flag-palette-bright-red, #d80027)" d="M512 480 352 320h-32l192 192zM32 512l160-160v-32L0 512z"/></svg>