<svg width="512" height="512" viewBox="0 0 512 512" fill="none" xmlns="http://www.w3.org/2000/svg">
<rect y="204.863" width="512" height="307.137" fill="var(--flag-palette-bright-red, #d80027)"/>
<rect width="512" height="256" fill="var(--flag-palette-blue, #0052b4)"/>
<path d="M0 0V512L256 256L0 0Z" fill="var(--flag-palette-white, #eeeeee)"/>
<path d="M22.9573 55.4242L34.2817 68.6834L50.3914 62.0105L41.2806 76.8781L52.6051 90.1373L35.6498 86.0667L26.539 100.934L25.1709 83.5509L8.21568 79.4803L24.3254 72.8075L22.9573 55.4242Z" fill="var(--flag-palette-dark-yellow, #ffc635)"/>
<path d="M22.9568 456.577L24.3249 439.193L8.21516 432.52L25.1704 428.45L26.5385 411.067L35.6493 425.934L52.6045 421.864L41.2801 435.123L50.3909 449.99L34.2812 443.317L22.9568 456.577Z" fill="var(--flag-palette-dark-yellow, #ffc635)"/>
<path d="M233.6 256L217.016 261.388L217.016 278.825L206.767 264.719L190.183 270.107L200.432 256L190.183 241.893L206.767 247.281L217.016 233.175L217.016 250.612L233.6 256Z" fill="var(--flag-palette-dark-yellow, #ffc635)"/>
<path d="M106.799 184.808L110.765 188.774L104.851 218.505C109.8 219.484 114.4 221.431 118.447 224.14L135.29 198.932H140.899L120.451 225.579C121.104 226.081 121.74 226.604 122.358 227.146L147.102 198.932H154.061V205.891L125.847 230.634C126.389 231.252 126.912 231.888 127.413 232.541L154.061 212.094V217.702L128.853 234.546C131.562 238.593 133.509 243.193 134.487 248.142L164.219 242.228L168.185 246.194L134.886 250.578C134.992 251.389 135.072 252.208 135.125 253.034L172.571 250.58L177.492 255.501L172.572 260.422L135.125 257.967C135.072 258.794 134.992 259.613 134.886 260.424L168.186 264.808L164.22 268.774L134.487 262.859C133.508 267.808 131.561 272.408 128.852 276.455L154.061 293.299V298.907L127.413 278.459C126.911 279.112 126.388 279.748 125.846 280.366L154.061 305.11V312.069H147.101L122.358 283.854C121.74 284.397 121.104 284.919 120.451 285.421L140.899 312.069H135.29L118.446 286.86C114.399 289.569 109.799 291.516 104.851 292.495L110.765 322.228L106.799 326.194L102.415 292.894C101.604 293 100.785 293.08 99.9588 293.133L102.413 330.58L97.4923 335.501L92.5712 330.58L95.0257 293.133C94.1993 293.08 93.3803 293 92.5693 292.894L88.1852 326.194L84.2192 322.228L90.1336 292.495C85.1852 291.516 80.5849 289.569 76.5382 286.86L59.694 312.069H54.0853L74.5333 285.421C73.8805 284.919 73.2445 284.397 72.6265 283.854L47.8826 312.069H40.9238V305.109L69.1383 280.366C68.5959 279.748 68.0733 279.112 67.5716 278.459L40.9238 298.907V293.298L66.1324 276.454C63.4232 272.408 61.4764 267.808 60.4976 262.859L30.7649 268.774L26.7989 264.808L60.0984 260.424C59.9926 259.613 59.9127 258.794 59.8593 257.967L22.413 260.422L17.4922 255.501L22.4133 250.58L59.8592 253.034C59.9125 252.208 59.9925 251.389 60.0982 250.578L26.7993 246.194L30.7652 242.228L60.4973 248.142C61.476 243.194 63.4227 238.593 66.132 234.546L40.9238 217.703V212.094L67.5712 232.541C68.0729 231.889 68.5954 231.253 69.1379 230.635L40.9238 205.891V198.932L47.8827 198.932L72.6261 227.146C73.2441 226.604 73.8801 226.081 74.5329 225.58L54.0854 198.932H59.6941L76.5378 224.14C80.5846 221.431 85.185 219.484 90.1334 218.505L84.2195 188.774L88.1854 184.808L92.5692 218.106C93.3802 218 94.1993 217.92 95.0256 217.867L92.5714 180.422L97.4923 175.501L102.413 180.422L99.9589 217.867C100.785 217.92 101.604 218 102.415 218.106L106.799 184.808Z" fill="var(--flag-palette-dark-yellow, #ffc635)"/>
<path d="M512 0L512 512L16.0005 512L192.001 336L192.001 320L224.001 288L288.001 288L288.001 224L512 0Z" fill="var(--flag-palette-white, #eeeeee)"/>
<path d="M320.001 368L320.001 512L464 512L320.001 368Z" fill="var(--flag-palette-blue, #0052b4)"/>
<path d="M48.0005 512L192.001 368L192.001 512L48.0005 512Z" fill="var(--flag-palette-blue, #0052b4)"/>
<path d="M368.001 320L512 464L512 320L368.001 320Z" fill="var(--flag-palette-blue, #0052b4)"/>
<path d="M512 192L512 48.0005L368.001 192L512 192Z" fill="var(--flag-palette-blue, #0052b4)"/>
<path d="M288.001 224L224.001 288L224.001 512L288.001 512L288.001 288L512 288L512 224L288.001 224Z" fill="var(--flag-palette-bright-red, #d80027)"/>
<path d="M512 480L352.001 320L320.001 320L512 512L512 480Z" fill="var(--flag-palette-bright-red, #d80027)"/>
<path d="M32.0005 512L192.001 352L192.001 320L0.000518799 512L32.0005 512Z" fill="var(--flag-palette-bright-red, #d80027)"/>
</svg>