<svg xmlns="http://www.w3.org/2000/svg" width="512" height="512" fill="none"><g clip-path="url(#a)"><path fill="#EEE" d="M0 204.9h512V512H0z"/><path fill="#D80027" d="M0 0h512v256H0z"/><path fill="#EEE" d="M83.5 128a78 78 0 0 1 61.2-76.1 78 78 0 1 0 0 152.2A78 78 0 0 1 83.5 128Zm100.1-72.3 5.6 17H207l-14.5 10.5 5.5 17-14.5-10.5-14.4 10.5 5.5-17-14.5-10.5h18l5.4-17Z"/><path fill="#EEE" d="m140.3 89 5.5 17h17.9l-14.5 10.6 5.5 17-14.4-10.5-14.5 10.5 5.5-17L117 106h17.8l5.6-17Zm86.7 0 5.5 17h18L236 116.6l5.5 17L227 123l-14.4 10.5 5.5-17-14.5-10.6h17.9l5.5-17Zm-16.7 50.1 5.6 17h17.8l-14.4 10.5 5.5 17-14.5-10.5-14.4 10.6 5.5-17-14.5-10.6h17.9l5.5-17Zm-53.3 0 5.5 17h17.9l-14.5 10.5 5.5 17-14.4-10.5-14.5 10.6 5.5-17-14.4-10.6h17.8l5.6-17ZM512 0v512H16l176-176v-16l32-32h64v-64L512 0Z"/><path fill="#0052B4" d="M320 368v144h144L320 368ZM48 512l144-144v144H48Zm320-192 144 144V320H368Zm144-128V48L368 192h144Z"/><path fill="#D80027" d="m288 224-64 64v224h64V288h224v-64H288Z"/><path fill="#D80027" d="M512 480 352 320h-32l192 192v-32ZM32 512l160-160v-32L0 512h32Z"/></g><defs><clipPath id="a"><path fill="#fff" d="M0 0h512v512H0z"/></clipPath></defs></svg>