<svg xmlns="http://www.w3.org/2000/svg" width="512" height="512" fill="none"><g clip-path="url(#a)"><path fill="#338AF3" d="M512 0v512H0V0z"/><path fill="#6DA544" d="M0 512V0h512z"/><path fill="#FFDA44" d="M512 112V0H400L0 400v112h112z"/><path fill="#333" d="M0 448v64h64L512 64V0h-64z"/><path fill="#EEE" d="M512 512H0V16l176 176h16l32 32v64h64z"/><path fill="#0052B4" d="M144 320H0v144zM0 48l144 144H0zm192 320L48 512h144zm128 144h144L320 368z"/><path fill="#D80027" d="m288 288-64-64H0v64h224v224h64z"/><path fill="#D80027" d="m32 512 160-160v-32L0 512zM0 32l160 160h32L0 0z"/></g><defs><clipPath id="a"><path fill="#fff" d="M0 0h512v512H0z"/></clipPath></defs></svg>