<svg xmlns="http://www.w3.org/2000/svg" width="512" height="512" fill="none"><g clip-path="url(#a)"><path fill="#338AF3" d="M512 0v512H0V0h512Z"/><path fill="#6DA544" d="M0 512V0h512L0 512Z"/><path fill="#FFDA44" d="M512 112V0H400L0 400v112h112l400-400Z"/><path fill="#333" d="M0 448v64h64L512 64V0h-64L0 448Z"/><mask id="b" width="512" height="513" x="0" y="0" maskUnits="userSpaceOnUse" style="mask-type:alpha"><path fill="#F0F" d="M512 512H0V0l512 512Z"/></mask><g mask="url(#b)"><path fill="#0052B4" d="M0 512V0h512v512z"/><path fill="#EEE" d="M512 48V0h-48L256 208 48 0H0v48l208 208L0 464v48h48l208-208 208 208h48v-48L304 256 512 48Z"/><path fill="#EEE" d="M320 0H192v192H0v128h192v192h128V320h192V192H320V0Z"/><path fill="#D80027" d="M288 0h-64v224H0v64h224v224h64V288h224v-64H288V0Z"/><path fill="#D80027" d="M32 512H0l192-192v32L32 512ZM480 0h32L320 192v-32L480 0Zm32 480v32L320 320h32l160 160ZM0 32V0l192 192h-32L0 32Z"/></g></g><defs><clipPath id="a"><path fill="#fff" d="M0 0h512v512H0z"/></clipPath></defs></svg>