<svg xmlns="http://www.w3.org/2000/svg" width="512" height="512" fill="none"><g clip-path="url(#a)"><path fill="#338AF3" d="M512 0v512H0V0h512Z"/><path fill="#6DA544" d="M0 512V0h512L0 512Z"/><path fill="#FFDA44" d="M512 110.2V0H401.8L0 401.8V512h110.2L512 110.2Z"/><path fill="#333" d="M0 449v63h63L512 63V0h-63L0 449Z"/><mask id="b" width="512" height="513" x="0" y="0" maskUnits="userSpaceOnUse" style="mask-type:alpha"><path fill="#F0F" d="M512 512H0V0l512 512Z"/></mask><g mask="url(#b)"><path fill="#EEE" d="M0 512V0h512v512z"/><path fill="#0052B4" d="M0 322.8v142l142-142H0ZM189.2 512h-142l142-142v142Zm275.6 0h-142V370l142 142ZM512 322.8v142l-142-142h142Zm0-275.6v142H370l142-142ZM322.8 0h142l-142 142V0ZM47.2 0h142v142L47.2 0ZM0 189.2v-142l142 142H0Z"/><path fill="#D80027" d="m0 0 189.2 189.2h-31.5L0 31.5V0Z"/><path fill="#D80027" d="M222.6 0v222.6H0v66.8h222.6V512h66.8V289.4H512v-66.8H289.4V0h-66.8Z"/><path fill="#D80027" d="M480.5 0 322.8 157.7v31.5L512 0h-31.5ZM512 480.5 354.3 322.8h-31.5L512 512v-31.5ZM0 512l189.2-189.2v31.5L31.5 512H0Z"/></g></g><defs><clipPath id="a"><path fill="#fff" d="M0 0h512v512H0z"/></clipPath></defs></svg>