<svg xmlns="http://www.w3.org/2000/svg" width="512" height="512" fill="none"><g clip-path="url(#a)"><path fill="#EEE" d="M0 0h512v512H0z"/><path fill="#D80027" d="M0 122.4V55.7h512v66.7H0ZM0 256v-66.8h512V256H0Zm0 133.6v-66.8h512v66.8H0ZM0 512h512v-55.7H0V512Z"/><path fill="#0052B4" d="M0 0h256v256H0z"/><path fill="#EEE" d="m44.8 6.4 8.6 26.5h28L58.6 49.3 67.5 76 44.8 59.5 22.2 75.9 31 49.3 8.3 33h27.9l8.6-26.5Zm83.2 0 8.6 26.5h28l-22.7 16.4 8.7 26.6L128 59.5l-22.6 16.4 8.7-26.6L91.5 33h27.9L128 6.4Zm83.2 0 8.6 26.5h28L225 49.3l8.7 26.6-22.6-16.4-22.6 16.4 8.7-26.6L174.7 33h27.9l8.6-26.5ZM44.8 89.6l8.6 26.5h28l-22.7 16.4 8.7 26.6-22.6-16.4L22.2 159l8.7-26.6L8.3 116h27.9l8.6-26.5Zm83.2 0 8.6 26.5h28l-22.7 16.4 8.7 26.6-22.6-16.4-22.6 16.4 8.7-26.6-22.6-16.4h27.9l8.6-26.5Zm83.2 0 8.6 26.5h28L225 132.5l8.7 26.6-22.6-16.4-22.6 16.4 8.7-26.6-22.6-16.4h27.9l8.6-26.5ZM44.8 172.8l8.6 26.5h28l-22.7 16.4 8.7 26.6-22.6-16.4-22.6 16.4 8.7-26.6-22.6-16.4h27.9l8.6-26.5Zm83.2 0 8.6 26.5h28l-22.7 16.4 8.7 26.6-22.6-16.4-22.6 16.4 8.7-26.6-22.6-16.4h27.9l8.6-26.5Zm83.2 0 8.6 26.5h28L225 215.7l8.7 26.6-22.6-16.4-22.6 16.4 8.7-26.6-22.6-16.4h27.9l8.6-26.5Z"/><mask id="b" width="513" height="512" x="0" y="0" maskUnits="userSpaceOnUse" style="mask-type:alpha"><path fill="#F0F" d="M512 0v512H0L512 0Z"/></mask><g mask="url(#b)"><path fill="#0052B4" d="M512 512H0V0h512z"/><path fill="#EEE" d="M48 0H0v48l208 208L0 464v48h48l208-208 208 208h48v-48L304 256 512 48V0h-48L256 208 48 0Z"/><path fill="#EEE" d="M0 192v128h192v192h128V320h192V192H320V0H192v192H0Z"/><path fill="#D80027" d="M0 224v64h224v224h64V288h224v-64H288V0h-64v224H0Z"/><path fill="#D80027" d="M512 480v32L320 320h32l160 160ZM0 32V0l192 192h-32L0 32ZM480 0h32L320 192v-32L480 0ZM32 512H0l192-192v32L32 512Z"/></g></g><defs><clipPath id="a"><path fill="#fff" d="M0 0h512v512H0z"/></clipPath></defs></svg>