<svg xmlns="http://www.w3.org/2000/svg" width="512" height="512" fill="none"><g clip-path="url(#a)"><path fill="#EEE" d="M0 0h512v512H0z"/><path fill="#D80027" d="M0 122.4V55.7h512v66.7H0ZM0 256v-66.8h512V256H0Zm0 133.6v-66.8h512v66.8H0ZM0 512h512v-55.7H0V512Z"/><path fill="#0052B4" d="M0 0h256v256H0z"/><path fill="#EEE" d="m44.8 6.4 8.6 26.5h28L58.6 49.3 67.5 76 44.8 59.5 22.2 75.9 31 49.3 8.3 33h27.9l8.6-26.5Zm83.2 0 8.6 26.5h28l-22.7 16.4 8.7 26.6L128 59.5l-22.6 16.4 8.7-26.6L91.5 33h27.9L128 6.4Zm83.2 0 8.6 26.5h28L225 49.3l8.7 26.6-22.6-16.4-22.6 16.4 8.7-26.6L174.7 33h27.9l8.6-26.5ZM44.8 89.6l8.6 26.5h28l-22.7 16.4 8.7 26.6-22.6-16.4L22.2 159l8.7-26.6L8.3 116h27.9l8.6-26.5Zm83.2 0 8.6 26.5h28l-22.7 16.4 8.7 26.6-22.6-16.4-22.6 16.4 8.7-26.6-22.6-16.4h27.9l8.6-26.5Zm83.2 0 8.6 26.5h28L225 132.5l8.7 26.6-22.6-16.4-22.6 16.4 8.7-26.6-22.6-16.4h27.9l8.6-26.5ZM44.8 172.8l8.6 26.5h28l-22.7 16.4 8.7 26.6-22.6-16.4-22.6 16.4 8.7-26.6-22.6-16.4h27.9l8.6-26.5Zm83.2 0 8.6 26.5h28l-22.7 16.4 8.7 26.6-22.6-16.4-22.6 16.4 8.7-26.6-22.6-16.4h27.9l8.6-26.5Zm83.2 0 8.6 26.5h28L225 215.7l8.7 26.6-22.6-16.4-22.6 16.4 8.7-26.6-22.6-16.4h27.9l8.6-26.5Z"/><mask id="b" width="513" height="512" x="0" y="0" maskUnits="userSpaceOnUse" style="mask-type:alpha"><path fill="#F0F" d="M512 0v512H0L512 0Z"/></mask><g mask="url(#b)"><path fill="#EEE" d="M512 512H0V0h512z"/><path fill="#0052B4" d="M322.8 512h142l-142-142v142ZM512 322.8v142l-142-142h142Zm0-275.6v142H370l142-142ZM322.8 0h142l-142 142V0ZM47.2 0h142v142L47.2 0ZM0 189.2v-142l142 142H0Zm0 275.6v-142h142L0 464.8ZM189.2 512h-142l142-142v142Z"/><path fill="#D80027" d="m0 512 189.2-189.2v31.5L31.5 512H0Z"/><path fill="#D80027" d="M0 289.4h222.6V512h66.8V289.4H512v-66.8H289.4V0h-66.8v222.6H0v66.8Z"/><path fill="#D80027" d="m0 31.5 157.7 157.7h31.5L0 0v31.5ZM480.5 0 322.8 157.7v31.5L512 0h-31.5ZM512 512 322.8 322.8h31.5L512 480.5V512Z"/></g></g><defs><clipPath id="a"><path fill="#fff" d="M0 0h512v512H0z"/></clipPath></defs></svg>