<svg xmlns="http://www.w3.org/2000/svg" width="512" height="512" fill="none"><g clip-path="url(#a)"><g clip-path="url(#b)"><path fill="#0052B4" d="M0 204.9h512V512H0z"/><path fill="#D80027" d="M0 0h512v256H0z"/><path fill="#6DA544" fill-rule="evenodd" d="M267.9 222.6 45.3 0H0v512h45.3l222.6-222.6H512v-66.8H267.9Z" clip-rule="evenodd"/><path fill="#EEE" fill-rule="evenodd" d="m58.5-32 222.6 222.6H544v130.8H281.1L58.5 544H-32V-32h90.5ZM268 289.4h244v-66.8H267.9L45.3 0H0v512h45.3l222.6-222.6Z" clip-rule="evenodd"/><mask id="c" width="512" height="512" x="0" y="0" maskUnits="userSpaceOnUse" style="mask-type:alpha"><path fill="#F0F" d="M0 0h512v512H0z"/></mask><g mask="url(#c)"><path fill="#333" d="M-172.8-128v768l384-384-384-384Z"/><path fill="#FFDA44" fill-rule="evenodd" d="m-172.8 640 384-384-384-384v768Zm32-77.3L165.9 256-140.8-50.7v613.4Z" clip-rule="evenodd"/></g></g><mask id="d" width="513" height="512" x="0" y="0" maskUnits="userSpaceOnUse" style="mask-type:alpha"><path fill="#F0F" d="M512 0v512H0L512 0Z"/></mask><g mask="url(#d)"><path fill="#EEE" d="M512 512H0V0h512z"/><path fill="#0052B4" d="M322.8 512h142l-142-142v142ZM512 322.8v142l-142-142h142Zm0-275.6v142H370l142-142ZM322.8 0h142l-142 142V0ZM47.2 0h142v142L47.2 0ZM0 189.2v-142l142 142H0Zm0 275.6v-142h142L0 464.8ZM189.2 512h-142l142-142v142Z"/><path fill="#D80027" d="m0 512 189.2-189.2v31.5L31.5 512H0Z"/><path fill="#D80027" d="M0 289.4h222.6V512h66.8V289.4H512v-66.8H289.4V0h-66.8v222.6H0v66.8Z"/><path fill="#D80027" d="m0 31.5 157.7 157.7h31.5L0 0v31.5ZM480.5 0 322.8 157.7v31.5L512 0h-31.5ZM512 512 322.8 322.8h31.5L512 480.5V512Z"/></g></g><defs><clipPath id="a"><path fill="#fff" d="M0 0h512v512H0z"/></clipPath><clipPath id="b"><path fill="#fff" d="M0 0h512v512H0z"/></clipPath></defs></svg>