<svg xmlns="http://www.w3.org/2000/svg" width="512" height="512" fill="none"><g clip-path="url(#a)"><g clip-path="url(#b)"><path fill="#0052B4" d="M0 204.9h512V512H0z"/><path fill="#D80027" d="M0 0h512v256H0z"/><path fill="#6DA544" fill-rule="evenodd" d="M267.9 222.6 45.3 0H0v512h45.3l222.6-222.6H512v-66.8H267.9Z" clip-rule="evenodd"/><path fill="#EEE" fill-rule="evenodd" d="m58.5-32 222.6 222.6H544v130.8H281.1L58.5 544H-32V-32h90.5ZM268 289.4h244v-66.8H267.9L45.3 0H0v512h45.3l222.6-222.6Z" clip-rule="evenodd"/><mask id="c" width="512" height="512" x="0" y="0" maskUnits="userSpaceOnUse" style="mask-type:alpha"><path fill="#F0F" d="M0 0h512v512H0z"/></mask><g mask="url(#c)"><path fill="#333" d="M-172.8-128v768l384-384-384-384Z"/><path fill="#FFDA44" fill-rule="evenodd" d="m-172.8 640 384-384-384-384v768Zm32-77.3L165.9 256-140.8-50.7v613.4Z" clip-rule="evenodd"/></g></g><mask id="d" width="513" height="512" x="0" y="0" maskUnits="userSpaceOnUse" style="mask-type:alpha"><path fill="#F0F" d="M512 0v512H0L512 0Z"/></mask><g mask="url(#d)"><path fill="#0052B4" d="M512 512H0V0h512z"/><path fill="#EEE" d="M48 0H0v48l208 208L0 464v48h48l208-208 208 208h48v-48L304 256 512 48V0h-48L256 208 48 0Z"/><path fill="#EEE" d="M0 192v128h192v192h128V320h192V192H320V0H192v192H0Z"/><path fill="#D80027" d="M0 224v64h224v224h64V288h224v-64H288V0h-64v224H0Z"/><path fill="#D80027" d="M512 480v32L320 320h32l160 160ZM0 32V0l192 192h-32L0 32ZM480 0h32L320 192v-32L480 0ZM32 512H0l192-192v32L32 512Z"/></g></g><defs><clipPath id="a"><path fill="#fff" d="M0 0h512v512H0z"/></clipPath><clipPath id="b"><path fill="#fff" d="M0 0h512v512H0z"/></clipPath></defs></svg>