<svg xmlns="http://www.w3.org/2000/svg" width="512" height="512" fill="none"><path fill="var(--flag-palette-yellow, #ffda44)" d="M512 384H0V128h512z"/><path fill="var(--flag-palette-bright-red, #d80027)" d="M512 512H0V368h512zm0-368H0V0h512z"/><path fill="var(--flag-palette-white, #eeeeee)" d="M144 304h-16v-80h16zm128 0h16v-80h-16z"/><path fill="var(--flag-palette-bright-red, #d80027)" d="M122 248a4 4 0 1 0 0 8h172a4 4 0 1 0 0-8zm0 24a4 4 0 1 0 0 8h28a4 4 0 1 0 0-8zm144 0a4 4 0 1 0 0 8h28a4 4 0 1 0 0-8z"/><path fill="var(--flag-palette-white, #eeeeee)" d="M256 272h-16.3c10 5.9 16.3 14.4 16.3 24 0 17.7-21.5 32-48 32s-48-14.3-48-32 21.5-32 48-32v-40h48zm-60-104q7.5 0 12 6a16 16 0 0 1 27 5 16 16 0 1 1-10 20 16 16 0 0 1-17-4 16 16 0 0 1-17 4c-2 7-8 11-15 11-9 0-16-7-16-16s7-16 16-16l5 1c2-6 8-11 15-11m-20 18c-4 0-8 4-8 8 0 5 4 8 8 8s8-3 8-7l-4-8zm60 1-4 8c0 4 4 7 8 7 5 0 8-3 8-8 0-4-3-8-8-8zm-40-11c-4 0-8 4-8 8 0 5 4 8 8 8 5 0 8-3 8-8 0-4-3-8-8-8m24 0c-4 0-8 4-8 8 0 5 4 8 8 8 5 0 8-3 8-8 0-4-3-8-8-8"/><path fill="var(--flag-palette-gold, #ff9811)" d="M200 160h16v32h-16z"/><path fill="var(--flag-palette-bright-red, #d80027)" d="M256 296a24 24 0 1 1-48 0v-24h48zm-48-24h-48v-48h48zm24-40a10 10 0 0 1 10 10v12a10 10 0 1 1-20 0v-12a10 10 0 0 1 10-10m-96-40a8 8 0 0 1 8 8v8a8 8 0 0 1-16 0v-8a8 8 0 0 1 8-8m72-8c22 0 40 11 40 24l-8 8h-64l-8-8c0-13 18-24 40-24m72 8a8 8 0 0 1 8 8v8a8 8 0 0 1-16 0v-8a8 8 0 0 1 8-8"/><path fill="var(--flag-palette-gold, #ff9811)" d="M144 304a8 8 0 0 1 0 16h-16a8 8 0 0 1 0-16zm144 0a8 8 0 0 1 0 16h-16a8 8 0 0 1 0-16zm-114-24 5-8h10l5 8 5-8h9v24c0 8-3 14-9 19l-5-6-5 10a21 21 0 0 1-10 0l-5-10-5 6c-5-5-9-11-9-19v-24h9zm26-48v8h-8v16h8v8h-32v-8h8v-16h-8v-8zm-56-24a8 8 0 0 1 0 16h-16a8 8 0 0 1 0-16zm96 16h-64v-8h64zm48-16a8 8 0 0 1 0 16h-16a8 8 0 0 1 0-16z"/><path fill="var(--flag-palette-bright-red, #d80027)" d="M169 272v43q4.6 3 10 4v-47zm20 0v47q5.4-1 10-4v-43z"/><path fill="var(--flag-palette-yellow, #ffda44)" d="M186 196a6 6 0 1 1 0 12 6 6 0 0 1 0-12m22 0a6 6 0 1 1 0 12 6 6 0 0 1 0-12m22 0a6 6 0 1 1 0 12 6 6 0 0 1 0-12"/><path fill="var(--flag-palette-blue, #0052b4)" d="M144 320a8 8 0 0 1 0 16h-16a8 8 0 0 1 0-16zm144 0a8 8 0 0 1 0 16h-16a8 8 0 0 1 0-16zm-80-64a16 16 0 1 1 0 32 16 16 0 0 1 0-32"/><path fill="var(--flag-palette-white, #eeeeee)" d="M128 512V384l256-256v384z"/><path fill="var(--flag-palette-dark-green, #496e2d)" d="m0 512 144-144v144z"/><path fill="var(--flag-palette-bright-red, #d80027)" d="M368 512V144L512 0v512z"/><path fill="var(--flag-palette-dark-yellow, #ffc635)" d="M256 277v10h12l10-22z"/><path fill="var(--flag-palette-dark-green, #496e2d)" d="M352 242a96 96 0 0 1-156.5 74.5l7.8-7.8A85 85 0 0 0 341 242zm-43 19c2-2 6-2 8 0s2 6-1 8a92 92 0 0 1-54 24v17h-12v-17q-13-1.3-25-6l8.6-8.6A74 74 0 0 0 256 282a78 78 0 0 0 53-21"/><path fill="var(--flag-palette-light-blue, #338af3)" d="M297 303c-12 8-26 13-41 13-14 0-28-5-40-13l6-9c20 13 48 13 68 0z"/><path fill="var(--flag-palette-dark-brown, #584528)" d="m278 244 35 21-23 11-11-11v11l-18-18-9.2 2.2L276 236zm35.1-45.1c9 13.5 14.3 34.3 10.9 66.1-11-5-19-15-23-26l-17.8-10.2z"/><path fill="var(--flag-palette-dark-yellow, #ffc635)" d="M216 315a8 8 0 1 1 0 16 8 8 0 0 1 0-16m81 0a8 8 0 1 1 0 16 8 8 0 0 1 0-16m27-21a8 8 0 1 1 0 16 8 8 0 0 1 0-16m17-27a8 8 0 1 1 0 16 8 8 0 0 1 0-16"/><path fill="var(--flag-palette-gold, #ff9811)" d="M262 299a11 11 0 0 1 0 22h-12a11 11 0 0 1 0-22z"/></svg>