<svg xmlns="http://www.w3.org/2000/svg" width="512" height="512" fill="none"><path fill="var(--flag-palette-yellow, #ffda44)" d="M512 128v256H0V128z"/><path fill="var(--flag-palette-bright-red, #d80027)" d="M512 368v144H0V368zm0-368v144H0V0z"/><path fill="var(--flag-palette-white, #eeeeee)" d="M144 304h-16v-80h16zm128 0h16v-80h-16z"/><path fill="var(--flag-palette-bright-red, #d80027)" d="M122 248a4 4 0 1 0 0 8h172a4 4 0 1 0 0-8zm0 24a4 4 0 1 0 0 8h28a4 4 0 1 0 0-8zm144 0a4 4 0 1 0 0 8h28a4 4 0 1 0 0-8z"/><path fill="var(--flag-palette-white, #eeeeee)" fill-rule="evenodd" d="M196 168c-7 0-13 5-15 11l-5-1c-9 0-16 7-16 16s7 16 16 16c7 0 13-4 15-11a16 16 0 0 0 17-4 16 16 0 0 0 17 4 16 16 0 1 0 10-20 16 16 0 0 0-27-5q-4.5-6-12-6m0 8c5 0 8 4 8 8 0 5-3 8-8 8-4 0-8-3-8-8 0-4 4-8 8-8m24 0c5 0 8 4 8 8 0 5-3 8-8 8-4 0-8-3-8-8 0-4 4-8 8-8m-44 10 4 1 4 8c0 4-4 7-8 7s-8-3-8-8c0-4 4-8 8-8m64 0c5 0 8 4 8 8 0 5-3 8-8 8-4 0-8-3-8-7l4-8zm-32 142c26.5 0 48-14.3 48-32 0-9.6-6.3-18.1-16.2-24H256v-48h-48v40c-26.5 0-48 14.3-48 32s21.5 32 48 32" clip-rule="evenodd"/><path fill="var(--flag-palette-gold, #ff9811)" d="M200 160h16v32h-16z"/><path fill="var(--flag-palette-bright-red, #d80027)" fill-rule="evenodd" d="m248 208-8 8h-64l-8-8c0-13 18-24 40-24s40 11 40 24m-112-16a8 8 0 0 1 8 8v8a8 8 0 0 1-16 0v-8a8 8 0 0 1 8-8m144 0a8 8 0 0 1 8 8v8a8 8 0 0 1-16 0v-8a8 8 0 0 1 8-8m-72 80v24a24 24 0 0 0 48 0v-24zm0 0h-48v-48h48zm34-30a10 10 0 1 0-20 0v12a10 10 0 1 0 20 0z" clip-rule="evenodd"/><path fill="var(--flag-palette-gold, #ff9811)" fill-rule="evenodd" d="M128 208h16a8 8 0 0 1 0 16h-16a8 8 0 0 1 0-16m144 0h16a8 8 0 0 1 0 16h-16a8 8 0 0 1 0-16m-128 96h-16a8 8 0 0 0 0 16h16a8 8 0 0 0 0-16m128 0h16a8 8 0 0 1 0 16h-16a8 8 0 0 1 0-16m-112-32v24c0 8 4 14 9 19l5-6 5 10q5 1.2 10 0l5-10 5 6c6-5 9-11 9-19v-24h-9l-5 8-5-8h-10l-5 8-5-8zm8-32v-8h32v8h-8v16h8v8h-32v-8h8v-16zm72-24h-64v8h64z" clip-rule="evenodd"/><path fill="var(--flag-palette-bright-red, #d80027)" d="M169 272v43q4.6 3 10 4v-47zm20 0v47q5.4-1 10-4v-43z"/><path fill="var(--flag-palette-yellow, #ffda44)" fill-rule="evenodd" d="M186 208a6 6 0 1 0 0-12 6 6 0 0 0 0 12m22 0a6 6 0 1 0 0-12 6 6 0 0 0 0 12m28-6a6 6 0 1 1-12 0 6 6 0 0 1 12 0" clip-rule="evenodd"/><path fill="var(--flag-palette-blue, #0052b4)" fill-rule="evenodd" d="M208 288a16 16 0 1 0 0-32 16 16 0 0 0 0 32m80 32h-16a8 8 0 0 0 0 16h16a8 8 0 0 0 0-16m-160 0h16a8 8 0 0 1 0 16h-16a8 8 0 0 1 0-16" clip-rule="evenodd"/><path fill="var(--flag-palette-white, #eeeeee)" d="M128 512V384l256-256v384z"/><path fill="var(--flag-palette-dark-green, #496e2d)" d="m0 512 144-144v144z"/><path fill="var(--flag-palette-bright-red, #d80027)" fill-rule="evenodd" d="M368 144 512 0v512H368z" clip-rule="evenodd"/><path fill="var(--flag-palette-dark-yellow, #ffc635)" d="M256 277v10h12l10-22z"/><path fill="var(--flag-palette-dark-green, #496e2d)" d="M352 242a96 96 0 0 1-156.5 74.5l7.8-7.8A85 85 0 0 0 341 242zm-43 19c2-2 6-2 8 0s2 6-1 8a92 92 0 0 1-54 24v17h-12v-17q-13-1.3-25-6l8.6-8.6A74 74 0 0 0 256 282a78 78 0 0 0 53-21"/><path fill="var(--flag-palette-light-blue, #338af3)" fill-rule="evenodd" d="M216 303c12 8 26 13 40 13 15 0 29-5 41-13l-7-9c-20 13-48 13-68 0z" clip-rule="evenodd"/><path fill="var(--flag-palette-dark-brown, #584528)" d="m278 244 35 21-23 11-11-11v11l-18-18-9.2 2.2L276 236zm35.1-45.1c9 13.5 14.3 34.3 10.9 66.1-11-5-19-15-23-26l-17.8-10.2z"/><path fill="var(--flag-palette-dark-yellow, #ffc635)" d="M216 315a8 8 0 1 1 0 16 8 8 0 0 1 0-16m81 0a8 8 0 1 1 0 16 8 8 0 0 1 0-16m27-21a8 8 0 1 1 0 16 8 8 0 0 1 0-16m17-27a8 8 0 1 1 0 16 8 8 0 0 1 0-16"/><path fill="var(--flag-palette-gold, #ff9811)" fill-rule="evenodd" d="M250 299h12a11 11 0 0 1 0 22h-12a11 11 0 0 1 0-22" clip-rule="evenodd"/></svg>