<svg xmlns="http://www.w3.org/2000/svg" width="512" height="512" fill="none"><path fill="var(--flag-palette-yellow, #ffda44)" d="M512 384H0V128h512z"/><path fill="var(--flag-palette-bright-red, #d80027)" d="M512 512H0V368h512zm0-368H0V0h512z"/><path fill="var(--flag-palette-white, #eeeeee)" d="M144 304h-16v-80h16zm128 0h16v-80h-16z"/><path fill="var(--flag-palette-bright-red, #d80027)" d="M122 248a4 4 0 1 0 0 8h172a4 4 0 1 0 0-8zm0 24a4 4 0 1 0 0 8h28a4 4 0 1 0 0-8zm144 0a4 4 0 1 0 0 8h28a4 4 0 1 0 0-8z"/><path fill="var(--flag-palette-white, #eeeeee)" d="M256 272h-16.3c10 5.9 16.3 14.4 16.3 24 0 17.7-21.5 32-48 32s-48-14.3-48-32 21.5-32 48-32v-40h48zm-60-104q7.5 0 12 6a16 16 0 0 1 27 5 16 16 0 1 1-10 20 16 16 0 0 1-17-4 16 16 0 0 1-17 4c-2 7-8 11-15 11-9 0-16-7-16-16s7-16 16-16l5 1c2-6 8-11 15-11m-20 18c-4 0-8 4-8 8 0 5 4 8 8 8s8-3 8-7l-4-8zm60 1-4 8c0 4 4 7 8 7 5 0 8-3 8-8 0-4-3-8-8-8zm-40-11c-4 0-8 4-8 8 0 5 4 8 8 8 5 0 8-3 8-8 0-4-3-8-8-8m24 0c-4 0-8 4-8 8 0 5 4 8 8 8 5 0 8-3 8-8 0-4-3-8-8-8"/><path fill="var(--flag-palette-gold, #ff9811)" d="M200 160h16v32h-16z"/><path fill="var(--flag-palette-bright-red, #d80027)" d="M256 296a24 24 0 1 1-48 0v-24h48zm-48-24h-48v-48h48zm24-40a10 10 0 0 1 10 10v12a10 10 0 1 1-20 0v-12a10 10 0 0 1 10-10m-96-40a8 8 0 0 1 8 8v8a8 8 0 0 1-16 0v-8a8 8 0 0 1 8-8m72-8c22 0 40 11 40 24l-8 8h-64l-8-8c0-13 18-24 40-24m72 8a8 8 0 0 1 8 8v8a8 8 0 0 1-16 0v-8a8 8 0 0 1 8-8"/><path fill="var(--flag-palette-gold, #ff9811)" d="M144 304a8 8 0 0 1 0 16h-16a8 8 0 0 1 0-16zm144 0a8 8 0 0 1 0 16h-16a8 8 0 0 1 0-16zm-114-24 5-8h10l5 8 5-8h9v24c0 8-3 14-9 19l-5-6-5 10a21 21 0 0 1-10 0l-5-10-5 6c-5-5-9-11-9-19v-24h9zm26-48v8h-8v16h8v8h-32v-8h8v-16h-8v-8zm-56-24a8 8 0 0 1 0 16h-16a8 8 0 0 1 0-16zm96 16h-64v-8h64zm48-16a8 8 0 0 1 0 16h-16a8 8 0 0 1 0-16z"/><path fill="var(--flag-palette-bright-red, #d80027)" d="M169 272v43q4.6 3 10 4v-47zm20 0v47q5.4-1 10-4v-43z"/><path fill="var(--flag-palette-yellow, #ffda44)" d="M186 196a6 6 0 1 1 0 12 6 6 0 0 1 0-12m22 0a6 6 0 1 1 0 12 6 6 0 0 1 0-12m22 0a6 6 0 1 1 0 12 6 6 0 0 1 0-12"/><path fill="var(--flag-palette-blue, #0052b4)" d="M144 320a8 8 0 0 1 0 16h-16a8 8 0 0 1 0-16zm144 0a8 8 0 0 1 0 16h-16a8 8 0 0 1 0-16zm-80-64a16 16 0 1 1 0 32 16 16 0 0 1 0-32"/></svg>