<svg xmlns="http://www.w3.org/2000/svg" width="512" height="512" fill="none"><path fill="var(--flag-palette-white, #eeeeee)" d="M0 0h512v512H0z"/><path fill="var(--flag-palette-green, #6da544)" fill-rule="evenodd" d="M153.8 217.5A224 224 0 0 1 29.6 255v2.3c46 0 88.6 13.7 124.2 37.3l38.5-38.5zm63.8 140.7a224 224 0 0 1 37.3 124.2h2.3a224 224 0 0 1 37.3-124.2L256 319.7zm140.7-63.7a224 224 0 0 1 124.2-37.3v-2.3c-46 0-88.6-13.8-124.2-37.4L319.8 256zm-63.8-140.7a224 224 0 0 1-37.3-124.2H255a224 224 0 0 1-37.3 124.2l38.5 38.5zM319.8 256 256 192.3 192.3 256l63.8 63.7z" clip-rule="evenodd"/><path fill="var(--flag-palette-black, #333333)" d="M266 29.6a216 216 0 0 0 31.9 113L342 98.2a50.7 50.7 0 1 1 71.7 71.7L369.6 214a216 216 0 0 0 112.8 32v20a216 216 0 0 0-112.8 32l44.2 44.1a50.7 50.7 0 0 1-71.7 71.7l-44.2-44.2a216 216 0 0 0-31.8 113h-20.3a216 216 0 0 0-31.7-112.8l-44 44A50.7 50.7 0 1 1 98.2 342l44.1-44a216 216 0 0 0-112.8-32v-20a216 216 0 0 0 113-31.8L98.3 170A50.7 50.7 0 0 1 170 98.3l44 44a216 216 0 0 0 31.8-112.7h20.3m-38.9 327a234 234 0 0 1 28.8 65.6 234 234 0 0 1 29-65.8l-29-28.7zm-116-1.8a32.7 32.7 0 0 0 46.2 46.2l46.6-46.6a216 216 0 0 0-46.2-46.2zM354.4 308a216 216 0 0 0-46.3 46.2l46.7 46.7a32.7 32.7 0 1 0 46.2-46.2zm-183.9-12.8a234 234 0 0 1 46.2 46.3l26.6-26.7-46.2-46.2zm98.3 19.6 26.4 26.5a234 234 0 0 1 46.3-46.2L315 268.7zm-59-58.9 46.3 46.2 46.2-46.2-46.2-46.2zM155.5 227a234 234 0 0 1-65.8 29 234 234 0 0 1 65.8 28.9l28.9-28.9zm172.2 29 28.8 28.8a234 234 0 0 1 65.7-28.8 234 234 0 0 1-65.7-28.8zm-111-85.5a234 234 0 0 1-46.2 46.2l26.6 26.6 46.2-46.2zm52 26.6 46.3 46.2 26.5-26.5a234 234 0 0 1-46.3-46.2zM401 111a32.7 32.7 0 0 0-46.2 0l-46.7 46.6a216 216 0 0 0 46.3 46.2l46.6-46.7a32.7 32.7 0 0 0 0-46.2m-243.7 0a32.7 32.7 0 0 0-46.2 46.1l46.6 46.6a216 216 0 0 0 46.2-46.2zm98.6-21.3a234 234 0 0 1-28.7 65.6l28.9 29 28.7-28.8A234 234 0 0 1 256 89.8"/></svg>