<svg xmlns="http://www.w3.org/2000/svg" width="512" height="512" fill="none"><path fill="var(--flag-palette-white, #eeeeee)" d="M0 0h512v512H0z"/><path fill="var(--flag-palette-black, #333333)" d="m90.7 153.7 63-63L138 75l-63 63zm267.6-62.9 23.6 23.6 15.8-15.8L374 75zm39.4 86.5-63-63 15.8-15.7 63 63zM374 311.1l-23.6 23.6 15.7 15.7 23.6-23.6zm-39.4 39.3L311 374.1l15.8 15.7 23.6-23.6zm63 31.6 23.6-23.7 15.7 15.8-23.6 23.6zm-15.8 15.7-23.6 23.6L374 437l23.6-23.6zm-7.8-39.4 23.6-23.6 15.7 15.7-23.6 23.7zM358.2 374l-23.6 23.7 15.8 15.7 23.6-23.6zm-47.1-236 23.6 23.6 15.8-15.7-23.6-23.6zm62.9 63-23.5-23.6 15.7-15.8 23.6 23.6zm47.3-47.3-23.6-23.6 15.7-15.7L437 138zM153.7 421.2l-63-63L75 374l63 63zm0-47.2 23.6 23.6-15.7 15.7-23.6-23.6zM138 358.3l-23.6-23.6-15.8 15.7 23.6 23.6zm0-47.3 63 63-15.8 15.7-63-63zm39.3-196.7-63 63-15.7-15.8 63-63zM138 200.9l63-63-15.8-15.7-63 63z"/><circle cx="96" cy="96" r="96" fill="var(--flag-palette-bright-red, #d80027)" transform="scale(-1 1)rotate(-45 113.1 600.9)"/><path fill="var(--flag-palette-blue, #0052b4)" d="M188.1 188.1A96 96 0 1 0 323.9 324a48 48 0 1 0-68-67.9 48 48 0 1 1-67.8-67.9"/></svg>