<svg xmlns="http://www.w3.org/2000/svg" width="512" height="512" fill="none"><g clip-path="url(#a)"><path fill="#EEE" d="M0 0h512v512H0z"/><path fill="#333" fill-rule="evenodd" d="M383 0A383 383 0 0 1 0 383v32c50.6 0 99.1-9 144-25.6l37.2 89.7 29.5-12.2-37.2-89.8c40-18.4 76.5-43 108.4-72.6l68.8 68.9 22.7-22.7-68.9-68.8a416 416 0 0 0 72.6-108.4l89.8 37.2 12.2-29.5-89.7-37.2A414 414 0 0 0 415 0zM164.2 126.2A28 28 0 0 1 212 146h84a28 28 0 0 1-28 28 28 28 0 0 1-28 28 28 28 0 0 1-28 28h-56a28 28 0 0 1-28-28 28 28 0 0 1-28-28 28 28 0 0 1-28-28h84a28 28 0 0 1 8.2-19.8" clip-rule="evenodd"/><path fill="#333" d="M0 0v512h32V32h480V0z"/></g><defs><clipPath id="a"><path fill="#fff" d="M0 0h512v512H0z"/></clipPath></defs></svg>