<svg xmlns="http://www.w3.org/2000/svg" width="512" height="512" fill="none"><g clip-path="url(#a)"><path fill="#EEE" d="M0 0h512v512H0z"/><path fill="#333" fill-rule="evenodd" d="M381.7 32A383 383 0 0 1 32 381.7V32h349.7Zm32 0c-2.9 39-11.3 76.7-24.3 112l89.7 37.2-12.2 29.5-89.8-37.2c-18.4 40-43 76.5-72.6 108.4l68.9 68.8-22.7 22.7-68.8-68.9a415.7 415.7 0 0 1-108.4 72.6l37.2 89.8-29.5 12.2-37.2-89.7a412.9 412.9 0 0 1-112 24.4V512H0V0h512v32h-98.2Z" clip-rule="evenodd"/><path fill="#333" d="M184 118a28 28 0 0 0-28 28H72a28 28 0 0 0 28 28 28 28 0 0 0 28 28 28 28 0 0 0 28 28h56a28 28 0 0 0 28-28 28 28 0 0 0 28-28 28 28 0 0 0 28-28h-84a28 28 0 0 0-28-28Z"/></g><defs><clipPath id="a"><path fill="#fff" d="M0 0h512v512H0z"/></clipPath></defs></svg>