<svg xmlns="http://www.w3.org/2000/svg" width="512" height="512" fill="none"><g clip-path="url(#a)"><path fill="#D80027" d="M136 512V0h240v512z"/><path fill="#D80027" d="M344 512V0h168v512z"/><path fill="#496E2D" d="M0 512V0h168v512z"/><path fill="#FFDA44" d="M167 345a89 89 0 1 0 0-178 89 89 0 0 0 0 178Z"/><path fill="#D80027" d="M116.9 211.5V267a50 50 0 1 0 100.1 0v-55.6H117Z"/><path fill="#EEE" d="M167 283.8c-9.2 0-16.7-7.5-16.7-16.7V245h33.4v22c0 9.2-7.5 16.7-16.7 16.7Z"/><path fill="#6DA544" fill-rule="evenodd" d="M512 0 0 512h512V0Z" clip-rule="evenodd"/><path fill="#FFDA44" fill-rule="evenodd" d="M345.7 166.3 467.5 256 256 411.8l-89.7-66 179.4-179.5Z" clip-rule="evenodd"/><path fill="#EEE" fill-rule="evenodd" d="m193 319 126-126a89 89 0 0 1-126 126Z" clip-rule="evenodd"/><path fill="#0052B4" fill-rule="evenodd" d="M319 193a88.8 88.8 0 0 1 24.4 80 184.4 184.4 0 0 0-62.2-42.2L319 193Zm-64 64-62 62a88.7 88.7 0 0 0 135.8-11.8A150.8 150.8 0 0 0 255 257Z" clip-rule="evenodd"/></g><defs><clipPath id="a"><path fill="#fff" d="M0 0h512v512H0z"/></clipPath></defs></svg>