<svg xmlns="http://www.w3.org/2000/svg" width="512" height="512" fill="none"><path fill="var(--flag-palette-bright-red, #d80027)" d="M136 512V0h240v512z"/><path fill="var(--flag-palette-bright-red, #d80027)" d="M344 512V0h168v512z"/><path fill="var(--flag-palette-dark-green, #496e2d)" d="M0 512V0h168v512z"/><path fill="var(--flag-palette-yellow, #ffda44)" d="M167 345a89 89 0 1 0 0-178 89 89 0 0 0 0 178"/><path fill="var(--flag-palette-bright-red, #d80027)" d="M108.5 202.6v64.9a58.4 58.4 0 1 0 116.9 0v-65z"/><path fill="var(--flag-palette-white, #eeeeee)" d="M167 304.2a34.4 34.4 0 0 1-34.3-34.3v-45.3h68.6v45.1A34.4 34.4 0 0 1 167 304z"/><path fill="var(--flag-palette-blue, #0052b4)" fill-rule="evenodd" d="M167 249.6c-3.7 0-6.8-3-6.8-6.7v-9h13.6v8.9c0 3.8-3.1 6.8-6.8 6.8m0 43.2a7 7 0 0 1-6.8-6.8v-8.9h13.6v8.9c0 3.7-3.1 6.7-6.8 6.7zm-6.8-28.4c0 3.8 3.1 6.8 6.8 6.8s6.8-3.1 6.8-6.8v-8.9h-13.6zm-13 6.8c-3.7 0-6.7-3-6.7-6.8v-8.9H154v8.9c0 3.7-3 6.8-6.8 6.8m32.8-6.8a6.7 6.7 0 1 0 13.5 0v-8.9H180z" clip-rule="evenodd"/><path fill="var(--flag-palette-green, #6da544)" fill-rule="evenodd" d="M512 0 0 512h512z" clip-rule="evenodd"/><path fill="var(--flag-palette-yellow, #ffda44)" d="M467.5 256 256 411.8l-89.7-66 179.4-179.5z"/><path fill="var(--flag-palette-white, #eeeeee)" d="M319 193a89 89 0 0 1-126 126z"/><path fill="var(--flag-palette-blue, #0052b4)" d="M255.1 256.9c29.4 9 55 26.7 73.8 50.2A89 89 0 0 1 193 319zM319 193a89 89 0 0 1 24.4 80 184 184 0 0 0-62.2-42.2z"/></svg>