<svg xmlns="http://www.w3.org/2000/svg" width="512" height="512" fill="none"><g clip-path="url(#a)"><path fill="#6DA544" d="M0 0h512v512H0z"/><path fill="#FFDA44" d="M256 100.2 467.5 256 256 411.8 44.5 256 256 100.2Z"/><path fill="#EEE" d="M256 345a89 89 0 1 0 0-178 89 89 0 0 0 0 178Z"/><path fill="#0052B4" d="M211.5 250.4a149 149 0 0 0-44.5 6.8A89 89 0 0 0 329 307a150 150 0 0 0-117.5-56.7ZM343.4 273a89 89 0 0 0-169.2-52.2 183.7 183.7 0 0 1 169.2 52.3Z"/><mask id="b" width="512" height="512" x="0" y="0" maskUnits="userSpaceOnUse" style="mask-type:alpha"><path fill="#F0F" d="M0 512V0h512L0 512Z"/></mask><g mask="url(#b)"><path fill="#496E2D" d="M0 512V0h256v512z"/><path fill="#D80027" d="M167 512V0h345v512z"/><path fill="#FFDA44" d="M167 345a89 89 0 1 0 0-178 89 89 0 0 0 0 178Z"/><path fill="#D80027" d="M116.9 211.5V267a50 50 0 1 0 100.1 0v-55.6H117Z"/><path fill="#EEE" d="M167 283.8c-9.2 0-16.7-7.5-16.7-16.7V245h33.4v22c0 9.2-7.5 16.7-16.7 16.7Z"/></g></g><defs><clipPath id="a"><path fill="#fff" d="M0 0h512v512H0z"/></clipPath></defs></svg>