<svg xmlns="http://www.w3.org/2000/svg" width="512" height="512" fill="none"><path fill="var(--flag-palette-white, #eeeeee)" d="M0 0h512v512H0z"/><path fill="var(--flag-palette-mid-grey-3, #acabb1)" fill-rule="evenodd" d="M0 64V0h64v32H32v32zM234.7 0h-128v32h128zm42.6 0v32h128V0zM448 0v32h32v32h32V0zm64 106.7h-32v128h32zm0 170.6h-32v128h32zm0 170.7h-32v32h-32v32h64zm-106.7 64v-32h-128v32zm-170.6 0v-32h-128v32zM64 512v-32H32v-32H0v64zM0 405.3h32v-128H0zm0-170.6h32v-128H0z" clip-rule="evenodd"/><path fill="var(--flag-palette-mid-grey-3, #acabb1)" d="M256.9 115.2q42.1 0 65.5 20.3 23.2 20.3 23.3 57.3c0 11-2.6 22-7.6 31.8q-10.6 18.7-26.4 33.2L295.5 273a54 54 0 0 0-17.3 33.9l-.8 13.1h-51c0-18.5 2.3-34.2 6.8-45.2a90 90 0 0 1 24.8-32.3q13.8-11.3 23.9-26 6-10 6-21.1 0-33.5-31-33.4-14.7 0-23.5 9a35 35 0 0 0-9.3 24.8l-.1 9h-57.6V192h.2a75 75 0 0 1 24.3-55.4q24.2-21.3 66-21.4M285 380a32 32 0 1 1-64 0 32 32 0 0 1 64 0"/></svg>