<svg xmlns="http://www.w3.org/2000/svg" width="512" height="512" fill="none"><g clip-path="url(#a)"><path fill="#EEE" d="M0 0h512v56l-25 32 25 34v268l-26 36 26 30v56H0v-56l25-34-25-32V122l27-33L0 56V0Z"/><path fill="#333" d="M0 390v66h512v-66H0Zm256-100a104 104 0 1 0 0-208 104 104 0 0 0 0 208Z"/><path fill="#EEE" d="M256 270a84 84 0 1 0 0-168 84 84 0 0 0 0 168Z"/><path fill="#333" d="M256 250a64 64 0 1 0 0-128 64 64 0 0 0 0 128Z"/><path fill="#EEE" d="M256 230a44 44 0 1 0 0-88 44 44 0 0 0 0 88Z"/><path fill="#333" d="m246 319-49 11v14h118v-14l-49-11h-20Z"/><path fill="#EEE" d="M148 78h216v108H148V78Z"/><path fill="#333" d="M246 180h20v150h-20V180Zm87-8h34l-7 15h-20l-7-15Zm-40 0h34l-7 15h-20l-7-15Zm-108 0h34l-7 15h-20l-7-15Zm-40 0h34l-7 15h-20l-7-15Z"/><path fill="#333" d="M239 172h34l-7 15h-20l-7-15ZM0 56v66h512V56H0Z"/></g><defs><clipPath id="a"><path fill="#fff" d="M0 0h512v512H0z"/></clipPath></defs></svg>