<svg xmlns="http://www.w3.org/2000/svg" width="1792" height="512" fill="none"><g clip-path="url(#a)"><path fill="#0052B4" d="M512 256a256 256 0 1 1-512 0 256 256 0 0 1 512 0Z"/><path fill="#EEE" d="M0 256h32l32-32 32 32h32v-83l83 83h45l-8-16 8-15v-14l-83-83h83V96l-32-32 32-32V0A256 256 0 0 0 0 256Zm168 74-14-30-14 30-32-8 14 30-26 20 33 7-1 33 26-21 26 21-1-33 32-7-25-20 14-30-32 8Zm226.2-57H376l14.7 10.4L385 300l14.5-10.3L414 300l-5.3-16.8L423 273h-17.6l-5.4-17-5.8 17ZM390 126l-7-15-7 15-16-4 7 15-12 10 15 3v17l13-11 13 11v-17l15-3-12-10 7-15-16 4Zm57 67-7-15-7 15-16-4 7 15-12 10 15 3v17l13-11 13 10v-16l15-3-12-10 7-15-16 4Zm-122 22-7-15-7 15-16-4 7 15-12 10 15 3v17l13-11 13 10v-16l15-3-12-10 7-15-16 4Zm65 156-7-15-7 15-16-4 7 15-12 10 15 3v17l13-11 13 11v-17l15-3-12-10 7-15-16 4Z"/><path fill="#D80027" d="M32 132v124h64V96h160V32H132A257 257 0 0 0 32 132Z"/><path fill="#D80027" d="M256 256 128 128h31l97 97v31Z"/></g><path fill="#026" d="M640 0h512v512H640z"/><path fill="#026" d="M640 0h256v256H640z"/><path fill="#EEE" d="M872 256h24v-24L792 128 896 24V0h-24L768 104 664 0h-24v24l104 104-104 104v24h24l104-104 104 104Z"/><path fill="#EEE" d="M896 160V96h-96V0h-64v96h-96v64h96v96h64v-96h96Z"/><path fill="#D80027" d="M896 144v-32H784V0h-32v112H640v32h112v112h32V144h112Z"/><path fill="#D80027" d="M640 16V0l96 96h-16l-80-80Zm256 224v16l-96-96h16l80 80Zm-240 16h-16l96-96v16l-80 80ZM880 0h16l-96 96V80l80-80Z"/><path fill="#EEE" d="m768 328.3 14 29.4 31.8-7.3-14.2 29.3 25.5 20.2-31.8 7.2.1 32.6-25.4-20.4-25.4 20.4V407l-31.7-7.2 25.5-20.2-14.2-29.3 31.8 7.3 14-29.4Zm255.3 27.9 7 14.7 15.9-3.7-7.1 14.6 12.7 10.2-15.9 3.5v16.3l-12.6-10.2-12.7 10.2v-16.3l-15.9-3.5 12.8-10.2-7.1-14.6 15.9 3.7 7-14.7ZM958 200.3l7 14.7 15.8-3.6-7 14.6 12.7 10.1-16 3.6.1 16.3-12.7-10.2-12.7 10.2v-16.3l-15.8-3.6 12.7-10-7-14.7 15.8 3.6 7-14.7Zm65.3-89 7 14.7 15.9-3.7-7.1 14.7 12.7 10-15.9 3.7V167l-12.6-10.2-12.7 10.2v-16.3l-15.9-3.6 12.8-10.1-7.1-14.7 15.9 3.7 7-14.7Zm57.1 66.7 7 14.8 15.9-3.7-7.1 14.7 12.7 10-15.9 3.7v16.2l-12.6-10.1-12.7 10.1v-16.2l-15.9-3.6 12.8-10.1-7.1-14.7 15.8 3.7 7-14.7Zm-40.9 78 5.6 17h17.9l-14.5 10.5 5.5 17-14.5-10.5-14.4 10.5 5.5-17-14.5-10.5h18l5.5-17Z"/><path fill="#000" d="M1280 0h512v512h-512z"/><g clip-path="url(#b)"><path fill="#0052B4" d="M1792 256a256 256 0 1 1-512 0 256 256 0 0 1 512 0Z"/><path fill="#EEE" d="M1280 256h32l32-32 32 32h32v-83l83 83h45l-8-16 8-15v-14l-83-83h83V96l-32-32 32-32V0a256 256 0 0 0-256 256Zm168 74-14-30-14 30-32-8 14 30-26 20 33 7-1 33 26-21 26 21-1-33 32-7-25-20 14-30-32 8Zm226.2-57H1656l14.7 10.4-5.7 16.6 14.5-10.3L1694 300l-5.3-16.8L1703 273h-17.6l-5.4-17-5.8 17Zm-4.2-147-7-15-7 15-16-4 7 15-12 10 15 3v17l13-11 13 11v-17l15-3-12-10 7-15-16 4Zm57 67-7-15-7 15-16-4 7 15-12 10 15 3v17l13-11 13 10v-16l15-3-12-10 7-15-16 4Zm-122 22-7-15-7 15-16-4 7 15-12 10 15 3v17l13-11 13 10v-16l15-3-12-10 7-15-16 4Zm65 156-7-15-7 15-16-4 7 15-12 10 15 3v17l13-11 13 11v-17l15-3-12-10 7-15-16 4Z"/><path fill="#D80027" d="M1312 132v124h64V96h160V32h-124a257 257 0 0 0-100 100Z"/><path fill="#D80027" d="m1536 256-128-128h31l97 97v31Z"/></g><g style="mix-blend-mode:difference"><path fill="#026" d="M1280 0h512v512h-512z"/><path fill="#026" d="M1280 0h256v256h-256z"/><path fill="#EEE" d="M1512 256h24v-24l-104-104 104-104V0h-24l-104 104L1304 0h-24v24l104 104-104 104v24h24l104-104 104 104Z"/><path fill="#EEE" d="M1536 160V96h-96V0h-64v96h-96v64h96v96h64v-96h96Z"/><path fill="#D80027" d="M1536 144v-32h-112V0h-32v112h-112v32h112v112h32V144h112Z"/><path fill="#D80027" d="M1280 16V0l96 96h-16l-80-80Zm256 224v16l-96-96h16l80 80Zm-240 16h-16l96-96v16l-80 80ZM1520 0h16l-96 96V80l80-80Z"/><path fill="#EEE" d="m1408 328.3 14 29.4 31.8-7.3-14.2 29.3 25.5 20.2-31.8 7.2.1 32.6-25.4-20.4-25.4 20.4V407l-31.7-7.2 25.5-20.2-14.2-29.3 31.8 7.3 14-29.4Zm255.3 27.9 7 14.7 15.9-3.7-7.1 14.6 12.7 10.2-15.9 3.5v16.3l-12.6-10.2-12.7 10.2v-16.3l-15.9-3.5 12.8-10.2-7.1-14.6 15.9 3.7 7-14.7ZM1598 200.3l7 14.7 15.8-3.6-7 14.6 12.7 10.1-16 3.6.1 16.3-12.7-10.2-12.7 10.2v-16.3l-15.8-3.6 12.8-10-7.2-14.7 16 3.6 7-14.7Zm65.3-89 7 14.7 15.9-3.7-7.1 14.7 12.7 10-15.9 3.7V167l-12.6-10.2-12.7 10.2v-16.3l-15.9-3.6 12.8-10.1-7.1-14.7 15.9 3.7 7-14.7Zm57.1 66.7 7 14.8 15.9-3.7-7.1 14.7 12.7 10-15.9 3.7v16.2l-12.6-10.1-12.7 10.1v-16.2l-15.9-3.6 12.8-10.1-7.1-14.7 15.8 3.7 7-14.7Zm-40.9 78 5.6 17h17.9l-14.5 10.5 5.5 17-14.5-10.5-14.4 10.5 5.5-17-14.5-10.5h18l5.5-17Z"/></g><defs><clipPath id="a"><path fill="#fff" d="M0 0h512v512H0z"/></clipPath><clipPath id="b"><path fill="#fff" d="M1280 0h512v512h-512z"/></clipPath></defs></svg>