<svg width="1792" height="512" viewBox="0 0 1792 512" fill="none" xmlns="http://www.w3.org/2000/svg">
<g clip-path="url(#clip0_384_11030)">
<mask id="mask0_384_11030" style="mask-type:luminance" maskUnits="userSpaceOnUse" x="0" y="0" width="512" height="512">
<path d="M256 512C397.385 512 512 397.385 512 256C512 114.615 397.385 0 256 0C114.615 0 0 114.615 0 256C0 397.385 114.615 512 256 512Z" fill="white"/>
</mask>
<g mask="url(#mask0_384_11030)">
<path d="M0 0H512V512H0V0Z" fill="#0052B4"/>
<path d="M154 300L168 330L200 322L186 352L211 372L179 379L180 412L154 391L128 412L129 379L96 372L122 352L108 322L140 330L154 300ZM376 273H423L385 300L400 256L414 300L376 273ZM383 111L390 126L406 122L399 137L411 147L396 150V167L383 156L370 167V150L355 147L367 137L360 122L376 126L383 111ZM440 178L447 193L463 189L456 204L468 214L453 217V233L440 223L427 234V217L412 214L424 204L417 189L433 193L440 178ZM318 200L325 215L341 211L334 226L346 236L331 239V255L318 245L305 256V239L290 236L302 226L295 211L311 215L318 200ZM383 356L390 371L406 367L399 382L411 392L396 395V412L383 401L370 412V395L355 392L367 382L360 367L376 371L383 356ZM0 0V32L32 64L0 96V256H32L64 224L96 256H128V173L211 256H256L248 240L256 225V211L173 128H256V96L224 64L256 32V0H96L64 32L32 0H0Z" fill="#EEEEEE"/>
<path d="M32 0V32H0V96H32V256H96V96H256V32H96V0H32ZM128 128L256 256V225L159 128H128Z" fill="#D80027"/>
</g>
</g>
<rect x="640" width="512" height="512" fill="#002266"/>
<rect x="640" width="256" height="256" fill="#002266"/>
<path d="M872 256H896V232L792 128L896 24V0H872L768 104L664 0H640V24L744 128L640 232V256H664L768 152L872 256Z" fill="#EEEEEE"/>
<path d="M896 160V96H800V0H736V96H640V160H736V256H800V160H896Z" fill="#EEEEEE"/>
<path d="M896 144V112H784V0H752V112H640V144H752V256H784V144H896Z" fill="#D80027"/>
<path d="M640 16V0L736 96H720L640 16Z" fill="#D80027"/>
<path d="M896 240L896 256L800 160L816 160L896 240Z" fill="#D80027"/>
<path d="M656 256L640 256L736 160L736 176L656 256Z" fill="#D80027"/>
<path d="M880 -6.99382e-07L896 0L800 96L800 80L880 -6.99382e-07Z" fill="#D80027"/>
<path d="M768 328.348L782.05 357.726L813.777 350.393L799.569 379.695L825.083 399.928L793.316 407.088L793.405 439.652L768 419.279L742.596 439.652L742.685 407.088L710.917 399.928L736.432 379.695L722.222 350.393L753.951 357.726L768 328.348Z" fill="#EEEEEE"/>
<path d="M1023.28 356.174L1030.31 370.863L1046.17 367.196L1039.07 381.847L1051.83 391.964L1035.94 395.544L1035.99 411.826L1023.28 401.639L1010.58 411.826L1010.63 395.544L994.743 391.964L1007.5 381.847L1000.4 367.196L1016.26 370.863L1023.28 356.174Z" fill="#EEEEEE"/>
<path d="M957.933 200.348L964.957 215.038L980.821 211.37L973.717 226.021L986.474 236.138L970.591 239.718L970.634 256L957.933 245.813L945.231 256L945.274 239.718L929.391 236.138L942.148 226.021L935.044 211.37L950.908 215.038L957.933 200.348Z" fill="#EEEEEE"/>
<path d="M1023.28 111.304L1030.31 125.994L1046.17 122.327L1039.07 136.978L1051.82 147.094L1035.94 150.675L1035.99 166.957L1023.28 156.77L1010.58 166.957L1010.63 150.675L994.743 147.094L1007.5 136.978L1000.4 122.327L1016.26 125.994L1023.28 111.304Z" fill="#EEEEEE"/>
<path d="M1080.37 178.087L1087.39 192.777L1103.26 189.109L1096.15 203.76L1108.91 213.877L1093.02 217.458L1093.07 233.739L1080.37 223.553L1067.67 233.739L1067.71 217.458L1051.83 213.877L1064.58 203.76L1057.48 189.109L1073.34 192.777L1080.37 178.087Z" fill="#EEEEEE"/>
<path d="M1039.55 256L1045.07 273.006H1062.96L1048.49 283.517L1054.02 300.522L1039.55 290.012L1025.08 300.522L1030.61 283.517L1016.14 273.006H1034.02L1039.55 256Z" fill="#EEEEEE"/>
<rect width="512" height="512" transform="translate(1280)" fill="black"/>
<g style="mix-blend-mode:difference" clip-path="url(#clip1_384_11030)">
<mask id="mask1_384_11030" style="mask-type:luminance" maskUnits="userSpaceOnUse" x="1280" y="0" width="512" height="512">
<path d="M1536 512C1677.38 512 1792 397.385 1792 256C1792 114.615 1677.38 0 1536 0C1394.62 0 1280 114.615 1280 256C1280 397.385 1394.62 512 1536 512Z" fill="white"/>
</mask>
<g mask="url(#mask1_384_11030)">
<path d="M1280 0H1792V512H1280V0Z" fill="#0052B4"/>
<path d="M1434 300L1448 330L1480 322L1466 352L1491 372L1459 379L1460 412L1434 391L1408 412L1409 379L1376 372L1402 352L1388 322L1420 330L1434 300ZM1656 273H1703L1665 300L1680 256L1694 300L1656 273ZM1663 111L1670 126L1686 122L1679 137L1691 147L1676 150V167L1663 156L1650 167V150L1635 147L1647 137L1640 122L1656 126L1663 111ZM1720 178L1727 193L1743 189L1736 204L1748 214L1733 217V233L1720 223L1707 234V217L1692 214L1704 204L1697 189L1713 193L1720 178ZM1598 200L1605 215L1621 211L1614 226L1626 236L1611 239V255L1598 245L1585 256V239L1570 236L1582 226L1575 211L1591 215L1598 200ZM1663 356L1670 371L1686 367L1679 382L1691 392L1676 395V412L1663 401L1650 412V395L1635 392L1647 382L1640 367L1656 371L1663 356ZM1280 0V32L1312 64L1280 96V256H1312L1344 224L1376 256H1408V173L1491 256H1536L1528 240L1536 225V211L1453 128H1536V96L1504 64L1536 32V0H1376L1344 32L1312 0H1280Z" fill="#EEEEEE"/>
<path d="M1312 0V32H1280V96H1312V256H1376V96H1536V32H1376V0H1312ZM1408 128L1536 256V225L1439 128H1408Z" fill="#D80027"/>
</g>
</g>
<g style="mix-blend-mode:difference">
<rect x="1280" width="512" height="512" fill="#002266"/>
<rect x="1280" width="256" height="256" fill="#002266"/>
<path d="M1512 256H1536V232L1432 128L1536 24V0H1512L1408 104L1304 0H1280V24L1384 128L1280 232V256H1304L1408 152L1512 256Z" fill="#EEEEEE"/>
<path d="M1536 160V96H1440V0H1376V96H1280V160H1376V256H1440V160H1536Z" fill="#EEEEEE"/>
<path d="M1536 144V112H1424V0H1392V112H1280V144H1392V256H1424V144H1536Z" fill="#D80027"/>
<path d="M1280 16V0L1376 96H1360L1280 16Z" fill="#D80027"/>
<path d="M1536 240L1536 256L1440 160L1456 160L1536 240Z" fill="#D80027"/>
<path d="M1296 256L1280 256L1376 160L1376 176L1296 256Z" fill="#D80027"/>
<path d="M1520 -6.99382e-07L1536 0L1440 96L1440 80L1520 -6.99382e-07Z" fill="#D80027"/>
<path d="M1408 328.348L1422.05 357.726L1453.78 350.393L1439.57 379.695L1465.08 399.928L1433.32 407.088L1433.4 439.652L1408 419.279L1382.6 439.652L1382.68 407.088L1350.92 399.928L1376.43 379.695L1362.22 350.393L1393.95 357.726L1408 328.348Z" fill="#EEEEEE"/>
<path d="M1663.28 356.174L1670.31 370.863L1686.17 367.196L1679.07 381.847L1691.83 391.964L1675.94 395.544L1675.99 411.826L1663.28 401.639L1650.58 411.826L1650.63 395.544L1634.74 391.964L1647.5 381.847L1640.4 367.196L1656.26 370.863L1663.28 356.174Z" fill="#EEEEEE"/>
<path d="M1597.93 200.348L1604.96 215.038L1620.82 211.37L1613.72 226.021L1626.47 236.138L1610.59 239.718L1610.63 256L1597.93 245.813L1585.23 256L1585.27 239.718L1569.39 236.138L1582.15 226.021L1575.04 211.37L1590.91 215.038L1597.93 200.348Z" fill="#EEEEEE"/>
<path d="M1663.28 111.304L1670.31 125.994L1686.17 122.327L1679.07 136.978L1691.83 147.094L1675.94 150.675L1675.99 166.957L1663.28 156.77L1650.58 166.957L1650.63 150.675L1634.74 147.094L1647.5 136.978L1640.4 122.327L1656.26 125.994L1663.28 111.304Z" fill="#EEEEEE"/>
<path d="M1720.37 178.087L1727.39 192.777L1743.26 189.109L1736.15 203.76L1748.91 213.877L1733.02 217.458L1733.07 233.739L1720.37 223.553L1707.67 233.739L1707.71 217.458L1691.83 213.877L1704.58 203.76L1697.48 189.109L1713.34 192.777L1720.37 178.087Z" fill="#EEEEEE"/>
<path d="M1679.55 256L1685.08 273.006H1702.96L1688.49 283.517L1694.02 300.522L1679.55 290.012L1665.08 300.522L1670.61 283.517L1656.14 273.006H1674.02L1679.55 256Z" fill="#EEEEEE"/>
</g>
<defs>
<clipPath id="clip0_384_11030">
<rect width="512" height="512" fill="white"/>
</clipPath>
<clipPath id="clip1_384_11030">
<rect width="512" height="512" fill="white" transform="translate(1280)"/>
</clipPath>
</defs>
</svg>
