<svg xmlns="http://www.w3.org/2000/svg" width="512" height="512" fill="none"><path fill="#026" d="M0 0h512v512H0z"/><path fill="#026" d="M0 0h256v256H0z"/><path fill="#EEE" d="M232 256h24v-24L152 128 256 24V0h-24L128 104 24 0H0v24l104 104L0 232v24h24l104-104z"/><path fill="#EEE" d="M256 160V96h-96V0H96v96H0v64h96v96h64v-96z"/><path fill="#D80027" d="M256 144v-32H144V0h-32v112H0v32h112v112h32V144z"/><path fill="#D80027" d="M0 16V0l96 96H80zm256 224v16l-96-96h16zM16 256H0l96-96v16zM240 0h16l-96 96V80z"/><path fill="#EEE" d="M400 185h-40a74 74 0 0 0-51 51v40a74 74 0 0 0 51 51h40a74 74 0 0 0 51-51v-40a74 74 0 0 0-51-51"/><path fill="#D80027" d="M380 182a74 74 0 0 0-20 3v51h-51a74 74 0 0 0-3 20 74 74 0 0 0 3 20h51v51a74 74 0 0 0 20 3 74 74 0 0 0 20-3v-51h51a74 74 0 0 0 3-20 74 74 0 0 0-3-20h-51v-51a74 74 0 0 0-20-3"/><path fill="#FFDA44" d="m380 295-3 8-8-4 4 8-8 3 8 3-4 8 8-4 3 8 3-8 8 4-4-8 8-3-8-3 4-8-8 4zm54-54-3 8-8-4 4 8-8 3 8 3-4 8 8-4 3 8 3-8 8 4-4-8 8-3-8-3 4-8-8 4zm-108 0-3 8-8-4 4 8-8 3 8 3-4 8 8-4 3 8 3-8 8 4-4-8 8-3-8-3 4-8-8 4zm54-54-3 8-8-4 4 8-8 3 8 3-4 8 8-4 3 8 3-8 8 4-4-8 8-3-8-3 4-8-8 4zm-10 52a7 7 0 0 0-6 6v5h-3v-2c0-3-3-6-6-6l-1 2v12l2 1h8a6 6 0 0 0 6 7v2h-3a5 5 0 0 0-5 6l1 1h12l2-1v-8l17-1v3h-3a5 5 0 0 0-5 5l1 2h13l1-2v-16c3 0 5-2 5-5 0-2-2-5-5-5h-16l-2-1 2-2h16v-3h-16a5 5 0 0 0-5 5c0 2 2 5 5 5h16l2 1-2 2h-18a6 6 0 0 1-6-7 7 7 0 0 0-7-6"/></svg>