<svg xmlns="http://www.w3.org/2000/svg" width="512" height="512" fill="none"><path fill="#0052B4" d="M0 0h512v512H0z"/><path fill="#D80027" fill-rule="evenodd" d="M480 32H32v448h448zM0 0v512h512V0z" clip-rule="evenodd"/><path fill="#EEE" d="m100.2 256.1 155.8-98 155.8 98-155.8 98z"/><path fill="#496E2D" d="M167 300.6h200.3l-44.5-66.8-22.3 22.3-22.2-11-22.3 33.3h-44.5l-22.3-22.3z"/><path fill="#FFC635" d="m256 189.3 5.5 17h18l-14.6 10.5 5.6 17-14.5-10.5-14.5 10.5 5.6-17-14.5-10.5h17.9z"/><path fill="#D80027" fill-rule="evenodd" d="M416.4 240.1 272 149.3V16h-32v133.3L95.6 240H0v32h95.6L240 362.9v133.3h32V362.9l144.4-90.8H512v-32zm-286.1 16L256 335.2l125.8-79.1L256 177z" clip-rule="evenodd"/></svg>