<svg xmlns="http://www.w3.org/2000/svg" width="512" height="512" fill="none"><path fill="#496E2D" d="M0 0h512v512H0z"/><path fill="#333" d="M272 240h240v32H272v240h-32V272H0v-32h240V0h32z"/><path fill="#EEE" d="M304 272h208v32H304v208h-32V304H0v-32h272V0h32z"/><path fill="#FFDA44" d="M240 208h272v32H240v272h-32V240H0v-32h208V0h32z"/><path fill="#D80027" d="M256 378.4a122.4 122.4 0 1 0 0-244.8 122.4 122.4 0 0 0 0 244.8"/><path fill="#496E2D" d="M283.9 269.7c-9.1-18.3-21-36.7-21-36.7s.3-8.4.3-13.4a13.7 13.7 0 0 0-27.2-1.2 10.8 10.8 0 0 0-4.3 20.3q2.7-6.2 9.2-8.6l2.2 1.5 1.8.8s-6.5 18.3-6.5 28.2c0 27.6 18.2 36.1 18.2 36.1v.3l-9.1 9h18.2v-18l9 9c.2 0 17.3-11 9.2-27.2m-27.9-114 4.1 12.8h13.5l-10.9 7.9 4.2 12.7-10.9-7.9-10.8 8 4.1-12.8-10.9-8H252zM197.1 175l10.9 7.8 10.8-7.8-4.1 12.7 10.8 7.9h-13.4l-4.1 12.7-4.2-12.7h-13.4l10.9-7.9zm-36.4 50h13.4l4.2-12.7 4.1 12.7h13.4l-10.8 8 4.1 12.7-10.8-7.9-10.9 7.9 4.2-12.8zm0 62 10.9-8-4.2-12.7 10.9 7.9 10.8-7.9-4.1 12.8 10.8 7.9h-13.4l-4.1 12.7L174 287zm36.4 50 4.2-12.7-10.9-7.9h13.4l4.2-12.7 4.1 12.7h13.4l-10.8 7.9 4.1 12.7-10.8-7.8zm58.9 19.2-4.1-12.8h-13.5l10.9-7.9-4.1-12.7 10.8 7.9 10.9-8-4.2 12.8 10.9 8H260zm58.9-19.2-10.9-7.8-10.8 7.8 4.1-12.7-10.8-7.9h13.4l4.1-12.7 4.2 12.7h13.4l-10.9 7.9zm36.4-50h-13.4l-4.2 12.7-4.1-12.7h-13.4l10.8-8-4.1-12.7 10.8 7.9 10.9-7.9-4.2 12.8zm0-62-10.9 8 4.2 12.7-10.9-7.9-10.8 7.9 4.1-12.8-10.8-7.9h13.4l4.1-12.7L338 225zm-36.4-50-4.2 12.7 10.9 7.9h-13.4l-4.2 12.7-4.1-12.7h-13.4l10.8-7.9-4.1-12.7 10.8 7.8z"/></svg>