<svg xmlns="http://www.w3.org/2000/svg" width="512" height="512" fill="none"><path fill="#338AF3" d="M0 0h512v512H0z"/><path fill="#EEE" d="M0 152h512v208H0z"/><path fill="#333" d="M0 176h512v32H0z"/><path fill="#D80027" d="M0 304h512v32H0z"/><path fill="#6DA544" d="M0 208h512v96H0z"/><path fill="#FFDA44" d="M0 224h512v64H0z"/><path fill="#EEE" d="M256 184a64 64 0 0 1 48.3 106l29.7 11v27H178v-27l29.7-11A64 64 0 0 1 256 184"/><path fill="#6DA544" d="M247.2 215.2a34 34 0 0 0-8.2 62.2l-8 13.9a50 50 0 0 1 12-91.6zm21.7-15.5a50 50 0 0 1 12.1 91.6l-8-13.9a34 34 0 0 0-8.2-62.2z"/><circle cx="256" cy="248" r="24" fill="#FFC635"/></svg>