<svg xmlns="http://www.w3.org/2000/svg" width="512" height="512" fill="none"><path fill="#333" d="M0 136h512v240H0z"/><path fill="#333" d="M0 344h512v168H0z"/><path fill="#0052B4" d="M0 0h512v168H0z"/><path fill="#6DA544" d="M94 228h-2a8 8 0 0 0-5 4 8 8 0 0 0-1 6l7 25-39-23a8 8 0 0 0-12 6 8 8 0 0 0 4 8l39 23-25 6a8 8 0 0 0-5 4 8 8 0 0 0 .3 9 8 8 0 0 0 8.7 3l41-11 8 5-26 6a8 8 0 0 0-4 4 8 8 0 0 0 .3 9 8 8 0 0 0 8.7 3l40-11 8 5-25 6a8 8 0 0 0-4 4 8 8 0 0 0 .3 9 8 8 0 0 0 8.7 3l40-11 25 14a8 8 0 0 0 11-3 8 8 0 0 0-3-10l-25-15-11-40a8 8 0 0 0-10-6 8 8 0 0 0-5 4 8 8 0 0 0 0 6l6 25-8-5-11-40a8 8 0 0 0-9-6 8 8 0 0 0-5 4 8 8 0 0 0-1 6l7 25-8-5-11-40a8 8 0 0 0-8-6m180 96 122 107c17-13 32-30 44-48z"/><path fill="#FFDA44" d="m256 480-21-29-31 19-8-35-36 5 6-35-36-9 19-31-29-21 29-21-19-31 36-8-6-36 36 6 8-36 31 19 21-29 21 29 31-19 8 36 36-6-6 36 36 8-19 31 29 21-29 21 19 31-36 8 6 36-36-5-8 35-31-19zm52.2-402.4c.4 1.7-1.3 3.3-3 2.7-10-3.7-22.2.5-27.1 10.2 4.3.3 7.8 4 7.8 8.3s-3.4 8-7.7 8.4c3.2 5.9 9.7 9.5 16.3 9.8 2 0 2.8 2.6 1.4 3.9-7.7 7-19.4 9.7-27.8 2.4-.2 5.8-4.6 20.7-12.1 20.7s-11.9-15-12.1-20.7c-8.4 7.3-20.1 4.6-27.8-2.4-1.5-1.4-.5-3.8 1.4-4 6.6-.2 13.1-3.8 16.3-9.7-4.3-.4-7.7-4-7.7-8.4 0-4.3 3.5-8 7.8-8.3a22 22 0 0 0-27.1-10.2c-1.7.6-3.4-1-3-2.7 5.2-18.2 24.1-22 37-8.7C238 53.6 238.4 31 255 24.2q1-.4 1.7 0c16.9 6.8 17.2 29.5 14.4 44.7 12.9-13.2 31.8-9.5 37 8.7m122.2 0c.5 1.7-1.3 3.3-3 2.7-10-3.7-22.2.5-27.1 10.2 4.3.3 7.8 4 7.9 8.3 0 4.3-3.5 8-7.8 8.4 3.2 5.9 9.7 9.5 16.4 9.8 2 0 2.8 2.6 1.4 3.9-7.7 7-19.5 9.7-27.8 2.4-.3 5.8-4.7 20.7-12.2 20.7s-11.8-15-12-20.7c-8.4 7.3-20.2 4.6-27.9-2.4a2.4 2.4 0 0 1 1.4-4c6.7-.2 13.2-3.8 16.4-9.7-4.3-.4-7.8-4-7.7-8.4 0-4.3 3.5-8 7.8-8.3A22 22 0 0 0 329 80.3c-1.7.6-3.5-1-3-2.7 5.2-18.2 24.1-22 37-8.7-2.9-15.3-2.5-37.8 14.3-44.7q.9-.4 1.7 0c16.8 6.8 17.2 29.5 14.4 44.7 12.8-13.2 31.7-9.5 37 8.7m-244.4 0c.5 1.7-1.3 3.3-3 2.7-10-3.7-22.2.5-27.1 10.2 4.3.3 7.8 4 7.9 8.3 0 4.3-3.5 8-7.8 8.4 3.2 5.9 9.7 9.5 16.4 9.8 2 0 2.8 2.6 1.4 3.9-7.7 7-19.5 9.7-27.8 2.4-.3 5.8-4.7 20.7-12.2 20.7s-11.8-15-12-20.7c-8.4 7.3-20.2 4.6-27.9-2.4a2.4 2.4 0 0 1 1.4-4c6.7-.2 13.2-3.8 16.4-9.7-4.3-.4-7.8-4-7.8-8.4 0-4.3 3.6-8 7.9-8.3a22 22 0 0 0-27.1-10.2c-1.7.6-3.5-1-3-2.7 5.2-18.2 24.1-22 37-8.7-2.9-15.3-2.5-37.8 14.3-44.7q.8-.4 1.7 0c16.8 6.8 17.2 29.5 14.4 44.7 12.8-13.2 31.7-9.5 37 8.7"/></svg>