<svg xmlns="http://www.w3.org/2000/svg" width="512" height="512" fill="none"><path fill="#EEE" d="M0 136h512v240H0z"/><path fill="#0052B4" d="M0 344h512v168H0z"/><path fill="#D80027" d="M0 0h512v168H0z"/><path fill="#338AF3" d="M338.5 181.7h-55l9.2-68.7 36.6-27.5L366 113v55zm-165 0h55l-9.2-68.7-36.6-27.5L146 113v55z"/><path fill="#0052B4" d="M292.7 181.7h-73.4V113L256 85.5l36.7 27.5z"/><path fill="#EEE" d="M146 168v110a110 110 0 0 0 220 0V168z"/><path fill="#EEE" d="M146 168v110a110 110 0 0 0 220 0V168z"/><path fill="#D80027" fill-rule="evenodd" d="M146 212h44v44h44v-44h-44v-44h-44zm88-44v44h44v44h44v-44h44v-44h-44v44h-44v-44zm132 88h-44v44h-44v-44h-44v44h44v44h-44v41.8q10.6 2.1 21.9 2.2h.2q11.3 0 21.9-2.2V344h44v22q12.5-9.5 22-22h-22v-44h41.8q2.1-10.7 2.2-22zM190 366v-22h44v-44h-44v-44h-44v22q0 11.3 2.2 22H190v44h-22q9.5 12.5 22 22" clip-rule="evenodd"/></svg>