<svg xmlns="http://www.w3.org/2000/svg" width="512" height="512" fill="none"><path fill="#EEE" d="M0 0h512v512H0z"/><path fill="#EEE" fill-rule="evenodd" d="M98.5 61.8v230.8a157.6 157.6 0 0 0 315 0V61.8z" clip-rule="evenodd"/><path fill="#496E2D" fill-rule="evenodd" d="M98.5 61.8v120.3l30.4-26.7V96.2h254.2v190c0 71.5-55.5 129.6-127.1 129.6s-127-58-127-129.7v-76.5H98.4v83a157.6 157.6 0 0 0 315 0V61.8z" clip-rule="evenodd"/><path fill="#333" fill-rule="evenodd" d="M179.8 128.2a37 37 0 0 0-36.2 29.5l-46.3 40.5h48.4v123.6a34.3 34.3 0 0 0 34.3 34.3 34.3 34.3 0 0 0 34.2-34.3v-12a74 74 0 0 0 88.7-3.6V322a32.4 32.4 0 1 0 64.8 0V165.2a32.4 32.4 0 0 0-55.4-22.8l-76 76.6 45.9 45.8 20.7-20.9v49.5l-88.7-88.7v-26a37 37 0 0 0-34.4-50.5m-24 37a24 24 0 1 1 48 0 24 24 0 0 1-48 0m45.4 30a37 37 0 0 1-37.9 3h-4.6v123.6c0 12 9.4 21.4 21.3 21.4s21.2-9.5 21.2-21.4v-23.3a74 74 0 0 1 0-100.5zm-55.5-15.7q-1-2.3-1.7-5l-12.2 10.8h14zm59.4 34.4 85.4 85.5a62 62 0 0 1-7.5 4.3l-43.2-43.2-9.2 9.2 38.8 38.7q-3.5.8-7 1.1l-35.8-35.7-9.2 9.2 25.4 25.3A61.5 61.5 0 0 1 205 214" clip-rule="evenodd"/></svg>