<svg xmlns="http://www.w3.org/2000/svg" width="512" height="512" fill="none"><path fill="#A2001D" d="M0 0h512v512H0z"/><path fill="#FFDA44" d="M0 0h512v48H0zm0 464h512v48H0zm200.3-274.8h111.4v-44.5l-22.3 11.1-33.4-33.4-33.4 33.4-22.3-11.1zM356.2 256h-55.7q3.4-5.7 3.5-12.8a25.7 25.7 0 0 0-48.3-12.1 25.7 25.7 0 1 0-45 24.9h-54.9c0 17 14.9 30.8 31.9 30.8h-1c0 14 9.2 25.8 22 29.6l-25 25 23.6 23.6 33.5-33.5q2 .8 4 1.1l-20.2 45.7a83 83 0 0 0 62.8 0l-20.2-45.7q2-.3 4-1.1l33.5 33.5 23.6-23.6-25-25a31 31 0 0 0 22-29.6h-1c17 0 31.9-13.8 31.9-30.8"/><path fill="#6DA544" d="m256 272.7-36.2 16.7v33.4L256 345l36.2-22.2v-33.4z"/><path fill="#0052B4" d="M219.8 256h72.4v44.5h-72.4z"/></svg>