<svg xmlns="http://www.w3.org/2000/svg" width="512" height="512" fill="none"><path fill="#D80027" d="M0 136h512v240H0z"/><path fill="#496E2D" d="M0 344h512v168H0z"/><path fill="#0052B4" d="M0 0h512v168H0z"/><path fill="#FFDA44" d="M398 256a168 168 0 1 1-336 0 168 168 0 0 1 336 0"/><path fill="#333" d="M230 80a176 176 0 1 0 0 352 176 176 0 0 0 0-352m-8 16v34c-8 4-14 8-15 16l-1 16 6-3 10-4v8a24 24 0 0 0-16 23 24 24 0 0 0 16 22v8h-20v16h20v8a24 24 0 0 0-16 22 24 24 0 0 0 16 23v7h-20v17h20v7a24 24 0 0 0-16 23 24 24 0 0 0 16 22v8c-10 0-18 3-23 7-7 5-22 20-30 28a160 160 0 0 1 53-308m16 0a160 160 0 0 1 51 309l-30-29c-5-4-12-6-21-7v-8a24 24 0 0 0 16-22 24 24 0 0 0-16-23v-7h21v-16h-21v-8a24 24 0 0 0 16-23 24 24 0 0 0-16-22v-8h21v-16h-21v-7a24 24 0 0 0 16-23 24 24 0 0 0-16-23v-20c6-5 11-13 17-23 4-8 2-11 2-11l-2 3-17 11z"/></svg>