<svg xmlns="http://www.w3.org/2000/svg" width="512" height="512" fill="none"><path fill="#EEE" d="M0 0h369.8v512H0z"/><path fill="#751A46" d="M200.3 0H512v512H200.3z"/><g fill="#751A46" clip-path="url(#a)"><path d="m96 0 104.3-28.4v56.8zm0 170.7 104.3-28.5v57zm0 170.6L200.3 313v56.9zm0-284.4 104.3-28.5v57z"/><path d="M96 227.6 200.3 199v57zm0 170.6 104.3-28.4v56.9zm0-284.4 104.3-28.5v57zm0 170.6L200.3 256v56.9zm0 170.7 104.3-28.4v56.9zm0 56.9 104.3-28.4v56.8z"/></g><defs><clipPath id="a"><path fill="#fff" d="M96 0h104.3v512H96z"/></clipPath></defs></svg>