<svg xmlns="http://www.w3.org/2000/svg" width="512" height="512" fill="none"><path fill="#496E2D" d="M512 0v512H0V0z"/><path fill="#0052B4" d="M0 512V0h512z"/><path fill="#FFDA44" d="M489.4 0H512v22.6L22.6 512H0v-22.6z"/><path fill="#EEE" d="M71.4 48 77 65h18L80.2 75.5l5.6 17L71.4 82 57 92.5l5.6-17L48 65h17.9zm91.3 0 5.6 17h17.9l-14.5 10.5 5.5 17L162.7 82l-14.4 10.5 5.5-17L139.3 65h18zm-91.3 89 5.5 17h18l-14.6 10.6 5.6 17L71.4 171 57 181.6l5.6-17L48 154h17.9zm91.3 0 5.6 17h17.9l-14.5 10.6 5.5 17-14.5-10.5-14.4 10.5 5.5-17-14.5-10.5h18zM117 92.5l5.6 17h17.9L126 120l5.5 17-14.4-10.5-14.5 10.5 5.5-17-14.4-10.5h17.8z"/></svg>