<svg xmlns="http://www.w3.org/2000/svg" width="512" height="512" fill="none"><path fill="#EEE" d="M0 136h512v240H0z"/><path fill="#026" d="M0 344h512v168H0z"/><path fill="#D80027" d="M0 0h512v168H0z"/><path fill="#026" d="M256 416a160 160 0 1 0 0-320 160 160 0 0 0 0 320"/><path fill="#EEE" d="M256 360a104 104 0 1 0 0-208 104 104 0 0 0 0 208"/><path fill="#EEE" d="m240 148.4 41.6-30h-51.2l41.6 30-16-48.8zM363.6 240l30 41.6v-51.2l-30 41.6 48.8-16zM272 363.6l-41.6 30h51.2l-41.6-30 16 48.8zM148.4 272l-30-41.6v51.2l30-41.6-48.8 16zm147.5-117.2 51.1-5.2-44.4-25.6 21.1 46.8 10.5-50.3zm61.3 141.1 5.2 51.1 25.6-44.4-46.8 21.1 50.2 10.5zm-141.1 61.3-51.1 5.2 44.4 25.6-21.1-46.8-10.5 50.2zm-61.3-141.1-5.2-51.1-25.6 44.4 46.8-21.1-50.2-10.5zm186.4-27.8 46.8 21.1-25.6-44.4-5.2 51.1 34.3-38.3zm-17.5 152.9L302.6 388l44.4-25.6-51.1-5.2 38.3 34.2zm-152.9-17.5L124 302.6l25.6 44.4 5.2-51.1-34.3 38.3zm17.5-152.9 21.1-46.8-44.4 25.6 51.1 5.2-38.3-34.2z"/><path fill="#338AF3" d="M256 168a88 88 0 0 0-74.9 42H331a88 88 0 0 0-75-42"/><path fill="#FF9811" d="M256 336a56 56 0 1 0 0-112 56 56 0 0 0 0 112"/><path fill="#EEE" d="M288 280a32 32 0 0 1-32 32l-16-32 16-32a32 32 0 0 1 32 32"/><path fill="#026" d="M256 248a32 32 0 0 0-32 32l16 16 16-16z"/><path fill="#D80027" d="M256 312a32 32 0 0 1-32-32h32z"/></svg>