<svg xmlns="http://www.w3.org/2000/svg" width="512" height="512" fill="none"><path fill="#0052B4" d="M0 0h512v512H0z"/><path fill="#EEE" d="M0 122.4V55.7h512v66.7zM0 256v-66.8h512V256zm0 133.6v-66.8h512v66.8zM0 512h512v-55.7H0z"/><path fill="#EEE" d="M0 0h256v256H0z"/><path fill="#FFC635" d="m128 48 21.6 58.4L208 128l-58.4 21.6L128 208l-21.6-58.4L48 128l58.4-21.6z"/><path fill="#85693D" d="M128 48v58.4h21.6L208 128h-58.4v21.6L128 208v-58.4h-21.6L48 128h58.4v-21.6z"/><path fill="#FFC635" d="m184.6 71.4-26 56.6 26 56.6-56.6-26-56.6 26 26-56.6-26-56.6 56.6 26z"/><path fill="#85693D" d="m184.6 71.4-41.3 41.3 15.3 15.3 26 56.6-41.3-41.3-15.3 15.3-56.6 26 41.3-41.3L97.4 128l-26-56.6 41.3 41.3L128 97.4z"/><circle cx="128" cy="128" r="40" fill="#FFC635"/></svg>