<svg xmlns="http://www.w3.org/2000/svg" width="512" height="512" fill="none"><path fill="#9C27B0" d="m0 425 256-32 256 32v87H0z"/><path fill="#0052B4" d="m0 340 256-32 256 32v85H0z"/><path fill="#6DA544" d="m0 255 256-32 256 32v85H0z"/><path fill="#FFDA44" d="m0 170 256-32 256 32v85H0z"/><path fill="#FF9811" d="m0 85 256-32 256 32v85H0z"/><path fill="#D80027" d="M0 0h512v85H0z"/><path fill="#333" d="M160 0H80l192 256L80 512h80l256-256z"/><path fill="#85693D" d="M80 0H0l192 256L0 512h80l256-256z"/><path fill="#338AF3" d="M0 0v80l112 176L0 432v80l256-256z"/><path fill="#F5A9B8" d="M0 80v80l32 96-32 96v80l176-176z"/><path fill="#EEE" d="M0 160v192l96-96z"/></svg>