<svg xmlns="http://www.w3.org/2000/svg" width="512" height="512" fill="none"><path fill="#EEE" d="M0 0h512v512H0z"/><path fill="#338AF3" d="M109.6 153.1A72 72 0 0 0 38 224.7a72 72 0 0 0 71.6 71.6 72 72 0 0 0 71.6-71.6 72 72 0 0 0-71.6-71.6m0 20c28.6 0 51.6 23 51.6 51.6s-23 51.6-51.6 51.6-51.6-23-51.6-51.6 23-51.6 51.6-51.6"/><path fill="#333" d="M256 153.1a72 72 0 0 0-71.6 71.6 72 72 0 0 0 71.6 71.6 72 72 0 0 0 71.6-71.6 72 72 0 0 0-71.6-71.6m0 20c28.6 0 51.6 23 51.6 51.6s-23 51.6-51.6 51.6-51.6-23-51.6-51.6 23-51.6 51.6-51.6"/><path fill="#D80027" d="M402.4 153.1a72 72 0 0 0-71.6 71.6 72 72 0 0 0 71.6 71.6 72 72 0 0 0 71.6-71.6 72 72 0 0 0-71.6-71.6m0 20c28.6 0 51.6 23 51.6 51.6s-23 51.6-51.6 51.6-51.6-23-51.6-51.6 23-51.6 51.6-51.6"/><path fill="#FFC635" d="M182.8 215.7a72 72 0 0 0-71.6 71.6 72 72 0 0 0 71.6 71.6 72 72 0 0 0 71.6-71.6 72 72 0 0 0-71.6-71.6m0 20c28.6 0 51.6 23 51.6 51.6s-23 51.6-51.6 51.6-51.6-23-51.6-51.6 23-51.6 51.6-51.6"/><path fill="#6DA544" d="M329.2 215.7a72 72 0 0 0-71.6 71.6 72 72 0 0 0 71.6 71.6 72 72 0 0 0 71.6-71.6 72 72 0 0 0-71.6-71.6m0 20c28.6 0 51.6 23 51.6 51.6s-23 51.6-51.6 51.6-51.6-23-51.6-51.6 23-51.6 51.6-51.6"/><path fill="#338AF3" d="m166.9 181.7-16 12a51.5 51.5 0 0 1 0 61.9l16 12a72 72 0 0 0 0-85.9"/><path fill="#333" d="m313.3 181.7-16 12a51.5 51.5 0 0 1 0 61.9l16 12a72 72 0 0 0 0-85.9M225 266l-12 16a72 72 0 0 0 43 14.3v-20c-11.2 0-22-3.6-31-10.3"/><path fill="#D80027" d="m371.4 266-12 16a72 72 0 0 0 43 14.3v-20c-11.2 0-22-3.6-31-10.3"/></svg>